<?xml version="1.0" encoding="UTF-8" standalone="no"?><!DOCTYPE svg PUBLIC "-//W3C//DTD SVG 1.1//EN" "http://www.w3.org/Graphics/SVG/1.1/DTD/svg11.dtd"><svg width="100%" height="100%" viewBox="0 0 250 120" version="1.1" xmlns="http://www.w3.org/2000/svg" xmlns:xlink="http://www.w3.org/1999/xlink" xml:space="preserve" xmlns:serif="http://www.serif.com/" style="fill-rule:evenodd;clip-rule:evenodd;stroke-linejoin:round;stroke-miterlimit:2;"><g><path d="M191.408,11.253c-1.213,0.291 -1.294,0.772 -0.243,1.443c1.963,1.258 4.087,2.127 6.374,2.608c0.945,0.201 1.009,0.556 0.193,1.065c-4.512,2.846 -9.085,5.759 -13.721,8.739c-1.107,0.713 -1.627,1.568 -1.82,2.793c-0.023,0.13 -0.139,0.227 -0.272,0.227c-0.083,-0 -0.161,-0.037 -0.214,-0.102l-13.544,-16.723c-0.565,-0.693 -0.409,-0.95 0.469,-0.771c4.621,0.939 8.32,-2.701 13.125,-2.785c2.34,-0.041 4.705,0.219 6.995,-0.662c0.286,-0.113 0.606,-0.113 0.897,-0c1.56,0.598 2.399,1.775 2.516,3.531c0.023,0.302 -0.111,0.486 -0.402,0.553l-0.353,0.084Z" style="fill:#370b08;fill-rule:nonzero;"/><path d="M168.555,29.829l0.226,2.458c0.028,0.262 0.174,0.408 0.436,0.436l5.049,0.503c0.276,0.03 0.487,0.263 0.487,0.537l-0.034,19.943c-0,0.409 -0.204,0.629 -0.612,0.663c-2.667,0.218 -7.624,-1.334 -8.915,1.618c-0.069,0.159 -0.227,0.263 -0.4,0.263c-0.098,-0 -0.194,-0.034 -0.271,-0.095c-2.052,-1.61 -3.986,-3.268 -5.804,-4.973c-1.409,-1.325 -2.088,-3.145 -3.329,-4.21c-0.883,-0.761 -1.91,-1.392 -3.078,-1.896c-0.721,-0.312 -1.082,-1.134 -0.822,-1.87c0.346,-1 0.17,-1.889 -0.528,-2.667c-0.218,-0.24 -0.224,-0.489 -0.017,-0.746c2.717,-3.355 2.944,-4.973 1.191,-8.949c-0.206,-0.469 -0.171,-1.009 0.092,-1.451c1.518,-2.541 2.659,-5.954 5.091,-7.682c1.185,-0.844 2.449,-1.557 3.79,-2.138c0.27,-0.12 0.453,-0.374 0.479,-0.663c0.044,-0.543 0.098,-1.266 0.159,-2.172c0.157,-2.164 1.515,-3.684 4.076,-4.562c0.184,-0.062 0.333,-0.015 0.444,0.142l11.834,15.918c0.019,0.024 0.03,0.054 0.03,0.085c-0,0.069 -0.054,0.127 -0.122,0.133l-9.05,0.889c-0.296,0.028 -0.43,0.19 -0.402,0.486Z" style="fill:#370b08;fill-rule:nonzero;"/><path d="M188.901,54.587c-0.365,-0.262 -0.872,-0.216 -1.183,0.109c-0.844,0.883 -1.856,1.199 -3.036,0.948c-0.296,-0.062 -0.517,-0.229 -0.662,-0.504c-0.696,-1.325 -1.493,-2.407 -1.451,-3.967c0.184,-6.021 0.288,-12.043 0.31,-18.064c0.006,-0.27 0.11,-0.527 0.294,-0.722c1.375,-1.425 1.66,-2.977 3.111,-4.21c4.328,-3.684 8.636,-7.38 12.924,-11.087c0.193,-0.166 0.447,-0.248 0.704,-0.226c3.07,0.293 3.313,0.889 5.98,-1.996c0.487,-0.526 1.079,-0.711 1.778,-0.554l3.388,0.755c0.694,0.151 0.783,0.472 0.269,0.964c-10.651,10.098 -17.218,25.177 -20.162,39.535c-0.078,0.375 -0.274,0.45 -0.587,0.227l-1.677,-1.208Z" style="fill:#370b08;fill-rule:nonzero;"/><path d="M215.445,17.711c-0.973,0.833 -2.111,1.109 -3.414,0.83c-0.194,-0.04 -0.334,-0.212 -0.334,-0.411c-0,-0.08 0.022,-0.158 0.066,-0.226l1.887,-3.07c0.212,-0.346 0.36,-0.321 0.444,0.076c0.061,0.257 0.179,0.484 0.353,0.679c0.207,0.232 0.524,0.338 0.83,0.277l1.14,-0.218c0.02,-0.004 0.041,-0.005 0.062,-0.005c0.198,-0 0.36,0.162 0.36,0.36c0,0.061 -0.015,0.12 -0.044,0.173l-0.403,0.696c-0.12,0.206 -0.095,0.465 0.059,0.638c0.128,0.145 0.182,0.316 0.159,0.511c-0.044,0.369 -0.165,0.394 -0.36,0.076c-0.078,-0.124 -0.16,-0.238 -0.244,-0.344c-0.173,-0.202 -0.36,-0.216 -0.561,-0.042Z" style="fill:#370b08;fill-rule:nonzero;"/><path d="M217.466,18.491c-0.069,-0 -0.126,-0.057 -0.126,-0.126l0.008,-0.076c0.024,-1.268 1.236,-2.291 2.684,-2.264l0.289,0c1.448,0.028 2.62,1.095 2.596,2.365l-0.008,0.076c-0,0.068 -0.057,0.125 -0.126,0.125l-5.317,-0.1Z" style="fill:#370b08;fill-rule:nonzero;"/><path d="M211.243,19.38l5.032,-0.076l0.008,0c0.263,0 0.478,0.216 0.478,0.478l-0.033,3.43c-0,0.263 -0.216,0.478 -0.478,0.478l-6.794,0c-0.261,-0 -0.476,-0.216 -0.476,-0.478c0,-0.078 0.019,-0.156 0.057,-0.226l1.786,-3.355c0.084,-0.154 0.245,-0.25 0.42,-0.251Z" style="fill:#370b08;fill-rule:nonzero;"/><path d="M225.165,23.69l-7.163,0c-0.29,0 -0.528,-0.238 -0.528,-0.528l-0.017,-3.254c0,-0.29 0.238,-0.528 0.529,-0.528l5.157,-0.034c0.187,-0.004 0.364,0.092 0.462,0.252l2.004,3.287c0.051,0.083 0.078,0.18 0.078,0.277c0,0.288 -0.235,0.525 -0.522,0.528Z" style="fill:#370b08;fill-rule:nonzero;"/><path d="M208.727,24.521l7.237,-0c0.437,-0 0.797,0.36 0.797,0.796l0,0.009l-0.017,2.675c-0.004,0.434 -0.363,0.789 -0.796,0.789l-8.11,-0.009c-0.437,-0.001 -0.796,-0.36 -0.796,-0.797c-0,-0.085 0.014,-0.17 0.041,-0.251l0.881,-2.667c0.109,-0.327 0.418,-0.549 0.763,-0.545Z" style="fill:#370b08;fill-rule:nonzero;"/><path d="M226.406,28.79l-8.177,-0.009c-0.411,0 -0.751,-0.335 -0.755,-0.746l-0.008,-2.751l-0,-0.008c-0,-0.415 0.34,-0.755 0.754,-0.755l7.859,0.008c0.381,-0.002 0.708,0.284 0.755,0.663l0.327,2.75c0.003,0.032 0.006,0.062 0.006,0.093c-0,0.414 -0.342,0.755 -0.755,0.755l-0.006,-0Z" style="fill:#370b08;fill-rule:nonzero;"/><path d="M216.744,33.318c0,0.354 -0.291,0.646 -0.645,0.646l-8.152,0c-0.354,0 -0.646,-0.292 -0.646,-0.646l0,-3.069c0,-0.354 0.292,-0.646 0.646,-0.646l8.152,0c0.354,0 0.645,0.292 0.645,0.646l0,3.069Z" style="fill:#370b08;fill-rule:nonzero;"/><path d="M227.001,33.369c0,0.326 -0.269,0.595 -0.595,0.595l-8.336,0c-0.327,0 -0.596,-0.269 -0.596,-0.595l0,-3.17c0,-0.327 0.269,-0.596 0.596,-0.596l8.336,0c0.326,0 0.595,0.269 0.595,0.596l0,3.17Z" style="fill:#370b08;fill-rule:nonzero;"/><path d="M230.608,33.318c0.056,0.072 0.086,0.161 0.086,0.252c-0,0.226 -0.185,0.411 -0.411,0.411l-0.011,-0l-1.87,-0.017c-0.32,-0.004 -0.583,-0.262 -0.587,-0.579l-0.051,-3.128c0,-0.251 0.112,-0.43 0.336,-0.537c0.179,-0.083 0.346,-0.086 0.503,-0.008c0.212,0.101 0.352,0.263 0.419,0.487c0.347,1.14 0.875,2.18 1.586,3.119Z" style="fill:#370b08;fill-rule:nonzero;"/><path d="M204.936,33.981c-0.08,-0.017 -0.132,-0.096 -0.117,-0.176l0.025,-0.143c0.384,-2.11 0.993,-3.792 1.35,-3.732l0.101,0.017c0.356,0.069 0.333,1.863 -0.051,3.975l-0.025,0.134c-0.011,0.074 -0.074,0.129 -0.149,0.129c-0.009,-0 -0.018,-0.001 -0.027,-0.003l-1.107,-0.201Z" style="fill:#370b08;fill-rule:nonzero;"/><path d="M180.33,33.486l1.149,17.914c0.011,0.129 -0.075,0.248 -0.202,0.277l-2.885,0.604c-0.019,0.004 -0.039,0.006 -0.058,0.006c-0.14,0 -0.255,-0.111 -0.26,-0.25l-0.42,-18.811l0,-0.002c0,-0.143 0.118,-0.26 0.26,-0.26c0.011,-0 0.023,0 0.034,0.002l2.155,0.285c0.121,0.015 0.216,0.113 0.227,0.235Z" style="fill:#370b08;fill-rule:nonzero;"/><path d="M226.993,38.585c-0,0.3 -0.246,0.545 -0.545,0.545l-8.42,0c-0.3,0 -0.546,-0.245 -0.546,-0.545l0,-3.321c0,-0.299 0.246,-0.545 0.546,-0.545l8.42,-0c0.299,-0 0.545,0.246 0.545,0.545l-0,3.321Z" style="fill:#370b08;fill-rule:nonzero;"/><path d="M203.385,39.063c-0.117,-0.015 -0.204,-0.116 -0.204,-0.233c-0,-0.012 0.001,-0.023 0.002,-0.035l0.025,-0.143c0.317,-2.243 0.992,-4.032 1.502,-3.975l1.3,0.176c0.51,0.072 0.669,1.987 0.352,4.242l-0,0.002l-0.025,0.142c-0.018,0.126 -0.135,0.217 -0.26,0.202l-2.692,-0.378Z" style="fill:#370b08;fill-rule:nonzero;"/><path d="M216.722,38.602c-0.001,0.303 -0.251,0.551 -0.554,0.551l-0.001,-0l-8.27,-0.029c-0.303,-0.001 -0.552,-0.251 -0.551,-0.555l0.011,-3.304c0.001,-0.304 0.251,-0.552 0.554,-0.552l0.001,0l8.27,0.029c0.303,0.001 0.552,0.251 0.552,0.556l-0.012,3.304Z" style="fill:#370b08;fill-rule:nonzero;"/><path d="M227.915,38.845l-0.117,-3.816l0,-0.008c0,-0.148 0.121,-0.269 0.268,-0.269l3.38,0.034c0.103,-0.001 0.198,0.058 0.243,0.151l1.837,3.833c0.018,0.037 0.027,0.076 0.027,0.117c-0,0.148 -0.121,0.268 -0.268,0.268l-0.002,0l-5.099,-0.05c-0.144,0 -0.264,-0.116 -0.269,-0.26Z" style="fill:#370b08;fill-rule:nonzero;"/><path d="M207.838,39.961c2.784,-0.109 5.787,-0.193 8.353,0.151c0.19,0.022 0.268,0.156 0.235,0.402c-0.024,0.152 -0.154,0.268 -0.311,0.277c-2.845,0.173 -5.608,0.746 -8.286,1.719c-0.324,0.118 -0.483,0.006 -0.478,-0.335l0,-1.72c0,-0.265 0.218,-0.485 0.487,-0.494Z" style="fill:#370b08;fill-rule:nonzero;"/><path d="M226.985,43.818l0,0.003c0,0.234 -0.192,0.427 -0.426,0.428l-8.62,0.045l-0.003,-0c-0.234,-0 -0.427,-0.192 -0.428,-0.425l-0.018,-3.472l0,-0.003c0,-0.234 0.192,-0.427 0.426,-0.428l8.621,-0.045l0.002,0c0.234,0 0.427,0.192 0.428,0.425l0.018,3.472Z" style="fill:#370b08;fill-rule:nonzero;"/><path d="M236.747,44.213l-7.984,0.05c-0.487,0.005 -0.893,-0.387 -0.906,-0.872l-0.059,-2.55l0,-0.025c0,-0.492 0.405,-0.897 0.897,-0.897l0.009,-0l5.728,0.075c0.241,0.003 0.47,0.102 0.637,0.277l2.323,2.424c0.161,0.166 0.249,0.389 0.249,0.62c0,0.492 -0.403,0.896 -0.894,0.898Z" style="fill:#370b08;fill-rule:nonzero;"/><path d="M202.127,44.489c-0.38,0.045 -0.523,-0.117 -0.428,-0.486l0.838,-3.313c0.099,-0.39 0.448,-0.667 0.848,-0.671l2.532,-0.05c0.291,-0.005 0.536,0.229 0.545,0.52l0.051,1.879c0.006,0.251 -0.095,0.447 -0.302,0.587c-1.241,0.838 -2.603,1.35 -4.084,1.534Z" style="fill:#370b08;fill-rule:nonzero;"/><path d="M214.807,43.776l1.308,-2.096c0.06,-0.097 0.166,-0.158 0.281,-0.158c0.162,0 0.301,0.122 0.323,0.284c0.095,0.648 0.09,1.291 -0.016,1.929c-0.071,0.412 -0.437,0.714 -0.856,0.704l-0.696,-0.017c-0.492,-0.017 -0.606,-0.232 -0.344,-0.646Z" style="fill:#370b08;fill-rule:nonzero;"/><path d="M211.922,48.985l1.937,-3.623c0.063,-0.12 0.185,-0.197 0.319,-0.202l2.164,-0.042l0.008,0c0.207,0 0.378,0.171 0.378,0.378l0.016,3.648c0,0.207 -0.17,0.377 -0.377,0.377l-4.118,0.017c-0.204,-0.003 -0.37,-0.173 -0.37,-0.377c-0,-0.062 0.015,-0.122 0.043,-0.176Z" style="fill:#370b08;fill-rule:nonzero;"/><path d="M226.982,48.985l0,0.001c0,0.285 -0.234,0.519 -0.518,0.52l-8.454,0.03l-0.002,0c-0.284,0 -0.519,-0.234 -0.52,-0.518l-0.011,-3.321l-0,-0.002c-0,-0.285 0.234,-0.519 0.518,-0.52l8.454,-0.03l0.001,0c0.285,0 0.519,0.234 0.52,0.518l0.012,3.322Z" style="fill:#370b08;fill-rule:nonzero;"/><path d="M237.412,49.068l0,0.001c0,0.243 -0.2,0.444 -0.444,0.445l-8.722,0.015c-0.244,-0 -0.445,-0.201 -0.445,-0.444l-0.006,-3.455l-0,-0.001c-0,-0.243 0.2,-0.444 0.443,-0.444l8.722,-0.016l0.001,0c0.244,0 0.445,0.201 0.445,0.444l0.006,3.455Z" style="fill:#370b08;fill-rule:nonzero;"/><path d="M247.549,45.823l0.058,2.851c0.011,0.571 -0.268,0.856 -0.838,0.856l-8.035,-0.017c-0.363,-0 -0.545,-0.185 -0.545,-0.554l0.017,-1.962c0.006,-0.302 0.151,-0.4 0.436,-0.294c2.298,0.864 5.435,-1.073 7.858,-1.685c0.067,-0.016 0.134,-0.025 0.202,-0.025c0.457,0 0.837,0.372 0.847,0.83Z" style="fill:#370b08;fill-rule:nonzero;"/><path d="M249.989,45.403l-0.99,3.523c-0.031,0.122 -0.141,0.21 -0.268,0.21c-0.152,-0 -0.277,-0.125 -0.277,-0.277l0,-0.009l0.042,-3.522c0.004,-0.146 0.123,-0.264 0.269,-0.268l0.956,-0.009l0.002,0c0.152,0 0.277,0.125 0.277,0.277c0,0.025 -0.004,0.051 -0.011,0.075Z" style="fill:#370b08;fill-rule:nonzero;"/><path d="M211.478,50.343l4.872,0c0.221,0 0.403,0.182 0.403,0.403l-0.017,3.572c0,0.221 -0.182,0.403 -0.402,0.403l-6.483,-0.008c-0.219,-0.003 -0.398,-0.184 -0.398,-0.403c0,-0.058 0.013,-0.115 0.037,-0.168l1.619,-3.564c0.066,-0.144 0.21,-0.236 0.369,-0.235Z" style="fill:#370b08;fill-rule:nonzero;"/><path d="M227.004,54.117l-0,0.001c-0,0.322 -0.264,0.587 -0.586,0.587l-8.353,0.015l-0.001,0c-0.322,0 -0.587,-0.265 -0.587,-0.586l-0.005,-3.204l-0,-0.001c-0,-0.322 0.264,-0.587 0.585,-0.587l8.353,-0.015l0.002,0c0.321,0 0.586,0.265 0.587,0.587l0.005,3.203Z" style="fill:#370b08;fill-rule:nonzero;"/><path d="M237.418,54.176c-0,0.294 -0.243,0.537 -0.537,0.537l-8.555,-0c-0.294,-0 -0.536,-0.243 -0.536,-0.537l-0,-3.288c-0,-0.294 0.242,-0.536 0.536,-0.536l8.555,-0c0.294,-0 0.537,0.242 0.537,0.536l-0,3.288Z" style="fill:#370b08;fill-rule:nonzero;"/><path d="M244.907,54.713l-6.139,-0c-0.318,-0 -0.579,-0.261 -0.579,-0.579l0.025,-3.212c0,-0.318 0.261,-0.579 0.579,-0.579l8.329,0c0.317,0 0.578,0.261 0.578,0.579c0,0.116 -0.035,0.231 -0.101,0.327l-2.214,3.212c-0.108,0.158 -0.287,0.252 -0.478,0.252Z" style="fill:#370b08;fill-rule:nonzero;"/><path d="M195.912,78.757c0.008,-0.006 0.016,-0.012 0.024,-0.017c0.341,-0.265 0.402,-0.768 0.134,-1.113c-0.005,-0.006 -0.01,-0.013 -0.015,-0.019c-1.236,-1.499 -1.7,-3.214 -1.393,-5.149c0.045,-0.279 0.006,-0.548 -0.117,-0.805c-1.364,-2.874 -3.215,-5.368 -5.552,-7.481c-0.201,-0.185 -0.274,-0.414 -0.218,-0.688l1.048,-5.267c0.033,-0.145 0.12,-0.271 0.244,-0.352c3.063,-2.013 6.306,-3.665 9.728,-4.956c0.325,-0.124 0.447,-0.017 0.369,0.318c-2.522,11.014 -2.971,22.116 -1.35,33.304c0.044,0.312 -0.078,0.402 -0.369,0.268c-1.728,-0.794 -3.235,-0.545 -4.521,0.746c-0.245,0.246 -0.427,0.208 -0.545,-0.117c-1.285,-3.663 -0.442,-6.553 2.533,-8.672Z" style="fill:#370b08;fill-rule:nonzero;"/><path d="M216.3,59.77l-8.387,-0c-0.236,-0.004 -0.429,-0.2 -0.429,-0.436c-0,-0.051 0.009,-0.103 0.027,-0.151l1.291,-3.439c0.063,-0.172 0.228,-0.286 0.411,-0.285l7.137,0.05c0.236,0.005 0.428,0.2 0.428,0.436l-0.042,3.397c-0.004,0.236 -0.2,0.428 -0.436,0.428Z" style="fill:#370b08;fill-rule:nonzero;"/><path d="M226.985,59.233c-0,0.29 -0.239,0.528 -0.529,0.528l-8.454,0c-0.29,0 -0.528,-0.238 -0.528,-0.528l0,-3.204c0,-0.29 0.238,-0.528 0.528,-0.528l8.454,-0c0.29,-0 0.529,0.238 0.529,0.528l-0,3.204Z" style="fill:#370b08;fill-rule:nonzero;"/><path d="M237.403,59.283l0,0.001c0,0.258 -0.211,0.469 -0.469,0.47l-8.671,0.015l-0.001,-0c-0.257,-0 -0.469,-0.211 -0.47,-0.469l-0.005,-3.304l0,-0.001c0,-0.257 0.211,-0.469 0.469,-0.47l8.672,-0.015l0.001,0c0.256,0 0.468,0.212 0.469,0.469l0.005,3.304Z" style="fill:#370b08;fill-rule:nonzero;"/><path d="M239.246,59.862c-0.705,0.252 -1.057,0.003 -1.057,-0.746l0.017,-2.533c0.006,-0.705 0.363,-1.059 1.073,-1.065l5.242,-0.025c0.241,0.004 0.437,0.203 0.437,0.444c-0,0.112 -0.042,0.22 -0.118,0.302c-1.549,1.644 -3.414,2.851 -5.594,3.623Z" style="fill:#370b08;fill-rule:nonzero;"/><path d="M216.75,64.315c-0.001,0.354 -0.292,0.645 -0.647,0.644l-8.202,-0.013c-0.353,-0.001 -0.644,-0.293 -0.644,-0.646l-0,-0.001l0.005,-3.07c0.001,-0.354 0.292,-0.645 0.647,-0.645l8.201,0.014c0.354,0.001 0.645,0.293 0.645,0.646l0,0.002l-0.005,3.069Z" style="fill:#370b08;fill-rule:nonzero;"/><path d="M227.007,64.382c-0.001,0.322 -0.266,0.587 -0.587,0.587l-0.001,-0l-8.354,-0.015c-0.321,-0 -0.585,-0.265 -0.585,-0.587l-0,-0.001l0.005,-3.187c0.001,-0.321 0.266,-0.586 0.587,-0.586l0.002,-0l8.352,0.015c0.322,-0 0.586,0.265 0.586,0.587l0,0.001l-0.005,3.186Z" style="fill:#370b08;fill-rule:nonzero;"/><path d="M234.7,64.97l-5.887,-0.017c-0.526,-0 -0.96,-0.43 -0.965,-0.956l-0.016,-2.432l-0,-0.009c-0,-0.529 0.435,-0.964 0.964,-0.964l7.875,0.008l0.003,0c0.529,0 0.964,0.435 0.964,0.965c0,0.219 -0.075,0.432 -0.212,0.603l-1.971,2.441c-0.184,0.229 -0.461,0.361 -0.755,0.361Z" style="fill:#370b08;fill-rule:nonzero;"/><path d="M10.492,79.176l-4.152,7.968c-0.044,0.088 -0.135,0.143 -0.234,0.142l-5.636,0.017c-0.141,-0.003 -0.254,-0.119 -0.254,-0.26c-0,-0.041 0.009,-0.081 0.027,-0.117l13.31,-25.487c0.044,-0.088 0.136,-0.144 0.235,-0.143l7.531,0.009c0.099,-0.001 0.19,0.054 0.235,0.142l13.293,25.445c0.018,0.036 0.027,0.077 0.027,0.118c0,0.141 -0.113,0.256 -0.254,0.26l-5.619,0.033c-0.099,0.001 -0.19,-0.054 -0.235,-0.142l-4.168,-7.985c-0.044,-0.088 -0.136,-0.143 -0.235,-0.142l-13.636,-0c-0.099,-0.001 -0.191,0.054 -0.235,0.142Zm1.954,-3.757c-0.023,0.041 -0.035,0.087 -0.035,0.134c0,0.152 0.125,0.277 0.277,0.277l0.001,0l9.695,0.017l0.009,-0c0.153,-0 0.277,-0.125 0.277,-0.277c0,-0.047 -0.012,-0.093 -0.034,-0.134l-4.831,-9.284c-0.047,-0.093 -0.143,-0.153 -0.247,-0.153c-0.105,0 -0.201,0.06 -0.248,0.153l-4.864,9.267Z" style="fill:#370b08;fill-rule:nonzero;"/><path d="M44.894,65.062l-0.017,5.728c-0,0.184 0.152,0.335 0.335,0.335l19.466,-0.033c0.184,-0 0.335,0.152 0.335,0.335l0.025,2.81c0,0.183 -0.151,0.335 -0.335,0.335l-19.482,-0.025c-0.184,0 -0.336,0.152 -0.336,0.336l0,12.093c0,0.184 -0.151,0.336 -0.335,0.336l-5.46,-0.026c-0.183,0 -0.335,-0.151 -0.335,-0.335l-0.009,-25.328c0,-0.183 0.152,-0.335 0.336,-0.335l28.103,-0c0.184,-0 0.336,0.152 0.336,0.335l-0,2.768c-0,0.184 -0.152,0.335 -0.336,0.335l-21.956,0c-0.183,0 -0.335,0.152 -0.335,0.336Z" style="fill:#370b08;fill-rule:nonzero;"/><path d="M78.625,76.258l0.033,10.768c0,0.157 -0.078,0.235 -0.234,0.235l-5.871,0.051c-0.107,-0 -0.159,-0.053 -0.159,-0.16l-0,-25.512c-0,-0.189 0.151,-0.344 0.335,-0.344c7.045,-0.011 14.121,-0.008 21.227,0.009c2.683,-0 6.583,-0.143 8.403,2.188c1.266,1.627 1.032,4.512 0.956,6.601c-0.218,6.298 -5.149,5.678 -9.728,5.753c-0.392,0.006 -0.445,0.143 -0.16,0.411l11.398,10.877c0.007,0.007 0.013,0.016 0.017,0.025c0.017,0.037 -0.005,0.084 -0.047,0.102c-0.009,0.004 -0.019,0.007 -0.029,0.008l-7.028,0.05c-0.145,-0 -0.268,-0.05 -0.369,-0.151l-11.473,-11.003c-0.218,-0.207 -0.475,-0.311 -0.772,-0.311l-6.105,0.009c-0.262,-0 -0.394,0.131 -0.394,0.394Zm18.434,-10.752c-0,-0.423 -0.348,-0.771 -0.772,-0.771l-16.924,-0c-0.424,-0 -0.772,0.348 -0.772,0.771l0,6.223c0,0.424 0.348,0.772 0.772,0.772l16.924,-0c0.424,-0 0.772,-0.348 0.772,-0.772l-0,-6.223Z" style="fill:#370b08;fill-rule:nonzero;"/><path d="M115.174,87.01c-0,0.156 -0.128,0.285 -0.285,0.285l-5.569,-0c-0.157,-0 -0.285,-0.129 -0.285,-0.285l-0,-25.412c-0,-0.157 0.128,-0.285 0.285,-0.285l5.569,-0c0.157,-0 0.285,0.128 0.285,0.285l-0,25.412Z" style="fill:#370b08;fill-rule:nonzero;"/><path d="M127.1,82.749c-0,0.64 0.53,1.166 1.174,1.166l21.126,0.008l0.004,0c0.189,0.003 0.342,0.156 0.34,0.34l-0,0.004l-0.034,2.734c0,0.196 -0.101,0.294 -0.302,0.294c-6.994,-0.006 -14.014,0.019 -21.059,0.075c-3.422,0.025 -7.43,-1.056 -7.422,-5.183c0.011,-5.311 0.028,-10.623 0.05,-15.934c0.017,-3.934 3.984,-5.091 7.574,-5.074c7.011,0.039 13.957,0.086 20.84,0.142c0.241,0.006 0.358,0.126 0.353,0.361l-0.034,2.667c-0.004,0.204 -0.177,0.369 -0.386,0.369l-20.941,0.008c-0.7,0 -1.275,0.576 -1.275,1.275l-0.008,16.748Z" style="fill:#370b08;fill-rule:nonzero;"/><path d="M163.875,79.168l-4.193,8.001c-0.043,0.081 -0.127,0.132 -0.218,0.134l-5.645,0c-0.136,-0.002 -0.247,-0.115 -0.247,-0.251c0,-0.042 0.01,-0.082 0.029,-0.118l13.302,-25.487c0.042,-0.081 0.126,-0.132 0.218,-0.134l7.556,-0.017c0.091,0.002 0.175,0.053 0.218,0.134l13.301,25.471c0.02,0.036 0.03,0.076 0.03,0.117c-0,0.137 -0.111,0.249 -0.248,0.252l-5.627,0.058c-0.095,0.002 -0.182,-0.05 -0.227,-0.134l-4.168,-8.026c-0.043,-0.081 -0.126,-0.132 -0.218,-0.134l-13.645,-0c-0.091,0.002 -0.175,0.053 -0.218,0.134Zm1.946,-3.732c-0.02,0.039 -0.03,0.082 -0.03,0.126c-0,0.151 0.122,0.275 0.273,0.277l9.695,-0c0.151,-0.002 0.273,-0.126 0.273,-0.277c0,-0.044 -0.01,-0.087 -0.03,-0.126l-4.847,-9.292c-0.049,-0.089 -0.142,-0.145 -0.244,-0.145c-0.101,-0 -0.194,0.056 -0.243,0.145l-4.847,9.292Z" style="fill:#370b08;fill-rule:nonzero;"/><path d="M206.429,64.366c-0.034,0.184 -0.078,0.358 -0.134,0.52c-0.218,0.654 -0.336,0.637 -0.353,-0.051l-0.016,-1.098c-0.005,-0.073 0.015,-0.145 0.057,-0.202c0.102,-0.141 0.313,-0.166 0.465,-0.055c0.062,0.045 0.109,0.109 0.132,0.181c0.011,0.028 -0.006,0.092 -0.05,0.193c-0.011,0.028 -0.045,0.199 -0.101,0.512Z" style="fill:#370b08;fill-rule:nonzero;"/><path d="M204.919,70.211c-0.186,-0.022 -0.321,-0.191 -0.302,-0.377l0.017,-0.16c0.269,-2.219 0.809,-4.005 1.197,-3.958l0.002,-0l0.319,0.033c0.388,0.047 0.487,1.913 0.218,4.133l0,0.002l-0.025,0.159c-0.022,0.187 -0.191,0.322 -0.377,0.302l-1.049,-0.134Z" style="fill:#370b08;fill-rule:nonzero;"/><path d="M216.718,69.615c-0,0.266 -0.22,0.484 -0.486,0.484l-0.002,-0l-8.404,-0.044c-0.267,-0.001 -0.485,-0.222 -0.483,-0.489l0.018,-3.371c0,-0.266 0.22,-0.484 0.486,-0.484l0.003,-0l8.402,0.044c0.268,0.001 0.486,0.222 0.484,0.488l-0.018,3.372Z" style="fill:#370b08;fill-rule:nonzero;"/><path d="M226.999,69.599c-0.001,0.262 -0.217,0.477 -0.478,0.477l-0.002,0l-8.57,-0.015c-0.263,0 -0.478,-0.216 -0.478,-0.478l-0,-0.001l0.006,-3.371c0,-0.262 0.216,-0.477 0.478,-0.477l0,-0l8.572,0.015c0.262,-0 0.478,0.216 0.478,0.478l-0,0.001l-0.006,3.371Z" style="fill:#370b08;fill-rule:nonzero;"/><path d="M232.511,68.031c-0.151,0.514 -0.215,1.04 -0.193,1.576c0.011,0.269 -0.117,0.405 -0.385,0.411l-3.732,0.084c-0.184,0 -0.336,-0.147 -0.336,-0.327l-0.033,-3.648c-0,-0.229 0.111,-0.344 0.335,-0.344l5.887,-0.067c0.036,-0.001 0.071,0.004 0.104,0.015c0.156,0.054 0.241,0.23 0.187,0.391c-0.011,0.032 -0.027,0.062 -0.047,0.089c-0.363,0.464 -0.795,0.853 -1.292,1.165c-0.246,0.157 -0.411,0.375 -0.495,0.655Z" style="fill:#370b08;fill-rule:nonzero;"/><path d="M203.795,74.748l0.462,-3.262c0.031,-0.206 0.189,-0.371 0.394,-0.411l1.25,-0.26c0.032,-0.007 0.067,-0.01 0.1,-0.01c0.269,-0 0.492,0.219 0.495,0.488l0.025,3.439c0.005,0.268 -0.21,0.494 -0.478,0.503l-1.736,0.075c-0.007,0 -0.014,0.001 -0.022,0.001c-0.271,0 -0.495,-0.224 -0.495,-0.495c0,-0.022 0.002,-0.045 0.005,-0.068Z" style="fill:#370b08;fill-rule:nonzero;"/><path d="M216.722,74.74c-0.001,0.285 -0.237,0.518 -0.522,0.517l-8.336,-0.028c-0.285,-0.002 -0.519,-0.237 -0.518,-0.523l0.011,-3.37c0.001,-0.286 0.237,-0.519 0.522,-0.518l8.336,0.028c0.285,0.002 0.519,0.237 0.519,0.523l-0.012,3.37l-0,0.001Z" style="fill:#370b08;fill-rule:nonzero;"/><path d="M227.001,74.723c0,0.281 -0.23,0.512 -0.511,0.512l-8.504,-0c-0.281,-0 -0.512,-0.231 -0.512,-0.512l0,-3.354c0,-0.281 0.231,-0.512 0.512,-0.512l8.504,-0c0.281,-0 0.511,0.231 0.511,0.512l0,3.354Z" style="fill:#370b08;fill-rule:nonzero;"/><path d="M232.981,75.243l-4.764,-0.017c-0.157,0 -0.289,-0.127 -0.293,-0.285l-0.101,-3.757l0,-0.008c0,-0.161 0.133,-0.294 0.294,-0.294l3.941,-0.025c0.139,-0.003 0.262,0.091 0.294,0.226l0.914,3.8c0.005,0.021 0.008,0.044 0.008,0.067c-0,0.161 -0.132,0.293 -0.293,0.293Z" style="fill:#370b08;fill-rule:nonzero;"/><path d="M216.722,80.024c-0.001,0.279 -0.232,0.509 -0.512,0.509l-0.001,-0l-8.37,-0.029c-0.28,-0.002 -0.51,-0.232 -0.51,-0.511l-0,-0.003l0.012,-3.455c0,-0.28 0.231,-0.509 0.511,-0.509l0.002,-0l8.37,0.028c0.28,0.002 0.51,0.232 0.51,0.512l-0,0.002l-0.012,3.456Z" style="fill:#370b08;fill-rule:nonzero;"/><path d="M226.985,80.015c-0,0.276 -0.228,0.503 -0.504,0.503l-8.504,0c-0.276,0 -0.503,-0.227 -0.503,-0.503l0,-3.472c0,-0.276 0.227,-0.503 0.503,-0.503l8.504,-0c0.276,-0 0.504,0.227 0.504,0.503l-0,3.472Z" style="fill:#370b08;fill-rule:nonzero;"/><path d="M233.895,80.518l-5.535,0.009c-0.237,-0 -0.435,-0.191 -0.445,-0.428l-0.109,-3.573l0,-0.016c0,-0.245 0.201,-0.445 0.445,-0.445l6.063,0.017c0.242,0.003 0.439,0.203 0.439,0.444c0,0.017 -0.001,0.034 -0.002,0.051l-0.42,3.547c-0.025,0.222 -0.213,0.392 -0.436,0.394Z" style="fill:#370b08;fill-rule:nonzero;"/><path d="M206.504,76.518l-0.008,3.506c-0,0.275 -0.227,0.503 -0.503,0.503l-2.24,-0c-0.276,-0 -0.503,-0.228 -0.503,-0.503c-0,-0.011 -0,-0.023 0,-0.034l0.227,-3.363c0.016,-0.248 0.213,-0.45 0.461,-0.47l2.03,-0.142c0.011,-0.001 0.022,-0.001 0.033,-0.001c0.276,-0 0.503,0.227 0.503,0.503l0,0.001Z" style="fill:#370b08;fill-rule:nonzero;"/><path d="M206.49,85.196c-0.002,0.29 -0.243,0.526 -0.533,0.524l-2.315,-0.02c-0.288,-0.003 -0.523,-0.241 -0.523,-0.529l-0,-0.005l0.028,-3.303c0.003,-0.29 0.243,-0.527 0.534,-0.524l2.314,0.02c0.288,0.002 0.524,0.24 0.524,0.528l-0,0.005l-0.029,3.304Z" style="fill:#370b08;fill-rule:nonzero;"/><path d="M216.739,85.139l-0,0.001c-0,0.309 -0.253,0.562 -0.561,0.562l-8.303,0.015c-0.308,0 -0.562,-0.253 -0.563,-0.561l-0.005,-3.237l-0,-0.001c-0,-0.309 0.252,-0.562 0.56,-0.562l8.303,-0.015c0.309,0 0.563,0.253 0.564,0.561l0.005,3.237Z" style="fill:#370b08;fill-rule:nonzero;"/><path d="M226.993,85.165c-0,0.299 -0.246,0.545 -0.545,0.545l-8.437,-0c-0.3,-0 -0.545,-0.246 -0.545,-0.545l-0,-3.271c-0,-0.3 0.245,-0.545 0.545,-0.545l8.437,-0c0.299,-0 0.545,0.245 0.545,0.545l-0,3.271Z" style="fill:#370b08;fill-rule:nonzero;"/><path d="M232.755,85.726l-4.345,-0.041c-0.314,-0.005 -0.57,-0.265 -0.57,-0.579l-0.017,-3.17c0,-0.318 0.261,-0.579 0.579,-0.579l5.795,-0.008c0.317,-0 0.578,0.261 0.578,0.578c-0,0.081 -0.017,0.161 -0.05,0.235l-1.442,3.221c-0.092,0.208 -0.3,0.343 -0.528,0.343Z" style="fill:#370b08;fill-rule:nonzero;"/><path d="M206.54,90.192l0,0.013c0,0.294 -0.238,0.538 -0.532,0.545l-2.197,0.05l-0.012,-0c-0.295,-0 -0.539,-0.239 -0.545,-0.533l-0.073,-3.236l-0,-0.013c-0,-0.294 0.238,-0.538 0.532,-0.545l2.197,-0.05l0.012,0c0.295,0 0.539,0.239 0.545,0.533l0.073,3.236Z" style="fill:#370b08;fill-rule:nonzero;"/><path d="M216.736,90.238c0,0.3 -0.246,0.546 -0.545,0.546l-8.336,-0c-0.3,-0 -0.546,-0.246 -0.546,-0.546l0,-3.22c0,-0.299 0.246,-0.545 0.546,-0.545l8.336,-0c0.299,-0 0.545,0.246 0.545,0.545l0,3.22Z" style="fill:#370b08;fill-rule:nonzero;"/><path d="M226.998,90.146l-0,0.003c-0,0.33 -0.271,0.602 -0.601,0.604l-8.32,0.028l-0.002,0c-0.331,0 -0.603,-0.271 -0.604,-0.601l-0.01,-3.087l-0,-0.002c-0,-0.33 0.271,-0.602 0.601,-0.604l8.32,-0.028l0.002,-0c0.33,-0 0.602,0.27 0.603,0.601l0.011,3.086Z" style="fill:#370b08;fill-rule:nonzero;"/><path d="M230.868,86.523c0.218,-0.084 0.421,-0.067 0.612,0.051c0.087,0.051 0.142,0.145 0.142,0.246c-0,0.14 -0.104,0.261 -0.243,0.282c-1.14,0.207 -2.169,0.677 -3.086,1.409c-0.064,0.052 -0.144,0.08 -0.227,0.08c-0.198,0 -0.36,-0.163 -0.36,-0.36l-0,-0.014l0.042,-0.998c0.016,-0.375 0.209,-0.595 0.578,-0.662c0.85,-0.157 1.697,-0.168 2.542,-0.034Z" style="fill:#370b08;fill-rule:nonzero;"/><path d="M194,89.752c0.587,-1.484 2.382,-2.885 3.992,-1.786c3.807,2.608 -1.786,7.606 -3.791,2.952c-0.1,-0.241 -0.285,-0.361 -0.553,-0.361l-193.237,-0.008c-0.168,-0 -0.252,-0.084 -0.252,-0.252l0,-0.218c0,-0.033 0.017,-0.05 0.051,-0.05l193.379,-0c0.182,-0 0.345,-0.111 0.411,-0.277Z" style="fill:#370b08;fill-rule:nonzero;"/><path d="M206.513,92.092l-0,3.38c-0,0.266 -0.22,0.486 -0.487,0.486l-1.518,-0.008c-0.234,-0.001 -0.437,-0.171 -0.478,-0.403l-0.578,-3.354c-0.005,-0.028 -0.008,-0.057 -0.008,-0.084c0,-0.264 0.214,-0.482 0.477,-0.487l2.097,-0.017l0.008,0c0.267,0 0.487,0.22 0.487,0.487Z" style="fill:#370b08;fill-rule:nonzero;"/><path d="M216.747,95.354l-0,0.001c-0,0.313 -0.257,0.57 -0.569,0.57l-8.303,0.016l-0.001,-0c-0.312,-0 -0.57,-0.258 -0.57,-0.57l-0.005,-3.17l-0,-0.001c-0,-0.313 0.256,-0.57 0.569,-0.57l8.302,-0.015l0.002,-0c0.312,-0 0.569,0.257 0.57,0.569l0.005,3.17Z" style="fill:#370b08;fill-rule:nonzero;"/><path d="M226.515,95.908l-8.303,0.033l-0.008,0c-0.405,0 -0.738,-0.333 -0.738,-0.738l-0.009,-2.851l0,-0.008c0,-0.406 0.333,-0.739 0.738,-0.739l7.766,0.009c0.351,0.002 0.654,0.251 0.722,0.595l0.553,2.818c0.009,0.047 0.014,0.095 0.014,0.143c0,0.403 -0.332,0.736 -0.735,0.738Z" style="fill:#370b08;fill-rule:nonzero;"/><path d="M206.152,111.75c-1.403,0.459 -2.606,0.129 -3.606,-0.989c-0.191,-0.213 -0.3,-0.464 -0.327,-0.755c-0.112,-1.443 -0.392,-2.824 -0.839,-4.143c-0.704,-2.08 -2.566,-3.707 -3.673,-5.854c-0.099,-0.197 -0.139,-0.419 -0.118,-0.637c0.135,-1.588 -0.016,-3.14 -0.453,-4.655c-0.094,-0.336 0.02,-0.564 0.344,-0.688c0.811,-0.302 1.546,-0.732 2.206,-1.291c0.246,-0.207 0.405,-0.154 0.478,0.159c1.705,7.436 4.772,14.251 9.2,20.447c0.235,0.324 0.191,0.369 -0.134,0.134l-2.172,-1.585c-0.274,-0.201 -0.576,-0.249 -0.906,-0.143Z" style="fill:#370b08;fill-rule:nonzero;"/><path d="M3.741,96.21l-0.026,10.911c0,0.377 0.315,0.687 0.696,0.687l9.637,0.017c0.474,0 0.864,-0.39 0.864,-0.864l-0,-0.008l-0.026,-4.252c-0.006,-0.564 -0.287,-0.845 -0.847,-0.839l-2.491,0.017c-0.279,0 -0.419,-0.137 -0.419,-0.411l-0.017,-1.233c0,-0.279 0.143,-0.419 0.428,-0.419l6.718,-0.025c0.291,-0 0.433,0.142 0.428,0.428c-0.017,1.996 -0.04,3.964 -0.068,5.904c-0.05,4.294 -2.918,3.799 -6.55,3.891c-2.605,0.061 -5.216,0.042 -7.833,-0.059c-3.161,-0.125 -4.243,-0.889 -4.227,-4.235c0.011,-2.902 0.009,-5.753 -0.008,-8.554c-0.011,-2.438 1.202,-3.659 3.64,-3.665l13.36,-0c0.285,-0 0.43,0.14 0.436,0.419l0.033,1.267c0.006,0.318 -0.148,0.478 -0.461,0.478l-12.773,0.042c-0.272,0.004 -0.494,0.23 -0.494,0.503Z" style="fill:#370b08;fill-rule:nonzero;"/><path d="M37.891,103.229l6.583,6.567c0.026,0.024 0.041,0.057 0.041,0.092c-0,0.07 -0.056,0.126 -0.126,0.126l-0.007,0l-4.076,0.034c-0.094,-0 -0.176,-0.034 -0.243,-0.101l-6.818,-6.835c-0.22,-0.226 -0.523,-0.352 -0.839,-0.352l-3.246,-0.034c-0.291,-0.006 -0.436,0.14 -0.436,0.436l0,6.483c0,0.212 -0.174,0.386 -0.385,0.386l-2.986,-0c-0.279,-0 -0.419,-0.14 -0.419,-0.419l-0,-15.667c-0,-0.268 0.134,-0.405 0.402,-0.411c4.875,-0.078 9.712,-0.092 14.509,-0.042c2.667,0.026 3.782,1.544 3.824,4.11c0.084,4.814 -1.274,4.965 -5.602,5.158c-0.413,0.022 -0.472,0.178 -0.176,0.469Zm1.907,-7.018c0.001,-0.286 -0.234,-0.52 -0.519,-0.521l-10.047,-0.018l-0.001,0c-0.285,0 -0.519,0.235 -0.52,0.519l-0.007,3.925c-0.001,0.286 0.234,0.521 0.519,0.521l10.048,0.018c-0,0.001 0,0.001 0,0.001c0.286,-0 0.519,-0.235 0.52,-0.52l0.007,-3.925Z" style="fill:#370b08;fill-rule:nonzero;"/><path d="M53.717,102.231l-0.042,5.25c-0,0.198 0.162,0.361 0.36,0.361l12.916,-0.042c0.198,0 0.36,0.163 0.36,0.361l0.025,1.493c0,0.197 -0.162,0.36 -0.36,0.36l-16.706,0.025c-0.198,0 -0.361,-0.162 -0.361,-0.36l0.008,-15.826c0,-0.198 0.163,-0.361 0.361,-0.361l16.681,0.009c0.198,-0 0.361,0.163 0.361,0.36l-0,1.468c-0,0.198 -0.163,0.361 -0.361,0.361l-12.907,-0.017c-0.198,0 -0.361,0.163 -0.361,0.361l0,3.413c0,0.198 0.163,0.361 0.361,0.361l11.725,-0c0.197,-0 0.36,0.162 0.36,0.36l-0.017,1.351c0,0.197 -0.162,0.36 -0.36,0.36l-11.683,-0.008c-0.198,-0 -0.36,0.162 -0.36,0.36Z" style="fill:#370b08;fill-rule:nonzero;"/><path d="M77.392,102.231l0,5.25c0,0.198 0.163,0.361 0.361,0.361l12.89,-0.042c0.194,0 0.356,0.158 0.361,0.352l0.041,1.51l0,0.008c0,0.198 -0.162,0.361 -0.36,0.361l-16.69,-0c-0.198,-0 -0.36,-0.163 -0.36,-0.361l-0.009,-15.809c0,-0.197 0.163,-0.36 0.361,-0.36l16.673,-0.009c0.194,0 0.356,0.158 0.36,0.353l0.017,1.484l0,0.009c0,0.197 -0.163,0.36 -0.361,0.36l-12.923,-0.025c-0.198,0 -0.361,0.163 -0.361,0.361l0,3.421c0,0.198 0.163,0.361 0.361,0.361l11.724,-0.008c0.198,-0 0.361,0.162 0.361,0.36l-0,0.009l-0.025,1.35c-0.005,0.194 -0.166,0.352 -0.361,0.352l-11.699,-0.008c-0.198,-0 -0.361,0.162 -0.361,0.36Z" style="fill:#370b08;fill-rule:nonzero;"/><path d="M112.482,93.518l3.237,-0.042c0.148,-0 0.268,0.12 0.268,0.268l0,16.027c0,0.148 -0.12,0.268 -0.268,0.268l-3.573,0c-0.077,0 -0.151,-0.034 -0.201,-0.092l-10.391,-11.632c-0.051,-0.058 -0.124,-0.091 -0.201,-0.091c-0.147,0 -0.268,0.12 -0.269,0.267l0.025,11.255c0,0.147 -0.12,0.268 -0.268,0.268l-3.229,0.042c-0.147,0 -0.268,-0.121 -0.268,-0.268l-0,-16.036c-0,-0.147 0.121,-0.268 0.268,-0.268l3.581,0.008c0.077,0 0.151,0.035 0.202,0.093l10.424,11.615c0.05,0.052 0.12,0.082 0.193,0.082c0.143,0 0.263,-0.114 0.268,-0.258l-0.067,-11.238c0,-0.148 0.121,-0.268 0.269,-0.268Z" style="fill:#370b08;fill-rule:nonzero;"/><path d="M129.414,95.681l-7.766,0c-0.199,0 -0.365,-0.161 -0.369,-0.36l-0.016,-1.451l-0,-0.009c-0,-0.202 0.166,-0.369 0.369,-0.369l19.985,0.009c0.202,-0 0.369,0.167 0.369,0.369l-0,0.008l-0.017,1.384c-0.004,0.2 -0.169,0.361 -0.369,0.361l-7.69,0.067c-0.203,-0 -0.369,0.167 -0.369,0.369l0.016,13.603c0,0.202 -0.167,0.369 -0.369,0.369l-3.061,-0.008c-0.202,-0 -0.369,-0.167 -0.369,-0.369l0.025,-13.604c0,-0.202 -0.167,-0.369 -0.369,-0.369Z" style="fill:#370b08;fill-rule:nonzero;"/><path d="M151.002,102.29l-0,5.141c-0,0.23 0.189,0.419 0.419,0.419l12.815,-0.058c0.227,-0 0.415,0.183 0.419,0.411l0.042,1.392l-0,0.008c-0,0.23 -0.19,0.42 -0.419,0.42l-16.614,-0c-0.23,-0 -0.42,-0.19 -0.42,-0.42l0.009,-15.691c-0,-0.23 0.189,-0.42 0.419,-0.42l16.589,0c0.23,0 0.419,0.19 0.419,0.42l0,0.008l-0.008,1.359c-0,0.23 -0.19,0.419 -0.42,0.419l-0.008,0l-12.815,-0.025c-0.23,0 -0.419,0.19 -0.419,0.419l0.008,3.296c0,0.23 0.19,0.42 0.42,0.42l11.674,-0c0.23,-0 0.419,0.189 0.419,0.419l0,0.008l-0.017,1.233c-0.004,0.227 -0.192,0.411 -0.419,0.411l-11.674,-0.008c-0.23,-0 -0.419,0.189 -0.419,0.419Z" style="fill:#370b08;fill-rule:nonzero;"/><path d="M174.719,96.268l-0.008,10.995c-0,0.304 0.25,0.554 0.553,0.554l12.622,0.017c0.316,-0 0.578,0.25 0.587,0.562l0.025,1.09l0,0.008c0,0.3 -0.245,0.545 -0.545,0.545l-13.838,-0.042c-1.694,-0.004 -3.086,-1.399 -3.086,-3.094c-0,-3.724 0.011,-7.21 0.033,-10.458c0.009,-2.332 2.592,-3.036 4.663,-3.02c4.154,0.034 8.194,0.062 12.119,0.084c0.392,0 0.59,0.199 0.596,0.596l0.016,1.04c0,0.346 -0.173,0.52 -0.52,0.52l-12.655,0.042c-0.309,-0 -0.562,0.253 -0.562,0.561Z" style="fill:#370b08;fill-rule:nonzero;"/><path d="M205.54,101.158c-0.19,0.006 -0.361,-0.123 -0.411,-0.31l-0.889,-3.439c-0.107,-0.43 0.061,-0.652 0.503,-0.662l1.015,-0.026c0.475,-0.016 0.724,0.216 0.746,0.696c0.034,0.934 0.006,1.969 -0.084,3.103c-0.022,0.286 -0.114,0.462 -0.276,0.529c-0.151,0.061 -0.353,0.098 -0.604,0.109Z" style="fill:#370b08;fill-rule:nonzero;"/><path d="M216.744,100.479c0,0.312 -0.257,0.57 -0.57,0.57l-8.269,-0c-0.313,-0 -0.57,-0.258 -0.57,-0.57l-0,-3.187c-0,-0.313 0.257,-0.571 0.57,-0.571l8.269,0c0.313,0 0.57,0.258 0.57,0.571l0,3.187Z" style="fill:#370b08;fill-rule:nonzero;"/><path d="M223.479,99.112c-0.028,0.458 0.098,0.872 0.377,1.241c0.057,0.074 0.088,0.166 0.088,0.26c0,0.235 -0.193,0.427 -0.427,0.427l-0.005,0l-5.426,0.017c-0.408,0 -0.614,-0.207 -0.62,-0.62l-0,-3.12c-0,-0.409 0.203,-0.612 0.612,-0.612l7.774,0.016c1.169,0 1.225,0.252 0.168,0.755l-2.13,1.015c-0.263,0.123 -0.4,0.33 -0.411,0.621Z" style="fill:#370b08;fill-rule:nonzero;"/><path d="M216.73,105.712c-0.001,0.298 -0.248,0.544 -0.547,0.542l-8.336,-0.028c-0.299,-0.002 -0.544,-0.248 -0.543,-0.548l0.011,-3.338c0.001,-0.298 0.249,-0.544 0.547,-0.542l8.336,0.028c0.3,0.002 0.545,0.249 0.544,0.548l-0.012,3.338Z" style="fill:#370b08;fill-rule:nonzero;"/><path d="M223.219,102.332l-3.959,4.093c-0.076,0.077 -0.187,0.109 -0.293,0.084l-1.25,-0.286c-0.141,-0.031 -0.242,-0.157 -0.243,-0.302l-0.017,-3.824c0,-0.17 0.14,-0.31 0.311,-0.31l5.224,0.025c0.17,0.002 0.308,0.141 0.308,0.31c0,0.078 -0.028,0.153 -0.081,0.21Z" style="fill:#370b08;fill-rule:nonzero;"/><path d="M206.446,103.993c-0.011,0.123 -0.048,0.24 -0.109,0.352c-0.14,0.262 -0.246,0.249 -0.319,-0.042l-0.403,-1.627c-0.257,-1.029 0.015,-1.166 0.814,-0.411c0.218,0.207 0.254,0.573 0.109,1.099c-0.017,0.067 -0.048,0.276 -0.092,0.629Z" style="fill:#370b08;fill-rule:nonzero;"/><path d="M207.762,106.995l8.244,0.067c0.325,0 0.546,0.151 0.663,0.453c0.123,0.313 0.165,0.64 0.126,0.981c-0.034,0.285 -0.165,0.514 -0.394,0.688c-2.76,2.138 -4.219,1.35 -6.693,2.088c-0.333,0.097 -0.691,-0.068 -0.839,-0.386l-1.509,-3.262c-0.027,-0.058 -0.04,-0.121 -0.04,-0.185c-0,-0.243 0.199,-0.443 0.442,-0.444Z" style="fill:#370b08;fill-rule:nonzero;"/></g></svg>