<?xml version="1.0" encoding="UTF-8" standalone="no"?><!DOCTYPE svg PUBLIC "-//W3C//DTD SVG 1.1//EN" "http://www.w3.org/Graphics/SVG/1.1/DTD/svg11.dtd"><svg width="100%" height="100%" viewBox="0 0 300 200" version="1.1" xmlns="http://www.w3.org/2000/svg" xmlns:xlink="http://www.w3.org/1999/xlink" xml:space="preserve" xmlns:serif="http://www.serif.com/" style="fill-rule:evenodd;clip-rule:evenodd;stroke-linejoin:round;stroke-miterlimit:2;"><path d="M229.45,40.67c-1.447,0.347 -1.543,0.92 -0.29,1.72c2.34,1.5 4.873,2.537 7.6,3.11c1.127,0.24 1.203,0.663 0.23,1.27c-5.38,3.393 -10.833,6.867 -16.36,10.42c-1.32,0.85 -1.94,1.87 -2.17,3.33c-0.028,0.156 -0.166,0.271 -0.325,0.271c-0.099,-0 -0.192,-0.044 -0.255,-0.121l-16.15,-19.94c-0.673,-0.827 -0.487,-1.133 0.56,-0.92c5.51,1.12 9.92,-3.22 15.65,-3.32c2.79,-0.05 5.61,0.26 8.34,-0.79c0.341,-0.135 0.723,-0.135 1.07,0c1.86,0.713 2.86,2.117 3,4.21c0.027,0.36 -0.133,0.58 -0.48,0.66l-0.42,0.1Z" style="fill:#370b08;fill-rule:nonzero;"/><path d="M202.2,62.82l0.27,2.93c0.033,0.313 0.207,0.487 0.52,0.52l6.02,0.6c0.329,0.036 0.581,0.314 0.58,0.64l-0.04,23.78c-0,0.487 -0.243,0.75 -0.73,0.79c-3.18,0.26 -9.09,-1.59 -10.63,1.93c-0.082,0.189 -0.27,0.313 -0.477,0.313c-0.117,-0 -0.231,-0.04 -0.323,-0.113c-2.447,-1.92 -4.753,-3.897 -6.92,-5.93c-1.68,-1.58 -2.49,-3.75 -3.97,-5.02c-1.053,-0.907 -2.277,-1.66 -3.67,-2.26c-0.859,-0.372 -1.29,-1.353 -0.98,-2.23c0.413,-1.193 0.203,-2.253 -0.63,-3.18c-0.26,-0.287 -0.267,-0.583 -0.02,-0.89c3.24,-4 3.51,-5.93 1.42,-10.67c-0.245,-0.559 -0.204,-1.204 0.11,-1.73c1.81,-3.03 3.17,-7.1 6.07,-9.16c1.413,-1.007 2.92,-1.857 4.52,-2.55c0.321,-0.143 0.54,-0.446 0.57,-0.79c0.053,-0.647 0.117,-1.51 0.19,-2.59c0.187,-2.58 1.807,-4.393 4.86,-5.44c0.22,-0.073 0.397,-0.017 0.53,0.17l14.11,18.98c0.023,0.028 0.036,0.064 0.036,0.101c-0,0.082 -0.064,0.152 -0.146,0.159l-10.79,1.06c-0.353,0.033 -0.513,0.227 -0.48,0.58Z" style="fill:#370b08;fill-rule:nonzero;"/><path d="M226.46,92.34c-0.435,-0.312 -1.04,-0.257 -1.41,0.13c-1.007,1.053 -2.213,1.43 -3.62,1.13c-0.353,-0.073 -0.617,-0.273 -0.79,-0.6c-0.83,-1.58 -1.78,-2.87 -1.73,-4.73c0.22,-7.18 0.343,-14.36 0.37,-21.54c0.007,-0.322 0.131,-0.628 0.35,-0.86c1.64,-1.7 1.98,-3.55 3.71,-5.02c5.16,-4.393 10.297,-8.8 15.41,-13.22c0.23,-0.198 0.533,-0.296 0.84,-0.27c3.66,0.35 3.95,1.06 7.13,-2.38c0.58,-0.627 1.287,-0.847 2.12,-0.66l4.04,0.9c0.827,0.18 0.933,0.563 0.32,1.15c-12.7,12.04 -20.53,30.02 -24.04,47.14c-0.093,0.447 -0.327,0.537 -0.7,0.27l-2,-1.44Z" style="fill:#370b08;fill-rule:nonzero;"/><path d="M258.11,48.37c-1.16,0.993 -2.517,1.323 -4.07,0.99c-0.232,-0.048 -0.399,-0.253 -0.399,-0.49c-0,-0.096 0.027,-0.189 0.079,-0.27l2.25,-3.66c0.253,-0.413 0.43,-0.383 0.53,0.09c0.073,0.307 0.213,0.577 0.42,0.81c0.248,0.277 0.625,0.403 0.99,0.33l1.36,-0.26c0.024,-0.004 0.048,-0.006 0.073,-0.006c0.236,-0 0.43,0.194 0.43,0.43c-0,0.072 -0.018,0.143 -0.053,0.206l-0.48,0.83c-0.143,0.246 -0.114,0.554 0.07,0.76c0.153,0.173 0.217,0.377 0.19,0.61c-0.053,0.44 -0.197,0.47 -0.43,0.09c-0.093,-0.147 -0.19,-0.283 -0.29,-0.41c-0.207,-0.24 -0.43,-0.257 -0.67,-0.05Z" style="fill:#370b08;fill-rule:nonzero;"/><path d="M260.52,49.3c-0.082,-0 -0.15,-0.068 -0.15,-0.15l0.01,-0.09c0.028,-1.513 1.473,-2.732 3.2,-2.7l0.34,0c0.001,0 0.002,0 0.004,0c1.727,0.033 3.125,1.306 3.096,2.82l-0.01,0.09c0,0.082 -0.068,0.15 -0.15,0.15l-6.34,-0.12Z" style="fill:#370b08;fill-rule:nonzero;"/><path d="M253.1,50.36l6,-0.09c0.003,-0 0.007,-0 0.01,-0c0.313,-0 0.57,0.257 0.57,0.57c0,-0 0,-0 -0,0l-0.04,4.09c0,0.313 -0.257,0.57 -0.57,0.57l-8.1,0c-0.312,-0.001 -0.568,-0.258 -0.568,-0.57c-0,-0.094 0.023,-0.187 0.068,-0.27l2.13,-4c0.099,-0.184 0.291,-0.299 0.5,-0.3Z" style="fill:#370b08;fill-rule:nonzero;"/><path d="M269.7,55.5l-8.54,0c-0.346,0 -0.63,-0.284 -0.63,-0.63l-0.02,-3.88c0,-0.346 0.284,-0.63 0.63,-0.63l6.15,-0.04c0.223,-0.005 0.433,0.11 0.55,0.3l2.39,3.92c0.061,0.099 0.093,0.214 0.093,0.33c0,0.343 -0.28,0.626 -0.623,0.63Z" style="fill:#370b08;fill-rule:nonzero;"/><path d="M250.1,56.49l8.63,-0c0.521,-0 0.95,0.429 0.95,0.95c0,0.003 0,0.007 0,0.01l-0.02,3.19c-0.005,0.517 -0.433,0.94 -0.95,0.94l-9.67,-0.01c-0.521,-0.001 -0.949,-0.429 -0.949,-0.95c0,-0.102 0.017,-0.203 0.049,-0.3l1.05,-3.18c0.13,-0.39 0.499,-0.654 0.91,-0.65Z" style="fill:#370b08;fill-rule:nonzero;"/><path d="M271.18,61.58l-9.75,-0.01c-0.49,0 -0.895,-0.4 -0.9,-0.89l-0.01,-3.28c-0,-0.003 -0,-0.007 -0,-0.01c-0,-0.494 0.406,-0.9 0.9,-0.9l9.37,0.01c0.455,-0.003 0.844,0.339 0.9,0.79l0.39,3.28c0.004,0.037 0.007,0.073 0.007,0.11c-0,0.494 -0.407,0.9 -0.9,0.9c-0.002,0 -0.005,0 -0.007,0Z" style="fill:#370b08;fill-rule:nonzero;"/><path d="M259.66,66.98c-0,0.422 -0.348,0.77 -0.77,0.77l-9.72,0c-0.422,-0 -0.77,-0.348 -0.77,-0.77l-0,-3.66c-0,-0.422 0.348,-0.77 0.77,-0.77l9.72,-0c0.422,-0 0.77,0.348 0.77,0.77l0,3.66Z" style="fill:#370b08;fill-rule:nonzero;"/><path d="M271.89,67.04c-0,0.389 -0.321,0.71 -0.71,0.71l-9.94,0c-0.389,0 -0.71,-0.321 -0.71,-0.71l-0,-3.78c-0,-0.389 0.321,-0.71 0.71,-0.71l9.94,-0c0.389,0 0.71,0.321 0.71,0.71l0,3.78Z" style="fill:#370b08;fill-rule:nonzero;"/><path d="M276.19,66.98c0.067,0.086 0.103,0.192 0.103,0.3c-0,0.269 -0.221,0.49 -0.49,0.49c-0.005,0 -0.009,0 -0.013,0l-2.23,-0.02c-0.382,-0.005 -0.695,-0.313 -0.7,-0.69l-0.06,-3.73c0,-0.3 0.133,-0.513 0.4,-0.64c0.213,-0.1 0.413,-0.103 0.6,-0.01c0.253,0.12 0.42,0.313 0.5,0.58c0.413,1.36 1.043,2.6 1.89,3.72Z" style="fill:#370b08;fill-rule:nonzero;"/><path d="M245.58,67.77c-0.096,-0.02 -0.158,-0.114 -0.14,-0.21l0.03,-0.17c0.458,-2.516 1.184,-4.522 1.61,-4.45l0.12,0.02c0.425,0.082 0.398,2.221 -0.06,4.74l-0.03,0.16c-0.013,0.088 -0.089,0.153 -0.178,0.153c-0.011,-0 -0.021,-0.001 -0.032,-0.003l-1.32,-0.24Z" style="fill:#370b08;fill-rule:nonzero;"/><path d="M216.24,67.18l1.37,21.36c0.014,0.154 -0.089,0.296 -0.24,0.33l-3.44,0.72c-0.023,0.005 -0.047,0.008 -0.07,0.008c-0.166,0 -0.304,-0.133 -0.31,-0.298l-0.5,-22.43c-0,-0.001 -0,-0.002 -0,-0.003c-0,-0.17 0.14,-0.31 0.31,-0.31c0.013,0 0.027,0.001 0.04,0.003l2.57,0.34c0.144,0.018 0.257,0.135 0.27,0.28Z" style="fill:#370b08;fill-rule:nonzero;"/><path d="M271.88,73.26c0,0.357 -0.293,0.65 -0.65,0.65l-10.04,-0c-0.357,-0 -0.65,-0.293 -0.65,-0.65l0,-3.96c0,-0.357 0.293,-0.65 0.65,-0.65l10.04,0c0.357,0 0.65,0.293 0.65,0.65l0,3.96Z" style="fill:#370b08;fill-rule:nonzero;"/><path d="M243.73,73.83c-0.139,-0.018 -0.243,-0.138 -0.243,-0.278c-0,-0.014 0.001,-0.028 0.003,-0.042l0.03,-0.17c0.377,-2.675 1.182,-4.808 1.79,-4.74l1.55,0.21c0.609,0.086 0.798,2.369 0.42,5.058c0,0 0,0.001 -0,0.002l-0.03,0.17c-0.021,0.15 -0.16,0.258 -0.31,0.24l-3.21,-0.45Z" style="fill:#370b08;fill-rule:nonzero;"/><path d="M259.633,73.28c-0.001,0.361 -0.299,0.657 -0.66,0.657c-0.001,0 -0.001,0 -0.002,0l-9.86,-0.034c-0.362,-0.002 -0.659,-0.3 -0.658,-0.662l0.014,-3.94c0.001,-0.362 0.299,-0.658 0.66,-0.658c0.001,-0 0.001,-0 0.002,-0l9.86,0.034c0.362,0.002 0.659,0.3 0.658,0.663l-0.014,3.94Z" style="fill:#370b08;fill-rule:nonzero;"/><path d="M272.98,73.57l-0.14,-4.55c-0,-0.003 -0,-0.007 -0,-0.01c-0,-0.176 0.144,-0.32 0.32,-0.32c-0,-0 -0,-0 0,-0l4.03,0.04c0.123,-0.001 0.236,0.069 0.29,0.18l2.19,4.57c0.021,0.044 0.032,0.091 0.032,0.14c0,0.176 -0.144,0.32 -0.32,0.32c-0,0 -0.001,0 -0.002,0l-6.08,-0.06c-0.172,0 -0.315,-0.138 -0.32,-0.31Z" style="fill:#370b08;fill-rule:nonzero;"/><path d="M249.04,74.9c3.32,-0.13 6.9,-0.23 9.96,0.18c0.227,0.027 0.32,0.187 0.28,0.48c-0.028,0.181 -0.183,0.319 -0.37,0.33c-3.393,0.207 -6.687,0.89 -9.88,2.05c-0.387,0.14 -0.577,0.007 -0.57,-0.4l0,-2.05c0,-0.316 0.259,-0.579 0.58,-0.59Z" style="fill:#370b08;fill-rule:nonzero;"/><path d="M271.871,79.5c-0,0.001 -0,0.002 -0,0.003c-0,0.279 -0.229,0.509 -0.508,0.51l-10.279,0.054c-0.001,-0 -0.002,-0 -0.003,-0c-0.279,-0 -0.509,-0.229 -0.51,-0.507l-0.022,-4.14c0,-0.001 0,-0.002 0,-0.003c0,-0.279 0.229,-0.509 0.508,-0.51l10.279,-0.054c0.001,0 0.002,0 0.003,0c0.279,0 0.509,0.229 0.51,0.507l0.022,4.14Z" style="fill:#370b08;fill-rule:nonzero;"/><path d="M283.51,79.97l-9.52,0.06c-0.58,0.006 -1.064,-0.461 -1.08,-1.04l-0.07,-3.04c-0,-0.01 -0,-0.02 -0,-0.03c-0,-0.587 0.483,-1.07 1.07,-1.07c0.003,-0 0.007,-0 0.01,0l6.83,0.09c0.287,0.003 0.561,0.122 0.76,0.33l2.77,2.89c0.191,0.199 0.297,0.464 0.297,0.74c0,0.586 -0.481,1.068 -1.067,1.07Z" style="fill:#370b08;fill-rule:nonzero;"/><path d="M242.23,80.3c-0.453,0.053 -0.623,-0.14 -0.51,-0.58l1,-3.95c0.118,-0.465 0.534,-0.795 1.01,-0.8l3.02,-0.06c0.347,-0.006 0.639,0.273 0.65,0.62l0.06,2.24c0.007,0.3 -0.113,0.533 -0.36,0.7c-1.48,1 -3.103,1.61 -4.87,1.83Z" style="fill:#370b08;fill-rule:nonzero;"/><path d="M257.35,79.45l1.56,-2.5c0.071,-0.116 0.197,-0.188 0.334,-0.188c0.194,0 0.36,0.145 0.386,0.338c0.113,0.773 0.107,1.54 -0.02,2.3c-0.084,0.492 -0.521,0.852 -1.02,0.84l-0.83,-0.02c-0.587,-0.02 -0.723,-0.277 -0.41,-0.77Z" style="fill:#370b08;fill-rule:nonzero;"/><path d="M253.91,85.66l2.31,-4.32c0.075,-0.142 0.22,-0.234 0.38,-0.24l2.58,-0.05c0.003,-0 0.007,-0 0.01,-0c0.247,-0 0.45,0.203 0.45,0.45c0,-0 0,-0 0,0l0.02,4.35c0,0.247 -0.203,0.45 -0.45,0.45l-4.91,0.02c-0.244,-0.004 -0.442,-0.206 -0.442,-0.45c-0,-0.073 0.018,-0.145 0.052,-0.21Z" style="fill:#370b08;fill-rule:nonzero;"/><path d="M271.867,85.66c-0,0.001 -0,0.002 -0,0.002c-0,0.34 -0.279,0.619 -0.618,0.62l-10.08,0.036c-0.001,-0 -0.001,-0 -0.002,-0c-0.339,-0 -0.619,-0.279 -0.62,-0.618l-0.014,-3.96c0,-0.001 0,-0.002 0,-0.002c0,-0.34 0.279,-0.619 0.618,-0.62l10.08,-0.036c0.001,0 0.001,0 0.002,0c0.339,0 0.619,0.279 0.62,0.618l0.014,3.96Z" style="fill:#370b08;fill-rule:nonzero;"/><path d="M284.304,85.76c-0,0 -0,0.001 -0,0.001c-0,0.29 -0.239,0.529 -0.53,0.53l-10.4,0.018c0,0 -0,0 -0,0c-0.291,0 -0.53,-0.239 -0.53,-0.529l-0.008,-4.12c0,-0 0,-0.001 0,-0.001c0,-0.29 0.239,-0.529 0.529,-0.53l10.4,-0.018c0.001,-0 0.001,-0 0.001,-0c0.291,-0 0.53,0.239 0.53,0.529l0.008,4.12Z" style="fill:#370b08;fill-rule:nonzero;"/><path d="M296.39,81.89l0.07,3.4c0.013,0.68 -0.32,1.02 -1,1.02l-9.58,-0.02c-0.433,0 -0.65,-0.22 -0.65,-0.66l0.02,-2.34c0.007,-0.36 0.18,-0.477 0.52,-0.35c2.74,1.03 6.48,-1.28 9.37,-2.01c0.079,-0.019 0.159,-0.029 0.24,-0.029c0.546,0 0.999,0.443 1.01,0.989Z" style="fill:#370b08;fill-rule:nonzero;"/><path d="M299.3,81.39l-1.18,4.2c-0.037,0.146 -0.169,0.25 -0.32,0.25c-0.181,-0 -0.33,-0.149 -0.33,-0.33c-0,-0.003 -0,-0.007 0,-0.01l0.05,-4.2c0.005,-0.174 0.146,-0.315 0.32,-0.32l1.14,-0.01c0.001,-0 0.002,-0 0.003,-0c0.181,-0 0.33,0.149 0.33,0.33c-0,0.03 -0.005,0.061 -0.013,0.09Z" style="fill:#370b08;fill-rule:nonzero;"/><path d="M253.38,87.28l5.81,0c0.263,0 0.48,0.217 0.48,0.48l-0.02,4.26c-0,0.263 -0.217,0.48 -0.48,0.48l-7.73,-0.01c-0.261,-0.003 -0.474,-0.219 -0.474,-0.48c0,-0.069 0.015,-0.137 0.044,-0.2l1.93,-4.25c0.079,-0.172 0.251,-0.281 0.44,-0.28Z" style="fill:#370b08;fill-rule:nonzero;"/><path d="M271.893,91.78c0,0.001 0,0.001 0,0.001c0,0.384 -0.315,0.7 -0.699,0.7l-9.959,0.018c-0.001,-0 -0.001,-0 -0.002,-0c-0.383,-0 -0.699,-0.316 -0.7,-0.699l-0.006,-3.82c-0,-0.001 -0,-0.001 -0,-0.001c-0,-0.384 0.315,-0.7 0.698,-0.7l9.96,-0.018c0.001,0 0.001,0 0.002,0c0.383,0 0.699,0.316 0.7,0.699l0.006,3.82Z" style="fill:#370b08;fill-rule:nonzero;"/><path d="M284.31,91.85c0,0.351 -0.289,0.64 -0.64,0.64l-10.2,-0c-0.351,-0 -0.64,-0.289 -0.64,-0.64l-0,-3.92c-0,-0.351 0.289,-0.64 0.64,-0.64l10.2,0c0.351,0 0.64,0.289 0.64,0.64l0,3.92Z" style="fill:#370b08;fill-rule:nonzero;"/><path d="M293.24,92.49l-7.32,0c-0.379,0 -0.69,-0.311 -0.69,-0.69l0.03,-3.83c0,-0.379 0.311,-0.69 0.69,-0.69l9.93,0c0,-0 0.001,-0 0.001,-0c0.378,-0 0.69,0.311 0.69,0.69c-0,0.139 -0.042,0.275 -0.121,0.39l-2.64,3.83c-0.129,0.188 -0.342,0.3 -0.57,0.3Z" style="fill:#370b08;fill-rule:nonzero;"/><path d="M234.82,121.16c0.009,-0.007 0.019,-0.014 0.028,-0.021c0.407,-0.316 0.48,-0.915 0.16,-1.326c-0.006,-0.008 -0.012,-0.016 -0.018,-0.023c-1.473,-1.787 -2.027,-3.833 -1.66,-6.14c0.053,-0.333 0.007,-0.653 -0.14,-0.96c-1.627,-3.427 -3.833,-6.4 -6.62,-8.92c-0.24,-0.22 -0.327,-0.493 -0.26,-0.82l1.25,-6.28c0.039,-0.173 0.143,-0.324 0.29,-0.42c3.653,-2.4 7.52,-4.37 11.6,-5.91c0.387,-0.147 0.533,-0.02 0.44,0.38c-3.007,13.133 -3.543,26.37 -1.61,39.71c0.053,0.373 -0.093,0.48 -0.44,0.32c-2.06,-0.947 -3.857,-0.65 -5.39,0.89c-0.293,0.293 -0.51,0.247 -0.65,-0.14c-1.533,-4.367 -0.527,-7.813 3.02,-10.34Z" style="fill:#370b08;fill-rule:nonzero;"/><path d="M259.13,98.52l-10,0c-0.282,-0.004 -0.512,-0.238 -0.512,-0.52c-0,-0.061 0.011,-0.122 0.032,-0.18l1.54,-4.1c0.075,-0.205 0.272,-0.341 0.49,-0.34l8.51,0.06c0.281,0.005 0.51,0.238 0.51,0.52l-0.05,4.05c-0.005,0.281 -0.238,0.51 -0.52,0.51Z" style="fill:#370b08;fill-rule:nonzero;"/><path d="M271.87,97.88c0,0.346 -0.284,0.63 -0.63,0.63l-10.08,0c-0.346,0 -0.63,-0.284 -0.63,-0.63l-0,-3.82c0,-0.346 0.284,-0.63 0.63,-0.63l10.08,0c0.346,0 0.63,0.284 0.63,0.63l0,3.82Z" style="fill:#370b08;fill-rule:nonzero;"/><path d="M284.293,97.94c0,0 0,0.001 0,0.001c0,0.307 -0.252,0.559 -0.559,0.56l-10.34,0.018c0,0 -0,0 -0.001,0c-0.306,0 -0.559,-0.252 -0.56,-0.559l-0.006,-3.94c-0,-0 -0,-0.001 -0,-0.001c-0,-0.307 0.252,-0.559 0.559,-0.56l10.34,-0.018c-0,-0 0,-0 0.001,-0c0.306,-0 0.559,0.252 0.56,0.559l0.006,3.94Z" style="fill:#370b08;fill-rule:nonzero;"/><path d="M286.49,98.63c-0.84,0.3 -1.26,0.003 -1.26,-0.89l0.02,-3.02c0.007,-0.84 0.433,-1.263 1.28,-1.27l6.25,-0.03c0.287,0.005 0.521,0.243 0.521,0.53c0,0.133 -0.05,0.262 -0.141,0.36c-1.847,1.96 -4.07,3.4 -6.67,4.32Z" style="fill:#370b08;fill-rule:nonzero;"/><path d="M259.667,103.94c-0.001,0.422 -0.349,0.769 -0.772,0.768l-9.78,-0.016c-0.421,-0.001 -0.768,-0.349 -0.768,-0.77c-0,-0.001 -0,-0.001 -0,-0.002l0.006,-3.66c0.001,-0.422 0.349,-0.769 0.772,-0.769l9.779,0.017c0.422,0.001 0.769,0.349 0.769,0.77c0,0.001 0,0.001 0,0.002l-0.006,3.66Z" style="fill:#370b08;fill-rule:nonzero;"/><path d="M271.897,104.02c-0.001,0.383 -0.317,0.699 -0.7,0.699c-0.001,-0 -0.001,-0 -0.001,-0l-9.961,-0.018c-0.383,-0 -0.698,-0.316 -0.698,-0.7c-0,-0 -0,-0 -0,-0.001l0.006,-3.8c0.001,-0.383 0.317,-0.699 0.7,-0.699c0.001,0 0.001,0 0.002,0l9.959,0.018c0.384,0 0.699,0.316 0.699,0.7c0,0 0,0 0,0.001l-0.006,3.8Z" style="fill:#370b08;fill-rule:nonzero;"/><path d="M281.07,104.72l-7.02,-0.02c-0.627,0 -1.145,-0.513 -1.15,-1.14l-0.02,-2.9c-0,-0.003 -0,-0.007 -0,-0.01c-0,-0.631 0.519,-1.15 1.15,-1.15l9.39,0.01c0.001,-0 0.002,-0 0.003,-0c0.631,-0 1.15,0.519 1.15,1.15c0,0.262 -0.089,0.516 -0.253,0.72l-2.35,2.91c-0.219,0.273 -0.55,0.431 -0.9,0.43Z" style="fill:#370b08;fill-rule:nonzero;"/><path d="M13.73,121.66l-4.95,9.5c-0.053,0.105 -0.162,0.171 -0.28,0.17l-6.72,0.02c-0.168,-0.004 -0.303,-0.142 -0.303,-0.31c-0,-0.049 0.011,-0.097 0.033,-0.14l15.87,-30.39c0.053,-0.105 0.162,-0.171 0.28,-0.17l8.98,0.01c0.118,-0.001 0.227,0.065 0.28,0.17l15.85,30.34c0.022,0.043 0.033,0.091 0.033,0.14c0,0.168 -0.135,0.306 -0.303,0.31l-6.7,0.04c-0.118,0.001 -0.227,-0.065 -0.28,-0.17l-4.97,-9.52c-0.053,-0.105 -0.162,-0.171 -0.28,-0.17l-16.26,-0c-0.118,-0.001 -0.227,0.065 -0.28,0.17Zm2.33,-4.48c-0.027,0.049 -0.041,0.104 -0.041,0.16c-0,0.181 0.149,0.33 0.33,0.33c0,0 0.001,0 0.001,0l11.56,0.02c0.004,0 0.008,0 0.011,0c0.182,0 0.33,-0.149 0.33,-0.33c0,-0.056 -0.014,-0.111 -0.041,-0.16l-5.76,-11.07c-0.056,-0.111 -0.17,-0.182 -0.295,-0.182c-0.125,-0 -0.239,0.071 -0.295,0.182l-5.8,11.05Z" style="fill:#370b08;fill-rule:nonzero;"/><path d="M54.75,104.83l-0.02,6.83c0,0.219 0.181,0.4 0.4,0.4l23.21,-0.04c0.219,0 0.4,0.181 0.4,0.4l0.03,3.35c-0,0.219 -0.181,0.4 -0.4,0.4l-23.23,-0.03c-0.219,0 -0.4,0.181 -0.4,0.4l0,14.42c0,0.219 -0.181,0.4 -0.4,0.4l-6.51,-0.03c-0.219,0 -0.4,-0.181 -0.4,-0.4l-0.01,-30.2c0,-0.219 0.181,-0.4 0.4,-0.4l33.51,0c0.219,0 0.4,0.181 0.4,0.4l-0,3.3c-0,0.219 -0.181,0.4 -0.4,0.4l-26.18,0c-0.219,-0 -0.4,0.181 -0.4,0.4Z" style="fill:#370b08;fill-rule:nonzero;"/><path d="M94.97,118.18l0.04,12.84c0,0.187 -0.093,0.28 -0.28,0.28l-7,0.06c-0.127,0 -0.19,-0.063 -0.19,-0.19l0,-30.42c0,-0.225 0.181,-0.41 0.4,-0.41c8.4,-0.013 16.837,-0.01 25.31,0.01c3.2,-0 7.85,-0.17 10.02,2.61c1.51,1.94 1.23,5.38 1.14,7.87c-0.26,7.51 -6.14,6.77 -11.6,6.86c-0.467,0.007 -0.53,0.17 -0.19,0.49l13.59,12.97c0.009,0.008 0.016,0.018 0.021,0.029c0.02,0.045 -0.006,0.101 -0.056,0.122c-0.011,0.005 -0.023,0.008 -0.035,0.009l-8.38,0.06c-0.173,-0 -0.32,-0.06 -0.44,-0.18l-13.68,-13.12c-0.26,-0.247 -0.567,-0.37 -0.92,-0.37l-7.28,0.01c-0.313,-0 -0.47,0.157 -0.47,0.47Zm21.98,-12.82c-0,-0.505 -0.415,-0.92 -0.92,-0.92l-20.18,-0c-0.505,-0 -0.92,0.415 -0.92,0.92l-0,7.42c-0,0.505 0.415,0.92 0.92,0.92l20.18,-0c0.505,0 0.92,-0.415 0.92,-0.92l-0,-7.42Z" style="fill:#370b08;fill-rule:nonzero;"/><path d="M138.55,131c0,0.187 -0.153,0.34 -0.34,0.34l-6.64,0c-0.187,0 -0.34,-0.153 -0.34,-0.34l0,-30.3c-0,-0.187 0.153,-0.34 0.34,-0.34l6.64,0c0.187,0 0.34,0.153 0.34,0.34l0,30.3Z" style="fill:#370b08;fill-rule:nonzero;"/><path d="M152.77,125.92c0,0.763 0.632,1.39 1.4,1.39l25.19,0.01c0.002,0 0.003,0 0.005,0c0.225,0.003 0.408,0.186 0.405,0.405c0,0.002 0,0.003 0,0.005l-0.04,3.26c-0,0.233 -0.12,0.35 -0.36,0.35c-8.34,-0.007 -16.71,0.023 -25.11,0.09c-4.08,0.03 -8.86,-1.26 -8.85,-6.18c0.013,-6.333 0.033,-12.667 0.06,-19c0.02,-4.69 4.75,-6.07 9.03,-6.05c8.36,0.047 16.643,0.103 24.85,0.17c0.287,0.007 0.427,0.15 0.42,0.43l-0.04,3.18c-0.005,0.243 -0.211,0.44 -0.46,0.44l-24.97,0.01c-0.834,-0 -1.52,0.686 -1.52,1.52l-0.01,19.97Z" style="fill:#370b08;fill-rule:nonzero;"/><path d="M196.62,121.65l-5,9.54c-0.051,0.097 -0.151,0.158 -0.26,0.16l-6.73,0c-0.163,-0.003 -0.295,-0.137 -0.295,-0.3c0,-0.049 0.012,-0.097 0.035,-0.14l15.86,-30.39c0.051,-0.097 0.151,-0.158 0.26,-0.16l9.01,-0.02c0.109,0.002 0.209,0.063 0.26,0.16l15.86,30.37c0.023,0.043 0.035,0.091 0.035,0.14c-0,0.163 -0.132,0.297 -0.295,0.3l-6.71,0.07c-0.113,0.002 -0.217,-0.06 -0.27,-0.16l-4.97,-9.57c-0.051,-0.097 -0.151,-0.158 -0.26,-0.16l-16.27,-0c-0.109,0.002 -0.209,0.063 -0.26,0.16Zm2.32,-4.45c-0.024,0.046 -0.036,0.098 -0.036,0.15c-0,0.18 0.146,0.328 0.326,0.33l11.56,0c0.18,-0.002 0.326,-0.15 0.326,-0.33c0,-0.052 -0.012,-0.104 -0.036,-0.15l-5.78,-11.08c-0.058,-0.106 -0.169,-0.173 -0.29,-0.173c-0.121,0 -0.232,0.067 -0.29,0.173l-5.78,11.08Z" style="fill:#370b08;fill-rule:nonzero;"/><path d="M247.36,104c-0.04,0.22 -0.093,0.427 -0.16,0.62c-0.26,0.78 -0.4,0.76 -0.42,-0.06l-0.02,-1.31c-0.006,-0.087 0.018,-0.172 0.068,-0.241c0.122,-0.168 0.373,-0.198 0.555,-0.065c0.074,0.054 0.13,0.13 0.157,0.216c0.013,0.033 -0.007,0.11 -0.06,0.23c-0.013,0.033 -0.053,0.237 -0.12,0.61Z" style="fill:#370b08;fill-rule:nonzero;"/><path d="M245.56,110.97c-0.222,-0.026 -0.383,-0.228 -0.36,-0.45l0.02,-0.19c0.32,-2.646 0.965,-4.776 1.427,-4.72c0.001,-0 0.002,-0 0.003,0l0.38,0.04c0,0 0,0 0,0c0.463,0.056 0.581,2.28 0.26,4.927c0,0.001 0,0.002 0,0.003l-0.03,0.19c-0.026,0.222 -0.228,0.383 -0.45,0.36l-1.25,-0.16Z" style="fill:#370b08;fill-rule:nonzero;"/><path d="M259.629,110.259c-0.001,0.317 -0.263,0.577 -0.58,0.577c-0.001,0 -0.002,0 -0.003,0l-10.02,-0.052c-0.318,-0.002 -0.578,-0.265 -0.576,-0.583l0.021,-4.02c0.001,-0.317 0.263,-0.577 0.58,-0.577c0.001,-0 0.002,-0 0.003,-0l10.019,0.052c0.319,0.002 0.579,0.265 0.577,0.583l-0.021,4.02Z" style="fill:#370b08;fill-rule:nonzero;"/><path d="M271.887,110.24c-0.001,0.312 -0.258,0.569 -0.57,0.569c-0.001,-0 -0.001,-0 -0.002,-0l-10.219,-0.018c-0.313,-0 -0.57,-0.258 -0.57,-0.57c0,-0 0,-0.001 0,-0.001l0.007,-4.02c0.001,-0.312 0.258,-0.569 0.57,-0.569c0.001,0 0.001,0 0.001,0l10.221,0.018c0.312,0 0.569,0.258 0.569,0.57c-0,0 -0,0.001 -0,0.001l-0.007,4.02Z" style="fill:#370b08;fill-rule:nonzero;"/><path d="M278.46,108.37c-0.18,0.613 -0.257,1.24 -0.23,1.88c0.013,0.32 -0.14,0.483 -0.46,0.49l-4.45,0.1c-0.219,0 -0.4,-0.176 -0.4,-0.39l-0.04,-4.35c0,-0.273 0.133,-0.41 0.4,-0.41l7.02,-0.08c0.042,-0.001 0.084,0.005 0.123,0.018c0.187,0.064 0.288,0.274 0.223,0.466c-0.013,0.038 -0.032,0.074 -0.056,0.106c-0.433,0.553 -0.947,1.017 -1.54,1.39c-0.293,0.187 -0.49,0.447 -0.59,0.78Z" style="fill:#370b08;fill-rule:nonzero;"/><path d="M244.22,116.38l0.55,-3.89c0.037,-0.246 0.226,-0.442 0.47,-0.49l1.49,-0.31c0.039,-0.008 0.08,-0.012 0.12,-0.012c0.321,-0 0.586,0.261 0.59,0.582l0.03,4.1c0.006,0.32 -0.25,0.589 -0.57,0.6l-2.07,0.09c-0.009,0 -0.017,0.001 -0.026,0.001c-0.323,-0 -0.59,-0.267 -0.59,-0.59c0,-0.027 0.002,-0.054 0.006,-0.081Z" style="fill:#370b08;fill-rule:nonzero;"/><path d="M259.633,116.37c-0.001,0.34 -0.282,0.618 -0.622,0.617l-9.94,-0.034c-0.34,-0.002 -0.619,-0.282 -0.618,-0.623l0.014,-4.019c0.001,-0.341 0.282,-0.619 0.622,-0.618l9.94,0.034c0.34,0.002 0.619,0.282 0.618,0.623l-0.014,4.019Z" style="fill:#370b08;fill-rule:nonzero;"/><path d="M271.89,116.35c0,0.335 -0.275,0.61 -0.61,0.61l-10.14,-0c-0.335,-0 -0.61,-0.275 -0.61,-0.61l0,-4c0,-0.335 0.275,-0.61 0.61,-0.61l10.14,-0c0.335,-0 0.61,0.275 0.61,0.61l0,4Z" style="fill:#370b08;fill-rule:nonzero;"/><path d="M279.02,116.97l-5.68,-0.02c-0.188,0 -0.345,-0.152 -0.35,-0.34l-0.12,-4.48c-0,-0.003 -0,-0.007 -0,-0.01c-0,-0.192 0.158,-0.35 0.35,-0.35c-0,-0 -0,-0 0,-0l4.7,-0.03c0.165,-0.004 0.312,0.109 0.35,0.27l1.09,4.53c0.006,0.026 0.009,0.053 0.009,0.08c0,0.192 -0.157,0.35 -0.349,0.35Z" style="fill:#370b08;fill-rule:nonzero;"/><path d="M259.633,122.67c-0.001,0.333 -0.276,0.607 -0.61,0.607c-0.001,0 -0.002,0 -0.002,0l-9.98,-0.034c-0.334,-0.002 -0.608,-0.277 -0.608,-0.61c-0,-0.001 -0,-0.002 -0,-0.003l0.014,-4.12c0.001,-0.333 0.276,-0.607 0.61,-0.607c0.001,-0 0.002,-0 0.002,-0l9.98,0.034c0.334,0.002 0.608,0.277 0.608,0.61c0,0.001 0,0.002 0,0.003l-0.014,4.12Z" style="fill:#370b08;fill-rule:nonzero;"/><path d="M271.87,122.66c0,0.329 -0.271,0.6 -0.6,0.6l-10.14,0c-0.329,0 -0.6,-0.271 -0.6,-0.6l0,-4.14c0,-0.329 0.271,-0.6 0.6,-0.6l10.14,0c0.329,0 0.6,0.271 0.6,0.6l0,4.14Z" style="fill:#370b08;fill-rule:nonzero;"/><path d="M280.11,123.26l-6.6,0.01c-0.283,0 -0.519,-0.227 -0.53,-0.51l-0.13,-4.26c-0,-0.007 -0,-0.013 -0,-0.02c-0,-0.291 0.239,-0.53 0.53,-0.53c-0,-0 -0,-0 0,-0l7.23,0.02c0.288,0.004 0.523,0.242 0.523,0.53c0,0.02 -0.001,0.04 -0.003,0.06l-0.5,4.23c-0.03,0.264 -0.254,0.467 -0.52,0.47Z" style="fill:#370b08;fill-rule:nonzero;"/><path d="M247.45,118.49l-0.01,4.18c-0,0.329 -0.271,0.6 -0.6,0.6l-2.67,-0c-0,0 -0.001,0 -0.001,0c-0.329,0 -0.6,-0.271 -0.6,-0.6c-0,-0.013 0,-0.027 0.001,-0.04l0.27,-4.01c0.019,-0.296 0.254,-0.536 0.55,-0.56l2.42,-0.17c0.013,-0.001 0.027,-0.001 0.04,-0.001c0.329,-0 0.6,0.271 0.6,0.6c0,0 0,0.001 -0,0.001Z" style="fill:#370b08;fill-rule:nonzero;"/><path d="M247.433,128.838c-0.003,0.345 -0.29,0.627 -0.636,0.624l-2.76,-0.024c-0.343,-0.003 -0.624,-0.287 -0.624,-0.63c-0,-0.002 -0,-0.004 -0,-0.006l0.034,-3.939c0.003,-0.346 0.29,-0.628 0.636,-0.625l2.76,0.024c0.343,0.003 0.624,0.287 0.624,0.63c0,0.002 0,0.004 0,0.006l-0.034,3.94Z" style="fill:#370b08;fill-rule:nonzero;"/><path d="M259.653,128.77c0,0.001 0,0.001 0,0.001c0,0.368 -0.301,0.67 -0.669,0.67l-9.9,0.018c-0.367,0 -0.67,-0.302 -0.671,-0.669l-0.006,-3.86c-0,-0.001 -0,-0.001 -0,-0.001c-0,-0.368 0.301,-0.67 0.668,-0.67l9.9,-0.018c0.368,-0 0.671,0.302 0.672,0.669l0.006,3.86Z" style="fill:#370b08;fill-rule:nonzero;"/><path d="M271.88,128.8c0,0.357 -0.293,0.65 -0.65,0.65l-10.06,-0c-0.357,-0 -0.65,-0.293 -0.65,-0.65l-0,-3.9c0,-0.357 0.293,-0.65 0.65,-0.65l10.06,0c0.357,0 0.65,0.293 0.65,0.65l0,3.9Z" style="fill:#370b08;fill-rule:nonzero;"/><path d="M278.75,129.47l-5.18,-0.05c-0.375,-0.005 -0.68,-0.315 -0.68,-0.69l-0.02,-3.78c0,-0.379 0.311,-0.69 0.69,-0.69l6.91,-0.01c0.378,0 0.689,0.312 0.689,0.69c0,0.096 -0.02,0.192 -0.059,0.28l-1.72,3.84c-0.11,0.249 -0.358,0.41 -0.63,0.41Z" style="fill:#370b08;fill-rule:nonzero;"/><path d="M247.493,134.795c0,0.005 0,0.01 0,0.015c0,0.351 -0.284,0.642 -0.635,0.65l-2.619,0.059c-0.005,0 -0.01,0 -0.015,0c-0.351,0 -0.642,-0.284 -0.65,-0.635l-0.087,-3.859c-0,-0.005 -0,-0.01 -0,-0.015c-0,-0.351 0.284,-0.642 0.635,-0.65l2.619,-0.059c0.005,-0 0.01,-0 0.015,-0c0.351,-0 0.642,0.284 0.65,0.635l0.087,3.859Z" style="fill:#370b08;fill-rule:nonzero;"/><path d="M259.65,134.85c0,0.357 -0.293,0.65 -0.65,0.65l-9.94,0c-0.357,0 -0.65,-0.293 -0.65,-0.65l0,-3.84c0,-0.357 0.293,-0.65 0.65,-0.65l9.94,0c0.357,0 0.65,0.293 0.65,0.65l0,3.84Z" style="fill:#370b08;fill-rule:nonzero;"/><path d="M271.886,134.74c0,0.001 0,0.002 0,0.003c0,0.394 -0.323,0.718 -0.717,0.72l-9.92,0.034c-0.001,0 -0.002,0 -0.003,0c-0.394,0 -0.718,-0.323 -0.72,-0.717l-0.012,-3.68c-0,-0.001 -0,-0.002 -0,-0.003c-0,-0.394 0.323,-0.718 0.717,-0.72l9.92,-0.034c0.001,-0 0.002,-0 0.003,-0c0.394,-0 0.718,0.323 0.719,0.717l0.013,3.68Z" style="fill:#370b08;fill-rule:nonzero;"/><path d="M276.5,130.42c0.26,-0.1 0.503,-0.08 0.73,0.06c0.104,0.061 0.169,0.173 0.169,0.294c-0,0.167 -0.124,0.311 -0.289,0.336c-1.36,0.247 -2.587,0.807 -3.68,1.68c-0.076,0.062 -0.172,0.096 -0.27,0.096c-0.236,-0 -0.43,-0.195 -0.43,-0.43c-0,-0.006 -0,-0.011 0,-0.016l0.05,-1.19c0.02,-0.447 0.25,-0.71 0.69,-0.79c1.013,-0.187 2.023,-0.2 3.03,-0.04Z" style="fill:#370b08;fill-rule:nonzero;"/><path d="M232.54,134.27c0.7,-1.77 2.84,-3.44 4.76,-2.13c4.54,3.11 -2.13,9.07 -4.52,3.52c-0.12,-0.287 -0.34,-0.43 -0.66,-0.43l-230.41,-0.01c-0.2,-0 -0.3,-0.1 -0.3,-0.3l0,-0.26c0,-0.04 0.02,-0.06 0.06,-0.06l230.58,-0c0.217,-0 0.412,-0.132 0.49,-0.33Z" style="fill:#370b08;fill-rule:nonzero;"/><path d="M247.46,137.06l0,4.03c0,0.318 -0.262,0.58 -0.58,0.58l-1.81,-0.01c-0.28,-0.001 -0.522,-0.204 -0.57,-0.48l-0.69,-4c-0.006,-0.033 -0.009,-0.067 -0.009,-0.1c0,-0.314 0.255,-0.574 0.569,-0.58l2.5,-0.02c0.003,-0 0.007,-0 0.01,-0c0.318,-0 0.58,0.262 0.58,0.58Z" style="fill:#370b08;fill-rule:nonzero;"/><path d="M259.663,140.95c0,0.001 0,0.001 0,0.001c0,0.373 -0.306,0.68 -0.679,0.68l-9.9,0.018c0,-0 -0,-0 -0.001,-0c-0.372,-0 -0.679,-0.307 -0.68,-0.679l-0.006,-3.78c-0,-0.001 -0,-0.001 -0,-0.001c-0,-0.373 0.306,-0.68 0.679,-0.68l9.899,-0.018c0.001,0 0.001,0 0.002,0c0.372,0 0.679,0.307 0.68,0.679l0.006,3.78Z" style="fill:#370b08;fill-rule:nonzero;"/><path d="M271.31,141.61l-9.9,0.04c-0.003,0 -0.007,0 -0.01,0c-0.483,0 -0.88,-0.397 -0.88,-0.88l-0.01,-3.4c-0,-0.003 -0,-0.007 -0,-0.01c-0,-0.483 0.397,-0.88 0.88,-0.88l9.26,0.01c0.418,0.002 0.779,0.3 0.86,0.71l0.66,3.36c0.011,0.056 0.017,0.113 0.017,0.17c-0,0.481 -0.396,0.878 -0.877,0.88Z" style="fill:#370b08;fill-rule:nonzero;"/><path d="M247.03,160.5c-1.673,0.547 -3.107,0.153 -4.3,-1.18c-0.227,-0.253 -0.357,-0.553 -0.39,-0.9c-0.133,-1.72 -0.467,-3.367 -1,-4.94c-0.84,-2.48 -3.06,-4.42 -4.38,-6.98c-0.118,-0.235 -0.166,-0.499 -0.14,-0.76c0.16,-1.893 -0.02,-3.743 -0.54,-5.55c-0.113,-0.4 0.023,-0.673 0.41,-0.82c0.967,-0.36 1.843,-0.873 2.63,-1.54c0.293,-0.247 0.483,-0.183 0.57,0.19c2.033,8.867 5.69,16.993 10.97,24.38c0.28,0.387 0.227,0.44 -0.16,0.16l-2.59,-1.89c-0.327,-0.24 -0.687,-0.297 -1.08,-0.17Z" style="fill:#370b08;fill-rule:nonzero;"/><path d="M5.68,141.97l-0.03,13.01c0,0.45 0.375,0.82 0.83,0.82l11.49,0.02c0.565,0 1.03,-0.465 1.03,-1.03c0,-0.003 0,-0.007 0,-0.01l-0.03,-5.07c-0.007,-0.673 -0.343,-1.007 -1.01,-1l-2.97,0.02c-0.333,-0 -0.5,-0.163 -0.5,-0.49l-0.02,-1.47c0,-0.333 0.17,-0.5 0.51,-0.5l8.01,-0.03c0.347,0 0.517,0.17 0.51,0.51c-0.02,2.38 -0.047,4.727 -0.08,7.04c-0.06,5.12 -3.48,4.53 -7.81,4.64c-3.107,0.073 -6.22,0.05 -9.34,-0.07c-3.77,-0.15 -5.06,-1.06 -5.04,-5.05c0.013,-3.46 0.01,-6.86 -0.01,-10.2c-0.013,-2.907 1.433,-4.363 4.34,-4.37l15.93,0c0.34,0 0.513,0.167 0.52,0.5l0.04,1.51c0.007,0.38 -0.177,0.57 -0.55,0.57l-15.23,0.05c-0.325,0.005 -0.59,0.275 -0.59,0.6Z" style="fill:#370b08;fill-rule:nonzero;"/><path d="M46.4,150.34l7.85,7.83c0.031,0.028 0.048,0.068 0.048,0.11c0,0.083 -0.067,0.15 -0.15,0.15c-0.002,0 -0.005,0 -0.008,-0l-4.86,0.04c-0.113,-0 -0.21,-0.04 -0.29,-0.12l-8.13,-8.15c-0.262,-0.269 -0.623,-0.42 -1,-0.42l-3.87,-0.04c-0.347,-0.007 -0.52,0.167 -0.52,0.52l0,7.73c-0,0.252 -0.208,0.46 -0.46,0.46l-3.56,-0c-0.333,-0 -0.5,-0.167 -0.5,-0.5l0,-18.68c0,-0.32 0.16,-0.483 0.48,-0.49c5.813,-0.093 11.58,-0.11 17.3,-0.05c3.18,0.03 4.51,1.84 4.56,4.9c0.1,5.74 -1.52,5.92 -6.68,6.15c-0.493,0.027 -0.563,0.213 -0.21,0.56Zm2.274,-8.369c0.001,-0.34 -0.279,-0.62 -0.619,-0.621l-11.98,-0.021c-0,0 -0.001,0 -0.001,0c-0.34,0 -0.619,0.28 -0.62,0.619l-0.008,4.68c-0.001,0.341 0.279,0.621 0.619,0.621l11.98,0.021c0,0.001 0.001,0.001 0.001,0.001c0.34,-0 0.619,-0.28 0.62,-0.62l0.008,-4.68Z" style="fill:#370b08;fill-rule:nonzero;"/><path d="M65.27,149.15l-0.05,6.26c0,0.236 0.194,0.43 0.43,0.43l15.4,-0.05c0.236,0 0.43,0.194 0.43,0.43l0.03,1.78c-0,0.236 -0.194,0.43 -0.43,0.43l-19.92,0.03c-0.236,0 -0.43,-0.194 -0.43,-0.43l0.01,-18.87c-0,-0.236 0.194,-0.43 0.43,-0.43l19.89,0.01c0.236,0 0.43,0.194 0.43,0.43l-0,1.75c0,0.236 -0.194,0.43 -0.43,0.43l-15.39,-0.02c-0.236,0 -0.43,0.194 -0.43,0.43l0,4.07c0,0.236 0.194,0.43 0.43,0.43l13.98,0c0.236,0 0.43,0.194 0.43,0.43l-0.02,1.61c-0,0.236 -0.194,0.43 -0.43,0.43l-13.93,-0.01c-0.236,-0 -0.43,0.194 -0.43,0.43Z" style="fill:#370b08;fill-rule:nonzero;"/><path d="M93.5,149.15l0,6.26c0,0.236 0.194,0.43 0.43,0.43l15.37,-0.05c0.232,-0 0.425,0.188 0.43,0.42l0.05,1.8c0,0.003 0,0.007 0,0.01c0,0.236 -0.194,0.43 -0.43,0.43l-19.9,0c-0.236,0 -0.43,-0.194 -0.43,-0.43l-0.01,-18.85c0,-0.236 0.194,-0.43 0.43,-0.43l19.88,-0.01c0.232,-0 0.425,0.188 0.43,0.42l0.02,1.77c0,0.003 0,0.007 0,0.01c0,0.236 -0.194,0.43 -0.43,0.43c0,0 0,0 0,0l-15.41,-0.03c-0.236,0 -0.43,0.194 -0.43,0.43l0,4.08c0,0.236 0.194,0.43 0.43,0.43l13.98,-0.01c0.236,-0 0.43,0.194 0.43,0.43c0,0.003 0,0.007 0,0.01l-0.03,1.61c-0.005,0.232 -0.198,0.42 -0.43,0.42l-13.95,-0.01c-0.236,-0 -0.43,0.194 -0.43,0.43Z" style="fill:#370b08;fill-rule:nonzero;"/><path d="M135.34,138.76l3.86,-0.05c0.176,0 0.32,0.144 0.32,0.32l0,19.11c0,0.176 -0.144,0.32 -0.32,0.32l-4.26,0c-0.092,-0 -0.18,-0.041 -0.24,-0.11l-12.39,-13.87c-0.061,-0.069 -0.148,-0.108 -0.24,-0.108c-0.175,-0 -0.319,0.143 -0.32,0.318l0.03,13.42c-0,0.176 -0.144,0.32 -0.32,0.32l-3.85,0.05c-0.176,0 -0.32,-0.144 -0.32,-0.32l-0,-19.12c-0,-0.176 0.144,-0.32 0.32,-0.32l4.27,0.01c0.092,0 0.18,0.041 0.24,0.11l12.43,13.85c0.06,0.062 0.143,0.098 0.23,0.098c0.171,-0 0.313,-0.137 0.32,-0.308l-0.08,-13.4c0,-0.176 0.144,-0.32 0.32,-0.32Z" style="fill:#370b08;fill-rule:nonzero;"/><path d="M155.53,141.34l-9.26,0c-0.238,0 -0.435,-0.192 -0.44,-0.43l-0.02,-1.73c-0,-0.003 -0,-0.007 -0,-0.01c-0,-0.241 0.199,-0.44 0.44,-0.44l23.83,0.01c0.241,-0 0.44,0.199 0.44,0.44c0,0.003 0,0.007 0,0.01l-0.02,1.65c-0.005,0.238 -0.202,0.43 -0.44,0.43l-9.17,0.08c-0.241,-0 -0.44,0.199 -0.44,0.44l0.02,16.22c-0,0.241 -0.199,0.44 -0.44,0.44l-3.65,-0.01c-0.241,-0 -0.44,-0.199 -0.44,-0.44l0.03,-16.22c-0,-0.241 -0.199,-0.44 -0.44,-0.44Z" style="fill:#370b08;fill-rule:nonzero;"/><path d="M181.27,149.22l0,6.13c0,0.274 0.226,0.5 0.5,0.5l15.28,-0.07c0.271,-0 0.495,0.219 0.5,0.49l0.05,1.66c0,0.003 0,0.007 0,0.01c0,0.274 -0.226,0.5 -0.5,0.5l-19.81,0c-0.274,0 -0.5,-0.226 -0.5,-0.5l0.01,-18.71c0,-0.274 0.226,-0.5 0.5,-0.5l19.78,-0c0.274,-0 0.5,0.226 0.5,0.5c0,0.003 0,0.007 0,0.01l-0.01,1.62c0,0.274 -0.226,0.5 -0.5,0.5c-0.003,0 -0.007,0 -0.01,0l-15.28,-0.03c-0.274,0 -0.5,0.226 -0.5,0.5l0.01,3.93c-0,0.274 0.226,0.5 0.5,0.5l13.92,-0c0.274,-0 0.5,0.226 0.5,0.5c0,0.003 0,0.007 0,0.01l-0.02,1.47c-0.005,0.271 -0.229,0.49 -0.5,0.49l-13.92,-0.01c-0.274,0 -0.5,0.226 -0.5,0.5Z" style="fill:#370b08;fill-rule:nonzero;"/><path d="M209.55,142.04l-0.01,13.11c0,0.362 0.298,0.66 0.66,0.66l15.05,0.02c0.377,-0 0.689,0.299 0.7,0.67l0.03,1.3c0,0.003 0,0.007 0,0.01c0,0.357 -0.293,0.65 -0.65,0.65c0,0 0,0 0,0l-16.5,-0.05c-2.02,-0.005 -3.68,-1.669 -3.68,-3.69c0,-4.44 0.013,-8.597 0.04,-12.47c0.01,-2.78 3.09,-3.62 5.56,-3.6c4.953,0.04 9.77,0.073 14.45,0.1c0.467,0 0.703,0.237 0.71,0.71l0.02,1.24c0,0.413 -0.207,0.62 -0.62,0.62l-15.09,0.05c-0.368,0 -0.67,0.302 -0.67,0.67Z" style="fill:#370b08;fill-rule:nonzero;"/><path d="M246.3,147.87c-0.226,0.007 -0.43,-0.147 -0.49,-0.37l-1.06,-4.1c-0.127,-0.513 0.073,-0.777 0.6,-0.79l1.21,-0.03c0.567,-0.02 0.863,0.257 0.89,0.83c0.04,1.113 0.007,2.347 -0.1,3.7c-0.027,0.34 -0.137,0.55 -0.33,0.63c-0.18,0.073 -0.42,0.117 -0.72,0.13Z" style="fill:#370b08;fill-rule:nonzero;"/><path d="M259.66,147.06c0,0.373 -0.307,0.68 -0.68,0.68l-9.86,0c-0.373,0 -0.68,-0.307 -0.68,-0.68l0,-3.8c0,-0.373 0.307,-0.68 0.68,-0.68l9.86,0c0.373,0 0.68,0.307 0.68,0.68l0,3.8Z" style="fill:#370b08;fill-rule:nonzero;"/><path d="M267.69,145.43c-0.033,0.547 0.117,1.04 0.45,1.48c0.068,0.089 0.105,0.198 0.105,0.31c0,0.28 -0.23,0.51 -0.51,0.51c-0.002,0 -0.003,0 -0.005,0l-6.47,0.02c-0.487,0 -0.733,-0.247 -0.74,-0.74l0,-3.72c0,-0.487 0.243,-0.73 0.73,-0.73l9.27,0.02c1.393,0 1.46,0.3 0.2,0.9l-2.54,1.21c-0.313,0.147 -0.477,0.393 -0.49,0.74Z" style="fill:#370b08;fill-rule:nonzero;"/><path d="M259.643,153.3c-0.001,0.356 -0.296,0.649 -0.652,0.647l-9.94,-0.034c-0.357,-0.002 -0.649,-0.296 -0.648,-0.653l0.014,-3.98c0.001,-0.356 0.296,-0.649 0.652,-0.647l9.94,0.034c0.357,0.002 0.649,0.296 0.648,0.653l-0.014,3.98Z" style="fill:#370b08;fill-rule:nonzero;"/><path d="M267.38,149.27l-4.72,4.88c-0.091,0.092 -0.224,0.13 -0.35,0.1l-1.49,-0.34c-0.168,-0.037 -0.289,-0.188 -0.29,-0.36l-0.02,-4.56c0,-0.203 0.167,-0.37 0.37,-0.37l6.23,0.03c0.202,0.002 0.367,0.168 0.367,0.37c0,0.093 -0.034,0.182 -0.097,0.25Z" style="fill:#370b08;fill-rule:nonzero;"/><path d="M247.38,151.25c-0.013,0.147 -0.057,0.287 -0.13,0.42c-0.167,0.313 -0.293,0.297 -0.38,-0.05l-0.48,-1.94c-0.307,-1.227 0.017,-1.39 0.97,-0.49c0.26,0.247 0.303,0.683 0.13,1.31c-0.02,0.08 -0.057,0.33 -0.11,0.75Z" style="fill:#370b08;fill-rule:nonzero;"/><path d="M248.95,154.83l9.83,0.08c0.387,-0 0.65,0.18 0.79,0.54c0.147,0.373 0.197,0.763 0.15,1.17c-0.04,0.34 -0.197,0.613 -0.47,0.82c-3.29,2.55 -5.03,1.61 -7.98,2.49c-0.397,0.115 -0.824,-0.081 -1,-0.46l-1.8,-3.89c-0.032,-0.069 -0.048,-0.144 -0.048,-0.22c0,-0.29 0.238,-0.529 0.528,-0.53Z" style="fill:#370b08;fill-rule:nonzero;"/></svg>