<?xml version="1.0" encoding="UTF-8" standalone="no"?><!DOCTYPE svg PUBLIC "-//W3C//DTD SVG 1.1//EN" "http://www.w3.org/Graphics/SVG/1.1/DTD/svg11.dtd"><svg width="100%" height="100%" viewBox="0 0 492 100" version="1.1" xmlns="http://www.w3.org/2000/svg" xmlns:xlink="http://www.w3.org/1999/xlink" xml:space="preserve" xmlns:serif="http://www.serif.com/" style="fill-rule:evenodd;clip-rule:evenodd;"><g><path d="M2.47,63.74c0.72,20.58 12.82,35.23 34.03,35.62c17.24,0.32 33.26,-6.63 37.57,-24.82c0.64,-2.693 0.76,-4.507 0.36,-5.44c-1.1,-2.59 -7.34,-2.71 -8.12,-0.07c-3.08,10.41 -5.87,17.62 -17.34,20.61c-21.36,5.58 -37.49,-4.22 -37.91,-27.39c-0.133,-7.167 -0.197,-14.333 -0.19,-21.5c0.04,-22.99 14.14,-34.92 37.13,-29.76c11.32,2.55 15.28,9.87 18.06,20.32c0.5,1.88 1.72,2.747 3.66,2.6l2.19,-0.16c1.993,-0.153 2.87,-1.22 2.63,-3.2c-1.24,-10.387 -5.933,-18.137 -14.08,-23.25c-12.69,-7.97 -35.07,-8 -46.59,2.39c-7.47,6.74 -10.97,17.39 -11.35,27.31c-0.34,8.92 -0.357,17.833 -0.05,26.74" style="fill:none;fill-rule:nonzero;stroke:#bbda95;stroke-width:2px;"/><path d="M97.57,64.5c1.08,25.28 16.46,36.62 40.92,34.51c32.13,-2.77 31.2,-32.26 30.82,-56.01c-0.25,-14.98 -3.5,-29.37 -17.34,-36.99c-7.98,-4.39 -18.49,-5.2 -27.47,-3.55c-17.72,3.27 -26.18,17.47 -26.92,34.54c-0.393,9.167 -0.397,18.333 -0.01,27.5" style="fill:none;fill-rule:nonzero;stroke:#bbda95;stroke-width:2px;"/><path d="M206.81,11.33c8.38,-0.187 16.86,-0.15 25.44,0.11c17.97,0.53 25.71,10.55 26.13,27.81c0.233,9.56 0.11,18.057 -0.37,25.49c-1.16,17.86 -9.22,24.82 -27.02,24.91c-9.653,0.053 -19.76,0.1 -30.32,0.14c-2.153,0.007 -3.217,1.087 -3.19,3.24l0.03,2.47c0.016,1.345 1.12,2.445 2.46,2.45c11.127,0.067 22.05,0.053 32.77,-0.04c22.61,-0.2 33.12,-10.69 34.11,-33.16c0.57,-13 1.34,-27.36 -1.76,-40.08c-3.93,-16.1 -17.6,-21.34 -32.59,-21.55c-10.473,-0.14 -21.253,-0.15 -32.34,-0.03c-1.448,0.016 -2.63,1.212 -2.63,2.66l-0.03,40.79c-0,2.193 1.097,3.267 3.29,3.22l2.03,-0.05c2.14,-0.053 3.21,-1.147 3.21,-3.28l0.04,-34.34c-0,-0.409 0.331,-0.749 0.74,-0.76" style="fill:none;fill-rule:nonzero;stroke:#bbda95;stroke-width:2px;"/><path d="M304.53,5.82c-0,-1.52 -1.25,-2.77 -2.77,-2.77l-3.08,-0c-1.52,0 -2.77,1.25 -2.77,2.77l-0,89.36c-0,1.52 1.25,2.77 2.77,2.77l3.08,0c1.52,-0 2.77,-1.25 2.77,-2.77l-0,-89.36" style="fill:none;fill-rule:nonzero;stroke:#bbda95;stroke-width:2px;"/><path d="M373.39,58.39l21.64,36.69c1.367,2.32 3.387,3.303 6.06,2.95l0.56,-0.07c0.191,-0.026 0.378,-0.07 0.56,-0.133c1.493,-0.517 2.297,-2.167 1.782,-3.655c-0.063,-0.181 -0.144,-0.356 -0.242,-0.522l-21.27,-36.16c-0.074,-0.125 -0.113,-0.267 -0.113,-0.412c0,-0.374 0.259,-0.701 0.623,-0.788c15.85,-3.75 22.18,-18.41 18.65,-33.48c-3.37,-14.42 -16.49,-19.91 -30.14,-19.88c-10.83,0.02 -22.25,-0.5 -33.01,0.35c-1.031,0.078 -1.838,0.951 -1.84,1.99l-0.01,90.1c0,1.813 0.91,2.693 2.73,2.64l3.22,-0.11c1.773,-0.053 2.657,-0.967 2.65,-2.74l-0.01,-36.99c0,-0.154 0.122,-0.28 0.27,-0.28l27.02,-0c0.36,0 0.692,0.191 0.87,0.5" style="fill:none;fill-rule:nonzero;stroke:#bbda95;stroke-width:2px;"/><path d="M488.98,5.97c0,-1.618 -1.332,-2.95 -2.95,-2.95l-53,0c-1.618,0 -2.95,1.332 -2.95,2.95l-0,2.34c-0,1.618 1.332,2.95 2.95,2.95l53,0c1.618,0 2.95,-1.332 2.95,-2.95l0,-2.34" style="fill:none;fill-rule:nonzero;stroke:#bbda95;stroke-width:2px;"/><path d="M438.71,89.22l-0.01,-30.96c-0,-0.23 0.19,-0.42 0.42,-0.42l46.44,0c2.267,0 3.407,-1.133 3.42,-3.4l0.01,-1.42c0.013,-2.28 -1.12,-3.42 -3.4,-3.42c-17.107,-0.027 -33.97,-0.017 -50.59,0.03c-1.387,0.007 -2.637,0.16 -3.75,0.46c-0.334,0.087 -0.598,0.351 -0.69,0.69c-0.36,1.36 -0.54,2.933 -0.54,4.72c-0.013,13.107 -0.007,26.11 0.02,39.01c0.007,2.327 1.173,3.49 3.5,3.49l52.11,-0.03c2.247,0 3.367,-1.123 3.36,-3.37l-0.01,-1.61c-0.013,-2.16 -1.1,-3.24 -3.26,-3.24l-46.51,-0.01c-0.347,0 -0.52,-0.173 -0.52,-0.52" style="fill:none;fill-rule:nonzero;stroke:#bbda95;stroke-width:2px;"/><path d="M160.06,35.74c-1.57,-19.47 -16.95,-29.82 -35.83,-24.59c-13.42,3.71 -18.01,16.83 -18.24,29.6c-0.35,19.68 -3.04,47.84 24.29,50.15c15.67,1.33 27.9,-7.38 29.62,-23.62c1.027,-9.693 1.08,-20.207 0.16,-31.54" style="fill:none;fill-rule:nonzero;stroke:#bbda95;stroke-width:2px;"/><path d="M345.23,11.74l0,37.46c0,0.225 0.185,0.41 0.41,0.41l28.99,0c10.489,0 19.12,-7.782 19.12,-17.24l-0,-3.8c-0,-9.458 -8.631,-17.24 -19.12,-17.24l-28.99,0c-0.225,0 -0.41,0.185 -0.41,0.41" style="fill:none;fill-rule:nonzero;stroke:#bbda95;stroke-width:2px;"/></g><path d="M36.5,99.36c-21.21,-0.39 -33.31,-15.04 -34.03,-35.62c-0.307,-8.907 -0.29,-17.82 0.05,-26.74c0.38,-9.92 3.88,-20.57 11.35,-27.31c11.52,-10.39 33.9,-10.36 46.59,-2.39c8.147,5.113 12.84,12.863 14.08,23.25c0.24,1.98 -0.637,3.047 -2.63,3.2l-2.19,0.16c-1.94,0.147 -3.16,-0.72 -3.66,-2.6c-2.78,-10.45 -6.74,-17.77 -18.06,-20.32c-22.99,-5.16 -37.09,6.77 -37.13,29.76c-0.007,7.167 0.057,14.333 0.19,21.5c0.42,23.17 16.55,32.97 37.91,27.39c11.47,-2.99 14.26,-10.2 17.34,-20.61c0.78,-2.64 7.02,-2.52 8.12,0.07c0.4,0.933 0.28,2.747 -0.36,5.44c-4.31,18.19 -20.33,25.14 -37.57,24.82Z" style="fill:#77b52a;fill-rule:nonzero;"/><path d="M138.49,99.01c-24.46,2.11 -39.84,-9.23 -40.92,-34.51c-0.387,-9.167 -0.383,-18.333 0.01,-27.5c0.74,-17.07 9.2,-31.27 26.92,-34.54c8.98,-1.65 19.49,-0.84 27.47,3.55c13.84,7.62 17.09,22.01 17.34,36.99c0.38,23.75 1.31,53.24 -30.82,56.01Zm21.57,-63.27c-1.57,-19.47 -16.95,-29.82 -35.83,-24.59c-13.42,3.71 -18.01,16.83 -18.24,29.6c-0.35,19.68 -3.04,47.84 24.29,50.15c15.67,1.33 27.9,-7.38 29.62,-23.62c1.027,-9.693 1.08,-20.207 0.16,-31.54Z" style="fill:#77b52a;fill-rule:nonzero;"/><path d="M206.81,11.33c-0.409,0.011 -0.74,0.351 -0.74,0.76l-0.04,34.34c0,2.133 -1.07,3.227 -3.21,3.28l-2.03,0.05c-2.193,0.047 -3.29,-1.027 -3.29,-3.22l0.03,-40.79c-0,-1.448 1.182,-2.644 2.63,-2.66c11.087,-0.12 21.867,-0.11 32.34,0.03c14.99,0.21 28.66,5.45 32.59,21.55c3.1,12.72 2.33,27.08 1.76,40.08c-0.99,22.47 -11.5,32.96 -34.11,33.16c-10.72,0.093 -21.643,0.107 -32.77,0.04c-1.34,-0.005 -2.444,-1.105 -2.46,-2.45l-0.03,-2.47c-0.027,-2.153 1.037,-3.233 3.19,-3.24c10.56,-0.04 20.667,-0.087 30.32,-0.14c17.8,-0.09 25.86,-7.05 27.02,-24.91c0.48,-7.433 0.603,-15.93 0.37,-25.49c-0.42,-17.26 -8.16,-27.28 -26.13,-27.81c-8.58,-0.26 -17.06,-0.297 -25.44,-0.11Z" style="fill:#77b52a;fill-rule:nonzero;"/><path d="M304.53,95.18c-0,1.52 -1.25,2.77 -2.77,2.77l-3.08,0c-1.52,-0 -2.77,-1.25 -2.77,-2.77l-0,-89.36c-0,-1.52 1.25,-2.77 2.77,-2.77l3.08,-0c1.52,0 2.77,1.25 2.77,2.77l-0,89.36Z" style="fill:#77b52a;fill-rule:nonzero;"/><path d="M372.52,57.89l-27.02,0c-0.148,0 -0.27,0.126 -0.27,0.28l0.01,36.99c0.007,1.773 -0.877,2.687 -2.65,2.74l-3.22,0.11c-1.82,0.053 -2.73,-0.827 -2.73,-2.64l0.01,-90.1c0.002,-1.039 0.809,-1.912 1.84,-1.99c10.76,-0.85 22.18,-0.33 33.01,-0.35c13.65,-0.03 26.77,5.46 30.14,19.88c3.53,15.07 -2.8,29.73 -18.65,33.48c-0.364,0.087 -0.623,0.414 -0.623,0.788c0,0.145 0.039,0.287 0.113,0.412l21.27,36.16c0.098,0.166 0.179,0.341 0.242,0.522c0.515,1.488 -0.289,3.138 -1.782,3.655c-0.182,0.063 -0.369,0.107 -0.56,0.133l-0.56,0.07c-2.673,0.353 -4.693,-0.63 -6.06,-2.95l-21.64,-36.69c-0.178,-0.309 -0.51,-0.5 -0.87,-0.5Zm-27.29,-46.15l0,37.46c0,0.225 0.185,0.41 0.41,0.41l28.99,0c10.489,0 19.12,-7.782 19.12,-17.24l0,-3.8c0,-9.458 -8.631,-17.24 -19.12,-17.24l-28.99,0c-0.225,0 -0.41,0.185 -0.41,0.41Z" style="fill:#77b52a;fill-rule:nonzero;"/><path d="M488.98,8.31c0,1.618 -1.332,2.95 -2.95,2.95l-53,-0c-1.618,-0 -2.95,-1.332 -2.95,-2.95l-0,-2.34c-0,-1.618 1.332,-2.95 2.95,-2.95l53,-0c1.618,-0 2.95,1.332 2.95,2.95l0,2.34Z" style="fill:#77b52a;fill-rule:nonzero;"/><path d="M439.23,89.74l46.51,0.01c2.16,0 3.247,1.08 3.26,3.24l0.01,1.61c0.007,2.247 -1.113,3.37 -3.36,3.37l-52.11,0.03c-2.327,0 -3.493,-1.163 -3.5,-3.49c-0.027,-12.9 -0.033,-25.903 -0.02,-39.01c0,-1.787 0.18,-3.36 0.54,-4.72c0.092,-0.339 0.356,-0.603 0.69,-0.69c1.113,-0.3 2.363,-0.453 3.75,-0.46c16.62,-0.047 33.483,-0.057 50.59,-0.03c2.28,-0 3.413,1.14 3.4,3.42l-0.01,1.42c-0.013,2.267 -1.153,3.4 -3.42,3.4l-46.44,-0c-0.23,-0 -0.42,0.19 -0.42,0.42l0.01,30.96c0,0.347 0.173,0.52 0.52,0.52Z" style="fill:#77b52a;fill-rule:nonzero;"/></svg>