<?xml version="1.0" encoding="UTF-8" standalone="no"?><!DOCTYPE svg PUBLIC "-//W3C//DTD SVG 1.1//EN" "http://www.w3.org/Graphics/SVG/1.1/DTD/svg11.dtd"><svg width="100%" height="100%" viewBox="0 0 1000 207" version="1.1" xmlns="http://www.w3.org/2000/svg" xmlns:xlink="http://www.w3.org/1999/xlink" xml:space="preserve" xmlns:serif="http://www.serif.com/" style="fill-rule:evenodd;clip-rule:evenodd;stroke-linejoin:round;stroke-miterlimit:2;"><path d="M174.1,0l10.66,0c50.33,4.99 57.88,59.07 39.08,96.12c-12.3,24.23 -35.31,37.73 -62.84,34.41c-12.64,-1.527 -23.617,-6.613 -32.93,-15.26c-0.373,-0.341 -0.858,-0.53 -1.36,-0.53l-28.72,0.01c-0.245,-0.002 -0.445,-0.205 -0.445,-0.45c-0,-0.023 0.001,-0.047 0.005,-0.07l1.78,-11.44c0.044,-0.308 0.314,-0.539 0.63,-0.54l18.3,-0.01c0.03,0 0.06,-0.002 0.09,-0.008c0.259,-0.048 0.432,-0.305 0.383,-0.569c-0.005,-0.028 -0.013,-0.056 -0.023,-0.083c-16.01,-41.15 6.44,-98.09 55.39,-101.58Zm-1.77,101.36c11.65,-2.39 15.23,-15.34 17.62,-25.87c2.64,-11.63 6.92,-28.91 1.58,-38.76c-4.49,-8.27 -15.67,-9.69 -22.94,-4.38c-11.69,8.52 -14.72,33.63 -15.77,46.9c-1.02,12.93 4.11,25.27 19.51,22.11Z" style="fill:#0187ce;fill-rule:nonzero;"/><path d="M672.67,114.73l-42.34,0.01c-0.001,0 -0.003,0 -0.004,0c-0.236,0 -0.43,-0.194 -0.43,-0.43c-0,-0.02 0.001,-0.04 0.004,-0.06l1.72,-11.64c0.029,-0.209 0.209,-0.367 0.42,-0.37l42.89,0.01c0.208,-0.002 0.386,-0.155 0.42,-0.36l11.73,-69.63c0.004,-0.023 0.006,-0.047 0.006,-0.07c-0,-0.236 -0.194,-0.43 -0.43,-0.43c-0.002,-0 -0.004,-0 -0.006,-0l-25.59,-0.03c-0.234,-0.002 -0.426,-0.196 -0.426,-0.43c0,-0.023 0.002,-0.047 0.006,-0.07l4.51,-28.12c0.034,-0.209 0.218,-0.363 0.43,-0.36l89.86,-0c0.002,-0 0.004,-0 0.006,-0c0.236,-0 0.43,0.194 0.43,0.43c-0,0.023 -0.002,0.047 -0.006,0.07l-4.73,28.35c-0.034,0.209 -0.218,0.363 -0.43,0.36l-26.65,-0.29c-0.212,-0.003 -0.396,0.151 -0.43,0.36l-16.07,95.62c-0.034,0.205 -0.212,0.358 -0.42,0.36l-35.64,-0.01c-0.002,0 -0.004,0 -0.006,0c-0.236,0 -0.43,-0.194 -0.43,-0.43c0,-0.023 0.002,-0.047 0.006,-0.07l2.03,-12.27c0.004,-0.023 0.006,-0.047 0.006,-0.07c-0,-0.236 -0.194,-0.43 -0.43,-0.43c-0.002,-0 -0.004,-0 -0.006,-0Z" style="fill:#0187ce;fill-rule:nonzero;"/><path d="M933.25,2.74c9.76,0.09 10.3,12.33 11.4,19.02c0.6,3.61 -3.77,6.36 -7.2,5.7c-0.32,-0.067 -0.597,-0.213 -0.83,-0.44c-6.227,-6.16 -12.353,-12.41 -18.38,-18.75c-1.14,-1.2 -1.64,-2.363 -1.5,-3.49c0.137,-1.071 1.046,-1.89 2.13,-1.92c4.973,-0.127 9.767,-0.167 14.38,-0.12Z" style="fill:#ffd400;fill-rule:nonzero;"/><path d="M961.01,2.72c7.24,0.08 -0.28,15.93 -1.44,18.9c-0.15,0.385 -0.527,0.637 -0.94,0.63l-5.75,-0.12c-0.473,-0.007 -0.763,-0.24 -0.87,-0.7c-0.93,-3.88 -5.29,-18.64 1.74,-18.71c2.42,-0.027 4.84,-0.027 7.26,0Z" style="fill:#ffd400;fill-rule:nonzero;"/><path d="M967.78,17.9c1.94,-5.53 4.84,-14.88 10.22,-15.08c4.967,-0.18 9.933,-0.093 14.9,0.26c0.34,0.023 0.618,0.293 0.66,0.64c0.047,0.38 -0.083,0.787 -0.39,1.22c-4.91,6.86 -11.91,12.69 -18.1,18.38c-1.46,1.34 -3.48,1.877 -6.06,1.61c-4.12,-0.43 -2.14,-4.45 -1.23,-7.03Z" style="fill:#ffd400;fill-rule:nonzero;"/><path d="M0,128l0,-1.58l20.63,-122.72c0.053,-0.313 0.24,-0.47 0.56,-0.47l37.07,0.02c0.24,0.002 0.436,0.2 0.436,0.44c-0,0.023 -0.002,0.047 -0.006,0.07l-15.6,93.63c-0.003,0.017 -0.004,0.033 -0.004,0.05c0,0.176 0.145,0.32 0.32,0.32c0.001,0 0.003,0 0.004,0l46.49,-0.01c0.01,-0 0.02,0 0.03,0.001c0.197,0.014 0.347,0.192 0.333,0.395c-0.001,0.008 -0.002,0.016 -0.003,0.024l-4.62,29.11c-0.064,0.407 -0.418,0.71 -0.83,0.71l-84.81,0.01Z" style="fill:#0187ce;fill-rule:nonzero;"/><path d="M432.16,98.99l54.66,0.02c0.234,0.002 0.426,0.196 0.426,0.43c-0,0.023 -0.002,0.047 -0.006,0.07l-4.49,28.14c-0.034,0.209 -0.218,0.363 -0.43,0.36l-91.6,-0.01c-0.234,-0.002 -0.426,-0.196 -0.426,-0.43c0,-0.023 0.002,-0.047 0.006,-0.07l2.14,-12.29c0.004,-0.023 0.006,-0.047 0.006,-0.07c-0,-0.234 -0.192,-0.428 -0.426,-0.43l-26.86,-0.04c-0.192,-0.003 -0.361,-0.134 -0.41,-0.32l-2.96,-11.58c-0.01,-0.036 -0.014,-0.073 -0.014,-0.11c-0,-0.234 0.19,-0.427 0.424,-0.43l32.06,0.04c0.208,-0.002 0.386,-0.155 0.42,-0.36l16.36,-98.35c0.034,-0.205 0.212,-0.358 0.42,-0.36l89.14,0.07c0.002,-0 0.004,-0 0.006,-0c0.236,-0 0.43,0.194 0.43,0.43c-0,0.023 -0.002,0.047 -0.006,0.07l-4.45,26.6c-0.034,0.205 -0.212,0.358 -0.42,0.36l-52.77,0.01c-0.208,0.002 -0.386,0.155 -0.42,0.36l-3.03,18.4c-0.004,0.023 -0.006,0.047 -0.006,0.07c0,0.236 0.194,0.43 0.43,0.43c0.002,0 0.004,0 0.006,-0l43.88,-0c0.234,0.002 0.426,0.196 0.426,0.43c-0,0.023 -0.002,0.047 -0.006,0.07l-4.51,26.4c-0.034,0.205 -0.212,0.358 -0.42,0.36l-44.15,-0c-0.212,-0.003 -0.396,0.151 -0.43,0.36l-3.43,20.87c-0.004,0.023 -0.006,0.047 -0.006,0.07c0,0.236 0.194,0.43 0.43,0.43c0.002,0 0.004,0 0.006,-0Z" style="fill:#0187ce;fill-rule:nonzero;"/><path d="M598.19,72.83c0.033,-5.793 0.577,-11.82 1.63,-18.08c2.833,-16.827 5.687,-33.82 8.56,-50.98c0.063,-0.38 0.4,-0.661 0.79,-0.66l28.86,0.19c0.229,0.002 0.416,0.191 0.416,0.42c-0,0.023 -0.002,0.047 -0.006,0.07l-20.74,123.87c-0.03,0.19 -0.192,0.332 -0.38,0.33l-26.96,0.06c-0.402,0.001 -0.77,-0.229 -0.94,-0.59l-5.63,-11.71c-0.298,-0.621 -0.931,-1.016 -1.62,-1.01l-27.1,0.01c-0.015,-0 -0.03,-0.001 -0.045,-0.002c-0.317,-0.026 -0.557,-0.313 -0.53,-0.635c0.001,-0.015 0.003,-0.029 0.005,-0.043l1.84,-11.29c0.053,-0.305 0.32,-0.53 0.63,-0.53l18.8,-0.01c0.813,0 1.027,-0.357 0.64,-1.07c-8.01,-14.89 -17.04,-31.23 -21.6,-47.57c-0.42,-1.507 -0.65,-1.48 -0.69,0.08c-0.053,1.933 -0.277,4.103 -0.67,6.51c-3.66,22.393 -7.337,44.803 -11.03,67.23c-0.058,0.339 -0.351,0.589 -0.69,0.59l-29.56,0c-0.284,-0.001 -0.518,-0.236 -0.518,-0.52c0,-0.03 0.003,-0.06 0.008,-0.09l2.09,-12.24c0.003,-0.02 0.005,-0.04 0.005,-0.06c0,-0.198 -0.162,-0.36 -0.36,-0.36c-0.002,-0 -0.003,-0 -0.005,0l-18.33,-0.01c-0.201,-0.003 -0.365,-0.169 -0.365,-0.37c0,-0.02 0.002,-0.04 0.005,-0.06l1.89,-11.56c0.067,-0.38 0.293,-0.567 0.68,-0.56l17.49,0.36c0.617,0.013 1.156,-0.437 1.26,-1.05l16.32,-97.63c0.079,-0.498 0.516,-0.866 1.02,-0.86l32.49,0.33c0.323,-0.001 0.62,0.191 0.76,0.49c6.953,14.46 13.717,28.707 20.29,42.74c4.087,8.713 7.643,17.503 10.67,26.37c0.407,1.207 0.613,1.173 0.62,-0.1Z" style="fill:#0187ce;fill-rule:nonzero;"/><path d="M315.08,101.57l-4.54,-20.21c-0.065,-0.303 -0.335,-0.524 -0.65,-0.53l-13.56,-0.25c-0.327,-0.005 -0.61,0.231 -0.66,0.55l-7.85,46.56c-0.033,0.183 -0.194,0.318 -0.38,0.32l-34.84,0.02c-0.003,0 -0.006,0 -0.009,0c-0.318,0 -0.58,-0.262 -0.58,-0.58c0,-0.033 0.003,-0.067 0.009,-0.1l2,-12.05c0.002,-0.014 0.004,-0.027 0.005,-0.041c0.021,-0.268 -0.187,-0.506 -0.46,-0.527c-0.012,-0.001 -0.023,-0.002 -0.035,-0.002l-32.8,0.01c-0.176,0 -0.32,-0.144 -0.32,-0.32c-0,-0.073 0.025,-0.143 0.07,-0.2l9.56,-11.66c0.207,-0.253 0.47,-0.377 0.79,-0.37l24.67,0.24c0.431,-0 0.811,-0.367 0.89,-0.86l16.27,-97.81c0.047,-0.3 0.223,-0.453 0.53,-0.46c31.38,-0.127 51.31,-0.127 59.79,-0c27.06,0.39 43.33,20.74 36.93,46.93c-3.07,12.6 -12.41,20.97 -24.31,25.28c-0.36,0.131 -0.565,0.519 -0.47,0.89l13.28,51.04c0.009,0.036 0.014,0.073 0.014,0.11c-0,0.247 -0.203,0.45 -0.45,0.45c-0.002,0 -0.003,0 -0.004,-0l-35.97,-0c-0.461,-0.001 -0.864,-0.321 -0.97,-0.77l-2.69,-11.9c-0.075,-0.343 -0.384,-0.59 -0.74,-0.59l-17.39,-0.03c-0.008,0 -0.017,-0 -0.025,-0.001c-0.148,-0.011 -0.259,-0.147 -0.247,-0.3c0,-0.006 0.001,-0.013 0.002,-0.019l1.73,-11.54c0.06,-0.407 0.297,-0.61 0.71,-0.61l12.16,-0c0.46,-0 0.64,-0.223 0.54,-0.67Zm19.02,-61.06c-0.54,-13.35 -20.74,-11.2 -29.03,-11.01c-0.417,0.007 -0.774,0.31 -0.85,0.72l-4.08,23.78c-0.06,0.353 0.09,0.53 0.45,0.53c10.08,-0 34.2,2.82 33.51,-14.02Z" style="fill:#0187ce;fill-rule:nonzero;"/><path d="M821.36,30.48l-48.16,0.02c-0.268,-0.002 -0.487,-0.222 -0.487,-0.49c0,-0.027 0.003,-0.054 0.007,-0.08l4.33,-26.13c0.06,-0.367 0.277,-0.55 0.65,-0.55l95.03,-0c0.24,-0 0.34,0.12 0.3,0.36c-1.193,7.32 -2.38,14.533 -3.56,21.64c-0.2,1.233 -0.867,2.473 -2,3.72c-21.393,23.493 -42.723,46.96 -63.99,70.4c-0.06,0.069 -0.094,0.158 -0.094,0.25c0,0.206 0.168,0.377 0.374,0.38l55.75,-0.01c0.012,0 0.023,0.001 0.035,0.002c0.246,0.021 0.431,0.236 0.411,0.476c-0.002,0.014 -0.003,0.028 -0.006,0.042l-4.43,26.69c-0.074,0.46 -0.479,0.802 -0.95,0.8l-100.6,0.01c-0.378,-0.001 -0.689,-0.312 -0.689,-0.69c0,-0.037 0.003,-0.074 0.009,-0.11l1.96,-11.95c0.002,-0.014 0.004,-0.028 0.005,-0.042c0.021,-0.262 -0.183,-0.495 -0.451,-0.516c-0.014,-0.002 -0.029,-0.002 -0.044,-0.002l-34.45,0.05c-0.015,-0 -0.03,-0.001 -0.045,-0.002c-0.328,-0.026 -0.576,-0.321 -0.55,-0.655c0.001,-0.014 0.003,-0.029 0.005,-0.043l1.87,-11.28c0.06,-0.36 0.27,-0.54 0.63,-0.54l34.27,0.03c0.529,-0 1.034,-0.221 1.39,-0.61l63.72,-70.65c0.025,-0.028 0.045,-0.06 0.059,-0.096c0.06,-0.159 -0.026,-0.341 -0.19,-0.403c-0.035,-0.013 -0.072,-0.02 -0.109,-0.021Z" style="fill:#0187ce;fill-rule:nonzero;"/><path d="M927.52,28.48c2.6,2.65 3.12,5.72 2.64,9.42c-0.067,0.52 -0.34,0.89 -0.82,1.11c-1.587,0.727 -3.363,0.92 -5.33,0.58c-7.04,-1.233 -14.063,-2.57 -21.07,-4.01c-3.75,-0.76 -8.16,-3.22 -7.68,-7.55c0.593,-5.32 1.523,-10.577 2.79,-15.77c1.93,-7.95 7.97,-4.93 11.86,-1.19c5.947,5.72 11.817,11.523 17.61,17.41Z" style="fill:#ffd400;fill-rule:nonzero;"/><path d="M1000,10.49l0,3.77c-0.713,4 -1.387,7.997 -2.02,11.99c-0.89,5.61 -11.77,8.33 -16.22,9.89c-2.29,0.8 -3.89,-1.37 -4.69,-3.18c-0.99,-2.23 0.6,-3.06 1.97,-4.44c4.793,-4.787 9.653,-9.503 14.58,-14.15c2.187,-2.067 4.313,-3.36 6.38,-3.88Z" style="fill:#ffd400;fill-rule:nonzero;"/><path d="M953.71,40.61c2.64,-2.63 8.97,-9.94 13.06,-7.75c1.65,0.88 1.86,3.7 1.2,5.08c-4.75,10.08 -10.19,20.24 -13.81,30.77c-0.073,0.22 -0.227,0.33 -0.46,0.33l-6.2,0.04c-0.175,-0.001 -0.318,-0.145 -0.318,-0.32c0,-0.024 0.003,-0.047 0.008,-0.07c0.733,-3.033 1.29,-4.96 1.67,-5.78c3.793,-8.027 7.68,-16.077 11.66,-24.15c0.046,-0.095 0.07,-0.198 0.07,-0.304c0,-0.311 -0.21,-0.585 -0.51,-0.666c-0.333,-0.087 -0.723,0.04 -1.17,0.38c-6.367,4.907 -10.803,11.057 -13.31,18.45c-0.193,0.567 -0.587,0.853 -1.18,0.86l-5.44,0.05c-0.727,0.007 -0.937,-0.317 -0.63,-0.97l8.44,-18.29c1.08,-2.34 0.577,-2.747 -1.51,-1.22c-0.267,0.193 -0.85,0.837 -1.75,1.93c-0.164,0.2 -0.434,0.279 -0.68,0.2l-0.42,-0.13c-0.136,-0.04 -0.231,-0.165 -0.231,-0.307c0,-0.061 0.018,-0.121 0.051,-0.173c2.1,-3.2 6.81,-7.46 11.12,-5.44c0.361,0.171 0.626,0.491 0.72,0.87c0.407,1.713 0.083,3.78 -0.97,6.2c-0.513,1.173 -0.317,1.31 0.59,0.41Z" style="fill:#0187ce;fill-rule:nonzero;"/><path d="M982.7,42.42c3.2,-1.407 6.777,-2.253 10.73,-2.54c0.069,-0.005 0.138,-0.006 0.207,-0.002c0.959,0.045 1.711,0.867 1.666,1.82c-0.003,0.071 -0.011,0.142 -0.023,0.212c-0.42,2.48 -0.62,7.66 -2.71,9.17c-2.63,1.89 -8.43,0.27 -11.58,-0.43c-0.728,-0.157 -1.232,-0.838 -1.17,-1.58c0.18,-2.07 0.61,-5.66 2.88,-6.65Z" style="fill:#ffd400;fill-rule:nonzero;"/><path d="M920.81,56.08c-5.08,1.8 -12.437,4.283 -22.07,7.45c-3.14,1.04 -10.03,2.12 -9.16,-3.52c0.627,-4.067 1.283,-8.127 1.97,-12.18c0.8,-4.77 6.67,-5.74 10.56,-5.04c9.573,1.72 16.57,3.073 20.99,4.06c5.41,1.2 0.71,8.17 -2.29,9.23Z" style="fill:#ffd400;fill-rule:nonzero;"/><path d="M975.67,60.44c0.573,-1.087 1.12,-1.95 1.64,-2.59c0.22,-0.273 0.51,-0.393 0.87,-0.36c5.08,0.56 13.82,1.21 12.91,7.97c-0.38,2.86 -0.56,6.53 -1.42,9.22c-0.282,0.878 -1.105,1.478 -2.028,1.478c-0.293,-0 -0.583,-0.061 -0.852,-0.178c-3.8,-1.67 -6.89,-5.4 -9.77,-8.32c-2.48,-2.51 -3.03,-4.06 -1.35,-7.22Z" style="fill:#ffd400;fill-rule:nonzero;"/><path d="M898.81,70.46c6.92,-2.467 13.893,-4.787 20.92,-6.96c2.713,-0.84 5.303,-0.383 7.77,1.37c0.821,0.581 1.087,1.694 0.62,2.59c-0.94,1.787 -2.213,3.487 -3.82,5.1c-16.327,16.347 -28.72,28.533 -37.18,36.56c-2.23,2.12 -6.26,2.47 -5.62,-1.89c0.44,-3.02 1.463,-9.137 3.07,-18.35c1.76,-10.08 4.83,-15.07 14.24,-18.42Z" style="fill:#ffd400;fill-rule:nonzero;"/><path d="M963.29,83.75c-0.53,-3 0.08,-18.44 6.76,-12.25c6.69,6.19 17.93,14.67 15.98,25.27c-1.007,5.493 -1.973,10.993 -2.9,16.5c-0.72,4.313 -1.723,7.407 -3.01,9.28c-4.2,6.13 -9,2.47 -10.11,-3.09c-2.36,-11.88 -4.6,-23.783 -6.72,-35.71Z" style="fill:#ffd400;fill-rule:nonzero;"/><path d="M926,80.12c3.24,-3.12 6.94,-4.95 11.35,-5.74c0.069,-0.012 0.14,-0.018 0.21,-0.018c0.656,-0 1.198,0.532 1.21,1.188c0.053,2.74 -0.433,5.56 -1.46,8.46c-3.86,10.9 -7.68,21.813 -11.46,32.74c-1.81,5.25 -6.4,11.21 -12.54,11.24c-7.433,0.027 -14.87,0.003 -22.31,-0.07c-2.16,-0.02 -4.007,-0.207 -5.54,-0.56c-5.5,-1.25 0.85,-8.59 2.69,-10.39c12.553,-12.34 25.17,-24.623 37.85,-36.85Z" style="fill:#ffd400;fill-rule:nonzero;"/><path d="M942.32,89.18c1.42,-4.02 2.963,-7.91 4.63,-11.67c0.209,-0.454 0.615,-0.787 1.1,-0.9c6.04,-1.38 7.93,6.06 8.68,10.36c1.72,9.907 3.45,19.817 5.19,29.73c1.17,6.67 -0.39,11.32 -7.8,11.31c-5.72,-0.007 -11.427,-0.007 -17.12,0c-4.74,0.01 -6.52,-5.27 -5.2,-9.02c3.513,-9.933 7.02,-19.87 10.52,-29.81Z" style="fill:#ffd400;fill-rule:nonzero;"/><path d="M782.54,164.9l7.53,-0.02c0.307,-0.007 0.437,0.14 0.39,0.44l-1.5,9.43c-0.058,0.35 -0.36,0.609 -0.71,0.61l-8.81,0.01c-0.403,-0 -0.752,0.297 -0.82,0.7l-4.82,29.2c-0.025,0.151 -0.157,0.262 -0.31,0.26l-14.39,0.05c-0.24,0.007 -0.34,-0.11 -0.3,-0.35l4.97,-29.49c0.003,-0.017 0.005,-0.033 0.005,-0.05c-0,-0.154 -0.127,-0.28 -0.28,-0.28c-0.002,-0 -0.003,-0 -0.005,0l-5.72,-0.1c-0.353,-0.007 -0.5,-0.183 -0.44,-0.53l1.59,-9.5c0.053,-0.313 0.237,-0.467 0.55,-0.46l5.4,0.06c0.527,0.007 0.82,-0.253 0.88,-0.78c1.64,-15.86 14.38,-17.58 27.3,-15.16c0.493,0.096 0.824,0.571 0.74,1.06l-1.41,8.69c-0,0.001 -0,0.002 -0,0.002c-0.058,0.325 -0.367,0.545 -0.686,0.489c-0.001,-0 -0.003,-0.001 -0.004,-0.001c-2.26,-0.427 -4.5,-0.53 -6.72,-0.31c-1.98,0.187 -3.303,1.22 -3.97,3.1l-0.18,0.51c-0.573,1.62 0,2.427 1.72,2.42Z" style="fill:#ffd400;fill-rule:nonzero;"/><path d="M755.53,161.44l-15.14,-0.08c-0.001,0 -0.002,0 -0.004,0c-0.186,0 -0.34,-0.153 -0.34,-0.34c0,-0.017 0.002,-0.033 0.004,-0.05l1.85,-11.28c0.029,-0.163 0.174,-0.283 0.34,-0.28l15.16,-0.02c0.185,0.003 0.335,0.155 0.335,0.34c0,0.02 -0.001,0.04 -0.005,0.06l-1.86,11.36c-0.025,0.167 -0.171,0.292 -0.34,0.29Z" style="fill:#ffd400;fill-rule:nonzero;"/><path d="M282.95,192.04c1.97,-1.98 1.11,-4.4 -1.45,-5.35c-6.32,-2.347 -11.24,-4.31 -14.76,-5.89c-8.48,-3.8 -10.4,-13.79 -6.05,-21.82c5.86,-10.78 24.18,-11.09 33.48,-6.42c4.413,2.213 7.597,5.607 9.55,10.18c0.035,0.083 0.053,0.171 0.053,0.261c-0,0.305 -0.208,0.573 -0.503,0.649l-12.73,3.25c-0.34,0.087 -0.607,-0.02 -0.8,-0.32c-2.447,-3.907 -6.013,-5.39 -10.7,-4.45c-3.38,0.68 -4.04,4.7 -0.69,6.07c10.56,4.33 26.57,7.21 22.82,23.3c-4,17.13 -30.14,18.3 -41.6,9.94c-3.567,-2.6 -6.073,-5.973 -7.52,-10.12c-0.003,-0.008 -0.005,-0.015 -0.007,-0.023c-0.047,-0.181 0.059,-0.367 0.234,-0.412c0.008,-0.002 0.015,-0.004 0.023,-0.005l14.98,-2.95c0.156,-0.031 0.319,0.04 0.41,0.18c1.32,2.02 2.24,3.48 4.44,4.47c2.87,1.28 8.37,1.93 10.82,-0.54Z" style="fill:#0187ce;fill-rule:nonzero;"/><path d="M454.84,181.53c0.06,0.687 0.217,0.71 0.47,0.07l12.37,-30.42c0.14,-0.344 0.475,-0.573 0.85,-0.58l12.2,-0.08c0.313,0 0.483,0.153 0.51,0.46l2.31,30.2c0.073,0.98 0.287,1.013 0.64,0.1l11.84,-30.44c0.073,-0.181 0.248,-0.301 0.44,-0.3l12.07,-0.01c0.02,-0 0.041,0.001 0.061,0.005c0.156,0.032 0.257,0.191 0.225,0.352c-0.004,0.018 -0.009,0.036 -0.016,0.053l-22.18,54c-0.157,0.374 -0.524,0.619 -0.93,0.62l-13.32,0c-0.238,0.001 -0.439,-0.183 -0.46,-0.42l-2.28,-30.43c-0.073,-0.96 -0.287,-0.99 -0.64,-0.09l-12.03,30.3c-0.144,0.372 -0.507,0.619 -0.91,0.62l-12.56,0.03c-0.205,0.001 -0.379,-0.156 -0.4,-0.36l-6.02,-54.2c-0.033,-0.307 0.103,-0.46 0.41,-0.46l14.46,-0.02c0.241,-0.001 0.444,0.189 0.46,0.43l2.43,30.57Z" style="fill:#0187ce;fill-rule:nonzero;"/><path d="M729.63,192.75l-2.04,12.43c-0.034,0.216 -0.221,0.378 -0.44,0.38l-36.51,0c-0.245,-0.002 -0.445,-0.205 -0.445,-0.45c-0,-0.023 0.001,-0.047 0.005,-0.07l8.97,-54.02c0.038,-0.212 0.224,-0.369 0.44,-0.37l15.88,-0.14c0.002,-0 0.005,-0 0.007,-0c0.247,-0 0.45,0.203 0.45,0.45c0,0.027 -0.002,0.054 -0.007,0.08l-6.78,40.67c-0.004,0.023 -0.005,0.047 -0.005,0.07c-0,0.245 0.2,0.448 0.445,0.45l19.59,-0c0.245,0.002 0.445,0.205 0.445,0.45c0,0.023 -0.001,0.047 -0.005,0.07Z" style="fill:#ffd400;fill-rule:nonzero;"/><path d="M572.03,175.99c-0.873,5.173 -1.73,10.34 -2.57,15.5c-0.76,4.68 4.12,4.01 6.82,3.45c0.032,-0.007 0.064,-0.01 0.097,-0.01c0.263,0 0.48,0.217 0.48,0.48c-0,0.027 -0.003,0.054 -0.007,0.08l-1.58,9.3c-0.08,0.471 -0.435,0.85 -0.9,0.96c-8.95,2.1 -21.7,1.2 -20.05,-11.75c0.773,-6.107 1.717,-12.147 2.83,-18.12c0.005,-0.027 0.007,-0.053 0.007,-0.08c0,-0.247 -0.203,-0.45 -0.45,-0.45c-0.006,-0 -0.011,-0 -0.017,-0l-4.24,0.13c-0.01,0 -0.019,0.001 -0.029,0.001c-0.368,-0 -0.67,-0.303 -0.67,-0.67c-0,-0.037 0.003,-0.074 0.009,-0.111l1.56,-9.4c0.059,-0.319 0.341,-0.549 0.66,-0.54l4.21,0.14c0.446,0.017 0.841,-0.301 0.92,-0.74l1.92,-10.7c0.063,-0.376 0.389,-0.656 0.77,-0.66l13.36,-0.16c0.54,-0.007 0.763,0.253 0.67,0.78l-1.82,10.74c-0.006,0.036 -0.009,0.073 -0.009,0.11c-0,0.357 0.293,0.65 0.65,0.65c0.006,0 0.013,0 0.019,-0l5.8,-0.19c0.006,-0 0.012,-0 0.018,-0c0.346,-0 0.63,0.284 0.63,0.63c0,0.033 -0.003,0.067 -0.008,0.1l-1.51,9.13c-0.073,0.454 -0.471,0.793 -0.94,0.8l-5.96,0.03c-0.38,0.007 -0.603,0.197 -0.67,0.57Z" style="fill:#0187ce;fill-rule:nonzero;"/><path d="M647.86,172.11c2.36,-5.653 6.637,-8.49 12.83,-8.51c0.415,0.003 0.755,0.345 0.755,0.76c0,0.03 -0.001,0.06 -0.005,0.09l-1.65,13.13c-0.053,0.433 -0.297,0.667 -0.73,0.7c-6.15,0.44 -10.88,0.66 -12.28,8.02c-1.173,6.187 -2.193,12.393 -3.06,18.62c-0.045,0.348 -0.349,0.614 -0.71,0.62l-14.32,0.03c-0.306,-0.001 -0.557,-0.254 -0.557,-0.56c-0,-0.03 0.002,-0.06 0.007,-0.09l6.58,-39.65c0.047,-0.293 0.217,-0.437 0.51,-0.43l11.52,0.01c1.107,0.007 1.57,0.557 1.39,1.65l-0.92,5.43c-0.014,0.075 -0.001,0.151 0.035,0.216c0.088,0.158 0.295,0.214 0.458,0.123c0.065,-0.036 0.117,-0.092 0.147,-0.159Z" style="fill:#0187ce;fill-rule:nonzero;"/><path d="M372.3,169.47c0.99,-1.02 1.73,-2.23 2.89,-2.97c8.63,-5.57 23.05,-3.24 20.82,10.26c-1.567,9.467 -3.123,18.913 -4.67,28.34c-0.053,0.307 -0.237,0.46 -0.55,0.46l-14.17,-0.01c-0.587,0 -0.833,-0.29 -0.74,-0.87l4.33,-25.92c0.487,-2.933 -0.747,-4.22 -3.7,-3.86l-1.06,0.14c-2.113,0.26 -3.815,1.885 -4.17,3.98l-4.39,25.96c-0.067,0.36 -0.28,0.54 -0.64,0.54l-14.24,0.05c-0.008,0 -0.017,-0 -0.025,-0.001c-0.153,-0.012 -0.269,-0.152 -0.257,-0.31c0,-0.007 0.001,-0.013 0.002,-0.019l6.64,-39.94c0.053,-0.32 0.243,-0.48 0.57,-0.48l12.8,-0.02c0.025,0 0.049,0.001 0.074,0.004c0.431,0.043 0.751,0.429 0.709,0.855c-0.003,0.027 -0.007,0.054 -0.013,0.081l-0.69,3.48c-0.12,0.627 0.04,0.71 0.48,0.25Z" style="fill:#0187ce;fill-rule:nonzero;"/><path d="M526.91,200.47c-0.57,0.48 -1.24,1.72 -1.95,2.33c-8.82,7.58 -24.98,3.18 -22.84,-10.15c2.09,-13.02 18.09,-12.76 27.81,-13.73c0.667,-0.067 1.08,-0.427 1.24,-1.08c0.53,-2.18 -0.25,-3.67 -2.46,-4.21c-3.5,-0.853 -6.243,0.323 -8.23,3.53c-0.253,0.407 -0.737,0.615 -1.21,0.52l-12,-2.4c-0.387,-0.08 -0.487,-0.293 -0.3,-0.64c6,-11.37 20.79,-12.69 31.76,-9.55c6.473,1.847 9.22,6.21 8.24,13.09c-1.027,7.22 -2.18,14.407 -3.46,21.56c-0.16,0.88 -0.1,2.613 0.18,5.2c0.047,0.407 -0.137,0.61 -0.55,0.61l-14.79,0c-0,0 -0,0 -0.001,0c-0.373,0 -0.68,-0.307 -0.68,-0.68c0,-0.01 0.001,-0.02 0.001,-0.03l0.19,-3.9c0.04,-0.873 -0.277,-1.03 -0.95,-0.47Zm-3.7,-4.16c4.73,-1.16 5.53,-5.26 6.26,-9.36c0.007,-0.034 0.01,-0.068 0.01,-0.102c-0,-0.291 -0.239,-0.53 -0.53,-0.53c-0.017,-0 -0.033,0 -0.05,0.002c-2.147,0.193 -4.25,0.707 -6.31,1.54c-4.67,1.9 -6.08,10.08 0.62,8.45Z" style="fill:#0187ce;fill-rule:nonzero;"/><path d="M596.96,188.96c-1.47,6.16 5.57,9.2 10.1,5.79c1.07,-0.81 1.75,-2.07 2.57,-3.25c0.193,-0.273 0.453,-0.383 0.78,-0.33l12.35,1.98c0.299,0.048 0.522,0.309 0.522,0.612c-0,0.108 -0.028,0.214 -0.082,0.308c-4.053,6.993 -9.74,11.117 -17.06,12.37c-18.74,3.2 -30.11,-12.65 -22.44,-29.55c9.21,-20.31 45.27,-17.2 41.32,10.54c-0.069,0.491 -0.494,0.86 -0.99,0.86l-26.28,0.04c-0.433,0 -0.697,0.21 -0.79,0.63Zm2.07,-8.53l11.38,-0.24c0,0 0,0 0,0c0.159,0 0.29,-0.131 0.29,-0.29c0,-0.003 0,-0.007 -0,-0.01l-0.01,-0.44c-0.075,-3.447 -2.778,-6.227 -5.99,-6.16l-0.24,0c-0.001,0 -0.002,0 -0.003,0c-3.213,0.067 -5.799,2.961 -5.727,6.41l0.01,0.44c-0,0.159 0.131,0.29 0.29,0.29Z" style="fill:#0187ce;fill-rule:nonzero;"/><path d="M805.26,188.88c-1.74,7.52 7.66,9.94 11.51,3.95c0.327,-0.507 0.697,-0.977 1.11,-1.41c0.193,-0.207 0.427,-0.287 0.7,-0.24l11.94,1.91c0.82,0.133 1.033,0.567 0.64,1.3c-10.91,20.09 -45.63,15.54 -41.2,-11.16c4.55,-27.42 49.06,-25.54 43.05,4.65c-0.053,0.293 -0.23,0.44 -0.53,0.44l-26.5,-0.01c-0.393,0 -0.633,0.19 -0.72,0.57Zm13.18,-8.9c1.82,-9.05 -10.1,-8.67 -11.93,-0.26c-0.08,0.393 0.08,0.59 0.48,0.59l11.02,0.03c0.21,-0.001 0.392,-0.153 0.43,-0.36Z" style="fill:#ffd400;fill-rule:nonzero;"/><path d="M329.11,199.76c-1.06,1.25 -1.95,2.62 -3.18,3.65c-6.03,5.02 -17.79,4.68 -19.84,-3.82c-0.46,-1.88 -0.273,-5.35 0.56,-10.41c1.267,-7.74 2.577,-15.687 3.93,-23.84c0.053,-0.31 0.325,-0.54 0.64,-0.54l14.57,0c0.229,0.002 0.416,0.191 0.416,0.42c-0,0.023 -0.002,0.047 -0.006,0.07c-1.4,8.58 -2.783,17.067 -4.15,25.46c-0.18,1.1 -0.11,2.157 0.21,3.17c0.107,0.333 0.32,0.563 0.64,0.69c5.39,2.09 7.78,-5.05 8.45,-9.1c1.133,-6.84 2.25,-13.663 3.35,-20.47c0.024,-0.137 0.146,-0.238 0.29,-0.24l14.51,0.01c0.473,0 0.67,0.233 0.59,0.7l-6.59,39.55c-0.053,0.32 -0.24,0.48 -0.56,0.48l-13.84,0.01c-0,0 -0.001,0 -0.001,0c-0.208,0 -0.38,-0.172 -0.38,-0.38c0,-0.03 0.004,-0.061 0.011,-0.09l1.17,-4.92c0.006,-0.029 0.009,-0.059 0.009,-0.089c-0,-0.252 -0.208,-0.46 -0.46,-0.46c-0.129,0 -0.252,0.054 -0.339,0.149Z" style="fill:#0187ce;fill-rule:nonzero;"/><path d="M732.67,205.19l6.68,-40.01c0.024,-0.153 0.156,-0.267 0.31,-0.27l15.2,-0.11c0.002,-0 0.004,-0 0.006,-0c0.175,-0 0.32,0.144 0.32,0.32c-0,0.02 -0.002,0.04 -0.006,0.06l-6.69,40.11c-0.024,0.153 -0.156,0.267 -0.31,0.27l-15.19,0c-0.001,0 -0.003,0 -0.004,0c-0.175,0 -0.32,-0.144 -0.32,-0.32c0,-0.017 0.001,-0.033 0.004,-0.05Z" style="fill:#ffd400;fill-rule:nonzero;"/><path d="M399.1,205.08l2.23,-13.88c0.034,-0.198 0.209,-0.343 0.41,-0.34l14.37,-0.02c0.223,0.002 0.406,0.187 0.406,0.41c0,0.023 -0.002,0.047 -0.006,0.07l-2.32,13.9c-0.034,0.198 -0.209,0.343 -0.41,0.34l-14.28,-0.01c-0.223,-0.003 -0.404,-0.187 -0.404,-0.41c-0,-0.02 0.001,-0.04 0.004,-0.06Z" style="fill:#0187ce;fill-rule:nonzero;"/><path d="M656.5,205.14l2.33,-14.05c0.025,-0.173 0.175,-0.302 0.35,-0.3l14.4,0.18c0.19,0.003 0.344,0.16 0.344,0.35c-0,0.017 -0.002,0.033 -0.004,0.05l-2.29,13.89c-0.029,0.169 -0.179,0.293 -0.35,0.29l-14.44,0c-0.19,-0.003 -0.345,-0.16 -0.345,-0.35c-0,-0.02 0.002,-0.04 0.005,-0.06Z" style="fill:#0187ce;fill-rule:nonzero;"/><path d="M835.88,204.95l2.25,-13.63c0.044,-0.258 0.269,-0.449 0.53,-0.45l14.08,0.05c0.295,0.002 0.536,0.245 0.536,0.54c-0,0.027 -0.002,0.054 -0.006,0.08l-2.22,13.64c-0.044,0.258 -0.269,0.449 -0.53,0.45l-14.11,-0.05c-0.295,-0.001 -0.538,-0.245 -0.538,-0.54c0,-0.03 0.003,-0.06 0.008,-0.09Z" style="fill:#ffd400;fill-rule:nonzero;"/></svg>