<?xml version="1.0" encoding="UTF-8" standalone="no"?><!DOCTYPE svg PUBLIC "-//W3C//DTD SVG 1.1//EN" "http://www.w3.org/Graphics/SVG/1.1/DTD/svg11.dtd"><svg width="100%" height="100%" viewBox="0 0 360 128" version="1.1" xmlns="http://www.w3.org/2000/svg" xmlns:xlink="http://www.w3.org/1999/xlink" xml:space="preserve" xmlns:serif="http://www.serif.com/" style="fill-rule:evenodd;clip-rule:evenodd;"><g><path d="M294.55,1.53c-0.113,0.427 0.12,0.64 0.7,0.64c0.36,0 0.547,0.177 0.56,0.53c0.027,0.6 0.307,1.057 0.84,1.37c1.32,0.78 2.04,2.12 3.05,2.97c2.393,2.007 4.683,4.143 6.87,6.41c0.253,0.267 0.883,0.867 1.89,1.8c1.353,1.247 2.693,2.503 4.02,3.77c0.71,0.67 1.15,1.79 2.53,2.32c0.3,0.12 0.557,0.3 0.77,0.54c1.28,1.44 2.593,2.833 3.94,4.18c0.113,0.113 0.34,0.267 0.68,0.46c0.24,0.14 0.42,0.353 0.54,0.64c0.113,0.293 0.293,0.533 0.54,0.72c1.4,1.047 2.64,2.253 3.72,3.62c0.189,0.24 0.477,0.38 0.78,0.38l0.76,-0c0.387,0.007 0.587,0.203 0.6,0.59c0.033,0.82 0.413,1.42 1.14,1.8c0.161,0.084 0.286,0.223 0.35,0.39c0.65,1.64 4.34,4.45 5.78,5.75c0.96,0.87 2.21,1.05 2.68,2.82c0.027,0.1 0.093,0.15 0.2,0.15l0.26,0c0.413,0 0.62,0.207 0.62,0.62l0,0.31c0,0.287 0.14,0.447 0.42,0.48c0.84,0.113 1.283,0.573 1.33,1.38c0.027,0.347 0.2,0.453 0.52,0.32c0.187,-0.087 0.377,-0.127 0.57,-0.12c0.427,0.013 0.49,0.17 0.19,0.47l-0.26,0.26c-0.077,0.077 -0.121,0.182 -0.121,0.291c0,0.224 0.185,0.41 0.41,0.41c0.007,-0 0.014,-0.001 0.021,-0.001c1.013,-0.033 1.553,0.453 1.62,1.46c0.01,0.141 0.042,0.279 0.093,0.409c0.301,0.755 1.223,1.107 2.044,0.78c0.14,-0.056 0.272,-0.13 0.393,-0.219c0.353,-0.267 0.73,-0.19 1.13,0.23" style="fill:none;fill-rule:nonzero;stroke:#2aa9d6;stroke-width:2px;"/><path d="M324.52,77.36c-0.047,-0.347 0.103,-0.587 0.45,-0.72c0.253,-0.093 0.443,-0.26 0.57,-0.5c0.233,-0.447 0.137,-0.697 -0.29,-0.75c-0.833,-0.107 -1.69,-0.207 -2.57,-0.3c-0.32,-0.04 -0.507,-0.22 -0.56,-0.54c-0.087,-0.52 -0.37,-0.917 -0.85,-1.19c-0.18,-0.1 -0.313,-0.057 -0.4,0.13c-0.08,0.173 -0.23,0.32 -0.45,0.44c-0.013,0.006 -0.026,0.01 -0.041,0.01c-0.045,-0 -0.084,-0.035 -0.089,-0.08c-0.12,-1.353 -0.597,-2.58 -1.43,-3.68c-0.59,-0.79 -1.31,-0.76 -1.87,-1.49c-1.79,-2.32 -4.46,-4.26 -6.59,-6.33c-0.207,-0.193 -0.35,-0.423 -0.43,-0.69c-0.1,-0.34 -0.31,-0.557 -0.63,-0.65c-0.26,-0.073 -0.49,-0.2 -0.69,-0.38l-6.36,-5.89c-0.172,-0.158 -0.308,-0.345 -0.4,-0.55c-0.467,-1.013 -1.213,-1.7 -2.24,-2.06c-0.253,-0.087 -0.443,-0.247 -0.57,-0.48c-0.107,-0.207 -0.173,-0.413 -0.2,-0.62c-0.013,-0.067 -0.047,-0.087 -0.1,-0.06c-0.087,0.047 -0.17,0.09 -0.25,0.13c-0.167,0.08 -0.267,0.03 -0.3,-0.15l-0.15,-0.92" style="fill:none;fill-rule:nonzero;stroke:#098bba;stroke-width:2px;"/><path d="M298.08,50.04l-0.1,-9.23c0,-0.36 -0.183,-0.547 -0.55,-0.56l-8.19,-0.2" style="fill:none;fill-rule:nonzero;stroke:#84c8e0;stroke-width:2px;"/><path d="M298.08,50.04c0.07,9.67 0.11,17.86 -10.08,22.11" style="fill:none;fill-rule:nonzero;stroke:#84c2d9;stroke-width:2px;"/><path d="M288,72.15c-6.27,1.95 -14.18,1.04 -20.76,1.13" style="fill:none;fill-rule:nonzero;stroke:#81b5cd;stroke-width:2px;"/><path d="M267.24,73.28c-1.147,-0.027 -2.3,-0.117 -3.46,-0.27c-5.227,-0.667 -7.633,-3.687 -7.22,-9.06" style="fill:none;fill-rule:nonzero;stroke:#80acc4;stroke-width:2px;"/><path d="M289.24,40.05c-7.387,0.113 -12.467,0.137 -15.24,0.07c-7.9,-0.207 -13.417,3.18 -16.55,10.16" style="fill:none;fill-rule:nonzero;stroke:#84c2d9;stroke-width:2px;"/></g><path d="M294.55,1.53c-0.113,0.427 0.12,0.64 0.7,0.64c0.36,0 0.547,0.177 0.56,0.53c0.027,0.6 0.307,1.057 0.84,1.37c1.32,0.78 2.04,2.12 3.05,2.97c2.393,2.007 4.683,4.143 6.87,6.41c0.253,0.267 0.883,0.867 1.89,1.8c1.353,1.247 2.693,2.503 4.02,3.77c0.71,0.67 1.15,1.79 2.53,2.32c0.3,0.12 0.557,0.3 0.77,0.54c1.28,1.44 2.593,2.833 3.94,4.18c0.113,0.113 0.34,0.267 0.68,0.46c0.24,0.14 0.42,0.353 0.54,0.64c0.113,0.293 0.293,0.533 0.54,0.72c1.4,1.047 2.64,2.253 3.72,3.62c0.189,0.24 0.477,0.38 0.78,0.38l0.76,-0c0.387,0.007 0.587,0.203 0.6,0.59c0.033,0.82 0.413,1.42 1.14,1.8c0.161,0.084 0.286,0.223 0.35,0.39c0.65,1.64 4.34,4.45 5.78,5.75c0.96,0.87 2.21,1.05 2.68,2.82c0.027,0.1 0.093,0.15 0.2,0.15l0.26,0c0.413,0 0.62,0.207 0.62,0.62l0,0.31c0,0.287 0.14,0.447 0.42,0.48c0.84,0.113 1.283,0.573 1.33,1.38c0.027,0.347 0.2,0.453 0.52,0.32c0.187,-0.087 0.377,-0.127 0.57,-0.12c0.427,0.013 0.49,0.17 0.19,0.47l-0.26,0.26c-0.077,0.077 -0.121,0.182 -0.121,0.291c0,0.224 0.185,0.41 0.41,0.41c0.007,-0 0.014,-0.001 0.021,-0.001c1.013,-0.033 1.553,0.453 1.62,1.46c0.01,0.141 0.042,0.279 0.093,0.409c0.301,0.755 1.223,1.107 2.044,0.78c0.14,-0.056 0.272,-0.13 0.393,-0.219c0.353,-0.267 0.73,-0.19 1.13,0.23c-1.333,6.707 -4.23,12.58 -8.69,17.62c-0.787,-0.22 -1.087,-0.61 -0.9,-1.17c0.065,-0.181 0.251,-0.29 0.44,-0.26c0.167,0.027 0.313,-0.017 0.44,-0.13c0.28,-0.247 0.263,-0.473 -0.05,-0.68c-1.01,-0.65 -2.04,-0.86 -2.84,-1.76c-1.05,-1.2 -1.86,-2.6 -2.97,-3.66c-2.74,-2.627 -5.35,-5.373 -7.83,-8.24c-0.88,-1.01 -2.14,-1.37 -2.99,-2.22c-3.467,-3.467 -6.957,-6.917 -10.47,-10.35c-5.01,-4.91 -11.97,-12.33 -18.35,-18.13c-0.08,-0.073 -0.133,-0.18 -0.16,-0.32c-0.033,-0.207 -0.127,-0.383 -0.28,-0.53l-14.26,-13.48c-0.32,-0.307 -0.397,-0.667 -0.23,-1.08c0.093,-0.22 0.103,-0.447 0.03,-0.68c-0.06,-0.187 -0.18,-0.237 -0.36,-0.15c-0.087,0.047 -0.173,0.09 -0.26,0.13c-0.194,0.096 -0.431,0.031 -0.55,-0.15l-1.26,-1.88c6.207,-1.64 12.66,-2.243 19.36,-1.81Z" style="fill:#1ea2cf;fill-rule:nonzero;"/><path d="M294.55,1.53l52.66,-0.03c0.247,0 0.45,0.203 0.45,0.45c0.02,12.487 0.047,25.003 0.08,37.55c0.007,3.707 -0.33,7.36 -1.01,10.96c-0.4,-0.42 -0.777,-0.497 -1.13,-0.23c-0.121,0.089 -0.253,0.163 -0.393,0.219c-0.821,0.327 -1.743,-0.025 -2.044,-0.78c-0.051,-0.13 -0.083,-0.268 -0.093,-0.409c-0.067,-1.007 -0.607,-1.493 -1.62,-1.46c-0.007,0 -0.014,0.001 -0.021,0.001c-0.225,-0 -0.41,-0.186 -0.41,-0.41c0,-0.109 0.044,-0.214 0.121,-0.291l0.26,-0.26c0.3,-0.3 0.237,-0.457 -0.19,-0.47c-0.193,-0.007 -0.383,0.033 -0.57,0.12c-0.32,0.133 -0.493,0.027 -0.52,-0.32c-0.047,-0.807 -0.49,-1.267 -1.33,-1.38c-0.28,-0.033 -0.42,-0.193 -0.42,-0.48l0,-0.31c0,-0.413 -0.207,-0.62 -0.62,-0.62l-0.26,-0c-0.107,-0 -0.173,-0.05 -0.2,-0.15c-0.47,-1.77 -1.72,-1.95 -2.68,-2.82c-1.44,-1.3 -5.13,-4.11 -5.78,-5.75c-0.064,-0.167 -0.189,-0.306 -0.35,-0.39c-0.727,-0.38 -1.107,-0.98 -1.14,-1.8c-0.013,-0.387 -0.213,-0.583 -0.6,-0.59l-0.76,-0c-0.303,-0 -0.591,-0.14 -0.78,-0.38c-1.08,-1.367 -2.32,-2.573 -3.72,-3.62c-0.247,-0.187 -0.427,-0.427 -0.54,-0.72c-0.12,-0.287 -0.3,-0.5 -0.54,-0.64c-0.34,-0.193 -0.567,-0.347 -0.68,-0.46c-1.347,-1.347 -2.66,-2.74 -3.94,-4.18c-0.213,-0.24 -0.47,-0.42 -0.77,-0.54c-1.38,-0.53 -1.82,-1.65 -2.53,-2.32c-1.327,-1.267 -2.667,-2.523 -4.02,-3.77c-1.007,-0.933 -1.637,-1.533 -1.89,-1.8c-2.187,-2.267 -4.477,-4.403 -6.87,-6.41c-1.01,-0.85 -1.73,-2.19 -3.05,-2.97c-0.533,-0.313 -0.813,-0.77 -0.84,-1.37c-0.013,-0.353 -0.2,-0.53 -0.56,-0.53c-0.58,-0 -0.813,-0.213 -0.7,-0.64Z" style="fill:#35afdc;fill-rule:nonzero;"/><path d="M275.19,3.34l1.26,1.88c0.119,0.181 0.356,0.246 0.55,0.15c0.087,-0.04 0.173,-0.083 0.26,-0.13c0.18,-0.087 0.3,-0.037 0.36,0.15c0.073,0.233 0.063,0.46 -0.03,0.68c-0.167,0.413 -0.09,0.773 0.23,1.08l14.26,13.48c0.153,0.147 0.247,0.323 0.28,0.53c0.027,0.14 0.08,0.247 0.16,0.32c6.38,5.8 13.34,13.22 18.35,18.13c3.513,3.433 7.003,6.883 10.47,10.35c0.85,0.85 2.11,1.21 2.99,2.22c2.48,2.867 5.09,5.613 7.83,8.24c1.11,1.06 1.92,2.46 2.97,3.66c0.8,0.9 1.83,1.11 2.84,1.76c0.313,0.207 0.33,0.433 0.05,0.68c-0.127,0.113 -0.273,0.157 -0.44,0.13c-0.189,-0.03 -0.375,0.079 -0.44,0.26c-0.187,0.56 0.113,0.95 0.9,1.17c-3.72,4.167 -8.227,7.26 -13.52,9.28c-0.047,-0.347 0.103,-0.587 0.45,-0.72c0.253,-0.093 0.443,-0.26 0.57,-0.5c0.233,-0.447 0.137,-0.697 -0.29,-0.75c-0.833,-0.107 -1.69,-0.207 -2.57,-0.3c-0.32,-0.04 -0.507,-0.22 -0.56,-0.54c-0.087,-0.52 -0.37,-0.917 -0.85,-1.19c-0.18,-0.1 -0.313,-0.057 -0.4,0.13c-0.08,0.173 -0.23,0.32 -0.45,0.44c-0.013,0.006 -0.026,0.01 -0.041,0.01c-0.045,-0 -0.084,-0.035 -0.089,-0.08c-0.12,-1.353 -0.597,-2.58 -1.43,-3.68c-0.59,-0.79 -1.31,-0.76 -1.87,-1.49c-1.79,-2.32 -4.46,-4.26 -6.59,-6.33c-0.207,-0.193 -0.35,-0.423 -0.43,-0.69c-0.1,-0.34 -0.31,-0.557 -0.63,-0.65c-0.26,-0.073 -0.49,-0.2 -0.69,-0.38l-6.36,-5.89c-0.172,-0.158 -0.308,-0.345 -0.4,-0.55c-0.467,-1.013 -1.213,-1.7 -2.24,-2.06c-0.253,-0.087 -0.443,-0.247 -0.57,-0.48c-0.107,-0.207 -0.173,-0.413 -0.2,-0.62c-0.013,-0.067 -0.047,-0.087 -0.1,-0.06c-0.087,0.047 -0.17,0.09 -0.25,0.13c-0.167,0.08 -0.267,0.03 -0.3,-0.15l-0.15,-0.92l-0.1,-9.23c-0,-0.36 -0.183,-0.547 -0.55,-0.56l-8.19,-0.2c-0.627,-0.187 -1.017,-0.483 -1.17,-0.89c-0.06,-0.14 -0.14,-0.27 -0.24,-0.39l-1.03,-1.17c-0.18,-0.2 -0.393,-0.337 -0.64,-0.41c-0.66,-0.207 -1.133,-0.61 -1.42,-1.21c-0.153,-0.32 -0.403,-0.533 -0.75,-0.64c-0.787,-0.24 -1.237,-0.76 -1.35,-1.56c-0.049,-0.327 -0.287,-0.592 -0.6,-0.67c-0.647,-0.173 -1.08,-0.56 -1.3,-1.16c-0.113,-0.32 -0.33,-0.543 -0.65,-0.67c-0.653,-0.267 -1.143,-0.71 -1.47,-1.33c-0.153,-0.287 -0.363,-0.523 -0.63,-0.71c-2.26,-1.61 -2.96,-3.15 -4.68,-4.49c-0.273,-0.213 -0.467,-0.48 -0.58,-0.8c-0.153,-0.447 -0.477,-0.723 -0.97,-0.83c-0.274,-0.059 -0.524,-0.198 -0.72,-0.4l-10.01,-9.98c-0.147,-0.147 -0.32,-0.257 -0.52,-0.33c-0.36,-0.127 -0.477,-0.343 -0.35,-0.65c4.387,-3.933 9.397,-6.74 15.03,-8.42Z" style="fill:#0891c0;fill-rule:nonzero;"/><path d="M260.16,11.76c-0.127,0.307 -0.01,0.523 0.35,0.65c0.2,0.073 0.373,0.183 0.52,0.33l10.01,9.98c0.196,0.202 0.446,0.341 0.72,0.4c0.493,0.107 0.817,0.383 0.97,0.83c0.113,0.32 0.307,0.587 0.58,0.8c1.72,1.34 2.42,2.88 4.68,4.49c0.267,0.187 0.477,0.423 0.63,0.71c0.327,0.62 0.817,1.063 1.47,1.33c0.32,0.127 0.537,0.35 0.65,0.67c0.22,0.6 0.653,0.987 1.3,1.16c0.313,0.078 0.551,0.343 0.6,0.67c0.113,0.8 0.563,1.32 1.35,1.56c0.347,0.107 0.597,0.32 0.75,0.64c0.287,0.6 0.76,1.003 1.42,1.21c0.247,0.073 0.46,0.21 0.64,0.41l1.03,1.17c0.1,0.12 0.18,0.25 0.24,0.39c0.153,0.407 0.543,0.703 1.17,0.89c-7.387,0.113 -12.467,0.137 -15.24,0.07c-7.9,-0.207 -13.417,3.18 -16.55,10.16c-0.627,-1.167 -1.39,-2.087 -2.29,-2.76c-0.24,-0.18 -0.407,-0.417 -0.5,-0.71c-0.27,-0.84 -0.26,-1.12 -0.94,-1.77c-1.867,-1.787 -3.553,-3.527 -5.06,-5.22c0.267,-11.38 4.1,-20.733 11.5,-28.06Z" style="fill:#0984b3;fill-rule:nonzero;"/><path d="M17.021,26.676c-0,0.001 -0,0.002 -0,0.003c-0,0.432 -0.355,0.789 -0.788,0.79l-6.279,0.022c-0.001,-0 -0.002,-0 -0.003,-0c-0.433,-0 -0.789,-0.355 -0.79,-0.787l-0.022,-6.18c0,-0.001 0,-0.002 0,-0.003c0,-0.432 0.355,-0.789 0.787,-0.79l6.28,-0.022c0.001,0 0.002,0 0.003,0c0.433,0 0.789,0.355 0.79,0.787l0.022,6.18Z" style="fill:#97c11e;fill-rule:nonzero;"/><path d="M29.755,26.603c0,0.001 0,0.001 0,0.002c0,0.482 -0.396,0.879 -0.878,0.88l-6.1,0.01c-0.001,0 -0.001,0 -0.002,0c-0.482,0 -0.879,-0.396 -0.88,-0.878l-0.01,-6c-0,-0.001 -0,-0.001 -0,-0.002c-0,-0.482 0.396,-0.879 0.878,-0.88l6.1,-0.01c0.001,-0 0.001,-0 0.002,-0c0.482,-0 0.879,0.396 0.88,0.878l0.01,6Z" style="fill:#97c11e;fill-rule:nonzero;"/><path d="M10.91,79.59c-10.41,-4.13 -8.33,-26.64 -6.91,-35.45c1.127,-6.96 5.293,-10.707 12.5,-11.24c16.57,-1.23 18.68,6.68 19.25,20.8c0.28,6.74 0.55,18.86 -4.78,23.83c-4.77,4.45 -14.33,4.34 -20.06,2.06Zm0.04,-29.47c-0.233,5.56 -0.073,11.1 0.48,16.62c0.7,7.04 4.93,7.67 10.94,6.82c3.58,-0.51 4.66,-3.83 5,-7.06c0.51,-4.9 2.51,-25.93 -5.09,-26.46c-8.36,-0.59 -10.97,1.37 -11.33,10.08Z" style="fill:#97c11e;fill-rule:nonzero;"/><path d="M95.18,79.59c-9.57,-4.2 -8.15,-21.57 -7.65,-30.09c0.81,-13.82 7.6,-18.54 21.13,-16.48c7.48,1.14 10.15,6.81 10.85,13.61c0.84,8.16 1.35,18.66 -1.28,26.37c-3.1,9.1 -16.29,9.56 -23.05,6.59Zm16.76,-15.21c0.27,-4.72 1.65,-22.2 -4.25,-24.05c-2.29,-0.72 -8.53,-0.91 -10.29,1.6c-3.65,5.2 -2.17,20.38 -1.24,26.54c0.48,3.113 2.503,4.88 6.07,5.3c7.56,0.88 9.35,-3 9.71,-9.39Z" style="fill:#97c11e;fill-rule:nonzero;"/><path d="M57.56,52.09c1.367,0.647 2.33,0.513 2.89,-0.4c3.707,-6.033 7.387,-12.06 11.04,-18.08c0.18,-0.291 0.498,-0.469 0.84,-0.47l7.3,0.01c0.001,-0 0.001,-0 0.002,-0c0.285,-0 0.52,0.235 0.52,0.52c-0,0.099 -0.029,0.196 -0.082,0.28l-13.3,21.01c-0.184,0.286 -0.191,0.651 -0.02,0.94l13.97,23.88c0.053,0.091 0.08,0.195 0.08,0.3c0,0.329 -0.27,0.6 -0.6,0.6c0,0 0,0 0,0l-6.95,0.01c-0.629,0.001 -1.211,-0.336 -1.52,-0.88c-3.62,-6.353 -7.257,-12.683 -10.91,-18.99c-0.74,-1.28 -1.82,-1.67 -3.15,-1.2c-0.32,0.12 -0.48,0.35 -0.48,0.69l-0.01,19.43c-0.007,0.613 -0.313,0.923 -0.92,0.93l-5.76,0.02c-0.516,0 -0.94,-0.424 -0.94,-0.94l0.01,-45.67c-0,-0.653 0.327,-0.977 0.98,-0.97l5.62,0.05c0.673,0.007 1.01,0.343 1.01,1.01l-0,17.32c-0,0.28 0.127,0.48 0.38,0.6Z" style="fill:#97c11e;fill-rule:nonzero;"/><path d="M156.23,55.03c3.22,1.213 5.13,3.113 5.73,5.7c1.91,8.2 0.43,18.37 -9.74,19.28c-7.853,0.707 -13.057,0.837 -15.61,0.39c-2.2,-0.38 -3.31,-1.887 -3.33,-4.52c-0.12,-12.46 -0.167,-24.92 -0.14,-37.38c0.01,-4.67 2.45,-5.43 6.66,-5.46c8.05,-0.05 17.75,-1.22 20.11,8.93c1.147,4.967 -0.12,9.097 -3.8,12.39c-0.327,0.293 -0.287,0.517 0.12,0.67Zm-15.39,-14.28l0,10.9c0,0.483 0.397,0.88 0.88,0.88l6.22,-0c2.359,-0 4.3,-2.054 4.3,-4.55l0,-3.56c0,-2.496 -1.941,-4.55 -4.3,-4.55l-6.22,-0c-0.483,-0 -0.88,0.397 -0.88,0.88Zm0.05,19.32l-0.04,12.88c0,0.368 0.302,0.67 0.67,0.67l7.67,0.03c2.973,0.005 5.424,-2.505 5.43,-5.56l0.02,-3.08c0.006,-3.052 -2.431,-5.57 -5.401,-5.58c-0.003,0 -0.006,0 -0.009,-0l-7.67,-0.03c-0.368,-0 -0.67,0.302 -0.67,0.67Z" style="fill:#97c11e;fill-rule:nonzero;"/><path d="M174.73,79.99l0,-46.14c-0,-0.375 0.305,-0.685 0.68,-0.69l6.16,-0.06c0.003,-0 0.007,-0 0.01,-0c0.379,-0 0.69,0.311 0.69,0.69l0,46.2c0,0.379 -0.311,0.69 -0.69,0.69l-6.16,0c-0.379,0 -0.69,-0.311 -0.69,-0.69Z" style="fill:#97c11e;fill-rule:nonzero;"/><path d="M202.11,40l-9.33,0c-0.389,0 -0.71,-0.321 -0.71,-0.71l-0.01,-5.51c0,-0.389 0.321,-0.71 0.71,-0.71l27.7,-0.01c0.389,0 0.71,0.321 0.71,0.71l-0.02,5.52c0,0.389 -0.321,0.71 -0.71,0.71l-9.24,-0c-0.389,-0 -0.71,0.321 -0.71,0.71l0,39.26c0,0.389 -0.321,0.71 -0.71,0.71l-6.26,0.01c-0.389,0 -0.71,-0.321 -0.71,-0.71l0,-39.27c0,-0.389 -0.321,-0.71 -0.71,-0.71Z" style="fill:#97c11e;fill-rule:nonzero;"/><path d="M248.66,39.82c1.507,1.693 3.193,3.433 5.06,5.22c0.68,0.65 0.67,0.93 0.94,1.77c0.093,0.293 0.26,0.53 0.5,0.71c0.9,0.673 1.663,1.593 2.29,2.76c-0.933,4.367 -1.23,8.923 -0.89,13.67c-0.727,0.06 -1.047,-0.283 -0.96,-1.03c0.013,-0.1 -0.03,-0.163 -0.13,-0.19l-0.33,-0.08c-0.2,-0.053 -0.347,-0.17 -0.44,-0.35c-0.58,-1.12 -1.78,-1.59 -2.54,-2.3c-1.007,-0.953 -2.17,-1.777 -3.49,-2.47l-0.01,-17.71Z" style="fill:#026a9a;fill-rule:nonzero;"/><path d="M289.24,40.05l8.19,0.2c0.367,0.013 0.55,0.2 0.55,0.56l0.1,9.23c0.07,9.67 0.11,17.86 -10.08,22.11c-6.27,1.95 -14.18,1.04 -20.76,1.13c-1.147,-0.027 -2.3,-0.117 -3.46,-0.27c-5.227,-0.667 -7.633,-3.687 -7.22,-9.06c-0.34,-4.747 -0.043,-9.303 0.89,-13.67c3.133,-6.98 8.65,-10.367 16.55,-10.16c2.773,0.067 7.853,0.043 15.24,-0.07Z" style="fill:#fff;fill-rule:nonzero;"/><path d="M298.08,50.04l0.15,0.92c0.033,0.18 0.133,0.23 0.3,0.15c0.08,-0.04 0.163,-0.083 0.25,-0.13c0.053,-0.027 0.087,-0.007 0.1,0.06c0.027,0.207 0.093,0.413 0.2,0.62c0.127,0.233 0.317,0.393 0.57,0.48c1.027,0.36 1.773,1.047 2.24,2.06c0.092,0.205 0.228,0.392 0.4,0.55l6.36,5.89c0.2,0.18 0.43,0.307 0.69,0.38c0.32,0.093 0.53,0.31 0.63,0.65c0.08,0.267 0.223,0.497 0.43,0.69c2.13,2.07 4.8,4.01 6.59,6.33c0.56,0.73 1.28,0.7 1.87,1.49c0.833,1.1 1.31,2.327 1.43,3.68c0.005,0.045 0.044,0.08 0.089,0.08c0.015,-0 0.028,-0.004 0.041,-0.01c0.22,-0.12 0.37,-0.267 0.45,-0.44c0.087,-0.187 0.22,-0.23 0.4,-0.13c0.48,0.273 0.763,0.67 0.85,1.19c0.053,0.32 0.24,0.5 0.56,0.54c0.88,0.093 1.737,0.193 2.57,0.3c0.427,0.053 0.523,0.303 0.29,0.75c-0.127,0.24 -0.317,0.407 -0.57,0.5c-0.347,0.133 -0.497,0.373 -0.45,0.72c-8.76,3.67 -18.61,3.36 -27.9,3.12l-0.96,-2.06c-0.08,-0.18 -0.187,-0.2 -0.32,-0.06c-0.08,0.08 -0.167,0.16 -0.26,0.24c-0.253,0.213 -0.397,0.153 -0.43,-0.18c-0.093,-0.827 -0.453,-1.563 -1.08,-2.21c-0.127,-0.14 -0.233,-0.127 -0.32,0.04c-0.04,0.087 -0.077,0.173 -0.11,0.26c-0.067,0.153 -0.28,0.277 -0.64,0.37c-0.113,0.027 -0.2,-0.013 -0.26,-0.12c-0.047,-0.08 -0.047,-0.163 -0,-0.25c0.453,-0.8 0.303,-1.567 -0.45,-2.3c-0.193,-0.193 -0.4,-0.207 -0.62,-0.04l-0.41,0.31c-0.34,0.26 -0.46,0.183 -0.36,-0.23c0.04,-0.18 0.123,-0.353 0.25,-0.52c0.173,-0.227 0.127,-0.397 -0.14,-0.51l-2.51,-1.07c10.19,-4.25 10.15,-12.44 10.08,-22.11Z" style="fill:#0984b3;fill-rule:nonzero;"/><path d="M248.67,57.53c1.32,0.693 2.483,1.517 3.49,2.47c0.76,0.71 1.96,1.18 2.54,2.3c0.093,0.18 0.24,0.297 0.44,0.35l0.33,0.08c0.1,0.027 0.143,0.09 0.13,0.19c-0.087,0.747 0.233,1.09 0.96,1.03c-0.413,5.373 1.993,8.393 7.22,9.06c1.16,0.153 2.313,0.243 3.46,0.27c0.047,0.28 0.357,0.447 0.93,0.5c0.113,0.013 0.173,0.077 0.18,0.19c0.007,0.093 0.003,0.187 -0.01,0.28c-0.113,0.687 -0.01,0.677 0.31,-0.03c0.073,-0.16 0.213,-0.283 0.42,-0.37c0.07,-0.03 0.146,-0.046 0.222,-0.046c0.307,0 0.56,0.253 0.56,0.56c-0,0.121 -0.039,0.239 -0.112,0.336l-0.65,0.9c-0.02,0.03 -0.031,0.065 -0.031,0.1c0,0.095 0.076,0.175 0.171,0.18c0.107,0.007 0.21,0.02 0.31,0.04c0.234,0.038 0.428,0.204 0.5,0.43c0.14,0.447 0.44,0.643 0.9,0.59c0.287,-0.033 0.487,-0.027 0.6,0.02c0.233,0.1 0.37,0.283 0.41,0.55c0.004,0.026 0.006,0.053 0.006,0.079c-0,0.307 -0.253,0.56 -0.56,0.56c-0.05,0 -0.099,-0.006 -0.146,-0.019c-0.287,-0.08 -0.547,-0.04 -0.78,0.12c-0.046,0.028 -0.084,0.067 -0.112,0.112c-0.1,0.164 -0.043,0.384 0.125,0.487c0.045,0.027 0.095,0.045 0.147,0.051c0.56,0.06 1.01,0.287 1.35,0.68c0.213,0.247 0.483,0.347 0.81,0.3c0.92,-0.12 1.513,0.083 1.78,0.61c-5.34,0.08 -13.31,0.91 -17.92,-1.06c-9.31,-3.98 -8.34,-13.63 -7.98,-21.9Z" style="fill:#005989;fill-rule:nonzero;"/><path d="M288,72.15l2.51,1.07c0.267,0.113 0.313,0.283 0.14,0.51c-0.127,0.167 -0.21,0.34 -0.25,0.52c-0.1,0.413 0.02,0.49 0.36,0.23l0.41,-0.31c0.22,-0.167 0.427,-0.153 0.62,0.04c0.753,0.733 0.903,1.5 0.45,2.3c-0.047,0.087 -0.047,0.17 0,0.25c0.06,0.107 0.147,0.147 0.26,0.12c0.36,-0.093 0.573,-0.217 0.64,-0.37c0.033,-0.087 0.07,-0.173 0.11,-0.26c0.087,-0.167 0.193,-0.18 0.32,-0.04c0.627,0.647 0.987,1.383 1.08,2.21c0.033,0.333 0.177,0.393 0.43,0.18c0.093,-0.08 0.18,-0.16 0.26,-0.24c0.133,-0.14 0.24,-0.12 0.32,0.06l0.96,2.06l-22.05,0.01c-0.267,-0.527 -0.86,-0.73 -1.78,-0.61c-0.327,0.047 -0.597,-0.053 -0.81,-0.3c-0.34,-0.393 -0.79,-0.62 -1.35,-0.68c-0.052,-0.006 -0.102,-0.024 -0.147,-0.051c-0.168,-0.103 -0.225,-0.323 -0.125,-0.487c0.028,-0.045 0.066,-0.084 0.112,-0.112c0.233,-0.16 0.493,-0.2 0.78,-0.12c0.047,0.013 0.096,0.019 0.146,0.019c0.307,0 0.56,-0.253 0.56,-0.56c-0,-0.026 -0.002,-0.053 -0.006,-0.079c-0.04,-0.267 -0.177,-0.45 -0.41,-0.55c-0.113,-0.047 -0.313,-0.053 -0.6,-0.02c-0.46,0.053 -0.76,-0.143 -0.9,-0.59c-0.072,-0.226 -0.266,-0.392 -0.5,-0.43c-0.1,-0.02 -0.203,-0.033 -0.31,-0.04c-0.095,-0.005 -0.171,-0.085 -0.171,-0.18c0,-0.035 0.011,-0.07 0.031,-0.1l0.65,-0.9c0.073,-0.097 0.112,-0.215 0.112,-0.336c-0,-0.307 -0.253,-0.56 -0.56,-0.56c-0.076,0 -0.152,0.016 -0.222,0.046c-0.207,0.087 -0.347,0.21 -0.42,0.37c-0.32,0.707 -0.423,0.717 -0.31,0.03c0.013,-0.093 0.017,-0.187 0.01,-0.28c-0.007,-0.113 -0.067,-0.177 -0.18,-0.19c-0.573,-0.053 -0.883,-0.22 -0.93,-0.5c6.58,-0.09 14.49,0.82 20.76,-1.13Z" style="fill:#026a9a;fill-rule:nonzero;"/><path d="M110.44,104.43l-2.88,0.03c-0.003,0 -0.007,0 -0.01,0c-0.302,0 -0.55,-0.248 -0.55,-0.55l0.01,-1.36c0,-0.302 0.248,-0.55 0.55,-0.55l9.9,-0c0.302,-0 0.55,0.248 0.55,0.55c0,0.003 0,0.007 0,0.01l-0.04,1.39c-0.005,0.298 -0.252,0.54 -0.55,0.54c-0.007,0 -0.013,0 -0.02,-0l-2.83,-0.11c-0.007,-0 -0.013,-0 -0.02,-0c-0.302,-0 -0.55,0.248 -0.55,0.55c-0,-0 -0,-0 -0,-0l-0.01,14.52c-0,0.302 -0.248,0.55 -0.55,0.55l-1.89,0.01c-0.302,-0 -0.55,-0.248 -0.55,-0.55l0,-14.48c0,-0.302 -0.248,-0.55 -0.55,-0.55c-0.003,-0 -0.007,-0 -0.01,-0Z" style="fill:#35afdc;fill-rule:nonzero;"/><path d="M124.6,107.51c3.37,-0.82 6.37,-0.51 6.41,3.73c0.02,2.773 0.01,5.39 -0.03,7.85c-0.007,0.613 -0.32,0.917 -0.94,0.91l-1.04,-0.01c-0.653,-0.007 -0.983,-0.337 -0.99,-0.99l-0.01,-7.77c-0.007,-1.173 -0.597,-1.773 -1.77,-1.8l-0.41,-0.01c-0.017,-0 -0.033,-0.001 -0.05,-0.001c-0.966,0 -1.76,0.795 -1.76,1.76c-0,0.001 -0,0.001 -0,0.001l-0.04,7.57c-0,0.807 -0.407,1.217 -1.22,1.23l-0.49,0.01c-0.84,0.02 -1.26,-0.39 -1.26,-1.23l0.01,-15.75c-0,-0.66 0.327,-0.993 0.98,-1l1,-0.01c0.667,-0.007 1,0.323 1,0.99l0.01,4.05c-0,0.407 0.2,0.563 0.6,0.47Z" style="fill:#35afdc;fill-rule:nonzero;"/><path d="M160.09,110.59c1.633,1.253 2.273,2.977 1.92,5.17c-0.76,4.65 -6.09,4.78 -9.63,4.03c-0.781,-0.168 -1.345,-0.862 -1.35,-1.66c-0.06,-4.433 -0.053,-8.643 0.02,-12.63c0.12,-6.12 14.34,-3.77 8.93,4.41c-0.173,0.267 -0.137,0.493 0.11,0.68Zm-6.12,-5.23l0.02,3.37c0.005,0.457 0.383,0.83 0.84,0.83l1.54,-0c0.909,-0.005 1.654,-0.865 1.65,-1.906c0,-0.001 0,-0.003 -0,-0.004l-0,-1.24c-0.006,-1.042 -0.759,-1.895 -1.67,-1.89l-1.54,-0c-0.461,-0 -0.84,0.379 -0.84,0.84Zm0.02,6.95l-0,4.88c-0,0.187 0.153,0.34 0.34,0.34l2.41,-0c1.101,0 2.008,-0.883 2.01,-1.956c-0,-0.002 0,-0.003 -0,-0.004l-0,-1.64c-0,-1.075 -0.907,-1.96 -2.01,-1.96l-2.41,-0c-0.187,-0 -0.34,0.153 -0.34,0.34Z" style="fill:#35afdc;fill-rule:nonzero;"/><path d="M167.969,104.816c-0.004,0.244 -0.206,0.442 -0.45,0.442c-0.002,0 -0.005,0 -0.007,0l-2.1,-0.037c-0.244,-0.004 -0.442,-0.206 -0.442,-0.45c-0,-0.002 -0,-0.005 -0,-0.007l0.041,-2.34c0.004,-0.244 0.206,-0.442 0.45,-0.442c0.002,-0 0.005,-0 0.007,-0l2.1,0.037c0.244,0.004 0.442,0.206 0.442,0.45c0,0.002 0,0.005 0,0.007l-0.041,2.34Z" style="fill:#35afdc;fill-rule:nonzero;"/><path d="M230.74,112c-0.513,0 -0.767,0.253 -0.76,0.76l0.05,3.36c0.013,0.76 0.4,1.14 1.16,1.14l4.76,0c0.388,-0.001 0.714,0.303 0.74,0.69l0.07,1.27c0,0.004 0,0.007 0.001,0.011c0.021,0.383 -0.281,0.717 -0.67,0.738c-0.004,0.001 -0.007,0.001 -0.011,0.001c-3.6,0.15 -9,0.92 -9.07,-4.47c-0.04,-3.34 -0.027,-6.677 0.04,-10.01c0.07,-4.09 6.43,-3.65 9.14,-3.42c0.42,0.033 0.613,0.26 0.58,0.68l-0.11,1.44c-0.033,0.367 -0.233,0.55 -0.6,0.55l-5.05,0c-0.547,0.005 -0.995,0.453 -1,1l-0.02,2.76c-0.007,0.52 0.247,0.777 0.76,0.77l4.48,-0.02c0.153,0 0.23,0.077 0.23,0.23l0.02,2.03c-0,0.327 -0.163,0.49 -0.49,0.49l-4.25,0Z" style="fill:#35afdc;fill-rule:nonzero;"/><path d="M291,110.5l0,6.05c-0.001,0.374 0.242,0.71 0.6,0.83c0.553,0.193 1.13,0.217 1.73,0.07c0.48,-0.12 0.707,0.067 0.68,0.56l-0.05,0.99c-0.023,0.437 -0.399,0.826 -0.92,0.95c-2.22,0.52 -4.93,-0.3 -5.05,-2.96c-0.187,-4.133 -0.277,-8.27 -0.27,-12.41c0,-0.313 0.253,-0.57 0.56,-0.57l1.22,-0.01c0.38,-0.007 0.623,0.173 0.73,0.54c0.227,0.787 0.31,1.593 0.25,2.42c-0.001,0.01 -0.001,0.02 -0.001,0.03c0,0.291 0.239,0.53 0.53,0.53l2.251,-0c0.493,-0 0.74,0.247 0.74,0.74l-0,1.24c-0,0.333 -0.167,0.5 -0.5,0.5l-2,-0.01c-0.333,0 -0.5,0.17 -0.5,0.51Z" style="fill:#35afdc;fill-rule:nonzero;"/><path d="M137.79,114.46c-0.673,-0 -0.947,0.333 -0.82,1l0.13,0.68c0.147,0.76 0.603,1.197 1.37,1.31c1.18,0.18 2.34,0.117 3.48,-0.19c0.193,-0.053 0.29,0.02 0.29,0.22l0.03,1.57c0,0.187 -0.087,0.31 -0.26,0.37c-8.12,2.9 -9.39,-5.52 -7.27,-10.43c0.5,-1.16 1.587,-1.817 3.26,-1.97c3.413,-0.313 5.113,1.26 5.1,4.72c-0.01,3.3 -3.28,2.72 -5.31,2.72Zm-0.34,-2.46l2.68,0.02c0.003,0 0.007,0 0.01,0c0.258,0 0.47,-0.212 0.47,-0.47l0,-0.38c0,-0 0,-0.001 0,-0.001c0.005,-0.938 -0.753,-1.714 -1.68,-1.719l-0.24,-0c-0.927,-0.005 -1.694,0.762 -1.7,1.7l0,0.38c-0,0.254 0.206,0.465 0.46,0.47Z" style="fill:#35afdc;fill-rule:nonzero;"/><path d="M168,119.42c0,0.307 -0.253,0.56 -0.56,0.56l-1.88,0c-0.307,0 -0.56,-0.253 -0.56,-0.56l0,-11.86c0,-0.307 0.253,-0.56 0.56,-0.56l1.88,0c0.307,0 0.56,0.253 0.56,0.56l0,11.86Z" style="fill:#35afdc;fill-rule:nonzero;"/><path d="M181.93,115.63c0,2.359 -1.941,4.3 -4.3,4.3l-1.26,0c-2.359,0 -4.3,-1.941 -4.3,-4.3l0,-4.26c0,-2.359 1.941,-4.3 4.3,-4.3l1.26,0c2.359,0 4.3,1.941 4.3,4.3l0,4.26Zm-2.94,-4.32c0,-0.993 -0.817,-1.81 -1.81,-1.81l-0.36,0c-0.993,0 -1.81,0.817 -1.81,1.81l0,4.38c0,0.993 0.817,1.81 1.81,1.81l0.36,0c0.993,0 1.81,-0.817 1.81,-1.81l0,-4.38Z" style="fill:#35afdc;fill-rule:nonzero;"/><path d="M192.93,107.73c0.313,-0.6 0.827,-0.843 1.54,-0.73c0.307,0.053 0.463,0.233 0.47,0.54c0.153,6.627 0.147,10.863 -0.02,12.71c-0.43,4.82 -5.24,5.53 -8.97,4.36c-0.28,-0.087 -0.42,-0.277 -0.42,-0.57l0,-1.53c0,-0.3 0.143,-0.407 0.43,-0.32c2.97,0.92 6.58,0.78 6.04,-3.68c-0.025,-0.177 -0.178,-0.309 -0.356,-0.309c-0.057,-0 -0.113,0.013 -0.164,0.039c-1.9,1 -3.85,1.037 -5.85,0.11c-0.453,-0.21 -0.8,-0.601 -0.96,-1.08c-0.84,-2.5 -1.58,-8.82 1.85,-9.91c2.02,-0.647 3.913,-0.453 5.68,0.58c0.313,0.18 0.557,0.11 0.73,-0.21Zm-0.968,4.005c-0.024,-1.124 -0.955,-2.036 -2.08,-2.036c-0.014,-0 -0.029,0 -0.043,0l-1.08,0.023c-1.125,0.024 -2.037,0.955 -2.037,2.08c0,0.014 0,0.029 0.001,0.043l0.055,2.66c0.024,1.124 0.955,2.036 2.08,2.036c0.014,0 0.029,-0 0.043,-0l1.08,-0.023c1.125,-0.024 2.037,-0.955 2.037,-2.08c-0,-0.014 -0,-0.029 -0.001,-0.043l-0.055,-2.66Z" style="fill:#35afdc;fill-rule:nonzero;"/><path d="M204.21,119.02c-1.873,1.22 -3.807,1.29 -5.8,0.21c-0.293,-0.153 -0.5,-0.383 -0.62,-0.69c-2.17,-5.36 1.17,-6.85 5.8,-6.52c0.017,0.001 0.035,0.002 0.052,0.002c0.351,0 0.64,-0.289 0.64,-0.64c0,-0.017 -0.001,-0.035 -0.002,-0.052l-0.03,-0.37c-0.06,-0.8 -0.487,-1.267 -1.28,-1.4c-1.547,-0.26 -3.05,-0.117 -4.51,0.43c-0.293,0.107 -0.44,0.003 -0.44,-0.31l-0.02,-1.41c-0,-0.302 0.186,-0.576 0.47,-0.69c2.387,-0.907 4.737,-0.843 7.05,0.19c0.32,0.147 0.553,0.38 0.7,0.7c1.25,2.73 0.86,7.36 0.73,11.03c-0.013,0.313 -0.177,0.477 -0.49,0.49c-0.633,0.033 -1.12,-0.233 -1.46,-0.8c-0.2,-0.327 -0.463,-0.383 -0.79,-0.17Zm-0.74,-4.83l-3.01,0.21c-0.33,0.02 -0.591,0.298 -0.591,0.629c-0,0.014 0,0.027 0.001,0.041l0.08,1.11c0.063,0.93 0.952,1.639 1.97,1.57l0.56,-0.04c1.018,-0.069 1.804,-0.892 1.741,-1.823c-0.001,-0.002 -0.001,-0.005 -0.001,-0.007l-0.08,-1.1c-0.02,-0.33 -0.298,-0.591 -0.629,-0.591c-0.014,-0 -0.027,0 -0.041,0.001Z" style="fill:#35afdc;fill-rule:nonzero;"/><path d="M214.62,109.38c-2.433,0.727 -2.457,1.53 -0.07,2.41c8.69,3.2 2.59,10.46 -3.52,7.84c-0.555,-0.24 -0.875,-0.835 -0.77,-1.43l0.08,-0.46c0.063,-0.322 0.349,-0.557 0.677,-0.557c0.076,-0 0.151,0.012 0.223,0.037c1.407,0.493 2.813,0.497 4.22,0.01c0.291,-0.102 0.495,-0.369 0.52,-0.68c0.24,-3.08 -6.92,-1.17 -5.54,-7.27c0.22,-0.963 0.963,-1.725 1.92,-1.97c1.687,-0.427 3.407,-0.473 5.16,-0.14c0.473,0.087 0.717,0.37 0.73,0.85l0.01,0.81c0.013,0.527 -0.243,0.75 -0.77,0.67c-1.427,-0.22 -2.383,-0.26 -2.87,-0.12Z" style="fill:#35afdc;fill-rule:nonzero;"/><path d="M245.48,111.38c1.047,-1.107 1.7,-2.403 1.96,-3.89c0.06,-0.32 0.25,-0.48 0.57,-0.48l1.48,-0.01c0.333,-0.007 0.51,0.16 0.53,0.5c0.12,2.047 -0.63,3.72 -2.25,5.02c-0.029,0.023 -0.057,0.048 -0.084,0.074c-0.419,0.41 -0.423,1.097 -0.009,1.52c0.027,0.027 0.054,0.052 0.083,0.076c1.52,1.253 2.28,2.847 2.28,4.78c-0,0.693 -0.347,1.04 -1.04,1.04l-0.72,-0.01c-0.58,0 -0.897,-0.29 -0.95,-0.87c-0.127,-1.52 -0.773,-2.777 -1.94,-3.77c-0.247,-0.207 -0.48,-0.193 -0.7,0.04c-1.08,1.133 -1.697,2.477 -1.85,4.03c-0.033,0.353 -0.227,0.533 -0.58,0.54l-0.6,0.02c-0.019,0.001 -0.038,0.001 -0.057,0.001c-1.064,-0 -1.94,-0.876 -1.94,-1.94c-0,-0.458 0.162,-0.901 0.457,-1.251l2.3,-2.72c0.008,-0.009 0.016,-0.019 0.024,-0.029c0.415,-0.524 0.322,-1.301 -0.207,-1.72c-0.009,-0.007 -0.018,-0.014 -0.027,-0.021c-1.607,-1.193 -2.347,-2.797 -2.22,-4.81c0.02,-0.327 0.197,-0.49 0.53,-0.49l1.95,-0.01c0.28,0 0.43,0.14 0.45,0.42c0.093,1.567 0.713,2.893 1.86,3.98c0.24,0.227 0.473,0.22 0.7,-0.02Z" style="fill:#35afdc;fill-rule:nonzero;"/><path d="M257,120.24l-0.01,3.6c0.001,0.617 -0.459,1.145 -1.07,1.23l-0.26,0.04c-1.107,0.16 -1.66,-0.323 -1.66,-1.45l0.01,-12.44c-0,-2.68 1.34,-4.073 4.02,-4.18l1.37,-0.05c2.613,-0.1 4.08,1.147 4.4,3.74c0.62,5.11 -0.14,10.44 -6.21,9.04c-0.393,-0.093 -0.59,0.063 -0.59,0.47Zm3.974,-8.959c-0,-0.006 -0,-0.012 -0,-0.018c-0,-0.959 -0.783,-1.75 -1.742,-1.76l-0.46,-0.005c-0.965,-0.01 -1.768,0.776 -1.778,1.741l-0.048,4.52c0,0.006 0,0.012 0,0.018c0,0.959 0.783,1.75 1.742,1.76l0.46,0.005c0.965,0.01 1.768,-0.776 1.778,-1.741l0.048,-4.52Z" style="fill:#35afdc;fill-rule:nonzero;"/><path d="M270.34,114.46c-0.223,0.003 -0.404,0.187 -0.404,0.41c-0,0.02 0.001,0.04 0.004,0.06l0.21,1.4c0.093,0.633 0.457,1 1.09,1.1c1.253,0.2 2.493,0.143 3.72,-0.17c0.187,-0.047 0.28,0.027 0.28,0.22l0.03,1.57c0,0.187 -0.09,0.31 -0.27,0.37c-8.26,2.94 -9.05,-5.17 -7.24,-10.42c0.487,-1.413 2.207,-2.03 5.16,-1.85c1.469,0.087 2.683,1.212 2.88,2.67l0.26,1.97c0.014,0.103 0.02,0.206 0.02,0.31c0,1.3 -1.069,2.37 -2.37,2.37c-0.003,0 -0.007,0 -0.01,-0l-3.36,-0.01Zm0.11,-2.47l2.68,0.02c0.003,0 0.007,0 0.01,0c0.263,0 0.48,-0.217 0.48,-0.48l0,-0.261c0.005,-0.998 -0.753,-1.824 -1.68,-1.829l-0.26,-0c-0.927,-0.005 -1.694,0.812 -1.7,1.81l0,0.26c-0,0.26 0.21,0.475 0.47,0.48Z" style="fill:#35afdc;fill-rule:nonzero;"/><path d="M282,110.46l0,9.04c0,0.333 -0.167,0.5 -0.5,0.5l-2.47,-0.01c-0.34,-0 -0.51,-0.17 -0.51,-0.51c0,-2.967 0.017,-6.04 0.05,-9.22c0.03,-3.27 3.5,-3.67 5.85,-3c0.387,0.107 0.577,0.363 0.57,0.77l-0.01,1.22c-0.004,0.244 -0.206,0.443 -0.45,0.443c-0.058,0 -0.116,-0.011 -0.17,-0.033c-0.547,-0.227 -1.1,-0.263 -1.66,-0.11c-0.412,0.112 -0.7,0.487 -0.7,0.91Z" style="fill:#35afdc;fill-rule:nonzero;"/><path d="M301.44,117.43c0.185,-0.036 0.359,-0.113 0.509,-0.227c0.543,-0.41 0.649,-1.198 0.235,-1.745c-0.113,-0.149 -0.258,-0.272 -0.424,-0.358c-3.01,-1.55 -6.48,-2.58 -4.14,-6.97c0.16,-0.307 0.4,-0.517 0.72,-0.63c1.773,-0.613 3.59,-0.707 5.45,-0.28c0.4,0.093 0.613,0.347 0.64,0.76l0.08,1.06c0.027,0.387 -0.153,0.547 -0.54,0.48c-1.28,-0.213 -2.267,-0.227 -2.96,-0.04c-1.84,0.513 -1.927,1.24 -0.26,2.18c2.51,1.42 5.11,1.78 4.1,5.58c-0.8,2.99 -4.73,3.15 -6.92,2.46c-0.617,-0.198 -1.007,-0.813 -0.92,-1.45l0.06,-0.46c0.048,-0.35 0.35,-0.614 0.703,-0.614c0.074,0 0.147,0.012 0.217,0.034c1.14,0.373 2.29,0.447 3.45,0.22Z" style="fill:#35afdc;fill-rule:nonzero;"/></svg>