<?xml version="1.0" encoding="UTF-8" standalone="no"?><!DOCTYPE svg PUBLIC "-//W3C//DTD SVG 1.1//EN" "http://www.w3.org/Graphics/SVG/1.1/DTD/svg11.dtd"><svg width="100%" height="100%" viewBox="0 0 2537 826" version="1.1" xmlns="http://www.w3.org/2000/svg" xmlns:xlink="http://www.w3.org/1999/xlink" xml:space="preserve" xmlns:serif="http://www.serif.com/" style="fill-rule:evenodd;clip-rule:evenodd;"><g><path d="M193.04,198.41c0.06,0.133 0.09,0.3 0.09,0.5c0,0.293 0.067,0.57 0.2,0.83c10.2,19.793 17.923,40.72 23.17,62.78" style="fill:none;fill-rule:nonzero;stroke:#94ca2e;stroke-width:2px;"/><path d="M151.44,392.52c0.353,-2.507 0.29,-5.017 -0.19,-7.53c-0.001,-0.003 -0.002,-0.007 -0.002,-0.01c0,-0.017 0.015,-0.032 0.032,-0.032c0.014,0 0.026,0.009 0.03,0.022c0.18,0.667 0.16,1.333 -0.06,2c-0.2,0.62 -0.307,0.603 -0.32,-0.05l-0.11,-4.79c-0.007,-0.287 -0.073,-0.557 -0.2,-0.81c-0.187,-0.4 -0.277,-0.673 -0.27,-0.82c0.133,-5.233 0.107,-8.523 -0.08,-9.87c-0.34,-2.513 -0.417,-4.213 -0.23,-5.1" style="fill:none;fill-rule:nonzero;stroke:#94ca2e;stroke-width:2px;"/><path d="M192.14,276.42c0.067,0.44 0.087,0.133 0.06,-0.92c-0.067,-2.467 0.033,-4.92 0.3,-7.36c1.06,-9.79 0.68,-19.86 0.37,-29.69c-0.05,-1.78 -0.65,-3.77 -0.73,-5.76c-0.39,-9.79 -2.8,-20.11 -5.46,-29.67" style="fill:none;fill-rule:nonzero;stroke:#94ca2e;stroke-width:2px;"/><path d="M423.05,182.23c-0.213,0.753 -0.98,1.073 -2.3,0.96c-28.913,-2.487 -57.463,-0.033 -85.65,7.36" style="fill:none;fill-rule:nonzero;stroke:#94ca2e;stroke-width:2px;"/></g><path d="M193.04,198.41c0.06,0.133 0.09,0.3 0.09,0.5c0,0.293 0.067,0.57 0.2,0.83c10.2,19.793 17.923,40.72 23.17,62.78c1.593,8.06 2.56,13.343 2.9,15.85c1.46,10.907 2.143,19.617 2.05,26.13c-0.31,22.84 -2.34,46.52 -9.6,68.32c-5.28,15.89 -17.6,34.89 -36.34,35.52c-7.407,0.247 -13.443,-2.083 -18.11,-6.99c-2.093,-2.2 -4.08,-5.143 -5.96,-8.83c0.353,-2.507 0.29,-5.017 -0.19,-7.53c-0.001,-0.003 -0.002,-0.007 -0.002,-0.01c0,-0.017 0.015,-0.032 0.032,-0.032c0.014,0 0.026,0.009 0.03,0.022c0.18,0.667 0.16,1.333 -0.06,2c-0.2,0.62 -0.307,0.603 -0.32,-0.05l-0.11,-4.79c-0.007,-0.287 -0.073,-0.557 -0.2,-0.81c-0.187,-0.4 -0.277,-0.673 -0.27,-0.82c0.133,-5.233 0.107,-8.523 -0.08,-9.87c-0.34,-2.513 -0.417,-4.213 -0.23,-5.1l-0.06,-7.16c-0.004,-0.75 0.548,-1.396 1.29,-1.51c11.87,-1.84 19.75,-11.32 25.16,-21.95c8.9,-17.47 13.59,-38.68 15.71,-58.49c0.067,0.44 0.087,0.133 0.06,-0.92c-0.067,-2.467 0.033,-4.92 0.3,-7.36c1.06,-9.79 0.68,-19.86 0.37,-29.69c-0.05,-1.78 -0.65,-3.77 -0.73,-5.76c-0.39,-9.79 -2.8,-20.11 -5.46,-29.67c0.233,-0.213 0.24,-0.71 0.02,-1.49c-3.83,-13.66 -5.71,-21.97 -12.15,-32.15c-5.507,-8.713 -11.697,-16.923 -18.57,-24.63c-38.073,-42.66 -83.577,-74.89 -136.51,-96.69c-0.527,-0.22 -0.923,-0.67 -1.19,-1.35c-4.447,-11.367 -8.79,-22.77 -13.03,-34.21c-1.31,-3.52 -3.31,-7.75 -4.86,-11.67c-0.167,-0.427 -0.04,-0.547 0.38,-0.36c53.52,23.32 101.58,58.84 136.97,105.54c21.48,28.33 39.05,59.94 54.61,91.83c0.08,0.173 0.31,0.363 0.69,0.57Z" style="fill:#81bc29;fill-rule:nonzero;"/><path d="M261.213,65.235c12.22,14.824 8.095,38.712 -9.138,52.917c-17.232,14.206 -41.468,13.697 -53.688,-1.127c0,-0 0,-0 0,-0c-12.22,-14.824 -8.095,-38.712 9.137,-52.917c17.233,-14.206 41.469,-13.697 53.689,1.127c-0,0 -0,0 -0,0Z" style="fill:#81bc29;fill-rule:nonzero;"/><path d="M423.05,182.23c-0.213,0.753 -0.98,1.073 -2.3,0.96c-28.913,-2.487 -57.463,-0.033 -85.65,7.36c-46.04,11.96 -87.32,36.34 -118.6,71.97c-5.247,-22.06 -12.97,-42.987 -23.17,-62.78c-0.133,-0.26 -0.2,-0.537 -0.2,-0.83c0,-0.2 -0.03,-0.367 -0.09,-0.5c31.947,-20.987 66.12,-37.21 102.52,-48.67c20.833,-6.553 42.15,-10.53 63.95,-11.93c9.16,-0.587 18.333,-0.587 27.52,0c0.613,0.04 1.14,0.267 1.58,0.68c2.12,1.993 4.173,4.25 6.16,6.77c9.587,12.187 19.013,24.51 28.28,36.97Z" style="fill:#a6d832;fill-rule:nonzero;"/><path d="M423.05,182.23c0.247,0.16 0.45,0.39 0.61,0.69c0.147,0.28 0.11,0.533 -0.11,0.76c-3.7,3.767 -10.137,10.45 -19.31,20.05c-70.77,74.07 -130.68,160.26 -170.16,255.06c-21.1,50.68 -36.47,106.16 -40.22,160.46c-5.06,73.42 9.86,153.09 66.79,204.63c0.113,0.107 0.123,0.22 0.03,0.34l-0.01,0c-0.1,0.12 -0.21,0.133 -0.33,0.04c-101.53,-77.24 -103.37,-213.56 -77.3,-325.74c18.04,-77.61 49.58,-152.5 90.46,-220.77c17.04,-28.45 36.17,-56.49 57.52,-81.88c1.413,-1.68 2.773,-3.453 4.08,-5.32c28.187,-7.393 56.737,-9.847 85.65,-7.36c1.32,0.113 2.087,-0.207 2.3,-0.96Z" style="fill:#81bc29;fill-rule:nonzero;"/><path d="M186.68,203.02c2.66,9.56 5.07,19.88 5.46,29.67c0.08,1.99 0.68,3.98 0.73,5.76c0.31,9.83 0.69,19.9 -0.37,29.69c-0.267,2.44 -0.367,4.893 -0.3,7.36c0.027,1.053 0.007,1.36 -0.06,0.92c-18.56,22.32 -35.93,50.19 -41.97,78.64c-0.76,3.57 -0.42,6.88 -0.13,10.47c-0.187,0.887 -0.11,2.587 0.23,5.1c0.187,1.347 0.213,4.637 0.08,9.87c-0.007,0.147 0.083,0.42 0.27,0.82c0.127,0.253 0.193,0.523 0.2,0.81l0.11,4.79c0.013,0.653 0.12,0.67 0.32,0.05c0.22,-0.667 0.24,-1.333 0.06,-2c-0.004,-0.013 -0.016,-0.022 -0.03,-0.022c-0.017,0 -0.032,0.015 -0.032,0.032c0,0.003 0.001,0.007 0.002,0.01c0.48,2.513 0.543,5.023 0.19,7.53c-9.63,-14.98 -18.73,-29.66 -25.67,-45.9c-4.76,-11.14 -6.143,-22.847 -4.15,-35.12c6.73,-41.49 35.35,-79.17 65.06,-108.48Z" style="fill:#a6d832;fill-rule:nonzero;"/><path d="M362.4,327c4.13,-55.01 52.05,-77.48 101.35,-74.27c29.25,1.91 82.09,14.73 91.06,48.44c0.793,2.993 1.197,7.577 1.21,13.75c0.033,14.447 0.037,28.89 0.01,43.33c-0,2.773 -1.177,4.163 -3.53,4.17c-2.767,0.013 -5.377,-0.023 -7.83,-0.11c-1.225,-0.038 -2.259,-0.955 -2.45,-2.17c-5.88,-37.04 -21.01,-71.92 -61.46,-80.96c-18.07,-4.04 -40.08,-4.9 -56.44,5.38c-14.52,9.13 -22.22,23.01 -20.63,40.44c2.2,24.05 25.15,38.34 44.03,49.55c22.107,13.133 44.217,26.263 66.33,39.39c25.9,15.38 49.9,34.16 53.48,65.79c3.5,30.89 -8.71,63.66 -35.24,80.86c-14.9,9.66 -31.42,14.52 -49.05,15.96c-31.9,2.61 -66.94,-2.98 -94.76,-19.48c-11.13,-6.6 -21.86,-17.01 -25.19,-29.88c-0.78,-2.993 -1.17,-7.983 -1.17,-14.97c-0.007,-14.207 -0.003,-28.56 0.01,-43.06c0,-0.002 0,-0.003 0,-0.005c0.003,-1.459 1.201,-2.658 2.655,-2.655c0.001,-0 0.003,-0 0.005,0l8.67,0c1.231,0 2.288,0.907 2.47,2.12c5.37,35.02 20.02,68.72 56.73,80.12c7.58,2.353 16.943,3.84 28.09,4.46c29.46,1.64 65.07,-12.54 62.04,-48.45c-2.04,-24.23 -22.03,-39.93 -41.21,-51.5c-23.013,-13.88 -46.083,-27.67 -69.21,-41.37c-13.11,-7.78 -27.06,-18.84 -35.68,-30.61c-11.65,-15.9 -15.75,-34.76 -14.29,-54.27Z" style="fill:#7b7979;fill-rule:nonzero;"/><path d="M1369.51,285.29l0,112.61c0,0.42 0.213,0.63 0.64,0.63l120.37,-0c1.993,-0 2.99,0.997 2.99,2.99l0.01,17.97c0.007,2.013 -0.997,3.02 -3.01,3.02l-120.26,0.01c-0.4,0 -0.73,0.33 -0.73,0.73l0,121.51c0,0.395 0.325,0.72 0.72,0.72c27.613,0.04 55.283,0.033 83.01,-0.02c6.7,-0.02 15.3,-1.36 21.57,-2.72c24.28,-5.3 39.36,-22.71 47.54,-45.51c0.58,-1.62 1.69,-2.28 3.33,-1.98c3.413,0.633 6.62,1.357 9.62,2.17c1.135,0.311 1.927,1.35 1.927,2.527c-0,0.304 -0.053,0.607 -0.157,0.893c-5.453,14.907 -10.967,29.877 -16.54,44.91c-6.12,16.49 -20.46,23.65 -37.79,23.67c-52.333,0.06 -104.653,0.083 -156.96,0.07c-2.14,0 -3.21,-1.07 -3.21,-3.21l0,-240.93c0,-14.28 1.61,-38.17 -13.35,-46.49c-7.44,-4.14 -17.16,-3.29 -25.21,-3.35c-1.84,-0.013 -2.76,-0.943 -2.76,-2.79l-0.01,-8.9c-0.007,-2.047 1.013,-3.07 3.06,-3.07c65.92,-0.013 131.983,-0.01 198.19,0.01c18.94,0 34.67,9.36 38.23,28.54c0.52,2.82 0.793,7.3 0.82,13.44c0.047,10.767 0.037,21.513 -0.03,32.24c-0.011,1.397 -1.163,2.54 -2.56,2.54l-9.69,0c-0.01,0 -0.021,-0 -0.031,-0c-1.377,-0.017 -2.496,-1.159 -2.48,-2.531c0.001,-0.009 0.001,-0.019 0.001,-0.029c0.43,-21.93 -7.87,-39.85 -29.5,-46.8c-8.54,-2.75 -16.38,-3.33 -26.45,-3.37c-26.94,-0.1 -53.88,-0.093 -80.82,0.02c-0.32,0 -0.48,0.16 -0.48,0.48Z" style="fill:#7b7979;fill-rule:nonzero;"/><path d="M2465.79,371.29c-0.107,47.267 -0.09,94.75 0.05,142.45c0.03,13.13 4.16,29.21 16.58,35.03c11.2,5.25 27.14,2.83 38.4,-1.78c3.247,-1.333 6.46,-2.74 9.64,-4.22c0.688,-0.327 1.526,-0.036 1.87,0.65l4.38,8.81c0.285,0.563 0.129,1.257 -0.37,1.65c-18.83,14.72 -42.34,20.19 -65.84,18.15c-24.14,-2.08 -40.83,-16.99 -46.36,-40.41c-1.307,-5.507 -1.97,-12.297 -1.99,-20.37c-0.113,-46.847 -0.17,-93.663 -0.17,-140.45c0,-0.28 -0.14,-0.42 -0.42,-0.42l-30.56,-0.01c-0.614,0 -1.12,-0.506 -1.12,-1.12l-0.01,-18.24c0,-0.757 0.618,-1.38 1.37,-1.38l30.2,-0.01c0.373,0 0.56,-0.187 0.56,-0.56l-0.01,-39.05c0,-0.62 0.2,-1.17 0.6,-1.65l22.14,-26.58c0.55,-0.658 1.364,-1.04 2.22,-1.04l17.31,0.02c0.817,0 1.49,0.673 1.49,1.49l0,66.72c0,0.357 0.293,0.65 0.65,0.65l53.36,0.03c0.611,-0 1.115,0.499 1.12,1.11l0.04,18.2c0,0.763 -0.623,1.39 -1.38,1.39l-52.82,0.01c-0.62,0 -0.93,0.31 -0.93,0.93Z" style="fill:#7b7979;fill-rule:nonzero;"/><path d="M736.07,549.39c-16.47,17.45 -39.88,24.47 -63.58,24.63c-38.55,0.26 -69.37,-22.72 -71.11,-63.53c-2.69,-63.23 74.05,-70.91 118.37,-70.62c3.98,0.027 7.963,0.023 11.95,-0.01c0.347,-0.007 0.523,-0.183 0.53,-0.53c0.28,-23.98 -3.14,-64.99 -33.25,-70.72c-8.4,-1.6 -16.817,-1.687 -25.25,-0.26c-20.02,3.37 -30.37,16.98 -34.65,36.03c-0.307,1.347 -1.15,2.027 -2.53,2.04c-6.953,0.067 -13.887,0.06 -20.8,-0.02c-1.88,-0.02 -2.6,-1.04 -2.7,-2.87c-1.56,-30.55 7.46,-49 39.16,-55.69c19.8,-4.18 39.647,-5.4 59.54,-3.66c55.29,4.85 67.87,52.84 67.73,99.32c-0.12,40.927 -0.2,81.917 -0.24,122.97c-0.007,2.013 -1.017,3.02 -3.03,3.02l-22.42,0c-1.039,0.001 -2.022,-0.484 -2.66,-1.31l-14.56,-18.77c-0.16,-0.2 -0.327,-0.207 -0.5,-0.02Zm-83.62,-29.04c5.41,19.48 22.76,28.51 42.06,27.38c16.94,-0.99 27.81,-10.76 36.94,-24.04c0.553,-0.807 0.83,-1.7 0.83,-2.68c0.047,-18.893 0.06,-37.773 0.04,-56.64c-0,-0.333 -0.167,-0.503 -0.5,-0.51c-18.24,-0.5 -36.28,0.5 -53.42,7.3c-21.36,8.47 -32.36,26.09 -25.95,49.19Z" style="fill:#7b7979;fill-rule:nonzero;"/><path d="M886.54,365.41c23.79,-20.9 56.16,-26.33 86.23,-19.07c41.77,10.08 54.47,44.33 54.5,83.32c0.047,45.853 0.053,91.59 0.02,137.21c-0,1.417 -1.167,2.585 -2.59,2.59c-13.3,0.047 -26.617,0.043 -39.95,-0.01c-1.007,-0.007 -1.863,-0.087 -2.57,-0.24c-1.034,-0.222 -1.778,-1.141 -1.77,-2.19c0.013,-45.773 0.073,-91.53 0.18,-137.27c0.07,-25.38 -8.46,-52.47 -36.45,-58.8c-21.05,-4.76 -39.99,5.22 -53.84,20.53c-0.496,0.547 -0.77,1.26 -0.77,2l0.01,172.99c0,1.987 -0.997,2.983 -2.99,2.99c-13.173,0.047 -26.357,0.063 -39.55,0.05c-1.04,0 -2.06,-0.133 -3.06,-0.4c-0.319,-0.083 -0.587,-0.293 -0.74,-0.58c-0.453,-0.847 -0.68,-1.773 -0.68,-2.78c0,-55.42 -0.07,-110.837 -0.21,-166.25c-0.013,-5.113 -0.5,-10.183 -1.46,-15.21c-4,-20.92 -18.95,-22.14 -36.88,-21.43c-0.037,0.002 -0.073,0.002 -0.11,0.002c-1.437,0 -2.62,-1.182 -2.62,-2.62c-0,-0 -0,-0.001 0,-0.002l-0.01,-9.67c-0,-1.395 1.145,-2.545 2.54,-2.55c10.767,-0.047 21.617,-0.05 32.55,-0.01c17.96,0.07 38.95,-0.71 49.46,17.28c0.2,0.347 0.453,0.387 0.76,0.12Z" style="fill:#7b7979;fill-rule:nonzero;"/><path d="M1206.78,549.48c-15.09,16.22 -36.63,23.2 -58.21,24.47c-33.74,1.97 -67.63,-14.61 -74.72,-50.44c-9.7,-49.03 23.78,-71.89 66.41,-79.53c20.55,-3.68 41.63,-4.51 62.46,-4.06c0.002,0 0.003,0 0.005,0c0.208,0.003 0.382,-0.162 0.385,-0.365c-0,-0.001 0,-0.003 -0,-0.005c0.23,-24.78 -3.18,-65.83 -34.59,-71.32c-8.247,-1.447 -17.023,-1.16 -26.33,0.86c-19.09,4.14 -28.21,17.05 -32.33,35.42c-0.247,1.108 -1.235,1.905 -2.37,1.91c-6.78,0.067 -13.61,0.067 -20.49,-0c-1.86,-0.013 -2.933,-0.82 -3.22,-2.42c-0.52,-2.867 -0.363,-8.793 0.47,-17.78c2.14,-23.29 18.03,-34.06 39.25,-38.47c16.3,-3.387 33.217,-4.753 50.75,-4.1c62.53,2.33 75.75,48.34 75.79,101.05c0.027,40.6 0.03,81.173 0.01,121.72c-0,2.033 -1.02,3.05 -3.06,3.05l-22.26,0.01c-1.117,-0 -2.17,-0.514 -2.85,-1.39l-14.43,-18.58c-0.213,-0.273 -0.437,-0.283 -0.67,-0.03Zm-4.18,-85.57c-17.26,-0.62 -34.68,0.42 -51.08,6.31c-21.76,7.82 -34.12,24.65 -28.9,48.31c3.28,14.83 14.78,25.49 29.63,28.28c22.33,4.21 38.85,-5.25 50.34,-23.85c0.418,-0.68 0.64,-1.463 0.64,-2.26l-0.07,-56.21c-0,-0.373 -0.187,-0.567 -0.56,-0.58Z" style="fill:#7b7979;fill-rule:nonzero;"/><path d="M1815.76,559.98l-0.01,94.18c0,0.505 -0.411,0.92 -0.91,0.92l-41.36,0.05c-0.801,0 -1.46,-0.655 -1.46,-1.45c0.013,-82.553 0.03,-165.197 0.05,-247.93c0.01,-17.54 -1.3,-41.79 -24.33,-44.07c-5.153,-0.507 -10.367,-0.633 -15.64,-0.38c-0.023,0.001 -0.047,0.002 -0.07,0.002c-0.719,-0 -1.31,-0.591 -1.31,-1.31c-0,-0.001 -0,-0.001 0,-0.002l-0.02,-9.21c0,-0.625 0.515,-1.14 1.14,-1.14c13.58,-0.027 26.967,-0.033 40.16,-0.02c16.2,0.01 34.37,2.59 40.85,20.1c0.128,0.336 0.453,0.56 0.813,0.56c0.252,-0 0.492,-0.11 0.657,-0.3c16.05,-18.53 39.79,-25.46 63.69,-24.97c37.24,0.77 62.49,25.04 73.91,58.76c18.38,54.29 11.14,151.3 -60.17,166.62c-24.76,5.31 -52.86,0.17 -75.44,-10.75c-0.024,-0.011 -0.05,-0.02 -0.076,-0.026c-0.209,-0.047 -0.419,0.081 -0.465,0.285c-0.006,0.026 -0.009,0.054 -0.009,0.081Zm97.67,-123.36c-2.56,-26.73 -12.59,-66.85 -45.43,-70.37c-21.9,-2.34 -39.34,7.33 -51.35,25.13c-0.48,0.71 -0.89,1.9 -0.89,2.62c-0.007,47.84 -0.007,95.707 -0,143.6c0,0.349 0.193,0.67 0.5,0.83c9.307,4.947 18.94,8.723 28.9,11.33c17.91,4.7 36.54,0.27 48.51,-13.61c10.01,-11.62 15.61,-27.77 18.03,-42.65c3.007,-18.54 3.583,-37.5 1.73,-56.88Z" style="fill:#7b7979;fill-rule:nonzero;"/><path d="M2040.92,467.18c0.22,33.84 13.29,79.82 54.08,83.89c31.17,3.11 52.7,-10.81 69.88,-35.49c0.004,-0.005 0.007,-0.01 0.011,-0.015c0.441,-0.609 1.301,-0.75 1.905,-0.313c0.008,0.006 0.016,0.012 0.024,0.018l9.04,6.79c0.479,0.362 0.61,1.035 0.3,1.55c-16.38,27.29 -39.52,45.14 -72.16,48.19c-88.06,8.23 -120.34,-73.6 -105.88,-146.17c7.94,-39.88 34.1,-75.4 77.13,-79.92c34.1,-3.57 70.69,6.79 88.96,37.83c13.83,23.48 16.17,55.33 13.35,82.1c-0.076,0.651 -0.629,1.149 -1.28,1.15l-134.98,0c-0.26,0 -0.387,0.13 -0.38,0.39Zm-0.01,-26.81c-0.067,1.653 -0.057,3.37 0.03,5.15c0.013,0.36 0.2,0.54 0.56,0.54l92.74,0c0.291,0 0.53,-0.235 0.53,-0.52c0.46,-28.16 -6.04,-72.68 -41.65,-77.04c-37.4,-4.58 -51.12,44.33 -52.21,71.87Z" style="fill:#7b7979;fill-rule:nonzero;"/><path d="M2273.05,370.32c0.141,-0.006 0.271,-0.068 0.36,-0.17c14.607,-16.493 33.06,-24.84 55.36,-25.04c22.2,-0.21 35.8,8.47 44.97,28.3c0.207,0.447 0.073,0.983 -0.32,1.28l-18.25,13.72c-0.579,0.433 -1.405,0.335 -1.86,-0.22c-4,-4.827 -9.1,-8.217 -15.3,-10.17c-23.16,-7.3 -47.89,-1.6 -62.47,18.48c-0.266,0.37 -0.41,0.811 -0.41,1.26l0,168.48c0,1.073 -0.54,1.61 -1.62,1.61l-40.99,-0.05c-0.625,-0 -1.14,-0.519 -1.14,-1.15c-0.007,-53.32 -0.01,-106.453 -0.01,-159.4c-0,-7.48 -0.2,-17.11 -2.29,-25.35c-4.43,-17.56 -16.51,-21.23 -33.35,-20.66c-0.01,0 -0.02,0 -0.03,0c-0.549,0 -1,-0.451 -1,-1c-0,0 -0,0 -0,0l-0.02,-9.47c-0,-0.609 0.501,-1.11 1.11,-1.11c12.12,-0.067 24.107,-0.06 35.96,0.02c17.09,0.12 33.7,2.79 40.64,20.2c0.12,0.307 0.34,0.453 0.66,0.44Z" style="fill:#7b7979;fill-rule:nonzero;"/><path d="M1622.06,484.63c-0.307,-0.52 -0.637,-0.533 -0.99,-0.04l-57.68,82.12c-0.56,0.8 -1.327,1.197 -2.3,1.19l-22.36,-0.08c-0.572,-0.006 -1.038,-0.478 -1.038,-1.05c-0,-0.214 0.065,-0.424 0.188,-0.6l72.86,-102.46c0.2,-0.28 0.21,-0.57 0.03,-0.87c-13.253,-22.14 -26.463,-44.287 -39.63,-66.44c-6.007,-10.1 -12.967,-18.243 -20.88,-24.43c-7.527,-5.873 -15.9,-9.443 -25.12,-10.71c-0.64,-0.093 -1.123,-0.648 -1.13,-1.3l-0.03,-8.71c-0.007,-1.067 0.527,-1.603 1.6,-1.61c9.767,-0.04 19.54,-0.043 29.32,-0.01c9.4,0.033 15.937,0.47 19.61,1.31c19.64,4.47 33.97,21.05 43.71,37.61c8.733,14.847 17.447,29.677 26.14,44.49c0.077,0.13 0.218,0.211 0.37,0.211c0.139,-0 0.269,-0.068 0.35,-0.181l57.9,-82.39c0.47,-0.664 1.232,-1.06 2.04,-1.06l22.37,0.02c0,-0 0,-0 0,-0c0.626,-0 1.14,0.515 1.14,1.14c0,0.236 -0.073,0.467 -0.21,0.66l-72.8,102.37c-0.169,0.237 -0.181,0.55 -0.03,0.79c13.213,22.047 26.403,44.01 39.57,65.89c11.34,18.85 25.78,32.83 48.38,35.81c0.638,0.085 1.12,0.631 1.12,1.27l-0.01,9.16c-0,0.616 -0.508,1.125 -1.13,1.13c-11.24,0.007 -22.367,-0.007 -33.38,-0.04c-8.94,-0.027 -15.427,-0.55 -19.46,-1.57c-17.78,-4.48 -32.4,-20.07 -41.52,-35.61c-9.093,-15.48 -18.093,-30.817 -27,-46.01Z" style="fill:#7b7979;fill-rule:nonzero;"/><path d="M1619.5,703.93l-10.2,0.01c-0.26,0 -0.39,-0.13 -0.39,-0.39l0.01,-6.29c0,-0.22 0.11,-0.33 0.33,-0.33l10.46,0.03c0.003,0 0.007,0 0.01,0c0.252,0 0.46,-0.212 0.46,-0.47c0,-0.003 0,-0.007 0,-0.01c-0.28,-8.37 0.11,-16.73 4.51,-23.98c6.42,-10.59 20.62,-12.1 31.69,-10.15c5.28,0.93 8.5,4.2 10.58,9.59c0.12,0.313 0.057,0.583 -0.19,0.81l-3.77,3.46c-0.3,0.273 -0.563,0.243 -0.79,-0.09c-3.367,-4.893 -8.107,-7.373 -14.22,-7.44c-14,-0.14 -13.92,18.5 -13.42,27.84c0.013,0.293 0.167,0.44 0.46,0.44l21.34,-0.02c0.373,0 0.56,0.183 0.56,0.55l-0.01,5.83c-0,0.002 -0,0.003 -0,0.005c-0.003,0.362 -0.298,0.658 -0.655,0.655c-0.001,0 -0.003,0 -0.005,0l-21.22,-0.05c-0.291,-0 -0.53,0.239 -0.53,0.53l0,74.6c0,0.318 -0.257,0.58 -0.57,0.58l-13.12,-0.12c-0.46,-0 -0.69,-0.233 -0.69,-0.7l-0.05,-74.32c0,-0.38 -0.193,-0.57 -0.58,-0.57Z" style="fill:#81bc29;fill-rule:nonzero;"/><path d="M394.51,759.03c0.01,9.79 1.15,17.53 13.31,17.18c0.01,-0 0.02,-0 0.03,-0c0.593,-0 1.084,0.478 1.1,1.07l0.03,1.15c0.027,0.753 -0.333,1.137 -1.08,1.15c-6.01,0.14 -15.89,0.83 -20.93,-0.86c-6.72,-2.24 -6.9,-12.83 -6.91,-19.47c-0.047,-31.76 -0.053,-63.523 -0.02,-95.29c0.007,-0.313 0.167,-0.47 0.48,-0.47l13.22,-0.01c0.411,0 0.75,0.339 0.75,0.75c-0.033,31.74 -0.027,63.34 0.02,94.8Z" style="fill:#81bc29;fill-rule:nonzero;"/><path d="M895.18,699.76c0.19,-8.5 1.11,-19.22 -1.95,-27.4c-1.93,-5.15 -6.89,-5.64 -11.62,-5.41c-0.533,0.027 -0.81,-0.227 -0.83,-0.76l-0.06,-1.75c-0.02,-0.573 0.257,-0.87 0.83,-0.89c6.96,-0.233 12.943,-0.17 17.95,0.19c9.15,0.67 10.01,10.15 10.03,17.63c0.047,32.56 0.053,65.123 0.02,97.69c-0,0.387 -0.193,0.58 -0.58,0.58l-6.82,-0.02c-0.393,-0 -0.703,-0.16 -0.93,-0.48l-4.85,-7.02c-0.185,-0.265 -0.489,-0.424 -0.812,-0.424c-0.315,0 -0.612,0.15 -0.798,0.404c-2.647,3.613 -6.073,6.123 -10.28,7.53c-11.97,3.98 -23.81,1.43 -31.32,-9.06c-12.77,-17.84 -12.74,-62.81 10.93,-73.2c9.5,-4.17 21.45,-2.16 30.33,2.82c0.493,0.273 0.747,0.13 0.76,-0.43Zm-15.43,2.44c-14,0.09 -18.36,15.68 -19.29,27.31c-1.02,12.8 -1.2,43.97 17.53,44.74c7.347,0.307 12.953,-2.98 16.82,-9.86c0.275,-0.491 0.42,-1.046 0.42,-1.61l0,-54.79c0,-0.3 -0.13,-0.527 -0.39,-0.68c-4.53,-2.58 -10.04,-5.14 -15.09,-5.11Z" style="fill:#81bc29;fill-rule:nonzero;"/><path d="M987.61,700.06c8.53,-3.57 13.66,-5.5 22.39,-4.72c34.41,3.08 35.2,68.03 11,82.67c-10.64,6.44 -25.91,3.66 -33.61,-5.97c-0.176,-0.218 -0.442,-0.345 -0.723,-0.345c-0.306,0 -0.594,0.152 -0.767,0.405l-4.78,6.92c-0.264,0.376 -0.693,0.6 -1.15,0.6l-6.45,0.03c-0.593,0 -0.89,-0.293 -0.89,-0.88c0,-31.58 -0.007,-63.17 -0.02,-94.77c0,-9.47 -1.51,-18.44 -13.85,-16.95c-0.006,0.001 -0.012,0.001 -0.019,0.002c-0.229,0.018 -0.433,-0.152 -0.45,-0.377c-0.001,-0.008 -0.001,-0.017 -0.001,-0.025l-0.08,-2.66c-0.006,-0.221 0.164,-0.409 0.38,-0.42c10.227,-0.44 16.787,-0.333 19.68,0.32c8.21,1.84 8.63,10.6 8.67,17.36c0.04,6.14 0.073,12.283 0.1,18.43c0.007,0.407 0.197,0.533 0.57,0.38Zm34.06,49.59c1.8,-14.05 1.62,-48.9 -20.94,-47.43c-3.733,0.24 -8.17,2.01 -13.31,5.31c-0.253,0.16 -0.38,0.39 -0.38,0.69c-0.04,17.633 -0.037,35.26 0.01,52.88c0.007,1.687 0.383,3.133 1.13,4.34c3.453,5.613 8.53,8.577 15.23,8.89c12.68,0.59 17.01,-14.98 18.26,-24.68Z" style="fill:#81bc29;fill-rule:nonzero;"/><path d="M1296.43,684.51c-0.01,-9.78 -1.08,-18.16 -13.22,-17.56c-0.712,0.034 -1.327,-0.524 -1.37,-1.24l-0.04,-0.76c-0.053,-0.9 0.37,-1.363 1.27,-1.39c5.673,-0.193 11.317,-0.173 16.93,0.06c9.9,0.42 10.7,9.99 10.72,17.88c0.053,32.527 0.077,65.063 0.07,97.61c0,0 0,0 0,0c0,0.296 -0.244,0.54 -0.54,0.54c-0.003,0 -0.007,0 -0.01,0l-13.04,-0.13c-0.402,-0.005 -0.73,-0.338 -0.73,-0.74c0.013,-31.387 -0,-62.81 -0.04,-94.27Z" style="fill:#81bc29;fill-rule:nonzero;"/><path d="M1874.38,703.35c7.68,-6.82 16.33,-9.433 25.95,-7.84c16.42,2.73 21.59,15.67 21.6,30.74c0.007,17.653 0.013,35.3 0.02,52.94c0,0.236 -0.194,0.43 -0.43,0.43l-13.27,-0.02c-0.406,0 -0.74,-0.334 -0.74,-0.74c0.047,-18.487 0.033,-37.023 -0.04,-55.61c-0.013,-3.047 -0.72,-6.183 -2.12,-9.41c-3.32,-7.65 -9.82,-12.02 -18.29,-10.41c-4.9,0.94 -8.21,3.83 -11.73,7.39c-0.807,0.813 -1.213,1.457 -1.22,1.93c-0.147,22.133 -0.23,44.223 -0.25,66.27c-0,0.002 -0,0.004 -0,0.005c-0.003,0.335 -0.276,0.608 -0.605,0.605c-0.002,0 -0.003,0 -0.005,0l-13.02,-0.06c-0.406,0 -0.74,-0.334 -0.74,-0.74c0.007,-31.573 0.01,-63.183 0.01,-94.83c0,-3.307 -0.37,-6.567 -1.11,-9.78c-1.48,-6.48 -6.59,-7.37 -12.4,-7.28c-0.66,0.013 -0.993,-0.31 -1,-0.97l-0.02,-1.47c-0.013,-0.58 0.27,-0.883 0.85,-0.91c8.727,-0.4 14.957,-0.32 18.69,0.24c8.79,1.32 9.24,10.45 9.27,17.67c0.02,7.22 0.08,14.44 0.18,21.66c0,0.367 0.14,0.43 0.42,0.19Z" style="fill:#81bc29;fill-rule:nonzero;"/><path d="M2100.05,685.16c-0.01,-8.94 -0.78,-19.86 -13.38,-18.11c-0.017,0.003 -0.034,0.005 -0.05,0.006c-0.519,0.049 -0.987,-0.342 -1.037,-0.866c-0.001,-0.017 -0.002,-0.033 -0.003,-0.05l-0.07,-1.61c-0.033,-0.64 0.273,-0.97 0.92,-0.99c7.747,-0.24 13.687,-0.177 17.82,0.19c9.51,0.83 10.06,10.14 10.09,17.64c0.14,32.513 0.187,65.037 0.14,97.57c0,0.379 -0.311,0.69 -0.69,0.69l-12.81,-0.01c-0.613,-0 -0.92,-0.307 -0.92,-0.92c0.027,-31.327 0.023,-62.507 -0.01,-93.54Z" style="fill:#81bc29;fill-rule:nonzero;"/><path d="M2207.14,703.49c8.407,-7.82 18.35,-10.143 29.83,-6.97c14.19,3.93 17.73,16.96 17.77,30.04c0.047,17.26 0.043,34.713 -0.01,52.36c0,0.487 -0.243,0.727 -0.73,0.72l-12.75,-0.12c-0.553,-0.007 -0.83,-0.283 -0.83,-0.83c-0.013,-17.38 -0.037,-34.443 -0.07,-51.19c-0.02,-9.87 -2.47,-20.76 -12.73,-23.74c-8,-2.32 -15.84,1.93 -20.56,8.46c-0.195,0.273 -0.3,0.602 -0.3,0.94l-0.02,66.04c0,0.236 -0.199,0.43 -0.44,0.43l-13.28,-0.03c-0.395,-0 -0.72,-0.33 -0.72,-0.73c0.033,-33.947 0.023,-66.653 -0.03,-98.12c0,-2.647 -0.627,-5.503 -1.88,-8.57c-2.08,-5.07 -6.89,-5.28 -11.58,-5.23c-0.673,0.007 -1.017,-0.33 -1.03,-1.01l-0.02,-1.42c-0.007,-0.633 0.303,-0.96 0.93,-0.98c5.8,-0.187 11.733,-0.093 17.8,0.28c8.59,0.53 9.71,7.88 9.96,14.93c0.3,8.167 0.39,16.35 0.27,24.55c-0,0.002 -0,0.005 -0,0.007c-0,0.137 0.113,0.25 0.25,0.25c0.063,-0 0.124,-0.024 0.17,-0.067Z" style="fill:#81bc29;fill-rule:nonzero;"/><path d="M678.757,685.992c-4.083,1.518 -8.994,-1.405 -10.879,-6.474c-0,-0 -0,-0 -0,-0c-1.885,-5.07 -0.077,-10.491 4.005,-12.01c0,0 0,0 0,0c4.083,-1.518 8.994,1.405 10.879,6.474c0,0 0,0 0,0c1.885,5.07 0.077,10.491 -4.005,12.01c-0,-0 -0,-0 -0,-0Z" style="fill:#81bc29;fill-rule:nonzero;"/><path d="M2155.87,696.96l18.6,0c0.34,0 0.51,0.17 0.51,0.51l-0.07,5.82c-0.007,0.46 -0.24,0.687 -0.7,0.68l-18.09,-0.05c-0.273,-0 -0.41,0.137 -0.41,0.41c-0.053,18.947 -0.043,37.92 0.03,56.92c0.05,14.11 12.69,15.83 22.54,9.84c0.287,-0.173 0.53,-0.12 0.73,0.16c0.56,0.8 0.963,1.663 1.21,2.59c0.08,0.333 -0.007,0.613 -0.26,0.84c-10.65,9.66 -32.08,10.24 -37.39,-5.92c-1.1,-3.35 -1.33,-7.61 -1.33,-11.71c0.02,-17.56 0.007,-35.043 -0.04,-52.45c-0,-0.453 -0.227,-0.68 -0.68,-0.68l-9.8,0.06c-0.353,0 -0.645,-0.287 -0.65,-0.64l-0.06,-5.81c0,-0.324 0.266,-0.59 0.59,-0.59l10.17,0.03c0.002,-0 0.003,-0 0.005,-0c0.269,-0.003 0.488,-0.222 0.485,-0.485c0,-0.002 0,-0.003 -0,-0.005l-0.04,-14.32c-0.006,-0.681 0.212,-1.342 0.62,-1.88l7.04,-9.3c0.247,-0.327 0.573,-0.49 0.98,-0.49l5.25,0.03c0.393,0 0.59,0.197 0.59,0.59l-0.02,25.65c-0,0.11 0.086,0.2 0.19,0.2Z" style="fill:#81bc29;fill-rule:nonzero;"/><path d="M439.02,703.86c0.052,0.121 0.172,0.2 0.303,0.2c0.085,0 0.166,-0.032 0.227,-0.09c7.74,-7.187 16.537,-10.02 26.39,-8.5c15.01,2.31 21.55,13.68 21.67,28.03c0.16,18.593 0.23,37.12 0.21,55.58c-0,0.318 -0.257,0.58 -0.57,0.58l-13.28,-0.06c-0.285,-0 -0.52,-0.235 -0.52,-0.52c0.04,-17.487 0.093,-35.013 0.16,-52.58c0.08,-21.25 -17.66,-32.36 -33.38,-14.65c-0.3,0.34 -0.45,0.737 -0.45,1.19l0,65.9c0,0.002 -0,0.003 -0,0.005c-0.003,0.384 -0.325,0.698 -0.715,0.695c-0.002,0 -0.003,0 -0.005,-0l-13.07,-0.12c-0.002,-0 -0.003,-0 -0.005,-0c-0.318,-0.003 -0.578,-0.262 -0.575,-0.575c-0,-0.002 -0,-0.003 0,-0.005c0.033,-20.707 0.033,-41.27 0,-61.69c-0.007,-3.393 -0.433,-6.73 -1.28,-10.01c-1.8,-6.94 -6.93,-6.59 -12.75,-6.87c-0.29,-0.016 -0.521,-0.264 -0.52,-0.56l0.02,-2.3c0.007,-0.313 0.167,-0.477 0.48,-0.49c5.8,-0.187 11.677,-0.117 17.63,0.21c4.76,0.26 8.103,2.47 10.03,6.63Z" style="fill:#81bc29;fill-rule:nonzero;"/><path d="M509.36,772.69c-2.92,-4.24 -3.02,-11.61 -2.5,-16.53c0.027,-0.273 0.177,-0.403 0.45,-0.39l2.12,0.08c0.32,0.013 0.5,0.183 0.54,0.51c1.24,10.01 7.61,16.27 17.54,17.67c6.94,0.99 17.08,0.3 20.86,-6.6c2.7,-4.92 1.49,-10.92 -2.58,-14.72c-11.23,-10.47 -34.88,-11.63 -38.48,-29.4c-2.18,-10.753 0.943,-18.81 9.37,-24.17c10.25,-6.51 41.19,-6.45 43.82,10.08c0.3,1.907 0.487,5.597 0.56,11.07c0,0.003 0,0.007 0,0.01c0,0.172 -0.138,0.315 -0.31,0.32l-2.68,0.06c-0.135,0.006 -0.255,-0.093 -0.28,-0.23c-1.7,-10.913 -7.787,-16.97 -18.26,-18.17c-5.97,-0.68 -14.71,0.62 -17.9,6.66c-4.88,9.28 3.24,16.7 10.75,20.19c11.16,5.18 28.3,10.8 30.72,24.85c2.32,13.44 -5.83,23.94 -18.86,26.4c-9.94,1.87 -28.26,1.88 -34.88,-7.69Z" style="fill:#81bc29;fill-rule:nonzero;"/><path d="M1094.91,756.5l19.66,-59.39c0.04,-0.127 0.127,-0.19 0.26,-0.19l7.47,0.05c0.109,0 0.199,0.091 0.199,0.2c0,0.02 -0.003,0.041 -0.009,0.06c-10.433,31.48 -20.81,62.913 -31.13,94.3c-1.753,5.34 -4.207,10.323 -7.36,14.95c-5.32,7.82 -12.75,8.49 -21.42,8.39c-0.553,0 -0.83,-0.28 -0.83,-0.84l-0.01,-3.81c-0,-0 -0,-0 -0,-0c-0,-0.428 0.352,-0.78 0.78,-0.78c0.007,-0 0.013,-0 0.02,0c16.11,0.48 20.24,-15.48 23.88,-27.63c0.091,-0.312 0.08,-0.648 -0.03,-0.96c-7.5,-20.12 -15.01,-40.23 -22.53,-60.33c-4.59,-12.28 -6.94,-19.66 -19.75,-21.77c-0.387,-0.067 -0.64,-0.287 -0.76,-0.66c-0.24,-0.747 -0.243,-1.497 -0.01,-2.25c0.107,-0.347 0.34,-0.53 0.7,-0.55c16.7,-0.83 26.9,-0.84 33.13,16.15c5.44,14.84 10.997,29.867 16.67,45.08c0.38,1.007 0.737,1 1.07,-0.02Z" style="fill:#81bc29;fill-rule:nonzero;"/><path d="M599.35,776.39c-0.64,-0.367 -0.96,-0.18 -0.96,0.56l0,35.52c0,0.335 -0.275,0.61 -0.61,0.61l-13.25,0c-0.333,0 -0.5,-0.167 -0.5,-0.5c-0.013,-32.12 -0.077,-64.227 -0.19,-96.32c-0.013,-3.94 -0.487,-7.27 -1.42,-9.99c-1.96,-5.71 -7.09,-6.07 -12.43,-5.8c-0.005,0 -0.01,0 -0.015,0.001c-0.192,0.002 -0.353,-0.149 -0.355,-0.336c-0,-0.005 -0,-0.01 0,-0.015l0.02,-2.85c0,-0.2 0.1,-0.303 0.3,-0.31c7.607,-0.12 13.293,-0.077 17.06,0.13c5.34,0.287 8.88,2.857 10.62,7.71c0.063,0.181 0.234,0.303 0.425,0.303c0.139,0 0.27,-0.064 0.355,-0.173c4.91,-6.29 11.43,-9.34 19.48,-9.72c16.33,-0.79 25.75,11.29 29.1,26.29c3.87,17.31 2.91,47.69 -16.48,57.23c-9.6,4.71 -22.15,2.8 -31.15,-2.34Zm4.95,-70.61c-2.07,1.67 -5.91,5.49 -5.91,8.22l0,54.73c0,0.222 0.124,0.426 0.32,0.53c8.03,4.36 17.07,8.04 25.09,1.46c6.32,-5.19 8.81,-15.65 9.56,-23.46c1.22,-12.66 0.76,-47.16 -20.36,-45.03c-3.273,0.327 -6.173,1.51 -8.7,3.55Z" style="fill:#81bc29;fill-rule:nonzero;"/><path d="M721.83,704.62c0.193,0.54 0.48,0.597 0.86,0.17c6.45,-7.23 13.55,-11.05 23.29,-9.17c5.53,1.07 8.95,4.63 10.84,9.71c0.12,0.32 0.05,0.59 -0.21,0.81l-5.28,4.44c-0.267,0.22 -0.517,0.203 -0.75,-0.05c-7.42,-8.11 -20.42,-5.42 -26.76,2.24c-0.59,0.71 -1.08,1.7 -1.08,2.73c0.007,21.013 0.01,42.147 0.01,63.4c0,0.406 -0.334,0.74 -0.74,0.74l-12.53,-0.12c-0.793,-0.007 -1.19,-0.41 -1.19,-1.21c0.047,-21.54 0,-42.393 -0.14,-62.56c-0.06,-9.01 -1.85,-15.66 -12.16,-15.27c-0.002,0 -0.004,0 -0.006,0c-0.246,0.008 -0.456,-0.193 -0.464,-0.445c0,-0.002 0,-0.003 0,-0.005l-0.01,-2.6c0,-0.313 0.153,-0.473 0.46,-0.48c7.013,-0.12 12.19,-0.073 15.53,0.14c5.247,0.347 8.69,2.857 10.33,7.53Z" style="fill:#81bc29;fill-rule:nonzero;"/><path d="M781.56,741.4c-0.31,10.25 2.57,23.1 10.96,29.57c7.44,5.73 19.47,3.82 26.22,-2.47c2.527,-2.36 4.597,-4.863 6.21,-7.51c0.327,-0.54 0.73,-0.603 1.21,-0.19l1.72,1.47c0.533,0.453 0.627,0.983 0.28,1.59c-7.127,12.62 -17.407,18.423 -30.84,17.41c-35.2,-2.67 -38.6,-55.87 -20.48,-76.12c7.65,-8.56 17.2,-11.37 28.67,-9.38c21.65,3.74 26.6,26 24.36,44.44c-0.067,0.5 -0.353,0.75 -0.86,0.75l-46.97,-0.02c-0.307,0 -0.467,0.153 -0.48,0.46Zm33.5,-8.26c0.04,-6.87 -0.73,-14.21 -3.11,-20.72c-3.26,-8.94 -14.14,-14.29 -21.73,-6.71c-6.67,6.67 -8.91,18.71 -8.73,27.7c0.005,0.26 0.22,0.47 0.48,0.47l32.33,0.01c0.413,0 0.755,-0.337 0.76,-0.75Z" style="fill:#81bc29;fill-rule:nonzero;"/><path d="M1219.05,731.62c0.267,-7.747 -0.75,-14.7 -3.05,-20.86c-3.21,-8.6 -14.03,-10.26 -21.51,-7.23c-5.17,2.09 -8.85,6.99 -9.43,12.61c-0.067,0.66 -0.433,0.99 -1.1,0.99l-5.5,0c-0.667,0 -0.997,-0.337 -0.99,-1.01c0.13,-8.48 1.33,-15.43 9.65,-18.25c8.14,-2.77 18.96,-3.6 26.87,-1.9c14.8,3.18 19.08,17.69 19.27,31.28c0.233,17.34 0.327,34.667 0.28,51.98c0,0.236 -0.194,0.43 -0.43,0.43l-7.07,-0.06c-0.373,-0.007 -0.663,-0.163 -0.87,-0.47l-4.88,-6.99c-0.025,-0.037 -0.053,-0.072 -0.084,-0.105c-0.36,-0.391 -0.975,-0.42 -1.363,-0.064c-0.033,0.031 -0.064,0.064 -0.093,0.099c-9.62,11.71 -31.52,13.14 -40.7,0.23c-4.11,-5.78 -5.49,-13.89 -4.02,-20.82c4.01,-18.97 30.21,-19.2 44.53,-19.38c0.32,0 0.483,-0.16 0.49,-0.48Zm-18.17,41.5c8.67,1.65 13.9,-2.99 18.03,-9.83c0.144,-0.242 0.22,-0.519 0.22,-0.8l-0.02,-22.97c0,-0.267 -0.133,-0.407 -0.4,-0.42c-6.84,-0.26 -17.25,0.39 -22.69,4.45c-7.353,5.5 -9.157,12.643 -5.41,21.43c1.913,4.493 5.337,7.207 10.27,8.14Z" style="fill:#81bc29;fill-rule:nonzero;"/><path d="M1345.55,774.64c-26.36,-20.78 -18.93,-80.76 21.48,-79.48c46.17,1.46 45.67,90.08 -5.28,86.08c-5.793,-0.453 -11.193,-2.653 -16.2,-6.6Zm19.94,-0.06c11.076,-0 20.19,-16.391 20.19,-36.31c0,-19.919 -9.114,-36.31 -20.19,-36.31c-11.076,0 -20.19,16.391 -20.19,36.31c0,19.919 9.114,36.31 20.19,36.31Z" style="fill:#81bc29;fill-rule:nonzero;"/><path d="M1453.67,753.82c0.293,0.78 0.59,0.78 0.89,0l21.87,-56.64c0.06,-0.16 0.177,-0.24 0.35,-0.24l7.42,0.03c0.014,-0 0.028,0.001 0.042,0.003c0.108,0.021 0.179,0.131 0.157,0.244c-0.002,0.011 -0.005,0.022 -0.009,0.033l-32.46,83.44c-0.12,0.293 -0.33,0.487 -0.63,0.58c-0.82,0.233 -1.64,0.24 -2.46,0.02c-0.313,-0.087 -0.527,-0.28 -0.64,-0.58c-8.2,-21.333 -16.347,-42.683 -24.44,-64.05c-2.14,-5.647 -4.717,-10.2 -7.73,-13.66c-1.98,-2.28 -4.773,-3.557 -8.38,-3.83c-0.427,-0.027 -0.64,-0.257 -0.64,-0.69l0.01,-2.19c0.007,-0.313 0.163,-0.497 0.47,-0.55c8.573,-1.567 15.8,0.123 21.68,5.07c3.753,3.16 6.863,7.837 9.33,14.03c5.227,13.147 10.283,26.14 15.17,38.98Z" style="fill:#81bc29;fill-rule:nonzero;"/><path d="M1509.92,741.25c-0.72,15.23 5.71,34.63 24.31,32.93c8.71,-0.8 14.64,-6.22 19.09,-13.26c0.122,-0.197 0.338,-0.317 0.569,-0.317c0.158,0 0.31,0.056 0.431,0.157l2.01,1.69c0.34,0.287 0.407,0.63 0.2,1.03c-6.527,12.213 -16.2,18.163 -29.02,17.85c-12.75,-0.32 -22.43,-6.83 -27.82,-18.23c-11.67,-24.69 -4.24,-74.14 34.07,-67.34c21.78,3.86 26.59,26.04 24.34,44.68c-0.047,0.347 -0.247,0.52 -0.6,0.52l-47.24,-0.04c-0.22,0 -0.333,0.11 -0.34,0.33Zm0.32,-7.55l32.81,0.34c0.003,0 0.007,0 0.01,0c0.159,0 0.29,-0.131 0.29,-0.29c0,0 0,0 -0,-0l0.03,-3.51c0.159,-15.276 -6.873,-27.922 -15.58,-28.02l-1.64,-0.02c-0.003,-0 -0.006,-0 -0.009,-0c-8.711,-0.091 -16.01,12.408 -16.171,27.69l-0.03,3.51c-0,0.003 -0,0.007 -0,0.01c-0,0.159 0.131,0.29 0.29,0.29c-0,0 -0,0 0,-0Z" style="fill:#81bc29;fill-rule:nonzero;"/><path d="M1685.99,777.33c-31.22,-17.88 -24.13,-85.73 19.02,-82.08c36.85,3.12 41.8,59.53 17.25,79.28c-9.99,8.04 -25.3,9.08 -36.27,2.8Zm16.09,-2.78c11.076,0 20.19,-16.386 20.19,-36.3c0,-19.914 -9.114,-36.3 -20.19,-36.3c-11.076,0 -20.19,16.386 -20.19,36.3c0,19.914 9.114,36.3 20.19,36.3Z" style="fill:#81bc29;fill-rule:nonzero;"/><path d="M1771.52,704.67c0.927,-0.707 1.797,-1.48 2.61,-2.32c6.073,-6.26 13.163,-8.513 21.27,-6.76c5.067,1.093 8.477,4.407 10.23,9.94c0.073,0.24 0.013,0.443 -0.18,0.61l-5.18,4.37c-0.267,0.227 -0.523,0.213 -0.77,-0.04c-7.74,-8.09 -21.31,-5.5 -27.34,3.23c-0.313,0.456 -0.48,0.997 -0.48,1.55l-0.04,63.49c0,0.587 -0.293,0.88 -0.88,0.88l-13,-0.03c-0.291,0 -0.53,-0.235 -0.53,-0.52c0,-20.447 -0.007,-40.887 -0.02,-61.32c0,-9.34 -0.93,-17.59 -12.27,-17.28c-0.313,0.007 -0.47,-0.147 -0.47,-0.46l-0.01,-2.58c0,-0.32 0.16,-0.483 0.48,-0.49c2.04,-0.013 6.807,0.023 14.3,0.11c5.633,0.06 9.5,2.543 11.6,7.45c0.153,0.347 0.38,0.403 0.68,0.17Z" style="fill:#81bc29;fill-rule:nonzero;"/><path d="M1955.26,741.35c-0.46,14.55 5.32,34.15 23.99,32.84c8.7,-0.61 15.17,-6.13 19.55,-13.35c0.121,-0.203 0.34,-0.328 0.576,-0.328c0.164,-0 0.322,0.06 0.444,0.168l1.91,1.67c0.413,0.36 0.49,0.783 0.23,1.27c-4.94,9.2 -12.11,15.63 -22.73,17.22c-18.56,2.77 -32.43,-7.83 -37.06,-25.47c-4.75,-18.09 -2.58,-45.7 15.82,-56.36c11.5,-6.67 28.55,-4.79 37.54,5.52c7.66,8.78 9.47,24.17 8.02,35.9c-0.04,0.327 -0.227,0.49 -0.56,0.49l-47.26,-0.02c-0.3,0 -0.457,0.15 -0.47,0.45Zm33.28,-7.46c0.038,0 0.07,-0.032 0.07,-0.07c0.57,-8.81 -1.16,-26.16 -10.69,-30.39c-17.64,-7.83 -22.93,19.29 -22.7,30.16c0.004,0.266 0.224,0.483 0.49,0.483c0.069,-0 0.137,-0.015 0.2,-0.043c0.46,-0.207 0.99,-0.31 1.59,-0.31c10.047,0.033 20.393,0.09 31.04,0.17Z" style="fill:#81bc29;fill-rule:nonzero;"/><path d="M2062.76,731.7c0.23,-7.3 -0.58,-19.78 -6.01,-25.42c-4.37,-4.53 -12.47,-5.03 -17.99,-2.96c-5.02,1.88 -8.167,5.453 -9.44,10.72c-0.207,0.86 -0.48,1.723 -0.82,2.59c-0.133,0.333 -0.377,0.5 -0.73,0.5l-6,-0c-0.34,-0 -0.513,-0.173 -0.52,-0.52c-0.1,-9.94 1.22,-16.25 11.7,-19.37c7.28,-2.17 16.35,-2.68 23.42,-1.52c16.2,2.67 20.6,18.38 20.72,32.78c0.14,16.853 0.19,33.71 0.15,50.57c0,0.36 -0.18,0.54 -0.54,0.54l-6.93,0.01c-0.357,-0.001 -0.693,-0.176 -0.9,-0.47l-4.96,-7.1c-0.022,-0.031 -0.046,-0.06 -0.071,-0.087c-0.332,-0.359 -0.897,-0.384 -1.251,-0.056c-0.028,0.026 -0.054,0.054 -0.078,0.083c-7.61,9.12 -21.62,11.94 -32.27,7.21c-9.84,-4.36 -14.17,-15.23 -12.82,-25.97c2.54,-20.05 29.96,-21.55 44.81,-21.04c0.007,0 0.014,0 0.02,0c0.273,0 0.5,-0.218 0.51,-0.49Zm-15.26,41.62c7.38,0.04 10.37,-3.26 14.27,-8.87c0.707,-1.02 1.067,-2.25 1.08,-3.69c0.04,-7.073 0.04,-14.077 -0,-21.01c-0.005,-0.314 -0.251,-0.574 -0.56,-0.59c-12.22,-0.58 -32.26,2.79 -29.78,20.07c1.34,9.34 6.337,14.037 14.99,14.09Z" style="fill:#81bc29;fill-rule:nonzero;"/><path d="M672.49,697.11c12.22,0.35 11.93,11.32 11.94,20.39c0.02,20.6 0.023,41.157 0.01,61.67c-0.005,0.259 -0.216,0.47 -0.47,0.47l-13.44,-0.04c-0.353,0 -0.53,-0.177 -0.53,-0.53c-0.013,-17.54 0.017,-35.06 0.09,-52.56c0.03,-6.66 0.65,-17.2 -2.87,-22.77c-2,-3.17 -6.86,-3.44 -11.09,-3.3c-0.34,0.013 -0.513,-0.15 -0.52,-0.49l-0.02,-2.43c-0.007,-0.353 0.17,-0.533 0.53,-0.54c5.34,-0.08 10.797,-0.037 16.37,0.13Z" style="fill:#81bc29;fill-rule:nonzero;"/></svg>