<?xml version="1.0" encoding="UTF-8" standalone="no"?><!DOCTYPE svg PUBLIC "-//W3C//DTD SVG 1.1//EN" "http://www.w3.org/Graphics/SVG/1.1/DTD/svg11.dtd"><svg width="100%" height="100%" viewBox="0 0 1000 324" version="1.1" xmlns="http://www.w3.org/2000/svg" xmlns:xlink="http://www.w3.org/1999/xlink" xml:space="preserve" xmlns:serif="http://www.serif.com/" style="fill-rule:evenodd;clip-rule:evenodd;"><g><g><path d="M451.32,323.912c0.211,0 0.385,-0.173 0.385,-0.385l0,-323.142c0,-0.211 -0.174,-0.385 -0.385,-0.385l-450.935,-0c-0.211,-0 -0.385,0.174 -0.385,0.385l0,323.142c0,0.212 0.174,0.385 0.385,0.385l450.935,0" style="fill:none;fill-rule:nonzero;stroke:#80b2de;stroke-width:1.33px;"/><path d="M483.273,-0c-0.167,-0 -0.305,0.138 -0.305,0.305l0,323.302c0,0.168 0.138,0.305 0.305,0.305l516.422,0c0.167,0 0.305,-0.137 0.305,-0.305l0,-323.302c0,-0.167 -0.138,-0.305 -0.305,-0.305l-516.422,-0" style="fill:none;fill-rule:nonzero;stroke:#80b2de;stroke-width:1.33px;"/><path d="M71.307,60.388c0.153,0 0.279,0.126 0.279,0.279l-0.007,42.779c0,0.151 0.122,0.275 0.272,0.279l6.227,0.073c0.002,0 0.004,0 0.006,0c0.153,0 0.279,-0.126 0.279,-0.279c-0,0 -0,0 -0,0l0.007,-42.858c-0,-0.153 0.125,-0.279 0.278,-0.279l15.678,-0c0.153,-0 0.279,-0.126 0.279,-0.279l-0.007,-4.852c0,-0.153 -0.125,-0.279 -0.278,-0.279l-38.584,0.007c-0.153,-0 -0.279,0.126 -0.279,0.279l-0.047,4.852c0,0.153 0.126,0.278 0.279,0.278l15.618,0" style="fill:none;fill-rule:nonzero;stroke:#80b2de;stroke-width:1.33px;"/><path d="M171.72,72.834l-0.02,-17.583c0,-0.135 -0.108,-0.246 -0.239,-0.246l-5.489,-0.066c-0.111,0 -0.166,0.053 -0.166,0.159l-0.013,48.441c-0,0.106 0.087,0.193 0.192,0.193l5.503,0.039c0.137,0 0.206,-0.068 0.206,-0.205c-0.009,-5.399 -0.043,-10.828 -0.1,-16.289c-0.031,-3.035 0.195,-5.527 0.677,-7.474c1.354,-5.516 7.958,-8.489 13.102,-6.425c3.087,1.241 3.824,3.91 3.83,7.235c0.022,7.677 0.027,15.289 0.014,22.833c-0,0.213 0.106,0.319 0.318,0.319l5.324,-0c0.199,-0 0.298,-0.1 0.298,-0.299c-0.035,-7.907 -0.071,-15.903 -0.106,-23.988c-0.027,-5.516 -1.905,-10.029 -7.653,-11.463c-5.436,-1.361 -11.802,-0.206 -15.399,4.905c-0.186,0.257 -0.279,0.228 -0.279,-0.086" style="fill:none;fill-rule:nonzero;stroke:#80b2de;stroke-width:1.33px;"/><path d="M247.516,55.544c-0.001,-0.298 -0.247,-0.543 -0.546,-0.543l-4.898,0.009c-0.298,0 -0.543,0.246 -0.543,0.544c-0,0 -0,0.001 -0,0.001l0.01,6c0.001,0.299 0.247,0.544 0.545,0.544l4.899,-0.009c0.298,-0 0.543,-0.246 0.543,-0.544c0,-0.001 0,-0.001 0,-0.001l-0.01,-6.001" style="fill:none;fill-rule:nonzero;stroke:#80b2de;stroke-width:1.33px;"/><path d="M334.234,72.641l-0.067,-17.556c0,-0.088 -0.044,-0.133 -0.132,-0.133l-5.622,0.027c-0.093,-0 -0.14,0.046 -0.14,0.139l-0.006,48.288c-0,0.248 0.124,0.37 0.371,0.365l5.125,-0.039c0.226,-0.004 0.411,-0.192 0.411,-0.419c-0.018,-5.491 -0.004,-10.94 0.04,-16.348c0.046,-6.823 0.717,-12.312 7.859,-13.925c3.484,-0.784 7.301,-0.014 8.934,3.358c0.562,1.164 0.841,3.368 0.836,6.611c-0.004,6.85 -0.004,13.665 0,20.444c0,0.203 0.102,0.305 0.306,0.305l5.177,0.027c0.171,-0 0.312,-0.141 0.312,-0.312c0.04,-6.832 0.035,-13.716 -0.013,-20.65c-0.06,-8.635 -0.943,-14.39 -10.587,-15.14c-5.363,-0.42 -9.563,1.257 -12.598,5.031c-0.138,0.173 -0.206,0.149 -0.206,-0.073" style="fill:none;fill-rule:nonzero;stroke:#80b2de;stroke-width:1.33px;"/><path d="M96.464,87.888l25.382,-0.007c0.451,0 0.679,-0.226 0.683,-0.677c0.126,-7.069 -2.144,-14.198 -8.702,-17.928c-5.23,-2.98 -12.711,-1.931 -17.217,1.487c-8.848,6.71 -9.187,23.019 -0.883,30.221c4.659,4.042 12.83,4.659 18.273,2.349c4.345,-1.845 6.989,-5.319 7.932,-10.421c0.04,-0.225 -0.053,-0.338 -0.279,-0.338l-5.27,-0.013c-0.238,0.001 -0.444,0.168 -0.491,0.398c-1.135,5.702 -7.507,7.56 -12.366,6.02c-4.859,-1.546 -7.647,-5.609 -7.441,-10.733c0.007,-0.199 0.176,-0.358 0.379,-0.358" style="fill:none;fill-rule:nonzero;stroke:#80b2de;stroke-width:1.33px;"/><path d="M209.514,72.847l-0.059,-3.996c-0.004,-0.267 -0.228,-0.484 -0.498,-0.484l-4.653,0.013c-0.323,0.004 -0.485,0.168 -0.485,0.491l0,34.516c0,0.229 0.189,0.418 0.418,0.418c0.003,-0 0.005,-0 0.007,-0l5.217,-0.067c0.219,-0.003 0.395,-0.189 0.392,-0.411c-0,0 -0,-0 -0,-0c-0.053,-6.682 -0.071,-13.415 -0.053,-20.198c0.009,-3.341 1.119,-5.987 3.332,-7.939c3.338,-2.954 11.011,-3.856 13.348,1.009c0.491,1.027 0.739,2.808 0.743,5.343c0.009,7.306 0.02,14.514 0.033,21.625c0,0.394 0.195,0.591 0.585,0.591l4.818,0.02c0.346,0 0.518,-0.172 0.518,-0.518c0,-7.389 0.011,-14.93 0.033,-22.62c0.034,-9.824 -5.17,-14.357 -15.133,-12.837c-3.505,0.531 -6.169,2.263 -7.992,5.197c-0.372,0.597 -0.562,0.546 -0.571,-0.153" style="fill:none;fill-rule:nonzero;stroke:#80b2de;stroke-width:1.33px;"/><path d="M263.896,73.829c4.314,-1.931 12.425,-1.513 13.149,4.554c0.013,0.132 0.126,0.233 0.259,0.232l5.542,0.047c0,-0 0,-0 0,-0c0.106,-0 0.193,-0.087 0.193,-0.193c-0,-0.004 -0,-0.009 -0.001,-0.013c-0.234,-3.739 -1.59,-6.523 -4.068,-8.35c-5.795,-4.275 -19.853,-3.538 -23.119,3.83c-1.474,3.323 -1.1,6.365 1.122,9.126c3.876,4.813 11.642,4.321 17.224,6.512c1.699,0.668 2.876,1.531 3.531,2.588c1.733,2.782 -0.239,5.51 -3.053,6.505c-4.64,1.646 -14.085,0.976 -14.211,-5.821c-0.004,-0.173 -0.093,-0.259 -0.265,-0.259l-5.41,-0.013c-0.173,-0 -0.261,0.086 -0.266,0.259c-0.146,8.151 6.558,11.277 13.534,11.742c4.308,0.285 9.97,-0.478 13.216,-3.346c3.611,-3.186 4.547,-9.16 1.639,-13.016c-4.699,-6.239 -14.682,-3.69 -20.178,-8.396c-2.283,-1.959 -1.327,-4.879 1.162,-5.988" style="fill:none;fill-rule:nonzero;stroke:#80b2de;stroke-width:1.33px;"/><path d="M296.121,91.193c-1.467,-6.392 -0.279,-15.618 6.989,-17.941c5.032,-1.613 10.992,0.458 12.034,6.299c0.026,0.138 0.149,0.239 0.292,0.239l5.821,-0c0.005,0 0.01,-0 0.014,-0c0.095,-0.007 0.167,-0.093 0.161,-0.191c-0.001,-0.005 -0.001,-0.01 -0.002,-0.015c-0.721,-5.752 -3.635,-9.449 -8.742,-11.091c-4.593,-1.48 -11.204,-1.301 -15.419,1.234c-4.062,2.443 -6.578,6.804 -7.454,11.41c-2.064,10.8 1.673,22.309 14.225,23.404c9.332,0.817 16.295,-3.889 17.476,-13.441c0.002,-0.015 0.003,-0.031 0.003,-0.046c0,-0.2 -0.165,-0.365 -0.365,-0.365c-0.001,-0 -0.002,-0 -0.003,-0l-5.19,0.033c-0.284,0.004 -0.449,0.144 -0.498,0.418c-1.932,11.443 -16.873,10.819 -19.342,0.053" style="fill:none;fill-rule:nonzero;stroke:#80b2de;stroke-width:1.33px;"/><path d="M370.362,88.1c0.004,-0.121 0.101,-0.219 0.219,-0.219l25.893,-0.006c0.17,-0 0.312,-0.136 0.319,-0.306c0.511,-8.881 -3.717,-18.618 -13.614,-19.766c-9.87,-1.149 -16.813,4.394 -18.645,13.919c-1.44,7.487 0.923,17.821 8.576,21.293c5.423,2.456 13.242,2.23 17.961,-1.314c2.704,-2.036 4.454,-5.023 5.25,-8.961c0.003,-0.011 0.004,-0.022 0.004,-0.033c0,-0.084 -0.069,-0.153 -0.153,-0.153c-0.001,-0 -0.002,-0 -0.003,-0l-5.503,0.027c-0.146,-0 -0.239,0.068 -0.278,0.205c-1.032,3.793 -3.483,5.972 -7.355,6.538c-7.275,1.062 -12.797,-3.936 -12.671,-11.224" style="fill:none;fill-rule:nonzero;stroke:#80b2de;stroke-width:1.33px;"/><path d="M133.926,70.265c-8.304,5.695 -9.399,21.512 -3.166,29c4.354,5.237 12.186,6.465 18.465,4.606c5.496,-1.62 9.067,-6.883 9.817,-12.366c0.067,-0.495 -0.15,-0.745 -0.65,-0.75l-4.547,-0.046c-0.522,-0.009 -0.83,0.245 -0.922,0.763c-0.79,4.301 -3.479,7.208 -7.853,7.866c-9.87,1.473 -12.684,-8.41 -11.702,-16.096c0.803,-6.326 4.673,-10.999 11.556,-10.408c4.255,0.365 6.79,2.668 7.833,6.73c0.035,0.142 0.126,0.213 0.272,0.213l5.781,0.026c0.115,0 0.166,-0.057 0.153,-0.172c-0.708,-5.607 -3.45,-9.266 -8.224,-10.979c-5.071,-1.819 -12.306,-1.473 -16.813,1.613" style="fill:none;fill-rule:nonzero;stroke:#80b2de;stroke-width:1.33px;"/><path d="M247.494,68.792c0,-0.23 -0.188,-0.419 -0.418,-0.419l-5.137,0c-0.23,0 -0.418,0.189 -0.418,0.419l-0,34.555c-0,0.229 0.188,0.418 0.418,0.418l5.137,-0c0.23,-0 0.418,-0.189 0.418,-0.418l0,-34.555" style="fill:none;fill-rule:nonzero;stroke:#80b2de;stroke-width:1.33px;"/><path d="M90.762,175.517c-3.359,7.527 -14.775,8.224 -20.663,3.511c-2.686,-2.151 -4.064,-5.137 -4.135,-8.961c-0.08,-4.65 -0.091,-15.41 -0.033,-32.278c-0,-0.217 -0.109,-0.325 -0.325,-0.325l-5.994,-0.027c-0.179,0 -0.325,0.147 -0.325,0.325c-0.014,10.24 -0.011,20.499 0.006,30.779c0.02,9.445 3.857,16.534 13.78,18.333c7.235,1.314 15.352,0.823 20.749,-4.275c3.026,-2.863 4.615,-6.542 4.766,-11.038c0.168,-4.996 0.183,-16.251 0.046,-33.765c-0.004,-0.222 -0.117,-0.332 -0.339,-0.332l-5.841,-0.007c-0.174,0 -0.318,0.147 -0.318,0.325c-0,9.97 0.029,20.015 0.086,30.135c0.013,2.854 -0.473,5.387 -1.46,7.6" style="fill:none;fill-rule:nonzero;stroke:#80b2de;stroke-width:1.33px;"/><path d="M151.211,137.638c-0,-0.106 -0.087,-0.192 -0.193,-0.192c0,-0 0,-0 -0,-0l-5.416,0.009c-0.106,0 -0.192,0.087 -0.192,0.193c-0,-0 -0,-0 -0,-0l0.011,6.73c0.001,0.106 0.087,0.193 0.193,0.193c-0,-0 0,-0 0,-0l5.416,-0.01c0.106,-0 0.193,-0.087 0.193,-0.192c-0,-0 -0,-0.001 -0,-0.001l-0.012,-6.73" style="fill:none;fill-rule:nonzero;stroke:#80b2de;stroke-width:1.33px;"/><path d="M295.429,138.079c0.001,-0.324 -0.265,-0.591 -0.589,-0.591l-4.78,-0.009c0,0 -0,0 -0.001,0c-0.323,0 -0.59,0.266 -0.59,0.59l-0.011,5.894c-0,0.324 0.266,0.591 0.59,0.592l4.779,0.008c0,0 0.001,0 0.001,0c0.324,0 0.59,-0.266 0.591,-0.589l0.01,-5.895" style="fill:none;fill-rule:nonzero;stroke:#80b2de;stroke-width:1.33px;"/><path d="M339.365,138.4c-0,-0.23 -0.189,-0.419 -0.419,-0.419l-5.509,0c-0.229,0 -0.418,0.189 -0.418,0.419l0,6.279c0,0.229 0.189,0.418 0.418,0.418l5.509,-0c0.23,-0 0.419,-0.189 0.419,-0.418l-0,-6.279" style="fill:none;fill-rule:nonzero;stroke:#80b2de;stroke-width:1.33px;"/><path d="M352.196,138.314c-0,-0.196 -0.162,-0.357 -0.358,-0.357c-0.001,-0 -0.001,-0 -0.001,-0l-5.602,0.009c-0.197,0.001 -0.358,0.163 -0.358,0.359l0.011,6.412c0.001,0.197 0.162,0.358 0.359,0.358c-0,0 0,0 0,0l5.602,-0.01c0.197,-0 0.359,-0.162 0.358,-0.359l-0.011,-6.412" style="fill:none;fill-rule:nonzero;stroke:#80b2de;stroke-width:1.33px;"/><path d="M307.836,150.845l-4.832,0.073c-0.427,0.004 -0.776,0.359 -0.776,0.79l-0.014,3.757c0,0.438 0.219,0.659 0.657,0.663l5.158,0.014c0.153,-0 0.279,0.126 0.279,0.279c-0.04,7.172 -0.076,14.326 -0.107,21.459c-0.008,2.314 0.219,4.075 0.684,5.283c1.513,3.943 8.596,3.259 12.067,3.087c0.21,-0.011 0.375,-0.186 0.372,-0.392l-0,-4.487c-0,-0.239 -0.12,-0.354 -0.359,-0.345c-2.104,0.053 -4.254,0.252 -5.861,-0.518c-0.203,-0.097 -0.347,-0.25 -0.431,-0.458c-0.336,-0.849 -0.504,-1.739 -0.504,-2.668c0.008,-7.014 0.015,-13.974 0.019,-20.882c0,-0.204 0.168,-0.372 0.372,-0.372l6.339,0c0.265,-0.004 0.4,-0.139 0.405,-0.404l0.04,-4.414c0.004,-0.261 -0.126,-0.392 -0.392,-0.392l-6.325,-0.027c-0.235,0 -0.428,-0.193 -0.432,-0.431l-0.033,-9.445c-0.005,-0.452 -0.232,-0.675 -0.684,-0.671l-4.46,0.047c-0.434,0.004 -0.655,0.223 -0.664,0.657l-0.199,9.478c-0.005,0.208 -0.111,0.315 -0.319,0.319" style="fill:none;fill-rule:nonzero;stroke:#80b2de;stroke-width:1.33px;"/><path d="M367.641,150.918l-5.018,-0.066c-0.438,-0.009 -0.657,0.205 -0.657,0.643l-0.014,3.976c0,0.447 0.221,0.671 0.664,0.671l5.005,-0.007c0.001,0 0.002,0 0.003,0c0.24,0.002 0.437,0.204 0.435,0.448c-0,0.001 -0,0.002 -0,0.003c-0.071,7.682 -0.08,15.388 -0.027,23.119c0.053,8.078 7.202,6.644 12.625,6.578c0.139,-0.004 0.252,-0.119 0.252,-0.259l-0.02,-4.806c0,-0.137 -0.068,-0.203 -0.206,-0.199c-1.639,0.08 -6.757,0.578 -6.763,-1.978c-0.022,-7.567 -0.029,-15.109 -0.02,-22.627c-0,-0 -0,-0 -0,-0c-0,-0.168 0.138,-0.306 0.305,-0.306c0.002,0 0.005,0 0.007,0.001l6.332,0.039c0.221,0 0.334,-0.112 0.339,-0.338l0.013,-4.534c-0,-0.27 -0.135,-0.404 -0.405,-0.404l-6.213,0.039c-0.248,0 -0.372,-0.124 -0.372,-0.371l-0.013,-9.678c-0.004,-0.327 -0.17,-0.491 -0.498,-0.491l-4.812,-0.007c-0.354,0 -0.531,0.175 -0.531,0.525l-0.033,9.657c-0.004,0.208 -0.174,0.376 -0.378,0.372c-0,-0 -0,-0 -0,-0" style="fill:none;fill-rule:nonzero;stroke:#80b2de;stroke-width:1.33px;"/><path d="M113.363,155.77c-0.044,0.076 -0.125,0.122 -0.213,0.122c-0.133,0 -0.243,-0.108 -0.245,-0.241l-0.014,-4.102c0,-0.416 -0.205,-0.627 -0.617,-0.631l-4.328,-0.033c-0.38,-0.005 -0.57,0.183 -0.57,0.564l-0.007,34.422c0,0.27 0.133,0.405 0.398,0.405l5.078,-0.013c0.243,-0 0.365,-0.12 0.365,-0.359c0.004,-6.354 0.009,-12.79 0.013,-19.308c0,-4.467 1.554,-8.689 5.961,-10.507c3.87,-1.6 9.498,-1.069 11.104,3.292c0.323,0.876 0.492,2.502 0.505,4.878c0.026,7.28 0.029,14.455 0.007,21.526c-0.005,0.354 0.17,0.531 0.524,0.531l4.872,-0.027c0.302,0 0.551,-0.248 0.551,-0.55c-0,-7.063 -0.005,-14.273 -0.013,-21.632c-0.007,-6.784 -1.381,-12.671 -9.24,-13.813c-5.509,-0.803 -11.151,0.352 -14.131,5.476" style="fill:none;fill-rule:nonzero;stroke:#80b2de;stroke-width:1.33px;"/><path d="M237.16,157.622l0.013,-6.113c-0,-0.434 -0.217,-0.651 -0.651,-0.651l-4.168,-0.006c-0.434,-0 -0.65,0.216 -0.65,0.65l-0,34.522c-0,0.146 0.116,0.265 0.258,0.265l5.49,-0.013c0.141,0 0.212,-0.073 0.212,-0.219c-0.044,-5.894 0.022,-11.826 0.199,-17.795c0.219,-7.222 4.043,-12.014 11.762,-11.828c0.007,-0 0.013,0 0.02,0c0.415,0 0.757,-0.342 0.757,-0.757l-0,-4.859c-0,-0.504 -0.253,-0.758 -0.757,-0.763c-4.518,-0.04 -7.985,1.677 -10.401,5.151c-0.584,0.845 -1.182,1.681 -1.792,2.509c-0.195,0.261 -0.292,0.23 -0.292,-0.093" style="fill:none;fill-rule:nonzero;stroke:#80b2de;stroke-width:1.33px;"/><path d="M260.457,161.412c-2.867,-7.454 14.125,-8.947 15.247,-0.292c0.016,0.092 0.096,0.161 0.192,0.166l5.443,0.026c0,0 0,0 0,0c0.11,0 0.199,-0.09 0.199,-0.199c0,-0.002 0,-0.004 0,-0.006c-0.278,-7.136 -4.586,-10.209 -11.277,-10.873c-5.091,-0.511 -11.536,0.173 -14.788,4.467c-3.22,4.242 -1.919,10.959 3.179,13.382c3.412,1.619 7.069,2.25 11.383,3.126c3.193,0.644 7.554,2.33 6.751,6.511c-0.803,4.209 -7.7,4.64 -11.058,3.943c-4.093,-0.85 -6.392,-2.978 -6.897,-6.385c-0.017,-0.142 -0.099,-0.213 -0.245,-0.213l-5.357,0c0,0 -0,0 -0,0c-0.11,0 -0.199,0.09 -0.199,0.2c-0,0.004 -0,0.008 0,0.013c0.611,11.702 12.565,13.162 21.486,11.098c4.155,-0.963 7.925,-3.989 8.529,-8.43c0.989,-7.195 -3.047,-9.658 -9.326,-11.483c-3.106,-0.896 -12.16,-2.184 -13.262,-5.051" style="fill:none;fill-rule:nonzero;stroke:#80b2de;stroke-width:1.33px;"/><path d="M350.549,182.579c-0.007,4.938 5.423,5.284 8.954,3.83c0.097,-0.041 0.161,-0.134 0.166,-0.239l0.113,-4.294c-0,-0.007 -0,-0.014 -0.001,-0.02c-0.008,-0.084 -0.087,-0.145 -0.174,-0.136c-0.006,0.001 -0.012,0.002 -0.018,0.003c-4.181,0.989 -3.524,-2.064 -3.531,-4.507c-0.022,-5.863 0,-11.726 0.066,-17.59c0.107,-10.314 -12.179,-10.494 -19.56,-8.841c-5.337,1.195 -8.302,4.689 -8.895,10.481c-0.002,0.022 -0.003,0.044 -0.003,0.066c-0,0.338 0.276,0.616 0.614,0.618l4.792,-0c0.46,-0 0.697,-0.228 0.71,-0.684c0.246,-7.507 14.888,-8.244 16.355,-1.5c0.717,3.305 -1.599,4.852 -4.433,5.317c-6.22,1.022 -14.019,1.493 -17.132,5.296c-4.454,5.443 -2.317,14.649 5.011,16.262c5.735,1.255 12.34,0.266 16.442,-4.268c0.028,-0.032 0.063,-0.057 0.101,-0.074c0.15,-0.066 0.329,0.006 0.397,0.159c0.016,0.039 0.025,0.08 0.026,0.121" style="fill:none;fill-rule:nonzero;stroke:#80b2de;stroke-width:1.33px;"/><path d="M199.146,170.373l25.714,-0.007c0.257,-0 0.392,-0.131 0.405,-0.392c0.405,-7.772 -3.405,-17.642 -11.815,-19.461c-16.029,-3.465 -23.855,11.642 -19.793,25.209c1.952,6.499 6.498,10.408 13.229,11.278c8.516,1.108 16.063,-2.642 17.855,-11.762c0.001,-0.004 0.001,-0.009 0.001,-0.013c0.008,-0.087 -0.054,-0.165 -0.137,-0.172c-0.006,-0.001 -0.011,-0.001 -0.017,-0.001l-5.536,0.033c-0.121,0 -0.228,0.086 -0.258,0.206c-1.832,7.6 -11.477,8.463 -16.614,3.883c-2.354,-2.106 -3.469,-4.941 -3.346,-8.503c0.005,-0.199 0.109,-0.298 0.312,-0.298" style="fill:none;fill-rule:nonzero;stroke:#80b2de;stroke-width:1.33px;"/><path d="M151.223,151.19c0,-0.16 -0.132,-0.292 -0.292,-0.292l-5.23,0c-0.16,0 -0.292,0.132 -0.292,0.292l-0,34.821c-0,0.16 0.132,0.292 0.292,0.292l5.23,-0c0.16,-0 0.292,-0.132 0.292,-0.292l0,-34.821" style="fill:none;fill-rule:nonzero;stroke:#80b2de;stroke-width:1.33px;"/><path d="M183.84,150.885c-0.112,0 -0.211,0.073 -0.245,0.179l-9.319,28.541c-0.036,0.106 -0.135,0.177 -0.246,0.177c-0.111,0 -0.211,-0.071 -0.246,-0.177l-9.591,-28.521c-0.037,-0.104 -0.136,-0.173 -0.246,-0.173l-6.126,-0.046c-0.141,0.001 -0.256,0.118 -0.256,0.259c-0,0.031 0.006,0.063 0.017,0.093l12.937,34.94c0.036,0.101 0.131,0.17 0.239,0.172l6.066,-0.02c0.108,-0.002 0.203,-0.071 0.239,-0.172l12.718,-34.894c0.01,-0.028 0.015,-0.057 0.015,-0.086c-0,-0.142 -0.117,-0.259 -0.259,-0.259c-0.001,0 -0.001,0 -0.002,0l-5.695,-0.013" style="fill:none;fill-rule:nonzero;stroke:#80b2de;stroke-width:1.33px;"/><path d="M295.411,151.316c-0,-0.236 -0.195,-0.431 -0.432,-0.431l-5.071,-0c-0.236,-0 -0.431,0.195 -0.431,0.431l-0,34.555c-0,0.237 0.195,0.432 0.431,0.432l5.071,-0c0.237,-0 0.432,-0.195 0.432,-0.432l-0,-34.555" style="fill:none;fill-rule:nonzero;stroke:#80b2de;stroke-width:1.33px;"/><path d="M66.077,229.699c-0,-0.801 0.139,-0.825 0.418,-0.073l14.596,38.863c0.1,0.271 0.358,0.452 0.644,0.451l4.56,0.04c0.265,0 0.456,-0.122 0.571,-0.365c0.774,-1.664 1.471,-3.33 2.09,-4.998c4.08,-11.041 8.218,-22.061 12.413,-33.062c0.163,-0.425 0.307,-0.75 0.431,-0.975c0.208,-0.368 0.312,-0.341 0.312,0.079l-0.02,39.089c0,0.106 0.053,0.161 0.159,0.166l5.981,0.046c0.146,0 0.219,-0.073 0.219,-0.219l-0.02,-48.394c0,-0.208 -0.168,-0.379 -0.372,-0.379l-8.151,0.027c-0.318,-0.001 -0.606,0.199 -0.716,0.498c-4.961,13.164 -9.877,26.167 -14.749,39.009c-0.097,0.252 -0.224,0.462 -0.378,0.63c-0.032,0.035 -0.077,0.055 -0.124,0.055c-0.069,0 -0.131,-0.043 -0.155,-0.108l-14.882,-39.699c-0.099,-0.259 -0.349,-0.429 -0.624,-0.425l-8.223,0.02c-0.15,0 -0.273,0.126 -0.273,0.279l0,48.547c0,0.084 0.069,0.153 0.153,0.153l5.874,0.006c0.177,0 0.266,-0.086 0.266,-0.259l-0,-39.002" style="fill:none;fill-rule:nonzero;stroke:#80b2de;stroke-width:1.33px;"/><path d="M237.598,237.75c-0.279,0.447 -0.421,0.405 -0.425,-0.126l-0.007,-17.257c0,-0.222 -0.185,-0.405 -0.411,-0.405l-5.065,0.04c-0.197,0.003 -0.358,0.167 -0.358,0.365l0.007,48.089c-0,0.332 0.165,0.498 0.497,0.498l4.965,0.019c0.001,0 0.002,0 0.003,0c0.212,0.002 0.387,-0.173 0.389,-0.388c-0,-0.001 -0,-0.002 -0,-0.003c-0.049,-5.231 -0.049,-10.514 -0,-15.851c0.04,-4.597 0.358,-7.657 0.956,-9.179c2.19,-5.543 12.472,-8.623 15.624,-2.589c0.66,1.266 0.985,3.5 0.976,6.704c-0.018,6.991 -0.018,13.917 0,20.775c0,0.346 0.173,0.518 0.518,0.518l4.819,-0.006c0.371,-0 0.557,-0.186 0.557,-0.558c-0.009,-7.452 0.031,-15.001 0.12,-22.647c0.073,-6.492 -2.045,-11.729 -9.087,-12.924c-5.058,-0.849 -11.131,0.272 -14.078,4.925" style="fill:none;fill-rule:nonzero;stroke:#80b2de;stroke-width:1.33px;"/><path d="M141.598,220.857c-0,-0.001 -0,-0.001 -0,-0.001c-0,-0.2 -0.164,-0.365 -0.364,-0.365l-5.549,-0.01c-0.001,0 -0.001,0 -0.001,0c-0.2,0 -0.365,0.165 -0.365,0.365l-0.012,6.558c0,-0 0,0 0,0c0,0.2 0.165,0.365 0.365,0.365l5.549,0.01c-0,0 0,0 0,0c0.2,0 0.365,-0.164 0.366,-0.364l0.011,-6.558" style="fill:none;fill-rule:nonzero;stroke:#80b2de;stroke-width:1.33px;"/><path d="M128.821,220.963c-0,-0 -0,-0.001 -0,-0.001c-0,-0.251 -0.207,-0.458 -0.458,-0.458l-5.35,-0.009c0,-0 -0,-0 -0,-0c-0.251,-0 -0.458,0.206 -0.458,0.457l-0.011,6.359c-0,-0 -0,0 -0,0.001c-0,0.25 0.206,0.457 0.457,0.458l5.35,0.009c-0,-0 0,-0 0,-0c0.251,-0 0.458,-0.206 0.458,-0.457l0.012,-6.359" style="fill:none;fill-rule:nonzero;stroke:#80b2de;stroke-width:1.33px;"/><path d="M161.512,237.969l-0.074,-4.082c-0.008,-0.332 -0.179,-0.5 -0.511,-0.504l-4.546,-0.02c-0.394,-0.004 -0.591,0.19 -0.591,0.584l0.04,34.588c-0,0.279 0.139,0.416 0.418,0.412l5.204,-0.053c0.252,-0 0.378,-0.126 0.378,-0.379c0.009,-5.15 0.009,-10.35 0,-15.598c-0.013,-7.799 0.518,-14.271 9.359,-15.08c3.033,-0.279 5.987,0.69 7.308,3.484c0.478,1.014 0.719,2.905 0.723,5.676c0.014,7.226 0.012,14.405 -0.006,21.538c-0,0.261 0.128,0.392 0.385,0.392l5.277,0.027c0.247,-0 0.371,-0.124 0.371,-0.372c0.049,-7.554 0.029,-15.165 -0.059,-22.833c-0.073,-6.797 -2.045,-12.346 -9.744,-13.123c-5.138,-0.518 -10.654,0.75 -13.395,5.483c-0.025,0.041 -0.061,0.076 -0.103,0.101c-0.138,0.08 -0.317,0.036 -0.396,-0.099c-0.025,-0.043 -0.038,-0.092 -0.038,-0.142" style="fill:none;fill-rule:nonzero;stroke:#80b2de;stroke-width:1.33px;"/><path d="M211.612,264.141c-14.882,3.843 -17.338,-21.253 -6.253,-25.634c5.224,-2.071 11.536,-0.119 12.758,6.146c0.028,0.135 0.144,0.232 0.278,0.233l5.795,0.04c0.102,-0 0.148,-0.051 0.139,-0.153c-0.371,-3.943 -1.902,-6.967 -4.593,-9.074c-4.002,-3.139 -10.939,-3.902 -15.877,-2.509c-11.184,3.153 -13.514,17.006 -10.242,26.292c2.874,8.164 9.864,10.739 18.001,10.016c7.122,-0.631 11.802,-6.001 12.844,-13.103c0.066,-0.451 -0.131,-0.677 -0.591,-0.677l-4.606,0c-0.452,0 -0.724,0.222 -0.817,0.664c-0.796,3.843 -2.947,6.75 -6.836,7.759" style="fill:none;fill-rule:nonzero;stroke:#80b2de;stroke-width:1.33px;"/><path d="M273.679,252.844l25.708,0.027c0.149,0 0.275,-0.114 0.285,-0.259c0.757,-10.527 -5.131,-20.63 -16.892,-20.059c-19.103,0.929 -20.949,31.163 -4.979,36.188c4.62,1.454 11.098,1.195 15.207,-1.334c3.319,-2.044 5.425,-5.27 6.319,-9.678c0.002,-0.01 0.004,-0.022 0.004,-0.033c-0,-0.08 -0.066,-0.146 -0.146,-0.146c-0.002,0 -0.003,0 -0.004,0l-5.728,-0.013c-0.133,-0.004 -0.21,0.06 -0.233,0.192c-1.155,6.572 -9.106,8.224 -14.217,5.583c-3.969,-2.045 -5.817,-5.465 -5.543,-10.262c0.009,-0.137 0.082,-0.206 0.219,-0.206" style="fill:none;fill-rule:nonzero;stroke:#80b2de;stroke-width:1.33px;"/><path d="M312.144,238.076c-0.019,0.031 -0.045,0.056 -0.077,0.073c-0.099,0.054 -0.226,0.014 -0.282,-0.089c-0.017,-0.032 -0.026,-0.068 -0.026,-0.104l-0.08,-4.108c-0.004,-0.297 -0.154,-0.445 -0.451,-0.445l-4.825,0.006c-0.239,0 -0.359,0.12 -0.359,0.359l0.007,34.714c-0,0.323 0.161,0.483 0.484,0.478l4.952,-0.04c0.281,-0.003 0.511,-0.236 0.511,-0.517c0,-0.003 0,-0.005 0,-0.007c-0.04,-5.89 -0.082,-11.945 -0.126,-18.167c-0.053,-6.93 3.113,-12.824 10.773,-12.412c4.872,0.259 6.896,3.292 6.909,7.932c0.014,7.544 0.031,15.098 0.053,22.66c0,0.345 0.175,0.52 0.525,0.525l4.759,0.039c0.336,0.005 0.504,-0.161 0.504,-0.497c0.018,-7.47 0.016,-15.101 -0.006,-22.893c-0.02,-6.054 -1.494,-10.833 -7.912,-12.552c-5.689,-1.52 -12.054,0.06 -15.333,5.045" style="fill:none;fill-rule:nonzero;stroke:#80b2de;stroke-width:1.33px;"/><path d="M141.174,264.334l0.027,4.002c0.004,0.381 0.197,0.573 0.577,0.578l4.62,0.053c0.001,-0 0.002,-0 0.003,-0c0.262,0.002 0.479,-0.216 0.481,-0.481c0,-0.001 0,-0.003 0,-0.004l-0.006,-34.707c-0,-0.222 -0.111,-0.335 -0.332,-0.339l-5.25,-0.073c-0.003,-0 -0.005,-0 -0.007,-0c-0.2,-0 -0.365,0.165 -0.365,0.365c-0,0 -0,0 -0,0c0.075,10.961 0.057,17.897 -0.053,20.809c-0.186,4.783 -2.43,7.912 -6.731,9.385c-5.051,1.726 -10.587,-0.405 -10.626,-6.392c-0.045,-7.828 -0.069,-15.777 -0.073,-23.848c-0,-0.158 -0.128,-0.289 -0.286,-0.292l-5.336,-0.007c-0.217,-0.005 -0.326,0.104 -0.326,0.325c0.036,7.624 0.049,15.333 0.04,23.125c-0.007,5.105 1.075,9.791 6.332,11.789c5.875,2.223 13.149,1.108 16.813,-4.434c0.051,-0.075 0.136,-0.12 0.226,-0.12c0.147,-0 0.269,0.119 0.272,0.266" style="fill:none;fill-rule:nonzero;stroke:#80b2de;stroke-width:1.33px;"/><path d="M658.903,93.417c0.142,-0 0.259,0.117 0.259,0.259l-0,175.105c-0,0.142 0.117,0.259 0.259,0.259l120.272,-0c0.142,-0 0.259,-0.117 0.259,-0.259l0.007,-175.112c-0,-0.142 0.116,-0.259 0.258,-0.259l43.41,0c0.142,0 0.259,0.117 0.259,0.259l-0,175.092c-0,0.142 0.117,0.259 0.259,0.259l37.874,0.013c0.142,0 0.258,-0.117 0.258,-0.259l-0.006,-175.105c-0,-0.142 0.117,-0.259 0.259,-0.259l43.449,0c0.142,0 0.259,0.117 0.259,0.259l-0,175.099c-0,0.142 0.117,0.259 0.259,0.259l37.874,-0c0.142,-0 0.259,-0.117 0.259,-0.259l-0,-213.524c-0,-0.142 -0.117,-0.259 -0.259,-0.259l-202.612,0c-0.142,0 -0.258,0.117 -0.258,0.259l-0,175.145c-0,0.142 -0.117,0.259 -0.259,0.259l-43.337,-0.013c-0.142,-0 -0.259,-0.117 -0.259,-0.259l0,-175.132c0,-0.142 -0.117,-0.259 -0.259,-0.259l-158.763,0c-0.142,0 -0.259,0.117 -0.259,0.259l0,37.907c0,0.142 0.117,0.259 0.259,0.259l37.973,0c0.142,0 0.259,0.117 0.259,0.259l-0.006,175.099c-0,0.142 0.116,0.259 0.258,0.259l37.967,-0.014c0.142,0 0.259,-0.117 0.259,-0.259l0.007,-175.092c-0,-0.142 0.117,-0.258 0.259,-0.258l43.303,0.013" style="fill:none;fill-rule:nonzero;stroke:#80b2de;stroke-width:1.33px;"/><path d="M116.124,82.365c-0.717,-12.412 -18.844,-12.969 -20.065,0.027c-0.001,0.007 -0.001,0.013 -0.001,0.02c-0,0.12 0.099,0.219 0.219,0.219c0,-0 0,-0 0.001,-0l19.574,0.02c-0,-0 0,-0 0,-0c0.149,-0 0.272,-0.123 0.272,-0.272c0,-0.005 0,-0.009 -0,-0.014" style="fill:none;fill-rule:nonzero;stroke:#80b2de;stroke-width:1.33px;"/><path d="M370.555,82.637l19.819,0.04c0.051,0 0.093,-0.042 0.093,-0.093l0,-0.015c0.009,-5.353 -4.474,-9.765 -9.932,-9.775l-0.11,0c-5.456,-0.008 -9.953,4.387 -9.963,9.737l-0,0.014c-0,0.051 0.042,0.092 0.093,0.092" style="fill:none;fill-rule:nonzero;stroke:#80b2de;stroke-width:1.33px;"/><path d="M349.56,176.426c0.883,-1.905 0.597,-5.469 0.584,-7.64c0,-0 0,-0 0,-0.001c0,-0.153 -0.126,-0.279 -0.279,-0.279c-0.036,0 -0.072,0.008 -0.106,0.021c-4.527,1.812 -10.773,0.923 -14.709,3.545c-3.896,2.602 -2.934,8.602 1.859,9.578c4.693,0.962 10.474,-0.525 12.651,-5.224" style="fill:none;fill-rule:nonzero;stroke:#80b2de;stroke-width:1.33px;"/><path d="M199,165.096l19.827,0.172c0.002,0 0.004,0.001 0.006,0.001c0.059,-0 0.107,-0.048 0.107,-0.107l-0,-0.006c0.046,-5.363 -4.415,-9.816 -9.884,-9.864l-0.106,0c-0,0 -0.001,0 -0.001,0c-5.469,-0.048 -10.008,4.326 -10.055,9.69l0,0.008c0,0.058 0.048,0.106 0.106,0.106" style="fill:none;fill-rule:nonzero;stroke:#80b2de;stroke-width:1.33px;"/><path d="M273.454,247.561l19.873,0.04c0.011,-0 0.02,-0.009 0.02,-0.02l-0,-0.05c0.009,-5.316 -4.448,-9.698 -9.873,-9.708l-0.137,0c-5.423,-0.007 -9.892,4.357 -9.903,9.671l-0,0.047c-0,0.011 0.009,0.02 0.02,0.02" style="fill:none;fill-rule:nonzero;stroke:#80b2de;stroke-width:1.33px;"/><path d="M451.32,323.912l-450.935,0c-0.211,0 -0.385,-0.173 -0.385,-0.385l0,-323.142c0,-0.211 0.174,-0.385 0.385,-0.385l450.935,-0c0.211,-0 0.385,0.174 0.385,0.385l0,323.142c0,0.212 -0.174,0.385 -0.385,0.385Zm-380.013,-263.524c0.153,0 0.279,0.126 0.279,0.279l-0.007,42.779c0,0.151 0.122,0.275 0.272,0.279l6.227,0.073c0.002,0 0.004,0 0.006,0c0.153,0 0.279,-0.126 0.279,-0.279c-0,0 -0,0 -0,0l0.007,-42.858c-0,-0.153 0.125,-0.279 0.278,-0.279l15.678,-0c0.153,-0 0.279,-0.126 0.279,-0.279l-0.007,-4.852c0,-0.153 -0.125,-0.279 -0.278,-0.279l-38.584,0.007c-0.153,-0 -0.279,0.126 -0.279,0.279l-0.047,4.852c0,0.153 0.126,0.278 0.279,0.278l15.618,0Zm100.413,12.446l-0.02,-17.583c0,-0.135 -0.108,-0.246 -0.239,-0.246l-5.489,-0.066c-0.111,0 -0.166,0.053 -0.166,0.159l-0.013,48.441c-0,0.106 0.087,0.193 0.192,0.193l5.503,0.039c0.137,0 0.206,-0.068 0.206,-0.205c-0.009,-5.399 -0.043,-10.828 -0.1,-16.289c-0.031,-3.035 0.195,-5.527 0.677,-7.474c1.354,-5.516 7.958,-8.489 13.102,-6.425c3.087,1.241 3.824,3.91 3.83,7.235c0.022,7.677 0.027,15.289 0.014,22.833c-0,0.213 0.106,0.319 0.318,0.319l5.324,-0c0.199,-0 0.298,-0.1 0.298,-0.299c-0.035,-7.907 -0.071,-15.903 -0.106,-23.988c-0.027,-5.516 -1.905,-10.029 -7.653,-11.463c-5.436,-1.361 -11.802,-0.206 -15.399,4.905c-0.186,0.257 -0.279,0.228 -0.279,-0.086Zm75.796,-17.29c-0.001,-0.298 -0.247,-0.543 -0.546,-0.543l-4.898,0.009c-0.298,0 -0.543,0.246 -0.543,0.544c-0,0 -0,0.001 -0,0.001l0.01,6c0.001,0.299 0.247,0.544 0.545,0.544l4.899,-0.009c0.298,-0 0.543,-0.246 0.543,-0.544c0,-0.001 0,-0.001 0,-0.001l-0.01,-6.001Zm86.718,17.097l-0.067,-17.556c0,-0.088 -0.044,-0.133 -0.132,-0.133l-5.622,0.027c-0.093,-0 -0.14,0.046 -0.14,0.139l-0.006,48.288c-0,0.248 0.124,0.37 0.371,0.365l5.125,-0.039c0.226,-0.004 0.411,-0.192 0.411,-0.419c-0.018,-5.491 -0.004,-10.94 0.04,-16.348c0.046,-6.823 0.717,-12.312 7.859,-13.925c3.484,-0.784 7.301,-0.014 8.934,3.358c0.562,1.164 0.841,3.368 0.836,6.611c-0.004,6.85 -0.004,13.665 0,20.444c0,0.203 0.102,0.305 0.306,0.305l5.177,0.027c0.171,-0 0.312,-0.141 0.312,-0.312c0.04,-6.832 0.035,-13.716 -0.013,-20.65c-0.06,-8.635 -0.943,-14.39 -10.587,-15.14c-5.363,-0.42 -9.563,1.257 -12.598,5.031c-0.138,0.173 -0.206,0.149 -0.206,-0.073Zm-237.77,15.247l25.382,-0.007c0.451,0 0.679,-0.226 0.683,-0.677c0.126,-7.069 -2.144,-14.198 -8.702,-17.928c-5.23,-2.98 -12.711,-1.931 -17.217,1.487c-8.848,6.71 -9.187,23.019 -0.883,30.221c4.659,4.042 12.83,4.659 18.273,2.349c4.345,-1.845 6.989,-5.319 7.932,-10.421c0.04,-0.225 -0.053,-0.338 -0.279,-0.338l-5.27,-0.013c-0.238,0.001 -0.444,0.168 -0.491,0.398c-1.135,5.702 -7.507,7.56 -12.366,6.02c-4.859,-1.546 -7.647,-5.609 -7.441,-10.733c0.007,-0.199 0.176,-0.358 0.379,-0.358Zm113.05,-15.041l-0.059,-3.996c-0.004,-0.267 -0.228,-0.484 -0.498,-0.484l-4.653,0.013c-0.323,0.004 -0.485,0.168 -0.485,0.491l0,34.516c0,0.229 0.189,0.418 0.418,0.418c0.003,-0 0.005,-0 0.007,-0l5.217,-0.067c0.219,-0.003 0.395,-0.189 0.392,-0.411c-0,0 -0,-0 -0,-0c-0.053,-6.682 -0.071,-13.415 -0.053,-20.198c0.009,-3.341 1.119,-5.987 3.332,-7.939c3.338,-2.954 11.011,-3.856 13.348,1.009c0.491,1.027 0.739,2.808 0.743,5.343c0.009,7.306 0.02,14.514 0.033,21.625c0,0.394 0.195,0.591 0.585,0.591l4.818,0.02c0.346,0 0.518,-0.172 0.518,-0.518c0,-7.389 0.011,-14.93 0.033,-22.62c0.034,-9.824 -5.17,-14.357 -15.133,-12.837c-3.505,0.531 -6.169,2.263 -7.992,5.197c-0.372,0.597 -0.562,0.546 -0.571,-0.153Zm54.382,0.982c4.314,-1.931 12.425,-1.513 13.149,4.554c0.013,0.132 0.126,0.233 0.259,0.232l5.542,0.047c0,-0 0,-0 0,-0c0.106,-0 0.193,-0.087 0.193,-0.193c-0,-0.004 -0,-0.009 -0.001,-0.013c-0.234,-3.739 -1.59,-6.523 -4.068,-8.35c-5.795,-4.275 -19.853,-3.538 -23.119,3.83c-1.474,3.323 -1.1,6.365 1.122,9.126c3.876,4.813 11.642,4.321 17.224,6.512c1.699,0.668 2.876,1.531 3.531,2.588c1.733,2.782 -0.239,5.51 -3.053,6.505c-4.64,1.646 -14.085,0.976 -14.211,-5.821c-0.004,-0.173 -0.093,-0.259 -0.265,-0.259l-5.41,-0.013c-0.173,-0 -0.261,0.086 -0.266,0.259c-0.146,8.151 6.558,11.277 13.534,11.742c4.308,0.285 9.97,-0.478 13.216,-3.346c3.611,-3.186 4.547,-9.16 1.639,-13.016c-4.699,-6.239 -14.682,-3.69 -20.178,-8.396c-2.283,-1.959 -1.327,-4.879 1.162,-5.988Zm32.225,17.364c-1.467,-6.392 -0.279,-15.618 6.989,-17.941c5.032,-1.613 10.992,0.458 12.034,6.299c0.026,0.138 0.149,0.239 0.292,0.239l5.821,-0c0.005,0 0.01,-0 0.014,-0c0.095,-0.007 0.167,-0.093 0.161,-0.191c-0.001,-0.005 -0.001,-0.01 -0.002,-0.015c-0.721,-5.752 -3.635,-9.449 -8.742,-11.091c-4.593,-1.48 -11.204,-1.301 -15.419,1.234c-4.062,2.443 -6.578,6.804 -7.454,11.41c-2.064,10.8 1.673,22.309 14.225,23.404c9.332,0.817 16.295,-3.889 17.476,-13.441c0.002,-0.015 0.003,-0.031 0.003,-0.046c0,-0.2 -0.165,-0.365 -0.365,-0.365c-0.001,-0 -0.002,-0 -0.003,-0l-5.19,0.033c-0.284,0.004 -0.449,0.144 -0.498,0.418c-1.932,11.443 -16.873,10.819 -19.342,0.053Zm74.241,-3.093c0.004,-0.121 0.101,-0.219 0.219,-0.219l25.893,-0.006c0.17,-0 0.312,-0.136 0.319,-0.306c0.511,-8.881 -3.717,-18.618 -13.614,-19.766c-9.87,-1.149 -16.813,4.394 -18.645,13.919c-1.44,7.487 0.923,17.821 8.576,21.293c5.423,2.456 13.242,2.23 17.961,-1.314c2.704,-2.036 4.454,-5.023 5.25,-8.961c0.003,-0.011 0.004,-0.022 0.004,-0.033c0,-0.084 -0.069,-0.153 -0.153,-0.153c-0.001,-0 -0.002,-0 -0.003,-0l-5.503,0.027c-0.146,-0 -0.239,0.068 -0.278,0.205c-1.032,3.793 -3.483,5.972 -7.355,6.538c-7.275,1.062 -12.797,-3.936 -12.671,-11.224Zm-236.436,-17.835c-8.304,5.695 -9.399,21.512 -3.166,29c4.354,5.237 12.186,6.465 18.465,4.606c5.496,-1.62 9.067,-6.883 9.817,-12.366c0.067,-0.495 -0.15,-0.745 -0.65,-0.75l-4.547,-0.046c-0.522,-0.009 -0.83,0.245 -0.922,0.763c-0.79,4.301 -3.479,7.208 -7.853,7.866c-9.87,1.473 -12.684,-8.41 -11.702,-16.096c0.803,-6.326 4.673,-10.999 11.556,-10.408c4.255,0.365 6.79,2.668 7.833,6.73c0.035,0.142 0.126,0.213 0.272,0.213l5.781,0.026c0.115,0 0.166,-0.057 0.153,-0.172c-0.708,-5.607 -3.45,-9.266 -8.224,-10.979c-5.071,-1.819 -12.306,-1.473 -16.813,1.613Zm113.568,-1.473c0,-0.23 -0.188,-0.419 -0.418,-0.419l-5.137,0c-0.23,0 -0.418,0.189 -0.418,0.419l-0,34.555c-0,0.229 0.188,0.418 0.418,0.418l5.137,-0c0.23,-0 0.418,-0.189 0.418,-0.418l0,-34.555Zm-156.732,106.725c-3.359,7.527 -14.775,8.224 -20.663,3.511c-2.686,-2.151 -4.064,-5.137 -4.135,-8.961c-0.08,-4.65 -0.091,-15.41 -0.033,-32.278c-0,-0.217 -0.109,-0.325 -0.325,-0.325l-5.994,-0.027c-0.179,0 -0.325,0.147 -0.325,0.325c-0.014,10.24 -0.011,20.499 0.006,30.779c0.02,9.445 3.857,16.534 13.78,18.333c7.235,1.314 15.352,0.823 20.749,-4.275c3.026,-2.863 4.615,-6.542 4.766,-11.038c0.168,-4.996 0.183,-16.251 0.046,-33.765c-0.004,-0.222 -0.117,-0.332 -0.339,-0.332l-5.841,-0.007c-0.174,0 -0.318,0.147 -0.318,0.325c-0,9.97 0.029,20.015 0.086,30.135c0.013,2.854 -0.473,5.387 -1.46,7.6Zm60.449,-37.879c-0,-0.106 -0.087,-0.192 -0.193,-0.192c0,-0 0,-0 -0,-0l-5.416,0.009c-0.106,0 -0.192,0.087 -0.192,0.193c-0,-0 -0,-0 -0,-0l0.011,6.73c0.001,0.106 0.087,0.193 0.193,0.193c-0,-0 0,-0 0,-0l5.416,-0.01c0.106,-0 0.193,-0.087 0.193,-0.192c-0,-0 -0,-0.001 -0,-0.001l-0.012,-6.73Zm144.218,0.441c0.001,-0.324 -0.265,-0.591 -0.589,-0.591l-4.78,-0.009c0,0 -0,0 -0.001,0c-0.323,0 -0.59,0.266 -0.59,0.59l-0.011,5.894c-0,0.324 0.266,0.591 0.59,0.592l4.779,0.008c0,0 0.001,0 0.001,0c0.324,0 0.59,-0.266 0.591,-0.589l0.01,-5.895Zm43.936,0.321c-0,-0.23 -0.189,-0.419 -0.419,-0.419l-5.509,0c-0.229,0 -0.418,0.189 -0.418,0.419l0,6.279c0,0.229 0.189,0.418 0.418,0.418l5.509,-0c0.23,-0 0.419,-0.189 0.419,-0.418l-0,-6.279Zm12.831,-0.086c-0,-0.196 -0.162,-0.357 -0.358,-0.357c-0.001,-0 -0.001,-0 -0.001,-0l-5.602,0.009c-0.197,0.001 -0.358,0.163 -0.358,0.359l0.011,6.412c0.001,0.197 0.162,0.358 0.359,0.358c-0,0 0,0 0,0l5.602,-0.01c0.197,-0 0.359,-0.162 0.358,-0.359l-0.011,-6.412Zm-44.36,12.531l-4.832,0.073c-0.427,0.004 -0.776,0.359 -0.776,0.79l-0.014,3.757c0,0.438 0.219,0.659 0.657,0.663l5.158,0.014c0.153,-0 0.279,0.126 0.279,0.279c-0.04,7.172 -0.076,14.326 -0.107,21.459c-0.008,2.314 0.219,4.075 0.684,5.283c1.513,3.943 8.596,3.259 12.067,3.087c0.21,-0.011 0.375,-0.186 0.372,-0.392l-0,-4.487c-0,-0.239 -0.12,-0.354 -0.359,-0.345c-2.104,0.053 -4.254,0.252 -5.861,-0.518c-0.203,-0.097 -0.347,-0.25 -0.431,-0.458c-0.336,-0.849 -0.504,-1.739 -0.504,-2.668c0.008,-7.014 0.015,-13.974 0.019,-20.882c0,-0.204 0.168,-0.372 0.372,-0.372l6.339,0c0.265,-0.004 0.4,-0.139 0.405,-0.404l0.04,-4.414c0.004,-0.261 -0.126,-0.392 -0.392,-0.392l-6.325,-0.027c-0.235,0 -0.428,-0.193 -0.432,-0.431l-0.033,-9.445c-0.005,-0.452 -0.232,-0.675 -0.684,-0.671l-4.46,0.047c-0.434,0.004 -0.655,0.223 -0.664,0.657l-0.199,9.478c-0.005,0.208 -0.111,0.315 -0.319,0.319Zm59.805,0.073l-5.018,-0.066c-0.438,-0.009 -0.657,0.205 -0.657,0.643l-0.014,3.976c0,0.447 0.221,0.671 0.664,0.671l5.005,-0.007c0.001,0 0.002,0 0.003,0c0.24,0.002 0.437,0.204 0.435,0.448c-0,0.001 -0,0.002 -0,0.003c-0.071,7.682 -0.08,15.388 -0.027,23.119c0.053,8.078 7.202,6.644 12.625,6.578c0.139,-0.004 0.252,-0.119 0.252,-0.259l-0.02,-4.806c0,-0.137 -0.068,-0.203 -0.206,-0.199c-1.639,0.08 -6.757,0.578 -6.763,-1.978c-0.022,-7.567 -0.029,-15.109 -0.02,-22.627c-0,-0 -0,-0 -0,-0c-0,-0.168 0.138,-0.306 0.305,-0.306c0.002,0 0.005,0 0.007,0.001l6.332,0.039c0.221,0 0.334,-0.112 0.339,-0.338l0.013,-4.534c-0,-0.27 -0.135,-0.404 -0.405,-0.404l-6.213,0.039c-0.248,0 -0.372,-0.124 -0.372,-0.371l-0.013,-9.678c-0.004,-0.327 -0.17,-0.491 -0.498,-0.491l-4.812,-0.007c-0.354,0 -0.531,0.175 -0.531,0.525l-0.033,9.657c-0.004,0.208 -0.174,0.376 -0.378,0.372c-0,-0 -0,-0 -0,-0Zm-254.278,4.852c-0.044,0.076 -0.125,0.122 -0.213,0.122c-0.133,0 -0.243,-0.108 -0.245,-0.241l-0.014,-4.102c0,-0.416 -0.205,-0.627 -0.617,-0.631l-4.328,-0.033c-0.38,-0.005 -0.57,0.183 -0.57,0.564l-0.007,34.422c0,0.27 0.133,0.405 0.398,0.405l5.078,-0.013c0.243,-0 0.365,-0.12 0.365,-0.359c0.004,-6.354 0.009,-12.79 0.013,-19.308c0,-4.467 1.554,-8.689 5.961,-10.507c3.87,-1.6 9.498,-1.069 11.104,3.292c0.323,0.876 0.492,2.502 0.505,4.878c0.026,7.28 0.029,14.455 0.007,21.526c-0.005,0.354 0.17,0.531 0.524,0.531l4.872,-0.027c0.302,0 0.551,-0.248 0.551,-0.55c-0,-7.063 -0.005,-14.273 -0.013,-21.632c-0.007,-6.784 -1.381,-12.671 -9.24,-13.813c-5.509,-0.803 -11.151,0.352 -14.131,5.476Zm123.797,1.852l0.013,-6.113c-0,-0.434 -0.217,-0.651 -0.651,-0.651l-4.168,-0.006c-0.434,-0 -0.65,0.216 -0.65,0.65l-0,34.522c-0,0.146 0.116,0.265 0.258,0.265l5.49,-0.013c0.141,0 0.212,-0.073 0.212,-0.219c-0.044,-5.894 0.022,-11.826 0.199,-17.795c0.219,-7.222 4.043,-12.014 11.762,-11.828c0.007,-0 0.013,0 0.02,0c0.415,0 0.757,-0.342 0.757,-0.757l-0,-4.859c-0,-0.504 -0.253,-0.758 -0.757,-0.763c-4.518,-0.04 -7.985,1.677 -10.401,5.151c-0.584,0.845 -1.182,1.681 -1.792,2.509c-0.195,0.261 -0.292,0.23 -0.292,-0.093Zm23.297,3.79c-2.867,-7.454 14.125,-8.947 15.247,-0.292c0.016,0.092 0.096,0.161 0.192,0.166l5.443,0.026c0,0 0,0 0,0c0.11,0 0.199,-0.09 0.199,-0.199c0,-0.002 0,-0.004 0,-0.006c-0.278,-7.136 -4.586,-10.209 -11.277,-10.873c-5.091,-0.511 -11.536,0.173 -14.788,4.467c-3.22,4.242 -1.919,10.959 3.179,13.382c3.412,1.619 7.069,2.25 11.383,3.126c3.193,0.644 7.554,2.33 6.751,6.511c-0.803,4.209 -7.7,4.64 -11.058,3.943c-4.093,-0.85 -6.392,-2.978 -6.897,-6.385c-0.017,-0.142 -0.099,-0.213 -0.245,-0.213l-5.357,0c0,0 -0,0 -0,0c-0.11,0 -0.199,0.09 -0.199,0.2c-0,0.004 -0,0.008 0,0.013c0.611,11.702 12.565,13.162 21.486,11.098c4.155,-0.963 7.925,-3.989 8.529,-8.43c0.989,-7.195 -3.047,-9.658 -9.326,-11.483c-3.106,-0.896 -12.16,-2.184 -13.262,-5.051Zm90.092,21.167c-0.007,4.938 5.423,5.284 8.954,3.83c0.097,-0.041 0.161,-0.134 0.166,-0.239l0.113,-4.294c-0,-0.007 -0,-0.014 -0.001,-0.02c-0.008,-0.084 -0.087,-0.145 -0.174,-0.136c-0.006,0.001 -0.012,0.002 -0.018,0.003c-4.181,0.989 -3.524,-2.064 -3.531,-4.507c-0.022,-5.863 0,-11.726 0.066,-17.59c0.107,-10.314 -12.179,-10.494 -19.56,-8.841c-5.337,1.195 -8.302,4.689 -8.895,10.481c-0.002,0.022 -0.003,0.044 -0.003,0.066c-0,0.338 0.276,0.616 0.614,0.618l4.792,-0c0.46,-0 0.697,-0.228 0.71,-0.684c0.246,-7.507 14.888,-8.244 16.355,-1.5c0.717,3.305 -1.599,4.852 -4.433,5.317c-6.22,1.022 -14.019,1.493 -17.132,5.296c-4.454,5.443 -2.317,14.649 5.011,16.262c5.735,1.255 12.34,0.266 16.442,-4.268c0.028,-0.032 0.063,-0.057 0.101,-0.074c0.15,-0.066 0.329,0.006 0.397,0.159c0.016,0.039 0.025,0.08 0.026,0.121Zm-151.403,-12.206l25.714,-0.007c0.257,-0 0.392,-0.131 0.405,-0.392c0.405,-7.772 -3.405,-17.642 -11.815,-19.461c-16.029,-3.465 -23.855,11.642 -19.793,25.209c1.952,6.499 6.498,10.408 13.229,11.278c8.516,1.108 16.063,-2.642 17.855,-11.762c0.001,-0.004 0.001,-0.009 0.001,-0.013c0.008,-0.087 -0.054,-0.165 -0.137,-0.172c-0.006,-0.001 -0.011,-0.001 -0.017,-0.001l-5.536,0.033c-0.121,0 -0.228,0.086 -0.258,0.206c-1.832,7.6 -11.477,8.463 -16.614,3.883c-2.354,-2.106 -3.469,-4.941 -3.346,-8.503c0.005,-0.199 0.109,-0.298 0.312,-0.298Zm-47.923,-19.183c0,-0.16 -0.132,-0.292 -0.292,-0.292l-5.23,0c-0.16,0 -0.292,0.132 -0.292,0.292l-0,34.821c-0,0.16 0.132,0.292 0.292,0.292l5.23,-0c0.16,-0 0.292,-0.132 0.292,-0.292l0,-34.821Zm32.617,-0.305c-0.112,0 -0.211,0.073 -0.245,0.179l-9.319,28.541c-0.036,0.106 -0.135,0.177 -0.246,0.177c-0.111,0 -0.211,-0.071 -0.246,-0.177l-9.591,-28.521c-0.037,-0.104 -0.136,-0.173 -0.246,-0.173l-6.126,-0.046c-0.141,0.001 -0.256,0.118 -0.256,0.259c-0,0.031 0.006,0.063 0.017,0.093l12.937,34.94c0.036,0.101 0.131,0.17 0.239,0.172l6.066,-0.02c0.108,-0.002 0.203,-0.071 0.239,-0.172l12.718,-34.894c0.01,-0.028 0.015,-0.057 0.015,-0.086c-0,-0.142 -0.117,-0.259 -0.259,-0.259c-0.001,0 -0.001,0 -0.002,0l-5.695,-0.013Zm111.571,0.431c-0,-0.236 -0.195,-0.431 -0.432,-0.431l-5.071,-0c-0.236,-0 -0.431,0.195 -0.431,0.431l-0,34.555c-0,0.237 0.195,0.432 0.431,0.432l5.071,-0c0.237,-0 0.432,-0.195 0.432,-0.432l-0,-34.555Zm-229.334,78.383c-0,-0.801 0.139,-0.825 0.418,-0.073l14.596,38.863c0.1,0.271 0.358,0.452 0.644,0.451l4.56,0.04c0.265,0 0.456,-0.122 0.571,-0.365c0.774,-1.664 1.471,-3.33 2.09,-4.998c4.08,-11.041 8.218,-22.061 12.413,-33.062c0.163,-0.425 0.307,-0.75 0.431,-0.975c0.208,-0.368 0.312,-0.341 0.312,0.079l-0.02,39.089c0,0.106 0.053,0.161 0.159,0.166l5.981,0.046c0.146,0 0.219,-0.073 0.219,-0.219l-0.02,-48.394c0,-0.208 -0.168,-0.379 -0.372,-0.379l-8.151,0.027c-0.318,-0.001 -0.606,0.199 -0.716,0.498c-4.961,13.164 -9.877,26.167 -14.749,39.009c-0.097,0.252 -0.224,0.462 -0.378,0.63c-0.032,0.035 -0.077,0.055 -0.124,0.055c-0.069,0 -0.131,-0.043 -0.155,-0.108l-14.882,-39.699c-0.099,-0.259 -0.349,-0.429 -0.624,-0.425l-8.223,0.02c-0.15,0 -0.273,0.126 -0.273,0.279l0,48.547c0,0.084 0.069,0.153 0.153,0.153l5.874,0.006c0.177,0 0.266,-0.086 0.266,-0.259l-0,-39.002Zm171.521,8.051c-0.279,0.447 -0.421,0.405 -0.425,-0.126l-0.007,-17.257c0,-0.222 -0.185,-0.405 -0.411,-0.405l-5.065,0.04c-0.197,0.003 -0.358,0.167 -0.358,0.365l0.007,48.089c-0,0.332 0.165,0.498 0.497,0.498l4.965,0.019c0.001,0 0.002,0 0.003,0c0.212,0.002 0.387,-0.173 0.389,-0.388c-0,-0.001 -0,-0.002 -0,-0.003c-0.049,-5.231 -0.049,-10.514 -0,-15.851c0.04,-4.597 0.358,-7.657 0.956,-9.179c2.19,-5.543 12.472,-8.623 15.624,-2.589c0.66,1.266 0.985,3.5 0.976,6.704c-0.018,6.991 -0.018,13.917 0,20.775c0,0.346 0.173,0.518 0.518,0.518l4.819,-0.006c0.371,-0 0.557,-0.186 0.557,-0.558c-0.009,-7.452 0.031,-15.001 0.12,-22.647c0.073,-6.492 -2.045,-11.729 -9.087,-12.924c-5.058,-0.849 -11.131,0.272 -14.078,4.925Zm-96,-16.893c-0,-0.001 -0,-0.001 -0,-0.001c-0,-0.2 -0.164,-0.365 -0.364,-0.365l-5.549,-0.01c-0.001,0 -0.001,0 -0.001,0c-0.2,0 -0.365,0.165 -0.365,0.365l-0.012,6.558c0,-0 0,0 0,0c0,0.2 0.165,0.365 0.365,0.365l5.549,0.01c-0,0 0,0 0,0c0.2,0 0.365,-0.164 0.366,-0.364l0.011,-6.558Zm-12.777,0.106c-0,-0 -0,-0.001 -0,-0.001c-0,-0.251 -0.207,-0.458 -0.458,-0.458l-5.35,-0.009c0,-0 -0,-0 -0,-0c-0.251,-0 -0.458,0.206 -0.458,0.457l-0.011,6.359c-0,-0 -0,0 -0,0.001c-0,0.25 0.206,0.457 0.457,0.458l5.35,0.009c-0,-0 0,-0 0,-0c0.251,-0 0.458,-0.206 0.458,-0.457l0.012,-6.359Zm32.691,17.006l-0.074,-4.082c-0.008,-0.332 -0.179,-0.5 -0.511,-0.504l-4.546,-0.02c-0.394,-0.004 -0.591,0.19 -0.591,0.584l0.04,34.588c-0,0.279 0.139,0.416 0.418,0.412l5.204,-0.053c0.252,-0 0.378,-0.126 0.378,-0.379c0.009,-5.15 0.009,-10.35 0,-15.598c-0.013,-7.799 0.518,-14.271 9.359,-15.08c3.033,-0.279 5.987,0.69 7.308,3.484c0.478,1.014 0.719,2.905 0.723,5.676c0.014,7.226 0.012,14.405 -0.006,21.538c-0,0.261 0.128,0.392 0.385,0.392l5.277,0.027c0.247,-0 0.371,-0.124 0.371,-0.372c0.049,-7.554 0.029,-15.165 -0.059,-22.833c-0.073,-6.797 -2.045,-12.346 -9.744,-13.123c-5.138,-0.518 -10.654,0.75 -13.395,5.483c-0.025,0.041 -0.061,0.076 -0.103,0.101c-0.138,0.08 -0.317,0.036 -0.396,-0.099c-0.025,-0.043 -0.038,-0.092 -0.038,-0.142Zm50.1,26.172c-14.882,3.843 -17.338,-21.253 -6.253,-25.634c5.224,-2.071 11.536,-0.119 12.758,6.146c0.028,0.135 0.144,0.232 0.278,0.233l5.795,0.04c0.102,-0 0.148,-0.051 0.139,-0.153c-0.371,-3.943 -1.902,-6.967 -4.593,-9.074c-4.002,-3.139 -10.939,-3.902 -15.877,-2.509c-11.184,3.153 -13.514,17.006 -10.242,26.292c2.874,8.164 9.864,10.739 18.001,10.016c7.122,-0.631 11.802,-6.001 12.844,-13.103c0.066,-0.451 -0.131,-0.677 -0.591,-0.677l-4.606,0c-0.452,0 -0.724,0.222 -0.817,0.664c-0.796,3.843 -2.947,6.75 -6.836,7.759Zm62.067,-11.297l25.708,0.027c0.149,0 0.275,-0.114 0.285,-0.259c0.757,-10.527 -5.131,-20.63 -16.892,-20.059c-19.103,0.929 -20.949,31.163 -4.979,36.188c4.62,1.454 11.098,1.195 15.207,-1.334c3.319,-2.044 5.425,-5.27 6.319,-9.678c0.002,-0.01 0.004,-0.022 0.004,-0.033c-0,-0.08 -0.066,-0.146 -0.146,-0.146c-0.002,0 -0.003,0 -0.004,0l-5.728,-0.013c-0.133,-0.004 -0.21,0.06 -0.233,0.192c-1.155,6.572 -9.106,8.224 -14.217,5.583c-3.969,-2.045 -5.817,-5.465 -5.543,-10.262c0.009,-0.137 0.082,-0.206 0.219,-0.206Zm38.465,-14.768c-0.019,0.031 -0.045,0.056 -0.077,0.073c-0.099,0.054 -0.226,0.014 -0.282,-0.089c-0.017,-0.032 -0.026,-0.068 -0.026,-0.104l-0.08,-4.108c-0.004,-0.297 -0.154,-0.445 -0.451,-0.445l-4.825,0.006c-0.239,0 -0.359,0.12 -0.359,0.359l0.007,34.714c-0,0.323 0.161,0.483 0.484,0.478l4.952,-0.04c0.281,-0.003 0.511,-0.236 0.511,-0.517c0,-0.003 0,-0.005 0,-0.007c-0.04,-5.89 -0.082,-11.945 -0.126,-18.167c-0.053,-6.93 3.113,-12.824 10.773,-12.412c4.872,0.259 6.896,3.292 6.909,7.932c0.014,7.544 0.031,15.098 0.053,22.66c0,0.345 0.175,0.52 0.525,0.525l4.759,0.039c0.336,0.005 0.504,-0.161 0.504,-0.497c0.018,-7.47 0.016,-15.101 -0.006,-22.893c-0.02,-6.054 -1.494,-10.833 -7.912,-12.552c-5.689,-1.52 -12.054,0.06 -15.333,5.045Zm-170.97,26.258l0.027,4.002c0.004,0.381 0.197,0.573 0.577,0.578l4.62,0.053c0.001,-0 0.002,-0 0.003,-0c0.262,0.002 0.479,-0.216 0.481,-0.481c0,-0.001 0,-0.003 0,-0.004l-0.006,-34.707c-0,-0.222 -0.111,-0.335 -0.332,-0.339l-5.25,-0.073c-0.003,-0 -0.005,-0 -0.007,-0c-0.2,-0 -0.365,0.165 -0.365,0.365c-0,0 -0,0 -0,0c0.075,10.961 0.057,17.897 -0.053,20.809c-0.186,4.783 -2.43,7.912 -6.731,9.385c-5.051,1.726 -10.587,-0.405 -10.626,-6.392c-0.045,-7.828 -0.069,-15.777 -0.073,-23.848c-0,-0.158 -0.128,-0.289 -0.286,-0.292l-5.336,-0.007c-0.217,-0.005 -0.326,0.104 -0.326,0.325c0.036,7.624 0.049,15.333 0.04,23.125c-0.007,5.105 1.075,9.791 6.332,11.789c5.875,2.223 13.149,1.108 16.813,-4.434c0.051,-0.075 0.136,-0.12 0.226,-0.12c0.147,-0 0.269,0.119 0.272,0.266Z" style="fill:#0065bd;fill-rule:nonzero;"/><path d="M483.273,-0l516.422,-0c0.167,-0 0.305,0.138 0.305,0.305l0,323.302c0,0.168 -0.138,0.305 -0.305,0.305l-516.422,0c-0.167,0 -0.305,-0.137 -0.305,-0.305l0,-323.302c0,-0.167 0.138,-0.305 0.305,-0.305Zm175.63,93.417c0.142,-0 0.259,0.117 0.259,0.259l-0,175.105c-0,0.142 0.117,0.259 0.259,0.259l120.272,-0c0.142,-0 0.259,-0.117 0.259,-0.259l0.007,-175.112c-0,-0.142 0.116,-0.259 0.258,-0.259l43.41,0c0.142,0 0.259,0.117 0.259,0.259l-0,175.092c-0,0.142 0.117,0.259 0.259,0.259l37.874,0.013c0.142,0 0.258,-0.117 0.258,-0.259l-0.006,-175.105c-0,-0.142 0.117,-0.259 0.259,-0.259l43.449,0c0.142,0 0.259,0.117 0.259,0.259l-0,175.099c-0,0.142 0.117,0.259 0.259,0.259l37.874,-0c0.142,-0 0.259,-0.117 0.259,-0.259l-0,-213.524c-0,-0.142 -0.117,-0.259 -0.259,-0.259l-202.612,0c-0.142,0 -0.258,0.117 -0.258,0.259l-0,175.145c-0,0.142 -0.117,0.259 -0.259,0.259l-43.337,-0.013c-0.142,-0 -0.259,-0.117 -0.259,-0.259l0,-175.132c0,-0.142 -0.117,-0.259 -0.259,-0.259l-158.763,0c-0.142,0 -0.259,0.117 -0.259,0.259l0,37.907c0,0.142 0.117,0.259 0.259,0.259l37.973,0c0.142,0 0.259,0.117 0.259,0.259l-0.006,175.099c-0,0.142 0.116,0.259 0.258,0.259l37.967,-0.014c0.142,0 0.259,-0.117 0.259,-0.259l0.007,-175.092c-0,-0.142 0.117,-0.258 0.259,-0.258l43.303,0.013Z" style="fill:#0065bd;fill-rule:nonzero;"/><path d="M71.307,60.388l-15.618,0c-0.153,0 -0.279,-0.125 -0.279,-0.278l0.047,-4.852c-0,-0.153 0.126,-0.279 0.279,-0.279l38.584,-0.007c0.153,0 0.278,0.126 0.278,0.279l0.007,4.852c-0,0.153 -0.126,0.279 -0.279,0.279l-15.678,-0c-0.153,-0 -0.278,0.126 -0.278,0.279l-0.007,42.858c-0,0 -0,0 -0,0c-0,0.153 -0.126,0.279 -0.279,0.279c-0.002,0 -0.004,0 -0.006,0l-6.227,-0.073c-0.15,-0.004 -0.272,-0.128 -0.272,-0.279l0.007,-42.779c-0,-0.153 -0.126,-0.279 -0.279,-0.279Z" style="fill:#fff;fill-rule:nonzero;"/><path d="M171.999,72.92c3.597,-5.111 9.963,-6.266 15.399,-4.905c5.748,1.434 7.626,5.947 7.653,11.463c0.035,8.085 0.071,16.081 0.106,23.988c0,0.199 -0.099,0.299 -0.298,0.299l-5.324,-0c-0.212,-0 -0.318,-0.106 -0.318,-0.319c0.013,-7.544 0.008,-15.156 -0.014,-22.833c-0.006,-3.325 -0.743,-5.994 -3.83,-7.235c-5.144,-2.064 -11.748,0.909 -13.102,6.425c-0.482,1.947 -0.708,4.439 -0.677,7.474c0.057,5.461 0.091,10.89 0.1,16.289c-0,0.137 -0.069,0.205 -0.206,0.205l-5.503,-0.039c-0.105,-0 -0.192,-0.087 -0.192,-0.193l0.013,-48.441c-0,-0.106 0.055,-0.159 0.166,-0.159l5.489,0.066c0.131,0 0.239,0.111 0.239,0.246l0.02,17.583c0,0.314 0.093,0.343 0.279,0.086Z" style="fill:#fff;fill-rule:nonzero;"/><path d="M247.526,61.545c0,0 0,0 0,0.001c0,0.298 -0.245,0.544 -0.543,0.544l-4.899,0.009c-0.298,0 -0.544,-0.245 -0.545,-0.544l-0.01,-6c-0,-0 -0,-0.001 -0,-0.001c-0,-0.298 0.245,-0.544 0.543,-0.544l4.898,-0.009c0.299,-0 0.545,0.245 0.546,0.543l0.01,6.001Z" style="fill:#fff;fill-rule:nonzero;"/><path d="M334.44,72.714c3.035,-3.774 7.235,-5.451 12.598,-5.031c9.644,0.75 10.527,6.505 10.587,15.14c0.048,6.934 0.053,13.818 0.013,20.65c-0,0.171 -0.141,0.312 -0.312,0.312l-5.177,-0.027c-0.204,0 -0.306,-0.102 -0.306,-0.305c-0.004,-6.779 -0.004,-13.594 0,-20.444c0.005,-3.243 -0.274,-5.447 -0.836,-6.611c-1.633,-3.372 -5.45,-4.142 -8.934,-3.358c-7.142,1.613 -7.813,7.102 -7.859,13.925c-0.044,5.408 -0.058,10.857 -0.04,16.348c0,0.227 -0.185,0.415 -0.411,0.419l-5.125,0.039c-0.247,0.005 -0.371,-0.117 -0.371,-0.365l0.006,-48.288c0,-0.093 0.047,-0.139 0.14,-0.139l5.622,-0.027c0.088,0 0.132,0.045 0.132,0.133l0.067,17.556c-0,0.222 0.068,0.246 0.206,0.073Z" style="fill:#fff;fill-rule:nonzero;"/><path d="M658.903,93.417l-43.303,-0.013c-0.142,-0 -0.259,0.116 -0.259,0.258l-0.007,175.092c0,0.142 -0.117,0.259 -0.259,0.259l-37.967,0.014c-0.142,-0 -0.258,-0.117 -0.258,-0.259l0.006,-175.099c0,-0.142 -0.117,-0.259 -0.259,-0.259l-37.973,0c-0.142,0 -0.259,-0.117 -0.259,-0.259l0,-37.907c0,-0.142 0.117,-0.259 0.259,-0.259l158.763,0c0.142,0 0.259,0.117 0.259,0.259l0,175.132c0,0.142 0.117,0.259 0.259,0.259l43.337,0.013c0.142,0 0.259,-0.117 0.259,-0.259l-0,-175.145c-0,-0.142 0.116,-0.259 0.258,-0.259l202.612,0c0.142,0 0.259,0.117 0.259,0.259l-0,213.524c-0,0.142 -0.117,0.259 -0.259,0.259l-37.874,-0c-0.142,-0 -0.259,-0.117 -0.259,-0.259l-0,-175.099c-0,-0.142 -0.117,-0.259 -0.259,-0.259l-43.449,0c-0.142,0 -0.259,0.117 -0.259,0.259l0.006,175.105c0,0.142 -0.116,0.259 -0.258,0.259l-37.874,-0.013c-0.142,-0 -0.259,-0.117 -0.259,-0.259l-0,-175.092c-0,-0.142 -0.117,-0.259 -0.259,-0.259l-43.41,0c-0.142,0 -0.258,0.117 -0.258,0.259l-0.007,175.112c-0,0.142 -0.117,0.259 -0.259,0.259l-120.272,-0c-0.142,-0 -0.259,-0.117 -0.259,-0.259l-0,-175.105c-0,-0.142 -0.117,-0.259 -0.259,-0.259Z" style="fill:#fff;fill-rule:nonzero;"/><path d="M96.085,88.246c-0.206,5.124 2.582,9.187 7.441,10.733c4.859,1.54 11.231,-0.318 12.366,-6.02c0.047,-0.23 0.253,-0.397 0.491,-0.398l5.27,0.013c0.226,-0 0.319,0.113 0.279,0.338c-0.943,5.102 -3.587,8.576 -7.932,10.421c-5.443,2.31 -13.614,1.693 -18.273,-2.349c-8.304,-7.202 -7.965,-23.511 0.883,-30.221c4.506,-3.418 11.987,-4.467 17.217,-1.487c6.558,3.73 8.828,10.859 8.702,17.928c-0.004,0.451 -0.232,0.677 -0.683,0.677l-25.382,0.007c-0.203,-0 -0.372,0.159 -0.379,0.358Zm20.039,-5.881c-0.717,-12.412 -18.844,-12.969 -20.065,0.027c-0.001,0.007 -0.001,0.013 -0.001,0.02c-0,0.12 0.099,0.219 0.219,0.219c0,-0 0,-0 0.001,-0l19.574,0.02c-0,-0 0,-0 0,-0c0.149,-0 0.272,-0.123 0.272,-0.272c0,-0.005 0,-0.009 -0,-0.014Z" style="fill:#fff;fill-rule:nonzero;"/><path d="M209.514,72.847c0.009,0.699 0.199,0.75 0.571,0.153c1.823,-2.934 4.487,-4.666 7.992,-5.197c9.963,-1.52 15.167,3.013 15.133,12.837c-0.022,7.69 -0.033,15.231 -0.033,22.62c0,0.346 -0.172,0.518 -0.518,0.518l-4.818,-0.02c-0.39,0 -0.585,-0.197 -0.585,-0.591c-0.013,-7.111 -0.024,-14.319 -0.033,-21.625c-0.004,-2.535 -0.252,-4.316 -0.743,-5.343c-2.337,-4.865 -10.01,-3.963 -13.348,-1.009c-2.213,1.952 -3.323,4.598 -3.332,7.939c-0.018,6.783 -0,13.516 0.053,20.198c-0,-0 -0,0 -0,0c0.003,0.222 -0.173,0.408 -0.392,0.411l-5.217,0.067c-0.002,-0 -0.004,-0 -0.007,-0c-0.229,-0 -0.418,-0.189 -0.418,-0.418l0,-34.516c0,-0.323 0.162,-0.487 0.485,-0.491l4.653,-0.013c0.27,-0 0.494,0.217 0.498,0.484l0.059,3.996Z" style="fill:#fff;fill-rule:nonzero;"/><path d="M277.045,78.383c-0.724,-6.067 -8.835,-6.485 -13.149,-4.554c-2.489,1.109 -3.445,4.029 -1.162,5.988c5.496,4.706 15.479,2.157 20.178,8.396c2.908,3.856 1.972,9.83 -1.639,13.016c-3.246,2.868 -8.908,3.631 -13.216,3.346c-6.976,-0.465 -13.68,-3.591 -13.534,-11.742c0.005,-0.173 0.093,-0.259 0.266,-0.259l5.41,0.013c0.172,0 0.261,0.086 0.265,0.259c0.126,6.797 9.571,7.467 14.211,5.821c2.814,-0.995 4.786,-3.723 3.053,-6.505c-0.655,-1.057 -1.832,-1.92 -3.531,-2.588c-5.582,-2.191 -13.348,-1.699 -17.224,-6.512c-2.222,-2.761 -2.596,-5.803 -1.122,-9.126c3.266,-7.368 17.324,-8.105 23.119,-3.83c2.478,1.827 3.834,4.611 4.068,8.35c0.001,0.004 0.001,0.009 0.001,0.013c-0,0.106 -0.087,0.193 -0.193,0.193c0,-0 0,-0 -0,-0l-5.542,-0.047c-0.133,0.001 -0.246,-0.1 -0.259,-0.232Z" style="fill:#fff;fill-rule:nonzero;"/><path d="M303.11,73.252c-7.268,2.323 -8.456,11.549 -6.989,17.941c2.469,10.766 17.41,11.39 19.342,-0.053c0.049,-0.274 0.214,-0.414 0.498,-0.418l5.19,-0.033c0.001,-0 0.002,-0 0.003,-0c0.2,-0 0.365,0.165 0.365,0.365c0,0.015 -0.001,0.031 -0.003,0.046c-1.181,9.552 -8.144,14.258 -17.476,13.441c-12.552,-1.095 -16.289,-12.604 -14.225,-23.404c0.876,-4.606 3.392,-8.967 7.454,-11.41c4.215,-2.535 10.826,-2.714 15.419,-1.234c5.107,1.642 8.021,5.339 8.742,11.091c0.001,0.005 0.001,0.01 0.002,0.015c0.006,0.098 -0.066,0.184 -0.161,0.191c-0.004,-0 -0.009,0 -0.014,-0l-5.821,-0c-0.143,-0 -0.266,-0.101 -0.292,-0.239c-1.042,-5.841 -7.002,-7.912 -12.034,-6.299Z" style="fill:#fff;fill-rule:nonzero;"/><path d="M370.362,88.1c-0.126,7.288 5.396,12.286 12.671,11.224c3.872,-0.566 6.323,-2.745 7.355,-6.538c0.039,-0.137 0.132,-0.205 0.278,-0.205l5.503,-0.027c0.001,-0 0.002,-0 0.003,-0c0.084,-0 0.153,0.069 0.153,0.153c0,0.011 -0.001,0.022 -0.004,0.033c-0.796,3.938 -2.546,6.925 -5.25,8.961c-4.719,3.544 -12.538,3.77 -17.961,1.314c-7.653,-3.472 -10.016,-13.806 -8.576,-21.293c1.832,-9.525 8.775,-15.068 18.645,-13.919c9.897,1.148 14.125,10.885 13.614,19.766c-0.007,0.17 -0.149,0.306 -0.319,0.306l-25.893,0.006c-0.118,0 -0.215,0.098 -0.219,0.219Zm0.193,-5.463l19.819,0.04c0.051,0 0.093,-0.042 0.093,-0.093l0,-0.015c0.009,-5.353 -4.474,-9.765 -9.932,-9.775l-0.11,0c-5.456,-0.008 -9.953,4.387 -9.963,9.737l-0,0.014c-0,0.051 0.042,0.092 0.093,0.092Z" style="fill:#fff;fill-rule:nonzero;"/><path d="M130.76,99.265c-6.233,-7.488 -5.138,-23.305 3.166,-29c4.507,-3.086 11.742,-3.432 16.813,-1.613c4.774,1.713 7.516,5.372 8.224,10.979c0.013,0.115 -0.038,0.172 -0.153,0.172l-5.781,-0.026c-0.146,-0 -0.237,-0.071 -0.272,-0.213c-1.043,-4.062 -3.578,-6.365 -7.833,-6.73c-6.883,-0.591 -10.753,4.082 -11.556,10.408c-0.982,7.686 1.832,17.569 11.702,16.096c4.374,-0.658 7.063,-3.565 7.853,-7.866c0.092,-0.518 0.4,-0.772 0.922,-0.763l4.547,0.046c0.5,0.005 0.717,0.255 0.65,0.75c-0.75,5.483 -4.321,10.746 -9.817,12.366c-6.279,1.859 -14.111,0.631 -18.465,-4.606Z" style="fill:#fff;fill-rule:nonzero;"/><path d="M247.494,103.347c0,0.229 -0.188,0.418 -0.418,0.418l-5.137,-0c-0.23,-0 -0.418,-0.189 -0.418,-0.418l-0,-34.555c-0,-0.23 0.188,-0.419 0.418,-0.419l5.137,0c0.23,0 0.418,0.189 0.418,0.419l0,34.555Z" style="fill:#fff;fill-rule:nonzero;"/><path d="M96.059,82.392c1.221,-12.996 19.348,-12.439 20.065,-0.027c0,0.005 0,0.009 0,0.014c0,0.149 -0.123,0.272 -0.272,0.272c0,-0 -0,-0 -0,-0l-19.574,-0.02c-0.001,-0 -0.001,-0 -0.001,-0c-0.12,-0 -0.219,-0.099 -0.219,-0.219c-0,-0.007 0,-0.013 0.001,-0.02Z" style="fill:#0065bd;fill-rule:nonzero;"/><path d="M370.555,82.637c-0.051,0 -0.093,-0.041 -0.093,-0.092l-0,-0.014c0.01,-5.35 4.507,-9.745 9.963,-9.737l0.11,0c5.458,0.01 9.941,4.422 9.932,9.775l0,0.015c0,0.051 -0.042,0.093 -0.093,0.093l-19.819,-0.04Z" style="fill:#0065bd;fill-rule:nonzero;"/><path d="M90.762,175.517c0.987,-2.213 1.473,-4.746 1.46,-7.6c-0.057,-10.12 -0.086,-20.165 -0.086,-30.135c-0,-0.178 0.144,-0.325 0.318,-0.325l5.841,0.007c0.222,-0 0.335,0.11 0.339,0.332c0.137,17.514 0.122,28.769 -0.046,33.765c-0.151,4.496 -1.74,8.175 -4.766,11.038c-5.397,5.098 -13.514,5.589 -20.749,4.275c-9.923,-1.799 -13.76,-8.888 -13.78,-18.333c-0.017,-10.28 -0.02,-20.539 -0.006,-30.779c-0,-0.178 0.146,-0.325 0.325,-0.325l5.994,0.027c0.216,-0 0.325,0.108 0.325,0.325c-0.058,16.868 -0.047,27.628 0.033,32.278c0.071,3.824 1.449,6.81 4.135,8.961c5.888,4.713 17.304,4.016 20.663,-3.511Z" style="fill:#fff;fill-rule:nonzero;"/><path d="M151.223,144.368c-0,0 -0,0.001 -0,0.001c-0,0.105 -0.087,0.192 -0.193,0.192l-5.416,0.01c0,-0 -0,-0 -0,-0c-0.106,-0 -0.192,-0.087 -0.193,-0.193l-0.011,-6.73c-0,-0 -0,-0 -0,-0c-0,-0.106 0.086,-0.193 0.192,-0.193l5.416,-0.009c0,-0 0,-0 0,-0c0.106,-0 0.193,0.086 0.193,0.192l0.012,6.73Z" style="fill:#fff;fill-rule:nonzero;"/><path d="M295.419,143.974c-0.001,0.323 -0.267,0.589 -0.591,0.589c-0,0 -0.001,0 -0.001,0l-4.779,-0.008c-0.324,-0.001 -0.59,-0.268 -0.59,-0.592l0.011,-5.894c0,-0.324 0.267,-0.59 0.59,-0.59c0.001,0 0.001,0 0.001,0l4.78,0.009c0.324,0 0.59,0.267 0.589,0.591l-0.01,5.895Z" style="fill:#fff;fill-rule:nonzero;"/><path d="M339.365,144.679c-0,0.229 -0.189,0.418 -0.419,0.418l-5.509,-0c-0.229,-0 -0.418,-0.189 -0.418,-0.418l0,-6.279c0,-0.23 0.189,-0.419 0.418,-0.419l5.509,0c0.23,0 0.419,0.189 0.419,0.419l-0,6.279Z" style="fill:#fff;fill-rule:nonzero;"/><path d="M352.207,144.726c0.001,0.197 -0.161,0.359 -0.358,0.359l-5.602,0.01c0,0 -0,0 -0,0c-0.197,0 -0.358,-0.161 -0.359,-0.358l-0.011,-6.412c-0,-0.196 0.161,-0.358 0.358,-0.359l5.602,-0.009c0,-0 0,-0 0.001,-0c0.196,-0 0.358,0.161 0.358,0.357l0.011,6.412Z" style="fill:#fff;fill-rule:nonzero;"/><path d="M308.155,150.526l0.199,-9.478c0.009,-0.434 0.23,-0.653 0.664,-0.657l4.46,-0.047c0.452,-0.004 0.679,0.219 0.684,0.671l0.033,9.445c0.004,0.238 0.197,0.431 0.432,0.431l6.325,0.027c0.266,-0 0.396,0.131 0.392,0.392l-0.04,4.414c-0.005,0.265 -0.14,0.4 -0.405,0.404l-6.339,0c-0.204,0 -0.372,0.168 -0.372,0.372c-0.004,6.908 -0.011,13.868 -0.019,20.882c-0,0.929 0.168,1.819 0.504,2.668c0.084,0.208 0.228,0.361 0.431,0.458c1.607,0.77 3.757,0.571 5.861,0.518c0.239,-0.009 0.359,0.106 0.359,0.345l-0,4.487c0.003,0.206 -0.162,0.381 -0.372,0.392c-3.471,0.172 -10.554,0.856 -12.067,-3.087c-0.465,-1.208 -0.692,-2.969 -0.684,-5.283c0.031,-7.133 0.067,-14.287 0.107,-21.459c-0,-0.153 -0.126,-0.279 -0.279,-0.279l-5.158,-0.014c-0.438,-0.004 -0.657,-0.225 -0.657,-0.663l0.014,-3.757c-0,-0.431 0.349,-0.786 0.776,-0.79l4.832,-0.073c0.208,-0.004 0.314,-0.111 0.319,-0.319Z" style="fill:#fff;fill-rule:nonzero;"/><path d="M368.019,150.546l0.033,-9.657c0,-0.35 0.177,-0.525 0.531,-0.525l4.812,0.007c0.328,-0 0.494,0.164 0.498,0.491l0.013,9.678c0,0.247 0.124,0.371 0.372,0.371l6.213,-0.039c0.27,-0 0.405,0.134 0.405,0.404l-0.013,4.534c-0.005,0.226 -0.118,0.338 -0.339,0.338l-6.332,-0.039c-0.002,-0.001 -0.005,-0.001 -0.007,-0.001c-0.167,0 -0.305,0.138 -0.305,0.306c-0,-0 -0,-0 -0,-0c-0.009,7.518 -0.002,15.06 0.02,22.627c0.006,2.556 5.124,2.058 6.763,1.978c0.138,-0.004 0.206,0.062 0.206,0.199l0.02,4.806c0,0.14 -0.113,0.255 -0.252,0.259c-5.423,0.066 -12.572,1.5 -12.625,-6.578c-0.053,-7.731 -0.044,-15.437 0.027,-23.119c-0,-0.001 -0,-0.002 -0,-0.003c0.002,-0.244 -0.195,-0.446 -0.435,-0.448c-0.001,0 -0.002,0 -0.003,0l-5.005,0.007c-0.443,-0 -0.664,-0.224 -0.664,-0.671l0.014,-3.976c-0,-0.438 0.219,-0.652 0.657,-0.643l5.018,0.066c-0,-0 -0,-0 -0,-0c0.204,0.004 0.374,-0.164 0.378,-0.372Z" style="fill:#fff;fill-rule:nonzero;"/><path d="M113.363,155.77c2.98,-5.124 8.622,-6.279 14.131,-5.476c7.859,1.142 9.233,7.029 9.24,13.813c0.008,7.359 0.013,14.569 0.013,21.632c-0,0.302 -0.249,0.55 -0.551,0.55l-4.872,0.027c-0.354,0 -0.529,-0.177 -0.524,-0.531c0.022,-7.071 0.019,-14.246 -0.007,-21.526c-0.013,-2.376 -0.182,-4.002 -0.505,-4.878c-1.606,-4.361 -7.234,-4.892 -11.104,-3.292c-4.407,1.818 -5.961,6.04 -5.961,10.507c-0.004,6.518 -0.009,12.954 -0.013,19.308c0,0.239 -0.122,0.359 -0.365,0.359l-5.078,0.013c-0.265,0 -0.398,-0.135 -0.398,-0.405l0.007,-34.422c-0,-0.381 0.19,-0.569 0.57,-0.564l4.328,0.033c0.412,0.004 0.617,0.215 0.617,0.631l0.014,4.102c0.002,0.133 0.112,0.241 0.245,0.241c0.088,0 0.169,-0.046 0.213,-0.122Z" style="fill:#fff;fill-rule:nonzero;"/><path d="M237.452,157.715c0.61,-0.828 1.208,-1.664 1.792,-2.509c2.416,-3.474 5.883,-5.191 10.401,-5.151c0.504,0.005 0.757,0.259 0.757,0.763l-0,4.859c-0,0.415 -0.342,0.757 -0.757,0.757c-0.007,0 -0.013,-0 -0.02,-0c-7.719,-0.186 -11.543,4.606 -11.762,11.828c-0.177,5.969 -0.243,11.901 -0.199,17.795c0,0.146 -0.071,0.219 -0.212,0.219l-5.49,0.013c-0.142,0 -0.258,-0.119 -0.258,-0.265l-0,-34.522c-0,-0.434 0.216,-0.65 0.65,-0.65l4.168,0.006c0.434,0 0.651,0.217 0.651,0.651l-0.013,6.113c-0,0.323 0.097,0.354 0.292,0.093Z" style="fill:#fff;fill-rule:nonzero;"/><path d="M260.457,161.412c1.102,2.867 10.156,4.155 13.262,5.051c6.279,1.825 10.315,4.288 9.326,11.483c-0.604,4.441 -4.374,7.467 -8.529,8.43c-8.921,2.064 -20.875,0.604 -21.486,-11.098c-0,-0.005 -0,-0.009 -0,-0.013c-0,-0.11 0.089,-0.2 0.199,-0.2c-0,0 0,0 0,0l5.357,0c0.146,0 0.228,0.071 0.245,0.213c0.505,3.407 2.804,5.535 6.897,6.385c3.358,0.697 10.255,0.266 11.058,-3.943c0.803,-4.181 -3.558,-5.867 -6.751,-6.511c-4.314,-0.876 -7.971,-1.507 -11.383,-3.126c-5.098,-2.423 -6.399,-9.14 -3.179,-13.382c3.252,-4.294 9.697,-4.978 14.788,-4.467c6.691,0.664 10.999,3.737 11.277,10.873c0,0.002 0,0.004 0,0.006c0,0.109 -0.089,0.199 -0.199,0.199c0,0 0,0 0,0l-5.443,-0.026c-0.096,-0.005 -0.176,-0.074 -0.192,-0.166c-1.122,-8.655 -18.114,-7.162 -15.247,0.292Z" style="fill:#fff;fill-rule:nonzero;"/><path d="M350.549,182.579c-0.001,-0.041 -0.01,-0.082 -0.026,-0.121c-0.068,-0.153 -0.247,-0.225 -0.397,-0.159c-0.038,0.017 -0.073,0.042 -0.101,0.074c-4.102,4.534 -10.707,5.523 -16.442,4.268c-7.328,-1.613 -9.465,-10.819 -5.011,-16.262c3.113,-3.803 10.912,-4.274 17.132,-5.296c2.834,-0.465 5.15,-2.012 4.433,-5.317c-1.467,-6.744 -16.109,-6.007 -16.355,1.5c-0.013,0.456 -0.25,0.684 -0.71,0.684l-4.792,-0c-0.338,-0.002 -0.614,-0.28 -0.614,-0.618c-0,-0.022 0.001,-0.044 0.003,-0.066c0.593,-5.792 3.558,-9.286 8.895,-10.481c7.381,-1.653 19.667,-1.473 19.56,8.841c-0.066,5.864 -0.088,11.727 -0.066,17.59c0.007,2.443 -0.65,5.496 3.531,4.507c0.006,-0.001 0.012,-0.002 0.018,-0.003c0.087,-0.009 0.166,0.052 0.174,0.136c0.001,0.006 0.001,0.013 0.001,0.02l-0.113,4.294c-0.005,0.105 -0.069,0.198 -0.166,0.239c-3.531,1.454 -8.961,1.108 -8.954,-3.83Zm-0.989,-6.153c0.883,-1.905 0.597,-5.469 0.584,-7.64c0,-0 0,-0 0,-0.001c0,-0.153 -0.126,-0.279 -0.279,-0.279c-0.036,0 -0.072,0.008 -0.106,0.021c-4.527,1.812 -10.773,0.923 -14.709,3.545c-3.896,2.602 -2.934,8.602 1.859,9.578c4.693,0.962 10.474,-0.525 12.651,-5.224Z" style="fill:#fff;fill-rule:nonzero;"/><path d="M198.834,170.671c-0.123,3.562 0.992,6.397 3.346,8.503c5.137,4.58 14.782,3.717 16.614,-3.883c0.03,-0.12 0.137,-0.206 0.258,-0.206l5.536,-0.033c0.006,-0 0.011,0 0.017,0.001c0.083,0.007 0.145,0.085 0.137,0.172c0,0.004 -0,0.009 -0.001,0.013c-1.792,9.12 -9.339,12.87 -17.855,11.762c-6.731,-0.87 -11.277,-4.779 -13.229,-11.278c-4.062,-13.567 3.764,-28.674 19.793,-25.209c8.41,1.819 12.22,11.689 11.815,19.461c-0.013,0.261 -0.148,0.392 -0.405,0.392l-25.714,0.007c-0.203,-0 -0.307,0.099 -0.312,0.298Zm0.166,-5.575l19.827,0.172c0.002,0 0.004,0.001 0.006,0.001c0.059,-0 0.107,-0.048 0.107,-0.107l-0,-0.006c0.046,-5.363 -4.415,-9.816 -9.884,-9.864l-0.106,0c-0,0 -0.001,0 -0.001,0c-5.469,-0.048 -10.008,4.326 -10.055,9.69l0,0.008c0,0.058 0.048,0.106 0.106,0.106Z" style="fill:#fff;fill-rule:nonzero;"/><path d="M151.223,186.011c0,0.16 -0.132,0.292 -0.292,0.292l-5.23,-0c-0.16,-0 -0.292,-0.132 -0.292,-0.292l-0,-34.821c-0,-0.16 0.132,-0.292 0.292,-0.292l5.23,0c0.16,0 0.292,0.132 0.292,0.292l0,34.821Z" style="fill:#fff;fill-rule:nonzero;"/><path d="M183.84,150.885l5.695,0.013c0.001,0 0.001,0 0.002,0c0.142,0 0.259,0.117 0.259,0.259c-0,0.029 -0.005,0.058 -0.015,0.086l-12.718,34.894c-0.036,0.101 -0.131,0.17 -0.239,0.172l-6.066,0.02c-0.108,-0.002 -0.203,-0.071 -0.239,-0.172l-12.937,-34.94c-0.011,-0.03 -0.017,-0.062 -0.017,-0.093c-0,-0.141 0.115,-0.258 0.256,-0.259l6.126,0.046c0.11,-0 0.209,0.069 0.246,0.173l9.591,28.521c0.035,0.106 0.135,0.177 0.246,0.177c0.111,0 0.21,-0.071 0.246,-0.177l9.319,-28.541c0.034,-0.106 0.133,-0.179 0.245,-0.179Z" style="fill:#fff;fill-rule:nonzero;"/><path d="M295.411,185.871c-0,0.237 -0.195,0.432 -0.432,0.432l-5.071,-0c-0.236,-0 -0.431,-0.195 -0.431,-0.432l-0,-34.555c-0,-0.236 0.195,-0.431 0.431,-0.431l5.071,-0c0.237,-0 0.432,0.195 0.432,0.431l-0,34.555Z" style="fill:#fff;fill-rule:nonzero;"/><path d="M199,165.096c-0.058,-0 -0.106,-0.048 -0.106,-0.106l0,-0.008c0.047,-5.364 4.586,-9.738 10.055,-9.69c0,0 0.001,0 0.001,0l0.106,0c5.469,0.048 9.93,4.501 9.884,9.864l-0,0.006c-0,0.059 -0.048,0.107 -0.107,0.107c-0.002,-0 -0.004,-0.001 -0.006,-0.001l-19.827,-0.172Z" style="fill:#0065bd;fill-rule:nonzero;"/><path d="M349.56,176.426c-2.177,4.699 -7.958,6.186 -12.651,5.224c-4.793,-0.976 -5.755,-6.976 -1.859,-9.578c3.936,-2.622 10.182,-1.733 14.709,-3.545c0.034,-0.013 0.07,-0.021 0.106,-0.021c0.153,0 0.279,0.126 0.279,0.279c0,0.001 0,0.001 0,0.001c0.013,2.171 0.299,5.735 -0.584,7.64Z" style="fill:#0065bd;fill-rule:nonzero;"/><path d="M66.077,229.699l-0,39.002c-0,0.173 -0.089,0.259 -0.266,0.259l-5.874,-0.006c-0.084,-0 -0.153,-0.069 -0.153,-0.153l0,-48.547c0,-0.153 0.123,-0.279 0.273,-0.279l8.223,-0.02c0.275,-0.004 0.525,0.166 0.624,0.425l14.882,39.699c0.024,0.065 0.086,0.108 0.155,0.108c0.047,0 0.092,-0.02 0.124,-0.055c0.154,-0.168 0.281,-0.378 0.378,-0.63c4.872,-12.842 9.788,-25.845 14.749,-39.009c0.11,-0.299 0.398,-0.499 0.716,-0.498l8.151,-0.027c0.204,0 0.372,0.171 0.372,0.379l0.02,48.394c-0,0.146 -0.073,0.219 -0.219,0.219l-5.981,-0.046c-0.106,-0.005 -0.159,-0.06 -0.159,-0.166l0.02,-39.089c0,-0.42 -0.104,-0.447 -0.312,-0.079c-0.124,0.225 -0.268,0.55 -0.431,0.975c-4.195,11.001 -8.333,22.021 -12.413,33.062c-0.619,1.668 -1.316,3.334 -2.09,4.998c-0.115,0.243 -0.306,0.365 -0.571,0.365l-4.56,-0.04c-0.286,0.001 -0.544,-0.18 -0.644,-0.451l-14.596,-38.863c-0.279,-0.752 -0.418,-0.728 -0.418,0.073Z" style="fill:#fff;fill-rule:nonzero;"/><path d="M237.598,237.75c2.947,-4.653 9.02,-5.774 14.078,-4.925c7.042,1.195 9.16,6.432 9.087,12.924c-0.089,7.646 -0.129,15.195 -0.12,22.647c0,0.372 -0.186,0.558 -0.557,0.558l-4.819,0.006c-0.345,0 -0.518,-0.172 -0.518,-0.518c-0.018,-6.858 -0.018,-13.784 0,-20.775c0.009,-3.204 -0.316,-5.438 -0.976,-6.704c-3.152,-6.034 -13.434,-2.954 -15.624,2.589c-0.598,1.522 -0.916,4.582 -0.956,9.179c-0.049,5.337 -0.049,10.62 -0,15.851c-0,0.001 -0,0.002 -0,0.003c-0.002,0.215 -0.177,0.39 -0.389,0.388c-0.001,0 -0.002,0 -0.003,0l-4.965,-0.019c-0.332,-0 -0.497,-0.166 -0.497,-0.498l-0.007,-48.089c-0,-0.198 0.161,-0.362 0.358,-0.365l5.065,-0.04c0.226,-0 0.411,0.183 0.411,0.405l0.007,17.257c0.004,0.531 0.146,0.573 0.425,0.126Z" style="fill:#fff;fill-rule:nonzero;"/><path d="M141.587,227.415c-0.001,0.2 -0.166,0.364 -0.366,0.364c0,0 -0,0 -0,0l-5.549,-0.01c-0.2,-0 -0.365,-0.165 -0.365,-0.365c0,0 0,-0 0,-0l0.012,-6.558c0,-0.2 0.165,-0.365 0.365,-0.365c0,0 0,0 0.001,0l5.549,0.01c0.2,0 0.364,0.165 0.364,0.365c-0,0 -0,0 -0,0.001l-0.011,6.558Z" style="fill:#fff;fill-rule:nonzero;"/><path d="M128.809,227.322c-0,0.251 -0.207,0.457 -0.458,0.457c0,-0 -0,-0 -0,-0l-5.35,-0.009c-0.251,-0.001 -0.457,-0.208 -0.457,-0.458c-0,-0.001 -0,-0.001 -0,-0.001l0.011,-6.359c0,-0.251 0.207,-0.457 0.458,-0.457c-0,-0 0,-0 0,-0l5.35,0.009c0.251,0 0.458,0.207 0.458,0.458c-0,0 -0,0.001 -0,0.001l-0.012,6.359Z" style="fill:#fff;fill-rule:nonzero;"/><path d="M161.512,237.969c-0,0.05 0.013,0.099 0.038,0.142c0.079,0.135 0.258,0.179 0.396,0.099c0.042,-0.025 0.078,-0.06 0.103,-0.101c2.741,-4.733 8.257,-6.001 13.395,-5.483c7.699,0.777 9.671,6.326 9.744,13.123c0.088,7.668 0.108,15.279 0.059,22.833c0,0.248 -0.124,0.372 -0.371,0.372l-5.277,-0.027c-0.257,-0 -0.385,-0.131 -0.385,-0.392c0.018,-7.133 0.02,-14.312 0.006,-21.538c-0.004,-2.771 -0.245,-4.662 -0.723,-5.676c-1.321,-2.794 -4.275,-3.763 -7.308,-3.484c-8.841,0.809 -9.372,7.281 -9.359,15.08c0.009,5.248 0.009,10.448 0,15.598c0,0.253 -0.126,0.379 -0.378,0.379l-5.204,0.053c-0.279,0.004 -0.418,-0.133 -0.418,-0.412l-0.04,-34.588c-0,-0.394 0.197,-0.588 0.591,-0.584l4.546,0.02c0.332,0.004 0.503,0.172 0.511,0.504l0.074,4.082Z" style="fill:#fff;fill-rule:nonzero;"/><path d="M205.359,238.507c-11.085,4.381 -8.629,29.477 6.253,25.634c3.889,-1.009 6.04,-3.916 6.836,-7.759c0.093,-0.442 0.365,-0.664 0.817,-0.664l4.606,0c0.46,0 0.657,0.226 0.591,0.677c-1.042,7.102 -5.722,12.472 -12.844,13.103c-8.137,0.723 -15.127,-1.852 -18.001,-10.016c-3.272,-9.286 -0.942,-23.139 10.242,-26.292c4.938,-1.393 11.875,-0.63 15.877,2.509c2.691,2.107 4.222,5.131 4.593,9.074c0.009,0.102 -0.037,0.153 -0.139,0.153l-5.795,-0.04c-0.134,-0.001 -0.25,-0.098 -0.278,-0.233c-1.222,-6.265 -7.534,-8.217 -12.758,-6.146Z" style="fill:#fff;fill-rule:nonzero;"/><path d="M273.46,253.05c-0.274,4.797 1.574,8.217 5.543,10.262c5.111,2.641 13.062,0.989 14.217,-5.583c0.023,-0.132 0.1,-0.196 0.233,-0.192l5.728,0.013c0.001,0 0.002,0 0.004,0c0.08,0 0.146,0.066 0.146,0.146c-0,0.011 -0.002,0.023 -0.004,0.033c-0.894,4.408 -3,7.634 -6.319,9.678c-4.109,2.529 -10.587,2.788 -15.207,1.334c-15.97,-5.025 -14.124,-35.259 4.979,-36.188c11.761,-0.571 17.649,9.532 16.892,20.059c-0.01,0.145 -0.136,0.259 -0.285,0.259l-25.708,-0.027c-0.137,0 -0.21,0.069 -0.219,0.206Zm-0.006,-5.489l19.873,0.04c0.011,-0 0.02,-0.009 0.02,-0.02l-0,-0.05c0.009,-5.316 -4.448,-9.698 -9.873,-9.708l-0.137,0c-5.423,-0.007 -9.892,4.357 -9.903,9.671l-0,0.047c-0,0.011 0.009,0.02 0.02,0.02Z" style="fill:#fff;fill-rule:nonzero;"/><path d="M312.144,238.076c3.279,-4.985 9.644,-6.565 15.333,-5.045c6.418,1.719 7.892,6.498 7.912,12.552c0.022,7.792 0.024,15.423 0.006,22.893c0,0.336 -0.168,0.502 -0.504,0.497l-4.759,-0.039c-0.35,-0.005 -0.525,-0.18 -0.525,-0.525c-0.022,-7.562 -0.039,-15.116 -0.053,-22.66c-0.013,-4.64 -2.037,-7.673 -6.909,-7.932c-7.66,-0.412 -10.826,5.482 -10.773,12.412c0.044,6.222 0.086,12.277 0.126,18.167c0,0.002 0,0.004 0,0.007c0,0.281 -0.23,0.514 -0.511,0.517l-4.952,0.04c-0.323,0.005 -0.484,-0.155 -0.484,-0.478l-0.007,-34.714c0,-0.239 0.12,-0.359 0.359,-0.359l4.825,-0.006c0.297,-0 0.447,0.148 0.451,0.445l0.08,4.108c-0,0.036 0.009,0.072 0.026,0.104c0.056,0.103 0.183,0.143 0.282,0.089c0.032,-0.017 0.058,-0.042 0.077,-0.073Z" style="fill:#fff;fill-rule:nonzero;"/><path d="M141.174,264.334c-0.003,-0.147 -0.125,-0.266 -0.272,-0.266c-0.09,-0 -0.175,0.045 -0.226,0.12c-3.664,5.542 -10.938,6.657 -16.813,4.434c-5.257,-1.998 -6.339,-6.684 -6.332,-11.789c0.009,-7.792 -0.004,-15.501 -0.04,-23.125c0,-0.221 0.109,-0.33 0.326,-0.325l5.336,0.007c0.158,0.003 0.286,0.134 0.286,0.292c0.004,8.071 0.028,16.02 0.073,23.848c0.039,5.987 5.575,8.118 10.626,6.392c4.301,-1.473 6.545,-4.602 6.731,-9.385c0.11,-2.912 0.128,-9.848 0.053,-20.809c-0,0 -0,0 -0,-0c-0,-0.2 0.165,-0.365 0.365,-0.365c0.002,-0 0.004,-0 0.007,-0l5.25,0.073c0.221,0.004 0.332,0.117 0.332,0.339l0.006,34.707c0,0.001 0,0.003 0,0.004c-0.002,0.265 -0.219,0.483 -0.481,0.481c-0.001,-0 -0.002,-0 -0.003,-0l-4.62,-0.053c-0.38,-0.005 -0.573,-0.197 -0.577,-0.578l-0.027,-4.002Z" style="fill:#fff;fill-rule:nonzero;"/><path d="M273.454,247.561c-0.011,-0 -0.02,-0.009 -0.02,-0.02l-0,-0.047c0.011,-5.314 4.48,-9.678 9.903,-9.671l0.137,0c5.425,0.01 9.882,4.392 9.873,9.708l-0,0.05c-0,0.011 -0.009,0.02 -0.02,0.02l-19.873,-0.04Z" style="fill:#0065bd;fill-rule:nonzero;"/></g></g></svg>