<?xml version="1.0" encoding="UTF-8" standalone="no"?><!DOCTYPE svg PUBLIC "-//W3C//DTD SVG 1.1//EN" "http://www.w3.org/Graphics/SVG/1.1/DTD/svg11.dtd"><svg width="100%" height="100%" viewBox="0 0 500 103" version="1.1" xmlns="http://www.w3.org/2000/svg" xmlns:xlink="http://www.w3.org/1999/xlink" xml:space="preserve" xmlns:serif="http://www.serif.com/" style="fill-rule:evenodd;clip-rule:evenodd;stroke-linejoin:round;stroke-miterlimit:2;"><g><path d="M241.17,25.54c4.9,-6.04 15.88,-5.67 18.83,2.01c0.64,1.687 0.957,4.86 0.95,9.52c-0.027,13.073 -0.023,26.127 0.01,39.16c0,0.147 -0.073,0.22 -0.22,0.22l-4.24,0.02c-0.18,0 -0.267,-0.087 -0.26,-0.26c0.04,-14.533 0.023,-29.073 -0.05,-43.62c-0.04,-8.29 -10.89,-8.39 -14.55,-2.59c-0.853,1.347 -1.28,3.28 -1.28,5.8c0.007,13.347 0.007,26.83 0,40.45c0,0.133 -0.067,0.203 -0.2,0.21l-4.2,0.02c-0.148,0 -0.27,-0.117 -0.27,-0.26l0,-75.93c0,-0.159 0.126,-0.29 0.28,-0.29l4.23,0.03c0.12,0 0.18,0.06 0.18,0.18l0.1,25.08c0,0.733 0.23,0.817 0.69,0.25Z" style="fill:#514d4e;fill-rule:nonzero;"/><path d="M77.74,26.31l-4.76,0.09c-0.28,0 -0.42,-0.137 -0.42,-0.41l-0.03,-3.5c0,-0.327 0.163,-0.49 0.49,-0.49l4.72,0c0.407,0 0.61,-0.203 0.61,-0.61l-0.03,-13.07c0,-0.247 0.123,-0.37 0.37,-0.37l4.06,0.01c0.2,0 0.3,0.1 0.3,0.3l-0.03,13.12c0,0.4 0.2,0.6 0.6,0.6l7.15,0.02c0.353,0 0.53,0.177 0.53,0.53l-0.01,3.45c0,0.253 -0.13,0.38 -0.39,0.38l-7.4,-0.01c-0.347,0 -0.517,0.173 -0.51,0.52c0.04,14.1 0.13,28.23 0.27,42.39c0.04,4.05 5.19,3.16 7.67,2.76c0.233,-0.033 0.35,0.063 0.35,0.29l0.02,3.7c0.007,0.26 -0.12,0.403 -0.38,0.43c-5.93,0.61 -12.78,1.12 -12.61,-6.68c0.167,-7.393 0.143,-21.713 -0.07,-42.96c0,-0.333 -0.167,-0.497 -0.5,-0.49Z" style="fill:#514d4e;fill-rule:nonzero;"/><path d="M400,22l7.26,-0.01c0.353,0 0.53,0.177 0.53,0.53l-0.02,3.28c0,0.302 -0.248,0.55 -0.55,0.55c-0.003,0 -0.007,0 -0.01,0l-7.19,-0.04c-0.327,0 -0.49,0.163 -0.49,0.49c-0.027,14.247 -0.03,28.483 -0.01,42.71c0.01,3.5 5.66,2.89 7.98,2.55c0.004,-0.001 0.009,-0.001 0.013,-0.001c0.126,-0.01 0.237,0.081 0.246,0.201c0.001,0.007 0.001,0.013 0.001,0.02l0.03,3.78c0,0.22 -0.107,0.34 -0.32,0.36c-5.01,0.56 -12.64,1.12 -12.64,-5.91c0,-14.513 0.007,-29.133 0.02,-43.86c0,-0.192 -0.158,-0.35 -0.35,-0.35l-5.01,0.04c-0.233,0 -0.35,-0.113 -0.35,-0.34l-0.08,-3.77c0,-0.14 0.073,-0.21 0.22,-0.21l5.04,-0.03c0.367,0 0.55,-0.183 0.55,-0.55l-0.05,-13.11c0,-0.24 0.12,-0.36 0.36,-0.36l4.05,-0.01c0.003,-0 0.007,-0 0.01,-0c0.154,-0 0.28,0.126 0.28,0.28l-0.01,13.27c0,0.327 0.163,0.49 0.49,0.49Z" style="fill:#0072bd;fill-rule:nonzero;"/><path d="M141.09,30.41c2.453,-4.42 6.017,-7.623 10.69,-9.61c0.173,-0.073 0.26,-0.017 0.26,0.17l-0.01,5.45c0,0.167 -0.08,0.273 -0.24,0.32c-4.56,1.34 -7.84,4.127 -9.84,8.36c-0.833,1.767 -1.25,4.127 -1.25,7.08c0.007,11.4 0.01,22.753 0.01,34.06c0,0.147 -0.077,0.22 -0.23,0.22l-4.04,0.01c-0.148,0 -0.27,-0.126 -0.27,-0.28l-0.01,-54.08c0,-0.067 0.03,-0.1 0.09,-0.1l4.03,-0.02c0.165,0 0.3,0.135 0.3,0.3l-0.07,7.97c-0.007,0.807 0.187,0.857 0.58,0.15Z" style="fill:#514d4e;fill-rule:nonzero;"/><path d="M374.19,30.2c2.447,-4.32 5.967,-7.453 10.56,-9.4c0.012,-0.006 0.025,-0.01 0.039,-0.013c0.102,-0.021 0.204,0.05 0.227,0.157c0.002,0.012 0.004,0.024 0.004,0.036l-0.01,5.43c0,0.173 -0.08,0.283 -0.24,0.33c-4.527,1.3 -7.813,4.083 -9.86,8.35c-0.813,1.693 -1.223,3.897 -1.23,6.61c-0.02,11.447 -0.02,22.957 0,34.53c0,0.132 -0.108,0.24 -0.24,0.24l-4.16,-0.02c-0.113,0 -0.17,-0.057 -0.17,-0.17l0,-54.15c0,-0.08 0.037,-0.12 0.11,-0.12l4.04,-0.02c0.187,0 0.28,0.093 0.28,0.28l-0.03,7.75c-0.007,0.933 0.22,0.993 0.68,0.18Z" style="fill:#514d4e;fill-rule:nonzero;"/><path d="M44.15,26.65c3.56,-5 8.167,-6.53 13.82,-4.59c5.22,1.78 6.2,6.61 6.22,12.01c0.053,14.1 0.06,28.157 0.02,42.17c0,0.153 -0.073,0.23 -0.22,0.23l-4.16,0c-0.147,0 -0.22,-0.077 -0.22,-0.23c0.013,-14.553 0.007,-29.127 -0.02,-43.72c-0.01,-9.2 -10.68,-8.76 -14.6,-2.84c-0.813,1.227 -1.223,2.883 -1.23,4.97c-0.027,13.873 -0.03,27.73 -0.01,41.57c0,0.16 -0.083,0.24 -0.25,0.24l-4.03,0.02c-0.137,0 -0.25,-0.113 -0.25,-0.25l0,-53.96c0,-0.18 0.09,-0.27 0.27,-0.27l4.01,0c0.18,0 0.27,0.087 0.27,0.26l-0.07,4.24c-0.007,0.527 0.143,0.577 0.45,0.15Z" style="fill:#514d4e;fill-rule:nonzero;"/><path d="M166.14,26.64c4.34,-6.52 15.14,-7.41 18.72,-0.33c0.893,1.773 1.343,4.97 1.35,9.59c0.027,13.493 0.03,26.94 0.01,40.34c0,0.153 -0.077,0.23 -0.23,0.23l-4.16,0c-0.153,0 -0.23,-0.077 -0.23,-0.23l-0,-39.65c-0,-3.827 -0.233,-6.347 -0.7,-7.56c-2.14,-5.65 -10.98,-4.12 -13.91,0.52c-0.847,1.34 -1.27,3.247 -1.27,5.72c0.007,13.673 0.007,27.327 -0,40.96c-0,0.153 -0.077,0.23 -0.23,0.23l-4.03,0.02c-0.143,0 -0.26,-0.117 -0.26,-0.26l-0.01,-53.98c-0,-0.16 0.08,-0.24 0.24,-0.24l4.07,0c0.173,0 0.26,0.087 0.26,0.26l-0.08,4.24c-0.007,0.567 0.147,0.613 0.46,0.14Z" style="fill:#514d4e;fill-rule:nonzero;"/><path d="M279.16,25.97c5.48,-5.87 14.75,-6.89 18.7,1.27c0.147,0.3 0.34,0.333 0.58,0.1c0.707,-0.68 1.39,-1.383 2.05,-2.11c6.75,-7.42 18.7,-4.13 18.92,6.53c0.133,6.653 0.15,21.48 0.05,44.48c-0,0.147 -0.073,0.22 -0.22,0.22l-4.24,0.01c-0.16,0 -0.24,-0.08 -0.24,-0.24c0.007,-14.267 -0.023,-28.59 -0.09,-42.97c-0.04,-9.49 -10.38,-9.63 -14.36,-3.5c-0.84,1.287 -1.26,3.077 -1.26,5.37c-0.02,13.7 -0.023,27.383 -0.01,41.05c0,0.187 -0.093,0.28 -0.28,0.28l-4.2,0.01c-0.137,-0 -0.25,-0.117 -0.25,-0.26c0.007,-13.747 0.003,-27.5 -0.01,-41.26c-0,-3.093 -0.427,-5.303 -1.28,-6.63c-2.93,-4.59 -10.36,-2.89 -13.29,1.16c-0.793,1.1 -1.19,2.563 -1.19,4.39c-0.013,14.127 -0.017,28.24 -0.01,42.34c-0,0.173 -0.087,0.26 -0.26,0.26l-4.06,-0.01c-0.132,-0 -0.24,-0.108 -0.24,-0.24l-0,-53.7c-0,-0.347 0.173,-0.52 0.52,-0.52l3.75,-0c0.333,-0 0.493,0.167 0.48,0.5l-0.11,3.24c-0.02,0.573 0.163,0.65 0.55,0.23Z" style="fill:#514d4e;fill-rule:nonzero;"/><path d="M500,29.64l0,46.87l-3.84,-0.09c-0.373,-0.007 -0.56,-0.2 -0.56,-0.58c0.027,-14.127 0.077,-28.233 0.15,-42.32c0.05,-9.51 -10.71,-10.1 -14.65,-3.7c-0.867,1.407 -1.303,3.463 -1.31,6.17c-0.007,13.407 -0,26.803 0.02,40.19c0,0.187 -0.09,0.28 -0.27,0.28l-4.06,0c-0.148,0 -0.27,-0.117 -0.27,-0.26c0.027,-14.72 0.02,-29.447 -0.02,-44.18c-0.007,-2.16 -0.86,-3.85 -2.56,-5.07c-3.94,-2.8 -9.38,-1.08 -12.07,2.6c-0.78,1.073 -1.17,2.487 -1.17,4.24c-0.013,14.087 -0.017,28.233 -0.01,42.44c-0,0.147 -0.073,0.22 -0.22,0.22l-4.16,0c-0.133,0 -0.2,-0.063 -0.2,-0.19l0,-53.78c0,-0.32 0.16,-0.48 0.48,-0.48l3.72,0c0.347,0 0.517,0.17 0.51,0.51l-0.03,3.24c-0.007,0.633 0.2,0.713 0.62,0.24c5.38,-6.2 14.7,-6.63 18.73,1.4c0.2,0.393 0.417,0.403 0.65,0.03c5.35,-8.43 18.1,-8.76 20.52,2.22Z" style="fill:#0072bd;fill-rule:nonzero;"/><path d="M103.32,50.33c0.033,4.64 0.13,9.28 0.29,13.92c0.16,4.473 2.04,7.08 5.64,7.82c10.2,2.08 10.3,-7.21 9.96,-14.03c-0,-0.005 -0.001,-0.01 -0.001,-0.015c-0.007,-0.28 0.221,-0.517 0.506,-0.525c0.005,0 0.01,-0 0.015,0l3.56,0.01c0.367,0 0.547,0.183 0.54,0.55c-0.04,3.48 0.3,7.89 -0.67,10.87c-3.24,9.91 -19.03,10.24 -23.21,1.07c-0.78,-1.707 -1.173,-4.923 -1.18,-9.65c-0.013,-7.453 -0.02,-14.913 -0.02,-22.38c-0,-7.5 0.84,-14.09 8.7,-15.89c8.34,-1.91 15.88,2.03 16.25,11.44c0.16,4.233 0.183,9.46 0.07,15.68c-0.007,0.34 -0.18,0.51 -0.52,0.51l-19.31,0c-0.413,0 -0.62,0.207 -0.62,0.62Zm0.5,-4.52l14.9,0c0.258,0 0.47,-0.212 0.47,-0.47l-0,-11.02c-0,-4.679 -3.39,-8.53 -7.51,-8.53l-0.82,0c-4.12,0 -7.51,3.851 -7.51,8.53l-0,11.02c-0,0.258 0.212,0.47 0.47,0.47Z" style="fill:#514d4e;fill-rule:nonzero;"/><path d="M202.81,50.18c-0.087,4.787 -0.073,9.557 0.04,14.31c0.11,4.97 3.25,7.78 8.15,7.77c8.48,-0.01 7.83,-8.15 7.69,-14.43c0,-0.22 0.107,-0.33 0.32,-0.33l3.95,0c0.2,0 0.3,0.1 0.3,0.3c0,7.46 0.89,15.21 -7.84,18.14c-5.76,1.94 -13.09,-0.03 -15.84,-5.61c-0.88,-1.793 -1.32,-5.077 -1.32,-9.85c0,-7.12 -0.003,-14.243 -0.01,-21.37c-0.007,-5.667 0.473,-9.507 1.44,-11.52c2.007,-4.18 5.943,-6.147 11.81,-5.9c6.993,0.3 10.877,3.987 11.65,11.06c0.253,2.36 0.26,7.87 0.02,16.53c-0.007,0.287 -0.153,0.43 -0.44,0.43l-19.44,0c-0.313,0 -0.473,0.157 -0.48,0.47Zm0.22,-4.41l15.3,0.02c0.148,0 0.27,-0.122 0.27,-0.27l0.02,-11.24c0.007,-4.643 -3.378,-8.47 -7.5,-8.48l-0.8,0c-0.002,-0 -0.003,-0 -0.005,-0c-4.126,-0.007 -7.527,3.81 -7.535,8.457c0,0.001 0,0.002 -0,0.003l-0.02,11.24c-0,0.148 0.122,0.27 0.27,0.27Z" style="fill:#514d4e;fill-rule:nonzero;"/><path d="M336.38,50.27c-0.153,7.06 -0.147,11.973 0.02,14.74c0.61,9.71 15.2,10.19 15.76,-0.5c0.12,-2.347 0.137,-4.563 0.05,-6.65c-0.013,-0.233 0.1,-0.35 0.34,-0.35l3.76,0c0.307,0 0.463,0.153 0.47,0.46c0.06,6.89 0.83,13.95 -6.53,17.49c-5.77,2.78 -14.43,0.79 -17.26,-5.3c-0.82,-1.773 -1.237,-5.1 -1.25,-9.98c-0.013,-7.813 0,-15.623 0.04,-23.43c0.04,-7.06 1.37,-13.19 8.7,-14.72c7.93,-1.65 15.74,1.91 16.11,10.73c0.233,5.493 0.273,10.99 0.12,16.49c-0.007,0.307 -0.163,0.46 -0.47,0.46l-19.28,0c-0.38,0 -0.573,0.187 -0.58,0.56Zm0.36,-4.5l14.98,0.06c0.247,0 0.45,-0.203 0.45,-0.45l0.03,-11c0,-0.001 0,-0.002 0,-0.003c0.016,-4.702 -3.428,-8.582 -7.63,-8.597l-0.56,0c-4.197,-0.009 -7.662,3.844 -7.68,8.54l-0.04,11c0,0.247 0.203,0.45 0.45,0.45Z" style="fill:#514d4e;fill-rule:nonzero;"/><path d="M0,21.98l4.24,0.03c0.347,0.007 0.52,0.183 0.52,0.53c0.007,13.167 0.01,26.323 0.01,39.47c-0.01,3.07 0.27,6.34 2.26,8.65c3.42,3.95 10.15,1.88 12.4,-2.43c0.7,-1.327 1.05,-3.38 1.05,-6.16c-0.007,-13.313 -0.003,-26.587 0.01,-39.82c0,-0.143 0.113,-0.26 0.25,-0.26l4.22,0.02c0.14,0 0.21,0.07 0.21,0.21l0,53.81c0,0.3 -0.147,0.447 -0.44,0.44l-3.9,-0.01c-0.247,0 -0.37,-0.123 -0.37,-0.37l0.04,-3.83c0.007,-0.62 -0.19,-0.69 -0.59,-0.21c-6.91,8.43 -18.81,5.12 -19.91,-5.96l0,-44.11Z" style="fill:#514d4e;fill-rule:nonzero;"/><path d="M435.88,72.09c-0.567,0.36 -1.087,0.77 -1.56,1.23c-7.26,7.07 -18.12,2.64 -18.19,-7.56c-0.033,-6.72 -0.047,-21.24 -0.04,-43.56c0,-0.127 0.067,-0.19 0.2,-0.19l4.17,0c0.133,0 0.2,0.067 0.2,0.2c-0.053,21.72 -0.053,35.737 0,42.05c0.09,9.32 10.51,11.64 14.66,3.86c0.66,-1.24 0.99,-3.043 0.99,-5.41c0.013,-13.533 0.013,-27.03 0,-40.49c0,-0.14 0.07,-0.21 0.21,-0.21l4.23,-0.01c0.148,0 0.27,0.117 0.27,0.26l0,53.71c0,0.313 -0.16,0.47 -0.48,0.47l-3.8,0.02c-0.32,0.007 -0.473,-0.147 -0.46,-0.46l0.09,-3.64c0.013,-0.4 -0.15,-0.49 -0.49,-0.27Z" style="fill:#0072bd;fill-rule:nonzero;"/><path d="M0,98.1l0,-7.01c2.69,-5.1 8.63,-6.64 12.54,-2.14c0.533,0.613 0.837,1.297 0.91,2.05c0.04,0.36 -0.12,0.537 -0.48,0.53l-0.42,-0.01c-0.287,-0.007 -0.48,-0.143 -0.58,-0.41c-0.96,-2.58 -2.787,-3.713 -5.48,-3.4c-6.99,0.81 -7.25,12.86 0.11,13.72c2.807,0.32 4.687,-1.183 5.64,-4.51c0.153,-0.54 0.493,-0.713 1.02,-0.52l0.28,0.1c0.187,0.062 0.296,0.259 0.25,0.45c-1.76,7.77 -10.34,7.65 -13.79,1.15Z" style="fill:#514d4e;fill-rule:nonzero;"/><path d="M356.43,91.31c-1.16,-3.05 -4.33,-4.51 -7.19,-3.22c-5.98,2.72 -4.47,14.09 2.77,13.42c2.533,-0.233 4.037,-1.78 4.51,-4.64c0.046,-0.261 0.276,-0.448 0.53,-0.43l0.68,0.04c0.005,0 0.01,0.001 0.016,0.001c0.223,0.023 0.389,0.222 0.366,0.44c-0,0.007 -0.001,0.013 -0.002,0.019c-0.72,5.04 -6.23,7.52 -10.28,5.01c-6.26,-3.89 -4.74,-15.05 3.16,-15.61c3.14,-0.227 5.407,1.163 6.8,4.17c0.207,0.447 0.087,0.777 -0.36,0.99l-0.25,0.11c-0.004,0.002 -0.009,0.004 -0.013,0.006c-0.283,0.119 -0.613,-0.011 -0.73,-0.289c-0.003,-0.006 -0.005,-0.011 -0.007,-0.017Z" style="fill:#514d4e;fill-rule:nonzero;"/><path d="M71.52,92.29l-1.02,0c-0.24,0 -0.373,-0.123 -0.4,-0.37l-0.04,-0.41c-0.033,-0.327 0.113,-0.49 0.44,-0.49l1,0c0.34,0 0.513,-0.167 0.52,-0.5c0.04,-2.4 0.73,-4.52 3.73,-3.74c0.34,0.087 0.477,0.3 0.41,0.64c-0.033,0.153 -0.173,0.28 -0.42,0.38c-0.173,0.073 -0.353,0.12 -0.54,0.14l-0.95,0.12c-0.381,0.051 -0.675,0.367 -0.7,0.75l-0.11,1.65c-0.027,0.373 0.143,0.563 0.51,0.57l1.46,0.01c0.27,0.005 0.49,0.229 0.49,0.5c0,0.108 -0.035,0.213 -0.1,0.3c-0.34,0.447 -0.817,0.597 -1.43,0.45c-0.587,-0.147 -0.88,0.083 -0.88,0.69l0.01,9.03c0,0.327 -0.167,0.493 -0.5,0.5l-0.51,0c-0.333,0 -0.5,-0.17 -0.5,-0.51l0.02,-9.22c0,-0.327 -0.163,-0.49 -0.49,-0.49Z" style="fill:#514d4e;fill-rule:nonzero;"/><path d="M173.901,89.049c-0.488,-0.02 -0.867,-0.586 -0.84,-1.255c-0,0 -0,0 -0,0c0.027,-0.668 0.45,-1.203 0.938,-1.183c-0,-0 -0,-0 0,0c0.488,0.02 0.867,0.586 0.84,1.255c0,-0 0,-0 0,-0c-0.027,0.668 -0.45,1.203 -0.938,1.183c0,0 0,0 0,0Z" style="fill:#525346;fill-rule:nonzero;"/><path d="M475.1,101.5l1.27,-0.05c1.902,-0.064 3.431,-1.652 3.43,-3.56l0.02,-10.67c-0,-0.261 0.209,-0.479 0.47,-0.49l0.48,-0.02c0.453,-0.013 0.677,0.203 0.67,0.65c-0.06,5.41 2.25,15.84 -6.7,15.41c-4.72,-0.23 -5.7,-3.21 -5.75,-7.54c-0.02,-2.58 -0.01,-5.2 0.03,-7.86c0.013,-0.547 0.29,-0.8 0.83,-0.76l0.34,0.02c0.23,0.016 0.411,0.21 0.41,0.44l-0.03,10.04c-0.007,3.033 1.503,4.497 4.53,4.39Z" style="fill:#525346;fill-rule:nonzero;"/><path d="M104.94,102.04c0,0.263 -0.217,0.48 -0.48,0.48l-0.68,0c-0.263,-0 -0.48,-0.217 -0.48,-0.48l0,-14.84c0,-0.263 0.217,-0.48 0.48,-0.48l0.68,0c0.263,0 0.48,0.217 0.48,0.48l0,14.84Z" style="fill:#525346;fill-rule:nonzero;"/><path d="M240.15,101.18c-0.69,0.44 -1.17,1.09 -1.96,1.35c-9.32,3.09 -8.85,-15.08 0.25,-11.41c0.61,0.25 1.08,0.86 1.7,1.25c0.327,0.207 0.483,0.117 0.47,-0.27l-0.14,-4.98c-0.007,-0.287 0.133,-0.427 0.42,-0.42l0.62,0.03c0.347,0.013 0.52,0.193 0.52,0.54l-0.02,14.84c0,0.205 -0.161,0.375 -0.36,0.38l-0.65,0.03c-0.002,0 -0.003,0 -0.005,0c-0.148,0.003 -0.272,-0.112 -0.275,-0.255c0,-0.001 -0,-0.003 0,-0.005l-0.01,-0.78c-0.007,-0.427 -0.193,-0.527 -0.56,-0.3Zm-3.481,0.49c-0,-0 -0,-0 -0,-0c2.15,-0.004 3.916,-2.214 3.911,-4.897c-0,0 -0,0 -0,0c-0.005,-2.682 -1.778,-4.887 -3.928,-4.883c-0.001,0 -0.001,0 -0.001,0c-2.15,0.004 -3.916,2.214 -3.911,4.897c0,-0 0,-0 0,-0c0.005,2.682 1.778,4.887 3.929,4.883Z" style="fill:#525346;fill-rule:nonzero;"/><path d="M261.27,94.41c4.22,1.87 2.68,7.33 -1.59,8c-1.54,0.24 -4.207,0.243 -8,0.01c-0.287,-0.02 -0.43,-0.17 -0.43,-0.45l0,-14.7c0,-0.333 0.167,-0.507 0.5,-0.52c1.78,-0.067 4.027,-0.073 6.74,-0.02c4.21,0.08 6.66,4.38 2.73,7.09c-0.333,0.227 -0.317,0.423 0.05,0.59Zm-8.5,-5.85l-0,4.5c0,0.296 0.244,0.54 0.54,0.54l4.92,0c1.81,-0 3.3,-1.16 3.3,-2.57l-0,-0.44c-0,-1.41 -1.49,-2.57 -3.3,-2.57l-4.92,-0c-0.296,-0 -0.54,0.244 -0.54,0.54Zm-0.01,6.73l0.02,5.58c-0,0.165 0.135,0.3 0.3,0.3l5.64,-0.02c1.898,-0.007 3.456,-1.339 3.45,-2.952c0,-0.003 0,-0.005 0,-0.008l-0,-0.3c-0.011,-1.61 -1.576,-2.927 -3.47,-2.92l-5.64,0.02c-0.165,-0 -0.3,0.135 -0.3,0.3Z" style="fill:#525346;fill-rule:nonzero;"/><path d="M288.65,87.75c0.02,-0.207 0.053,-0.417 0.1,-0.63c0.057,-0.244 0.279,-0.416 0.53,-0.41l0.46,0.02c0.333,0.013 0.503,0.187 0.51,0.52l0.02,1.05c0,0.096 -0.017,0.191 -0.05,0.28c-0.151,0.401 -0.6,0.608 -0.996,0.459c-0.09,-0.033 -0.173,-0.084 -0.244,-0.149c-0.267,-0.24 -0.377,-0.62 -0.33,-1.14Z" style="fill:#514d4e;fill-rule:nonzero;"/><path d="M397.692,89.079l-0.001,-0c-0.465,0.019 -0.872,-0.519 -0.9,-1.193c-0.029,-0.675 0.332,-1.245 0.797,-1.265l0.001,0c0.465,-0.019 0.872,0.519 0.9,1.193c0.029,0.675 -0.332,1.245 -0.797,1.265Z" style="fill:#525346;fill-rule:nonzero;"/><path d="M460.25,88.03l-4.95,-0.01c-0.155,0 -0.285,-0.125 -0.29,-0.28l-0.03,-0.74c-0,-0.003 -0,-0.007 -0,-0.01c-0,-0.159 0.131,-0.29 0.29,-0.29l12.13,0c0.001,-0 0.002,-0 0.003,-0c0.159,-0 0.29,0.131 0.29,0.29c-0,0.013 -0.001,0.027 -0.003,0.04l-0.11,0.74c-0.02,0.144 -0.145,0.251 -0.29,0.25l-4.89,0.01c-0.159,0 -0.29,0.131 -0.29,0.29l0.03,13.9c0,0.159 -0.131,0.29 -0.29,0.29l-1.04,0.01c-0.159,-0 -0.29,-0.131 -0.29,-0.29l0.02,-13.91c0,-0.159 -0.131,-0.29 -0.29,-0.29Z" style="fill:#525346;fill-rule:nonzero;"/><path d="M500,87.11l0,15.14c-0.6,0.353 -1.05,0.427 -1.35,0.22c-0.213,-0.14 -0.323,-0.477 -0.33,-1.01c-0.027,-3.667 0.003,-7.237 0.09,-10.71c0.04,-1.553 -0.223,-1.607 -0.79,-0.16l-4.15,10.56c-0.847,2.16 -1.697,2.163 -2.55,0.01l-4.29,-10.77c-0.427,-1.067 -0.637,-1.027 -0.63,0.12l0.06,11.47c-0,0.287 -0.238,0.525 -0.53,0.53l-0.54,0c-0.347,0.007 -0.52,-0.163 -0.52,-0.51l0.01,-14.62c0,-0.357 0.293,-0.65 0.65,-0.65l0.82,0c0.527,0.007 0.883,0.25 1.07,0.73l4.78,12.03c0.267,0.667 0.53,0.667 0.79,0l4.73,-12.03c0.133,-0.333 0.37,-0.557 0.71,-0.67c0.713,-0.233 1.37,-0.127 1.97,0.32Z" style="fill:#525346;fill-rule:nonzero;"/><path d="M42.29,91.06l1.54,-0.04c0.24,-0.007 0.357,0.11 0.35,0.35l-0.02,0.57c0,0.227 -0.113,0.34 -0.34,0.34l-1.51,-0.01c-0.32,0 -0.483,0.16 -0.49,0.48c-0.047,2.187 -0.043,4.367 0.01,6.54c0.04,1.447 0.65,2.19 1.83,2.23c0.3,0.007 0.49,0.157 0.57,0.45c0.06,0.207 -0.013,0.347 -0.22,0.42c-2.83,0.99 -3.68,-0.53 -3.67,-3.08c0.013,-2.173 0.023,-4.333 0.03,-6.48c0,-0.393 -0.197,-0.577 -0.59,-0.55l-0.83,0.04c-0.353,0.027 -0.547,-0.137 -0.58,-0.49l-0.04,-0.35c-0.001,-0.013 -0.002,-0.027 -0.002,-0.041c0,-0.235 0.194,-0.43 0.43,-0.43c0.007,0 0.015,0.001 0.022,0.001l1,0.05c0.407,0.02 0.603,-0.173 0.59,-0.58l-0.06,-2.18c-0.007,-0.407 0.19,-0.64 0.59,-0.7l0.37,-0.05c0.013,-0.002 0.027,-0.003 0.04,-0.004c0.263,-0.016 0.493,0.191 0.509,0.46c0.001,0.011 0.001,0.023 0.001,0.034l-0.04,2.51c0,0.347 0.17,0.517 0.51,0.51Z" style="fill:#525346;fill-rule:nonzero;"/><path d="M166.76,92.29l-0.94,0.03c-0.213,0.012 -0.405,-0.144 -0.44,-0.36l-0.06,-0.45c-0.047,-0.333 0.097,-0.497 0.43,-0.49l0.83,0.01c0.042,0.001 0.084,-0.002 0.125,-0.007c0.43,-0.061 0.732,-0.468 0.671,-0.903c-0.005,-0.04 -0.014,-0.081 -0.026,-0.12c-0.293,-0.96 -0.147,-1.787 0.44,-2.48c0.106,-0.127 0.264,-0.201 0.43,-0.201c0.307,-0 0.56,0.253 0.56,0.56c0,0 0,0.001 0,0.001l0.02,2.69c0,0.34 0.17,0.503 0.51,0.49l1.24,-0.05c0.387,-0.013 0.58,0.17 0.58,0.55l-0,0.34c-0,0.26 -0.13,0.387 -0.39,0.38l-1.45,-0.01c-0.313,0 -0.473,0.157 -0.48,0.47c-0.047,2.367 -0.043,4.713 0.01,7.04c0.027,1.18 0.603,1.717 1.73,1.61c0.233,-0.027 0.4,0.067 0.5,0.28l0.13,0.29c0.025,0.053 0.037,0.11 0.037,0.169c0,0.188 -0.133,0.352 -0.317,0.391c-2.427,0.527 -3.617,-0.39 -3.57,-2.75c0.053,-2.333 0.033,-4.667 -0.06,-7c-0.013,-0.333 -0.183,-0.493 -0.51,-0.48Z" style="fill:#525346;fill-rule:nonzero;"/><path d="M390.5,92.3l-0.98,-0.01c-0.272,-0.005 -0.495,-0.228 -0.5,-0.5l0,-0.31c-0.007,-0.293 0.137,-0.443 0.43,-0.45l1.06,0c0.353,-0.007 0.527,-0.187 0.52,-0.54l-0.07,-2.25c-0.013,-0.367 0.163,-0.563 0.53,-0.59l0.42,-0.04c0.4,-0.033 0.597,0.153 0.59,0.56l-0.02,2.38c0,0.373 0.187,0.55 0.56,0.53l1.19,-0.08c0.32,-0.02 0.483,0.127 0.49,0.44l0.01,0.4c0.013,0.333 -0.147,0.493 -0.48,0.48l-1.24,-0.06c-0.347,-0.02 -0.52,0.143 -0.52,0.49l0,7.87c0.001,0.35 0.26,0.652 0.61,0.71l1.44,0.22c0.147,0.027 0.24,0.11 0.28,0.25l0.08,0.27c0.08,0.287 -0.023,0.453 -0.31,0.5c-5.29,0.86 -3.51,-6.05 -3.64,-9.83c-0.013,-0.287 -0.163,-0.433 -0.45,-0.44Z" style="fill:#525346;fill-rule:nonzero;"/><path d="M445.8,92.75c-0.067,2.42 -0.053,4.847 0.04,7.28c0.04,1.087 0.64,1.583 1.8,1.49c0.327,-0.027 0.517,0.123 0.57,0.45c0.027,0.12 0.007,0.227 -0.06,0.32c-0.06,0.087 -0.163,0.15 -0.31,0.19c-5.12,1.57 -3.55,-7 -3.54,-9.63c0.007,-0.387 -0.183,-0.573 -0.57,-0.56l-0.84,0.02c-0.281,0.007 -0.524,-0.201 -0.56,-0.48l-0.04,-0.32c-0.002,-0.013 -0.003,-0.026 -0.004,-0.039c-0.011,-0.241 0.183,-0.449 0.429,-0.461c0.012,-0 0.023,-0 0.035,0l1,0.05c0.38,0.013 0.567,-0.17 0.56,-0.55l-0.06,-2.22c-0.013,-0.447 0.203,-0.68 0.65,-0.7l0.4,-0.02c0.01,-0.001 0.02,-0.001 0.03,-0.001c0.258,0 0.47,0.212 0.47,0.47c0,0 0,0.001 0,0.001l-0.04,2.5c-0.007,0.36 0.167,0.533 0.52,0.52l1.44,-0.03c0.267,-0.007 0.4,0.123 0.4,0.39l0.01,0.47c-0,0.205 -0.17,0.375 -0.38,0.38l-1.48,0.01c-0.307,0 -0.463,0.157 -0.47,0.47Z" style="fill:#525346;fill-rule:nonzero;"/><path d="M17.7,97.19c-0.553,0.002 -1.006,0.457 -1.006,1.01c-0,0.149 0.033,0.295 0.096,0.43c1.84,3.81 5.48,4.12 7.37,0.33c0.134,-0.263 0.431,-0.404 0.72,-0.34l0.34,0.07c0.233,0.053 0.313,0.193 0.24,0.42c-0.9,2.893 -2.807,4.13 -5.72,3.71c-5.91,-0.86 -6.07,-11 -0.01,-12.05c2.94,-0.51 6,2.11 5.81,5.18c-0.053,0.853 -0.507,1.277 -1.36,1.27l-6.48,-0.03Zm-0.42,-1.16l6.36,-0.08c0.232,-0.005 0.42,-0.198 0.42,-0.43c0,-0.003 0,-0.007 0,-0.01l0,-0.12c-0.027,-1.881 -1.615,-3.407 -3.518,-3.38c-0,-0 -0.001,-0 -0.002,0l-0.28,0c-1.903,0.028 -3.446,1.597 -3.42,3.478c-0,0.001 -0,0.001 0,0.002l0,0.12c0.005,0.232 0.198,0.42 0.43,0.42c0.003,0 0.007,0 0.01,0Z" style="fill:#514d4e;fill-rule:nonzero;"/><path d="M29.55,92.05c2.68,-2.65 7.11,-1.49 7.22,2.72c0.067,2.48 0.08,4.907 0.04,7.28c-0.007,0.347 -0.183,0.517 -0.53,0.51l-0.29,0c-0.332,-0.011 -0.6,-0.283 -0.6,-0.61l-0.04,-7.66c-0.005,-1.261 -1.052,-2.294 -2.318,-2.29c-0.001,-0 -0.001,-0 -0.002,0l-0.94,0.01c-2.093,0.007 -3.137,1.06 -3.13,3.16l0.02,6.84c-0,0.327 -0.16,0.493 -0.48,0.5l-0.49,0.02c-0.353,0.013 -0.53,-0.157 -0.53,-0.51l0.01,-10.47c-0,-0.353 0.177,-0.553 0.53,-0.6c0.127,-0.02 0.253,0.007 0.38,0.08c0.113,0.06 0.213,0.173 0.3,0.34c0.087,0.173 0.173,0.363 0.26,0.57c0.14,0.32 0.337,0.357 0.59,0.11Z" style="fill:#514d4e;fill-rule:nonzero;"/><path d="M48.24,97.18c-0.003,-0 -0.006,-0 -0.009,-0c-0.636,-0 -1.16,0.524 -1.16,1.16c0,0.192 0.048,0.381 0.139,0.55c1.87,3.5 5.46,3.8 7.18,0.13c0.115,-0.245 0.369,-0.391 0.63,-0.36l0.39,0.04c0.327,0.04 0.447,0.217 0.36,0.53c-1.47,5.26 -8.45,4.68 -9.94,-0.49c-1.12,-3.89 1.16,-8.48 5.85,-7.97c1.592,0.171 2.964,1.208 3.56,2.69l0.55,1.37c0.647,1.613 0.103,2.413 -1.63,2.4l-5.92,-0.05Zm-0.71,-1.19l6.58,-0.04c0.154,0 0.28,-0.126 0.28,-0.28l-0,-0.18c-0.011,-1.897 -1.603,-3.45 -3.528,-3.44l-0.122,0c-1.925,0.011 -3.501,1.582 -3.49,3.48l-0,0.18c-0,0.154 0.126,0.28 0.28,0.28Z" style="fill:#525346;fill-rule:nonzero;"/><path d="M81.989,102.91l-0,-0c-3.023,-0.011 -5.501,-2.786 -5.489,-6.149l0,-0c0.012,-3.363 2.509,-6.122 5.531,-6.111l0,0c3.023,0.011 5.501,2.786 5.489,6.149l-0,0c-0.012,3.363 -2.509,6.122 -5.531,6.111Zm0.021,-1.28c2.211,0 4.03,-2.189 4.03,-4.85c0,-2.661 -1.819,-4.85 -4.03,-4.85c-2.211,0 -4.03,2.189 -4.03,4.85c0,2.661 1.819,4.85 4.03,4.85Z" style="fill:#525346;fill-rule:nonzero;"/><path d="M109.81,92.11c2.17,-1.12 4.31,-2.51 6.41,-0.31c1.77,1.86 1.1,7.68 1.08,10.23c0,0.333 -0.163,0.497 -0.49,0.49l-0.51,-0.01c-0.247,0 -0.45,-0.203 -0.45,-0.45l-0.03,-7.91c0,-0 0,-0 0,-0c0,-1.18 -0.971,-2.15 -2.15,-2.15c-0.007,-0 -0.013,-0 -0.02,0l-0.94,0.01c-1.797,0.011 -3.27,1.493 -3.27,3.29l0,6.74c0,0.313 -0.157,0.47 -0.47,0.47l-0.49,0c-0.347,0 -0.52,-0.173 -0.52,-0.52l0.01,-10.47c-0,-0.327 0.163,-0.493 0.49,-0.5c0.113,0 0.227,0.003 0.34,0.01c0.333,0.02 0.517,0.193 0.55,0.52l0.03,0.32c0.027,0.293 0.17,0.373 0.43,0.24Z" style="fill:#525346;fill-rule:nonzero;"/><path d="M121.89,92.26c2.57,-2.85 7.4,-1.88 7.45,2.49c0.027,2.513 0.043,4.96 0.05,7.34c-0,0.28 -0.137,0.42 -0.41,0.42l-0.5,0.01c-0.347,0 -0.523,-0.177 -0.53,-0.53l-0.06,-7.81c-0.011,-1.203 -1.007,-2.186 -2.21,-2.18l-0.95,0.01c-1.781,0.011 -3.24,1.484 -3.24,3.27l0.01,6.73c-0,0.274 -0.226,0.5 -0.5,0.5l-0.51,0c-0.34,0 -0.51,-0.17 -0.51,-0.51l0.02,-10.48c-0,-0.333 0.163,-0.497 0.49,-0.49l0.44,0c0.018,0 0.036,0.001 0.054,0.003c0.289,0.029 0.504,0.287 0.475,0.571c-0.002,0.019 -0.005,0.037 -0.009,0.056c-0.033,0.193 -0.007,0.377 0.08,0.55c0.037,0.075 0.114,0.122 0.197,0.122c0.062,0 0.121,-0.026 0.163,-0.072Z" style="fill:#525346;fill-rule:nonzero;"/><path d="M136.961,102.91l-0,0c-3.023,0.005 -5.515,-2.758 -5.521,-6.12c0,-0 0,-0 -0,-0c-0.006,-3.363 2.477,-6.135 5.499,-6.14l0,-0c3.023,-0.005 5.515,2.758 5.521,6.12c-0,0 -0,0 0,0c0.006,3.363 -2.477,6.135 -5.499,6.14Zm-0.02,-1.27c0.001,0 0.001,0 0.001,0c2.21,0.004 4.033,-2.187 4.038,-4.853c-0,0 -0,0 -0,0c0.005,-2.666 -1.811,-4.863 -4.022,-4.867c0,-0 0,-0 0,-0c-2.21,-0.004 -4.033,2.187 -4.038,4.853c0,-0 0,-0 0,0c-0.005,2.666 1.811,4.863 4.021,4.867Z" style="fill:#525346;fill-rule:nonzero;"/><path d="M161.75,101.27c-5.16,5.44 -11.22,-3.53 -4.74,-4.98c0.707,-0.153 2.193,-0.39 4.46,-0.71c0.32,-0.047 0.523,-0.223 0.61,-0.53c1.1,-3.76 -4.88,-4.18 -5.8,-1.03c-0.12,0.407 -0.39,0.603 -0.81,0.59l-0.3,-0.01c-0.012,-0 -0.023,-0.001 -0.035,-0.002c-0.229,-0.026 -0.396,-0.239 -0.37,-0.474c0.001,-0.011 0.003,-0.023 0.005,-0.034c0.79,-3.75 6.39,-4.67 8.29,-1.73c1.12,1.73 0.61,5.36 0.61,7.67c0,0.38 0.14,0.7 0.42,0.96l0.74,0.69c0.453,0.413 0.377,0.68 -0.23,0.8c-1.027,0.207 -1.73,-0.153 -2.11,-1.08c-0.173,-0.427 -0.42,-0.47 -0.74,-0.13Zm-0.01,-4.52c-1.72,0.07 -6.49,0.34 -5.95,3.12c0.194,0.964 1.032,1.672 2.01,1.7c3.007,0.087 4.503,-1.347 4.49,-4.3c0,-0.36 -0.183,-0.533 -0.55,-0.52Z" style="fill:#525346;fill-rule:nonzero;"/><path d="M182.268,102.89c-3.028,-0.016 -5.505,-2.787 -5.488,-6.139c0.018,-3.352 2.524,-6.097 5.552,-6.081c3.028,0.016 5.505,2.787 5.488,6.139c-0.018,3.352 -2.524,6.097 -5.552,6.081Zm0.007,-1.25c2.21,0.011 4.041,-2.168 4.055,-4.829c0.014,-2.66 -1.794,-4.859 -4.005,-4.871c-2.21,-0.011 -4.041,2.168 -4.055,4.829c-0.014,2.66 1.794,4.859 4.005,4.871Z" style="fill:#525346;fill-rule:nonzero;"/><path d="M191.59,92.33c2.5,-2.44 7.45,-2.27 7.57,1.93c0.073,2.713 0.093,5.37 0.06,7.97c0,0.173 -0.09,0.263 -0.27,0.27l-0.94,0.01c-0.167,0.007 -0.25,-0.073 -0.25,-0.24l-0.03,-8.03c-0,-0.003 -0,-0.006 -0,-0.01c-0.011,-1.234 -1.031,-2.241 -2.26,-2.23c-0.003,-0 -0.007,-0 -0.01,0l-0.84,0.01c-1.839,0.022 -3.34,1.541 -3.34,3.38l0,6.6c0,0.347 -0.173,0.52 -0.52,0.52l-0.48,0c-0.252,0 -0.46,-0.212 -0.46,-0.47l0.01,-10.38c0,-0.407 0.2,-0.627 0.6,-0.66c0.193,-0.02 0.373,0.04 0.54,0.18c0.042,0.11 0.161,0.452 0.29,0.83c0.027,0.08 0.053,0.163 0.08,0.25c0.017,0.066 0.077,0.113 0.145,0.113c0.039,-0 0.077,-0.016 0.105,-0.043Z" style="fill:#525346;fill-rule:nonzero;"/><path d="M215.19,101.27c-0.82,0.6 -1.35,1.14 -2.32,1.4c-2.87,0.78 -6.25,-1 -5.13,-4.29c0.84,-2.45 4.54,-2.47 6.67,-2.72c0.684,-0.078 1.206,-0.663 1.206,-1.351c0,-0.153 -0.026,-0.305 -0.076,-0.449c-1.01,-2.86 -5.2,-2.46 -5.97,0.18c-0.109,0.371 -0.476,0.61 -0.86,0.56l-0.4,-0.05c-0.327,-0.047 -0.437,-0.227 -0.33,-0.54c0.94,-2.78 3.07,-3.79 6.39,-3.03c3.78,0.87 2.63,6.44 2.62,9.17c-0.007,0.353 0.12,0.647 0.38,0.88l0.7,0.64c0.407,0.38 0.343,0.64 -0.19,0.78c-1.053,0.287 -1.743,-0.04 -2.07,-0.98c-0.12,-0.34 -0.327,-0.407 -0.62,-0.2Zm-0.15,-4.5c-1.27,-0.17 -3.92,0.46 -5.04,1.06c-0.136,0.073 -0.262,0.162 -0.376,0.266c-0.762,0.696 -0.813,1.898 -0.114,2.664c0.104,0.114 0.222,0.215 0.35,0.3c2.64,1.75 5.99,-0.63 5.68,-3.77c-0.027,-0.3 -0.193,-0.473 -0.5,-0.52Z" style="fill:#525346;fill-rule:nonzero;"/><path d="M221.79,92.04c0.68,-0.43 1.2,-0.97 2,-1.15c7.14,-1.62 5.32,7.46 5.4,11.19c0.007,0.287 -0.133,0.43 -0.42,0.43l-0.52,0.01c-0.333,0 -0.503,-0.17 -0.51,-0.51l-0.06,-7.82c-0.011,-1.205 -1.005,-2.19 -2.21,-2.19c-0.01,-0 -0.02,-0 -0.03,0l-0.96,0.01c-1.779,0.022 -3.23,1.491 -3.23,3.27l0,6.74c0,0.34 -0.17,0.507 -0.51,0.5l-0.48,-0.01c-0.261,-0.005 -0.475,-0.223 -0.48,-0.49l-0.02,-10.49c0,-0.318 0.262,-0.579 0.58,-0.579c0.072,-0 0.143,0.013 0.21,0.039c0.373,0.14 0.6,0.41 0.68,0.81c0.073,0.347 0.26,0.427 0.56,0.24Z" style="fill:#525346;fill-rule:nonzero;"/><path d="M279.53,92.87c-0.088,0.091 -0.163,0.192 -0.226,0.301c-0.409,0.721 -0.149,1.652 0.576,2.064c0.11,0.063 0.228,0.111 0.35,0.145c2.7,0.74 8.95,1.55 5.58,6.16c-0.533,0.72 -1.457,1.177 -2.77,1.37c-2.72,0.4 -4.637,-0.673 -5.75,-3.22c-0.153,-0.367 -0.063,-0.653 0.27,-0.86l0.31,-0.21c0.072,-0.046 0.156,-0.071 0.242,-0.071c0.194,0 0.368,0.126 0.428,0.311c1.01,3.02 5.96,4 6.62,0.87c0.025,-0.119 0.038,-0.239 0.038,-0.361c-0,-0.882 -0.671,-1.632 -1.548,-1.729c-1.98,-0.22 -5.27,-0.87 -5.91,-3.11c-1.24,-4.35 8.23,-5.52 8.48,-0.53c0.02,0.34 -0.143,0.503 -0.49,0.49l-0.44,-0.01c-0.307,-0.013 -0.487,-0.173 -0.54,-0.48c-0.39,-2.41 -3.89,-2.53 -5.22,-1.13Z" style="fill:#525346;fill-rule:nonzero;"/><path d="M294.63,92.23c3.48,-2.62 7.47,-2.06 7.6,2.94c0.067,2.36 0.07,4.67 0.01,6.93c-0.007,0.28 -0.15,0.417 -0.43,0.41l-0.53,0c-0.313,0 -0.47,-0.157 -0.47,-0.47l-0.02,-7.79c-0,-0.003 -0,-0.007 -0,-0.01c-0.011,-1.24 -1.044,-2.251 -2.29,-2.24c-0.003,-0 -0.007,-0 -0.01,0l-0.84,0.01c-2.2,0.027 -3.297,1.143 -3.29,3.35l0.01,6.77c0,0.253 -0.123,0.38 -0.37,0.38l-0.73,0c-0.233,0 -0.35,-0.117 -0.35,-0.35l0.02,-10.64c0,-0.333 0.167,-0.5 0.5,-0.5c0.127,0 0.247,0.007 0.36,0.02c0.313,0.027 0.47,0.197 0.47,0.51l0,0.5c0,0.3 0.12,0.36 0.36,0.18Z" style="fill:#525346;fill-rule:nonzero;"/><path d="M305.99,97.73c0.17,4.56 5.54,5.28 7.34,1.13c0.001,-0.003 0.003,-0.006 0.004,-0.009c0.127,-0.274 0.46,-0.393 0.739,-0.264c0.002,0.001 0.005,0.002 0.007,0.003l0.22,0.11c0.193,0.093 0.263,0.24 0.21,0.44c-1.52,5.57 -9.12,4.66 -10.06,-0.87c-1.51,-9.01 10.31,-10.38 10.22,-1.73c-0.007,0.4 -0.207,0.6 -0.6,0.6l-7.6,0.09c-0.327,0.007 -0.487,0.173 -0.48,0.5Zm0.31,-1.72l6.56,-0.04c0.176,0 0.32,-0.144 0.32,-0.32l0,-0.2c-0.011,-1.886 -1.594,-3.43 -3.508,-3.42c-0.001,-0 -0.001,-0 -0.002,0l-0.22,0c-1.914,0.011 -3.481,1.573 -3.47,3.46l0,0.2c0,0.176 0.144,0.32 0.32,0.32Z" style="fill:#525346;fill-rule:nonzero;"/><path d="M323.1,98.07c-0.405,-0.314 -0.89,-0.511 -1.4,-0.57c-1.6,-0.193 -3.087,-0.703 -4.46,-1.53c-0.289,-0.174 -0.503,-0.449 -0.6,-0.77c-1.58,-4.94 6.26,-6.23 8.24,-1.73c0.159,0.357 0.008,0.782 -0.34,0.96l-0.3,0.16c-0.058,0.03 -0.122,0.046 -0.187,0.046c-0.165,0 -0.314,-0.102 -0.373,-0.256c-0.97,-2.54 -4.06,-3.48 -5.55,-1.34c-0.056,0.08 -0.105,0.166 -0.145,0.255c-0.347,0.776 0.01,1.702 0.792,2.052c0.088,0.039 0.179,0.07 0.273,0.093c1.87,0.45 4.6,0.8 5.7,2.2c1.13,1.44 0.63,3.42 -0.96,4.36c-2.467,1.453 -5.223,0.983 -8.27,-1.41c-0.253,-0.197 -0.402,-0.5 -0.402,-0.821c0,-0.492 0.35,-0.92 0.832,-1.019c0.46,-0.093 0.727,-0.133 0.8,-0.12c0.29,0.061 0.51,0.2 0.57,0.36c1.16,2.85 3.75,3.58 6.09,1.4c0.807,-0.747 0.703,-1.52 -0.31,-2.32Z" style="fill:#525346;fill-rule:nonzero;"/><path d="M329.13,92.79c-0.291,0.295 -0.454,0.694 -0.454,1.108c0,0.721 0.494,1.356 1.194,1.532c1.89,0.48 4.46,0.8 5.64,2.16c1.36,1.58 0.61,3.61 -1.14,4.55c-2.607,1.393 -5.237,0.823 -7.89,-1.71c-0.185,-0.179 -0.289,-0.425 -0.289,-0.682c-0,-0.416 0.272,-0.785 0.669,-0.908c0.327,-0.107 0.6,-0.13 0.82,-0.07c0.26,0.06 0.437,0.217 0.53,0.47c0.94,2.47 5.25,3.54 6.37,0.81c0.01,-0.025 0.02,-0.051 0.029,-0.077c0.294,-0.844 -0.163,-1.783 -1.013,-2.079c-0.025,-0.008 -0.05,-0.016 -0.076,-0.024c-2.13,-0.62 -6.93,-1.08 -6.28,-4.34c0.79,-3.95 7.8,-3.78 8.51,0.42c0.035,0.209 -0.091,0.413 -0.29,0.47l-0.29,0.08c-0.314,0.094 -0.654,-0.071 -0.78,-0.38c-0.88,-2.25 -3.64,-2.98 -5.26,-1.33Z" style="fill:#525346;fill-rule:nonzero;"/><path d="M368.97,97.22c-0.646,0.002 -1.176,0.534 -1.176,1.18c-0,0.219 0.061,0.434 0.176,0.62c2.1,3.41 5.06,3.49 7.19,0.25c0.94,-1.433 1.323,-1.297 1.15,0.41c-0.14,1.407 -1.2,2.33 -3.18,2.77c-3.633,0.8 -5.833,-0.51 -6.6,-3.93c-2.12,-9.43 10.7,-10.45 10.07,-1.96c-0.021,0.332 -0.302,0.596 -0.64,0.6l-6.99,0.06Zm-0.72,-1.2l6.6,-0.04c0,0 0,0 0,0c0.176,0 0.32,-0.144 0.32,-0.32c0,-0.003 0,-0.007 0,-0.01l0,-0.22c-0.016,-1.883 -1.595,-3.421 -3.5,-3.41l-0.28,0c-0.001,0 -0.003,0 -0.004,0c-1.909,0.013 -3.469,1.577 -3.456,3.464c-0,0.002 -0,0.004 0,0.006l0,0.22c0.005,0.172 0.148,0.31 0.32,0.31Z" style="fill:#525346;fill-rule:nonzero;"/><path d="M385.47,101.26c-0.63,0.47 -0.94,0.97 -1.7,1.25c-2.27,0.83 -5.2,0.28 -5.75,-2.44c-0.81,-3.98 4.44,-4.13 6.93,-4.48c0.3,-0.04 0.52,-0.193 0.66,-0.46c1.85,-3.53 -4.67,-4.22 -5.62,-1.54c-0.667,1.887 -1.19,1.85 -1.57,-0.11c-0.053,-0.28 0.327,-0.753 1.14,-1.42c1.84,-1.5 3.843,-1.793 6.01,-0.88c2.6,1.09 1.76,6.77 1.71,9.1c-0.013,0.393 0.167,0.657 0.54,0.79c0.333,0.12 0.587,0.333 0.76,0.64c0.22,0.393 0.11,0.647 -0.33,0.76c-1.013,0.253 -1.693,-0.08 -2.04,-1c-0.153,-0.4 -0.4,-0.47 -0.74,-0.21Zm-0.19,-4.61l-4.59,0.9c-0.142,0.027 -0.28,0.071 -0.411,0.132c-0.887,0.41 -1.277,1.48 -0.865,2.371c0.06,0.131 0.136,0.254 0.226,0.367c2.34,2.93 6.64,0.32 6.31,-3.27c-0.04,-0.413 -0.263,-0.58 -0.67,-0.5Z" style="fill:#525346;fill-rule:nonzero;"/><path d="M405.961,102.91l-0,0c-3.023,0.005 -5.515,-2.758 -5.521,-6.12c0,-0 0,-0 0,-0c-0.006,-3.363 2.477,-6.135 5.499,-6.14l0,-0c3.023,-0.005 5.515,2.758 5.521,6.12c-0,0 -0,0 -0,0c0.006,3.363 -2.477,6.135 -5.499,6.14Zm-0.001,-1.27c2.211,0 4.03,-2.194 4.03,-4.86c0,-2.666 -1.819,-4.86 -4.03,-4.86c-2.211,-0 -4.03,2.194 -4.03,4.86c0,2.666 1.819,4.86 4.03,4.86Z" style="fill:#525346;fill-rule:nonzero;"/><path d="M415.6,92c0.63,-0.32 1,-0.84 1.71,-1.05c7.14,-2.11 5.66,7.38 5.64,10.98c0,0.325 -0.265,0.595 -0.59,0.6l-0.38,0.01c-0.276,0 -0.505,-0.224 -0.51,-0.5l-0.06,-7.73c-0.011,-1.271 -1.059,-2.31 -2.33,-2.31c-0.007,-0 -0.013,-0 -0.02,0l-0.81,0.01c-2.153,0.013 -3.23,1.097 -3.23,3.25l-0,6.74c-0,0.333 -0.17,0.503 -0.51,0.51l-0.5,0.01c-0.333,0 -0.5,-0.167 -0.5,-0.5l0.02,-10.51c0,-0.022 0.002,-0.045 0.005,-0.067c0.043,-0.31 0.329,-0.53 0.633,-0.488c0.025,0.004 0.048,0.008 0.072,0.015c0.413,0.107 0.663,0.353 0.75,0.74c0.08,0.353 0.283,0.45 0.61,0.29Z" style="fill:#525346;fill-rule:nonzero;"/><path d="M438.73,101.29c-5.79,5.51 -11.34,-4.2 -4.11,-5.16c1.267,-0.167 2.54,-0.353 3.82,-0.56c0.293,-0.053 0.49,-0.22 0.59,-0.5c1.21,-3.57 -4.54,-4.47 -5.94,-0.8c-0.055,0.154 -0.193,0.269 -0.36,0.3l-0.53,0.07c-0.04,0.006 -0.08,0.009 -0.121,0.009c-0.428,0 -0.78,-0.352 -0.78,-0.78c0,-0.182 0.064,-0.359 0.181,-0.499c2.113,-2.54 4.56,-3.27 7.34,-2.19c2.65,1.03 1.82,6.58 1.77,8.93c-0.006,0.287 0.115,0.564 0.33,0.76l0.87,0.8c0.44,0.4 0.37,0.667 -0.21,0.8c-1.027,0.24 -1.733,-0.103 -2.12,-1.03c-0.173,-0.393 -0.417,-0.443 -0.73,-0.15Zm-0.11,-4.64l-4.61,0.9c-0.809,0.158 -1.398,0.874 -1.398,1.698c-0,0.122 0.013,0.243 0.038,0.362c0.84,3.86 6.71,1.96 6.59,-2.47c-0.013,-0.407 -0.22,-0.57 -0.62,-0.49Z" style="fill:#525346;fill-rule:nonzero;"/><path d="M59.86,92.7c0.773,-1.24 1.897,-1.827 3.37,-1.76c0.22,0.013 0.337,0.127 0.35,0.34l0.04,0.43c0.033,0.407 -0.153,0.63 -0.56,0.67c-4.95,0.5 -3.8,6.43 -3.74,9.74c0.007,0.26 -0.117,0.39 -0.37,0.39l-0.65,0c-0.3,0 -0.45,-0.15 -0.45,-0.45l0,-10.59c0,-0.287 0.147,-0.433 0.44,-0.44l0.47,-0.01c0.347,-0.007 0.507,0.16 0.48,0.5l-0.06,0.96c-0,0.006 -0,0.012 -0,0.019c-0,0.203 0.167,0.37 0.37,0.37c0.125,-0 0.242,-0.064 0.31,-0.169Z" style="fill:#525346;fill-rule:nonzero;"/><path d="M90.94,92.75c-0.001,0.01 -0.002,0.02 -0.002,0.03c-0,0.115 0.095,0.21 0.21,0.21c0.068,-0 0.133,-0.034 0.172,-0.09c0.8,-1.213 1.923,-1.877 3.37,-1.99c0.393,-0.027 0.59,0.157 0.59,0.55c0,0.12 -0.003,0.237 -0.01,0.35c-0.018,0.298 -0.253,0.541 -0.55,0.57c-4.85,0.47 -3.72,6.37 -3.64,9.61c0.007,0.347 -0.163,0.52 -0.51,0.52l-0.55,0c-0.32,0.007 -0.48,-0.153 -0.48,-0.48l0.03,-10.55c0.004,-0.299 0.251,-0.543 0.55,-0.543c0.151,0 0.296,0.063 0.4,0.173c0.4,0.433 0.54,0.98 0.42,1.64Z" style="fill:#525346;fill-rule:nonzero;"/><path d="M148.72,100.25l3.22,-9.05c0.043,-0.122 0.161,-0.203 0.29,-0.2l0.88,0.02c0,-0 0.001,-0 0.001,-0c0.164,-0 0.3,0.135 0.3,0.3c-0,0.038 -0.007,0.075 -0.021,0.11l-4.14,10.88c-0.041,0.115 -0.148,0.195 -0.27,0.2l-1.07,0.02c-0.127,0.005 -0.244,-0.072 -0.29,-0.19l-4.28,-10.93c-0.014,-0.035 -0.021,-0.072 -0.021,-0.11c0,-0.165 0.136,-0.3 0.3,-0.3l0.991,0c0.126,0.001 0.238,0.081 0.28,0.2l3.27,9.05c0.044,0.116 0.156,0.192 0.28,0.192c0.124,0 0.236,-0.076 0.28,-0.192Z" style="fill:#525346;fill-rule:nonzero;"/><path d="M174.72,101.99c-0,0.296 -0.244,0.54 -0.54,0.54l-0.42,0c-0.296,0 -0.54,-0.244 -0.54,-0.54l-0,-10.42c0,-0.296 0.244,-0.54 0.54,-0.54l0.42,0c0.296,0 0.54,0.244 0.54,0.54l0,10.42Z" style="fill:#525346;fill-rule:nonzero;"/><path d="M273.5,101.16c-1.69,1.8 -4.75,2.43 -6.48,0.66c-1.82,-1.85 -1.23,-7.95 -1.14,-10.42c0.007,-0.26 0.14,-0.387 0.4,-0.38l0.63,0.02c0.253,0 0.38,0.127 0.38,0.38l0.05,7.91c0.005,1.216 1.009,2.215 2.23,2.22l1.03,0c2.093,0 3.143,-1.047 3.15,-3.14l0.02,-6.91c0,-0.327 0.163,-0.487 0.49,-0.48l0.5,0c0.327,0.007 0.49,0.173 0.49,0.5l0,10.62c-0,0.221 -0.157,0.412 -0.37,0.45c-0.193,0.033 -0.377,0 -0.55,-0.1c-0.12,-0.073 -0.21,-0.183 -0.27,-0.33c-0.1,-0.24 -0.16,-0.527 -0.18,-0.86c-0.02,-0.34 -0.147,-0.387 -0.38,-0.14Z" style="fill:#525346;fill-rule:nonzero;"/><path d="M290.25,102.12c0,0.214 -0.176,0.39 -0.39,0.39l-0.72,0c-0.214,0 -0.39,-0.176 -0.39,-0.39l0,-10.7c0,-0.214 0.176,-0.39 0.39,-0.39l0.72,0c0.214,0 0.39,0.176 0.39,0.39l0,10.7Z" style="fill:#525346;fill-rule:nonzero;"/><path d="M362.27,92.56c0.867,-1.16 2.03,-1.693 3.49,-1.6c0.213,0.013 0.31,0.127 0.29,0.34l-0.04,0.41c-0.028,0.339 -0.302,0.614 -0.65,0.65c-4.79,0.48 -3.7,6.25 -3.62,9.45c0.013,0.467 -0.213,0.707 -0.68,0.72l-0.3,0.01c-0.36,0.013 -0.54,-0.16 -0.54,-0.52l0.01,-10.53c0,-0.202 0.143,-0.378 0.34,-0.42l0.39,-0.08c0.4,-0.087 0.597,0.073 0.59,0.48l-0.01,0.84c0,0.064 0.015,0.127 0.043,0.185c0.1,0.202 0.344,0.287 0.541,0.19c0.058,-0.029 0.108,-0.072 0.146,-0.125Z" style="fill:#525346;fill-rule:nonzero;"/><path d="M398.33,102.14c0,0.203 -0.167,0.37 -0.37,0.37l-0.7,0c-0.203,0 -0.37,-0.167 -0.37,-0.37l0,-10.74c0,-0.203 0.167,-0.37 0.37,-0.37l0.7,0c0.203,0 0.37,0.167 0.37,0.37l0,10.74Z" style="fill:#525346;fill-rule:nonzero;"/></g></svg>