<?xml version="1.0" encoding="UTF-8" standalone="no"?><!DOCTYPE svg PUBLIC "-//W3C//DTD SVG 1.1//EN" "http://www.w3.org/Graphics/SVG/1.1/DTD/svg11.dtd"><svg width="100%" height="100%" viewBox="0 0 1000 442" version="1.1" xmlns="http://www.w3.org/2000/svg" xmlns:xlink="http://www.w3.org/1999/xlink" xml:space="preserve" xmlns:serif="http://www.serif.com/" style="fill-rule:evenodd;clip-rule:evenodd;stroke-linejoin:round;stroke-miterlimit:2;"><path d="M158.003,55.006c2.606,-15.015 6.98,-29.824 10.846,-44.571c0.077,-0.285 0.261,-0.428 0.553,-0.428l10.935,-0c0.333,-0 0.542,0.161 0.625,0.482c3.919,14.693 8.177,29.449 10.765,44.445c0.036,0.185 0.075,0.185 0.116,0l10.132,-44.436c0.072,-0.327 0.274,-0.491 0.607,-0.491l11.364,-0c0.02,0 0.04,0.001 0.059,0.004c0.272,0.034 0.468,0.282 0.435,0.55c-0.003,0.021 -0.007,0.041 -0.012,0.062l-14.676,57.674c-0.065,0.268 -0.235,0.402 -0.508,0.402l-13.31,0c-0.339,0 -0.553,-0.167 -0.643,-0.5c-2.797,-10.706 -5.546,-21.403 -8.248,-32.091c-0.616,-2.446 -1.223,-6.266 -2.008,-9.346c-0.173,-0.666 -0.328,-0.661 -0.464,0.018c-2.794,14.015 -6.544,27.735 -10.105,41.571c-0.06,0.232 -0.212,0.348 -0.456,0.348l-13.363,0c-0.278,0 -0.525,-0.191 -0.598,-0.464l-14.72,-57.701c-0.089,-0.352 0.048,-0.527 0.411,-0.527l11.551,-0c0.292,-0 0.47,0.143 0.536,0.428l10.131,44.571c0.018,0.071 0.033,0.071 0.045,-0Z" style="fill:#0a6eb4;fill-rule:nonzero;"/><path d="M233.441,45.793l0,22.603c0,0.166 -0.137,0.303 -0.303,0.303l-11.89,0c-0.167,0 -0.304,-0.137 -0.304,-0.303l0,-58.086c0,-0.166 0.137,-0.303 0.304,-0.303l33.09,-0c0.167,-0 0.304,0.137 0.304,0.303l-0,9.659c-0,0.166 -0.137,0.303 -0.304,0.303l-20.593,0c-0.167,0 -0.304,0.137 -0.304,0.304l0,14.345c0,0.166 0.137,0.303 0.304,0.303l19.031,0c0.167,0 0.304,0.137 0.304,0.304l-0,9.658c-0,0.167 -0.137,0.304 -0.304,0.304l-19.031,-0c-0.167,-0 -0.304,0.137 -0.304,0.303Z" style="fill:#0a6eb4;fill-rule:nonzero;"/><path d="M276.289,48.159l-0,20.094c-0,0.297 -0.149,0.446 -0.447,0.446l-11.604,0c-0.298,0 -0.446,-0.149 -0.446,-0.446l-0,-58.005c-0,-0.123 0.1,-0.223 0.223,-0.223c7.272,-0.036 14.562,-0.033 21.87,0.009c1.083,0.012 2.785,0.285 5.106,0.821c7.974,1.845 12.333,6.841 13.077,14.988c1.03,11.372 -3.832,18.463 -14.586,21.272c-2.404,0.63 -6.62,0.803 -12.649,0.517c-0.363,-0.012 -0.544,0.164 -0.544,0.527Zm0.044,-27.717l-0.089,16.657c0,0.122 0.101,0.223 0.223,0.223l6.383,0.027c4.709,0.023 8.601,-3.386 8.623,-7.552l0.018,-1.91c0.021,-4.167 -3.837,-7.617 -8.548,-7.641c-0.001,-0 -0.003,-0 -0.004,-0l-6.382,-0.027c-0.123,-0 -0.224,0.101 -0.224,0.223Z" style="fill:#0a6eb4;fill-rule:nonzero;"/><path d="M66.398,120.928c5.946,-21.057 21.103,-41.937 44.606,-44.65c0.953,-0.113 1.845,-0.075 2.678,0.116c0.062,0.012 0.12,0.037 0.172,0.072c0.214,0.147 0.268,0.447 0.118,0.665c-0.035,0.051 -0.078,0.094 -0.129,0.129c-8.221,5.373 -13.283,12.158 -19.567,19.406c-8.096,9.355 -17.237,17.594 -27.279,24.682c-0.602,0.428 -0.801,0.289 -0.599,-0.42Z" style="fill:#0a6eb4;fill-rule:nonzero;"/><path d="M329.67,76.296c23.959,1.249 40.401,23.682 46.007,44.9c0.137,0.512 -0.012,0.613 -0.446,0.304c-8.409,-6.079 -17.487,-13.569 -23.647,-20.531c-7.043,-7.972 -13.568,-17.425 -22.432,-23.058c-1.887,-1.196 -1.714,-1.734 0.518,-1.615Z" style="fill:#0a6eb4;fill-rule:nonzero;"/><path d="M55.463,141.593c1.527,-1.66 3.053,-3.347 4.856,-4.704c10.775,-8.132 22.736,-14.8 33.448,-22.709c1.03,-0.762 1.327,-0.539 0.893,0.669c-8.23,22.718 -32.653,31.85 -47.971,48.489c-0.352,0.375 -0.533,0.307 -0.545,-0.205c-0.309,-12.925 0.152,-24.613 1.384,-35.063c1.803,-15.336 8.944,-30.181 21.807,-40.134c0.191,-0.149 0.372,-0.14 0.545,0.027c0.113,0.107 0.131,0.223 0.053,0.348c-3.671,6.445 -6.323,13.294 -7.953,20.549c-2.434,10.825 -4.699,21.688 -6.793,32.591c-0.072,0.369 0.021,0.416 0.276,0.142Z" style="fill:#0a6eb4;fill-rule:nonzero;"/><path d="M387.014,141.647c-2.226,-10.95 -4.544,-21.876 -6.954,-32.778c-1.577,-7.16 -4.178,-13.923 -7.802,-20.291c-0.178,-0.315 -0.089,-0.508 0.268,-0.58c0.238,-0.047 0.521,0.066 0.848,0.339c23.736,19.255 22.067,46.713 22.799,74.109c0.029,1.184 -0.363,1.345 -1.179,0.482c-15.309,-16.22 -39.402,-25.682 -47.516,-48.016c-0.416,-1.143 -0.122,-1.375 0.884,-0.696c2.044,1.383 4.195,3.142 6.266,4.499c7.546,4.945 15.101,9.872 22.665,14.782c3.225,2.089 6.394,4.841 9.507,8.257c0.202,0.22 0.273,0.185 0.214,-0.107Z" style="fill:#0a6eb4;fill-rule:nonzero;"/><path d="M311.183,93.176c-2.036,3.303 -4.892,7.132 -5.231,11.06c-0.25,2.785 -0.375,5.079 -2.634,6.132c-1.154,0.536 -2.142,0.47 -2.963,-0.196c-0.649,-0.53 -0.973,-1.312 -0.973,-2.348c0.009,-4.311 3.463,-4.767 5.668,-7.703c1.785,-2.387 3.499,-4.842 5.142,-7.365c0.008,-0.012 0.017,-0.024 0.026,-0.036c0.176,-0.222 0.498,-0.265 0.713,-0.095c0.013,0.01 0.026,0.021 0.037,0.033l0.17,0.161c0.097,0.093 0.116,0.242 0.045,0.357Z" style="fill:#0a6eb4;fill-rule:nonzero;"/><path d="M297.338,117.144c-4.41,1.856 -6.053,-3.518 -4.401,-6.713c2.053,-3.982 3.053,-7.936 4.793,-14.06c0.025,-0.097 0.124,-0.161 0.232,-0.151l0.313,0.035c0.194,0.021 0.343,0.187 0.343,0.382c-0,0.043 -0.007,0.086 -0.022,0.127c-1.321,3.883 -3.178,10.078 -0.241,13.872c0.197,0.256 0.348,0.536 0.456,0.839l0.482,1.357c0.089,0.256 0.249,0.315 0.482,0.179c2.044,-1.188 3.784,-0.259 5.525,-0.706c3.178,-0.821 6.392,-4.65 8.373,-7.177c0.167,-0.214 0.345,-0.223 0.536,-0.026l0.214,0.214c0.101,0.1 0.113,0.261 0.027,0.375c-3.285,4.177 -6.99,7.677 -9.427,12.497c-1.276,2.544 -6.052,2.348 -7.096,-0.777c-0.101,-0.303 -0.298,-0.392 -0.589,-0.267Z" style="fill:#0a6eb4;fill-rule:nonzero;"/><path d="M237.351,162.312c0.613,-1.613 1.568,-2.976 2.866,-4.088c0.208,-0.179 0.342,-0.399 0.401,-0.661c0.613,-2.535 1.979,-4.511 4.098,-5.927c0.232,-0.161 0.389,-0.378 0.473,-0.652c0.874,-2.88 2.66,-4.981 5.356,-6.302c0.291,-0.143 0.529,-0.345 0.714,-0.607c2.365,-3.249 5.204,-3.089 7.739,-5.356c0.988,-0.881 1.919,-1.809 2.794,-2.785c0.133,-0.145 0.343,-0.195 0.527,-0.125l0.285,0.098c0.264,0.093 0.441,0.344 0.441,0.623c0,0.146 -0.048,0.288 -0.137,0.404c-5.151,6.757 -12.006,12.515 -16.604,19.192c-7.284,10.605 -10.337,22.129 -11.497,34.983c-0.048,0.518 0.036,0.539 0.25,0.063c0.777,-1.741 0.946,-3.08 1.08,-5.339c0.179,-2.91 1.253,-5.451 3.223,-7.623c0.178,-0.202 0.288,-0.434 0.33,-0.696c0.666,-3.964 2.815,-6.755 6.445,-8.373c0.158,-0.071 0.293,-0.178 0.393,-0.313c1.669,-2.213 4.159,-4.017 7.016,-4.124c0.72,-0.024 1.437,-0.122 2.151,-0.294c0.274,-0.072 0.518,-0.012 0.732,0.178c0.405,0.351 0.396,0.679 -0.027,0.982c-13.22,9.427 -16.264,25.45 -17.433,40.607c-0.006,0.071 0.047,0.116 0.16,0.134c0.048,0.006 0.075,-0.015 0.081,-0.063c2.071,-10.006 4.624,-18.951 10.997,-27.252c0.346,-0.453 0.795,-0.613 1.348,-0.482l0.277,0.062c0.195,0.044 0.335,0.218 0.335,0.418c-0,0.076 -0.02,0.15 -0.058,0.216c-7.668,13.711 -8.686,31.055 -9.088,46.382c-0.005,0.292 -0.154,0.438 -0.446,0.438l-15.13,-0c-0.28,-0 -0.426,-0.14 -0.438,-0.42c-0.268,-6.409 -0.351,-12.809 -0.25,-19.201c0.063,-3.874 -1.508,-6.775 -0.392,-11.042c0.077,-0.298 0.077,-0.592 -0,-0.884c-0.863,-3.148 -0.727,-6.245 0.41,-9.292c0.107,-0.292 0.14,-0.589 0.098,-0.893c-0.392,-2.862 -0.026,-5.621 1.098,-8.275c0.125,-0.291 0.149,-0.592 0.072,-0.901c-0.863,-3.375 -0.497,-6.582 1.098,-9.623c0.115,-0.226 0.153,-0.484 0.107,-0.732c-0.685,-3.464 -0.11,-6.668 1.723,-9.614c0.154,-0.244 0.214,-0.512 0.178,-0.804c-0.393,-3.427 0.405,-6.537 2.392,-9.328c0.161,-0.22 0.227,-0.47 0.197,-0.75c-0.381,-3.701 0.631,-6.953 3.035,-9.756c0.202,-0.238 0.294,-0.512 0.277,-0.822c-0.221,-3.457 0.83,-6.451 3.151,-8.98c0.184,-0.202 0.273,-0.44 0.267,-0.714c-0.011,-3.19 1.119,-5.877 3.393,-8.061c0.232,-0.22 0.369,-0.491 0.41,-0.812c0.375,-2.624 1.803,-6.106 4.428,-7.213c0.093,-0.034 0.173,-0.097 0.232,-0.178l5.374,-7.213c0.398,-0.544 1.134,-0.732 1.749,-0.446l0.384,0.178c0.315,0.146 0.518,0.463 0.518,0.811c-0,0.182 -0.056,0.361 -0.161,0.511c-11.381,16.237 -16.344,37.473 -19.335,57.29c-0.232,1.542 -0.407,2.651 -0.526,3.33c-0.012,0.051 -0.004,0.104 0.021,0.149c0.058,0.102 0.193,0.137 0.3,0.076c0.044,-0.025 0.079,-0.063 0.098,-0.109Z" style="fill:#0a6eb4;fill-rule:nonzero;"/><path d="M294.749,122.08c1.577,-0.887 3.172,-0.884 4.785,0.009c0.285,0.155 0.592,0.226 0.919,0.214c4.303,-0.214 8.186,-3.562 11.417,-6.186c0.097,-0.08 0.246,-0.064 0.33,0.036l0.215,0.259c0.07,0.087 0.109,0.196 0.109,0.308c-0,0.152 -0.07,0.295 -0.19,0.388c-4.398,3.457 -7.427,5.978 -9.087,7.561c-1.473,1.41 -2.74,4.097 -5.097,4.882c-2.297,0.762 -4.169,0.012 -5.615,-2.249c-0.155,-0.238 -0.366,-0.307 -0.634,-0.205c-2.722,1.017 -5.061,-1.295 -5.498,-3.741c-0.161,-0.886 0.11,-2.472 0.812,-4.757c1.446,-4.723 1.732,-10.079 2.321,-14.97c0.001,-0.006 0.001,-0.011 0.002,-0.016c0.033,-0.179 0.211,-0.298 0.394,-0.264c0.005,0.001 0.01,0.002 0.014,0.003l0.286,0.08c0.149,0.042 0.217,0.14 0.205,0.295c-0.446,4.24 -1.178,9.069 0.116,12.426c0.777,1.999 2.75,3.213 3.571,5.686c0.107,0.333 0.315,0.413 0.625,0.241Z" style="fill:#0a6eb4;fill-rule:nonzero;"/><path d="M197.253,164.133c2.017,-5.648 4.24,-11.441 6.668,-17.38c4.547,-11.117 4.725,-22.299 0.536,-33.546c-0.268,-0.714 -0.119,-1.196 0.446,-1.446c0.389,-0.172 0.847,-0.062 1.116,0.268c13.265,16.737 10.426,34.179 9.078,54.416c-1.333,20.049 0.64,39.747 5.918,59.094c0.09,0.315 -0.029,0.473 -0.357,0.473c-8.456,0.024 -16.886,0.039 -25.289,0.045c-18.442,-0 -34.858,7.596 -47.703,20.861c-0.101,0.104 -0.24,0.162 -0.384,0.162c-0.231,0 -0.436,-0.149 -0.509,-0.367c-11.622,-35.457 -28.85,-68.958 -55.791,-95.363c-0.791,-0.774 -0.857,-1.464 -0.196,-2.071c0.376,-0.348 0.94,-0.41 1.383,-0.152c10.748,6.201 21.091,12.929 31.029,20.183c4.362,3.19 8.43,6.716 12.203,10.578c0.22,0.221 0.354,0.176 0.401,-0.134c0.096,-0.624 0.063,-1.124 -0.098,-1.499c-2.844,-6.493 -3.279,-13.143 -1.303,-19.951c0.083,-0.286 0.089,-0.574 0.018,-0.866c-1.327,-5.148 -1.339,-10.271 -0.036,-15.372c0.274,-1.065 0.444,-2.085 0.509,-3.061c0.321,-4.892 1.214,-8.9 4.267,-12.81c0.184,-0.244 0.253,-0.518 0.205,-0.821c-1.273,-7.832 1.905,-12.744 9.534,-14.738c0.952,-0.25 1.883,-0.547 2.794,-0.893c8.569,-3.267 14.741,-0.949 18.513,6.954c0.131,0.268 0.331,0.461 0.599,0.58c5.326,2.381 8.617,6.472 9.872,12.274c0.066,0.316 0.212,0.587 0.438,0.813c1.928,1.964 3.499,4.183 4.713,6.659c0.286,0.589 0.669,0.664 1.151,0.223c6.499,-5.874 10.596,-13.524 11.48,-21.968c0.244,-2.315 1.062,-2.538 2.455,-0.67c0.059,0.078 0.247,0.613 0.562,1.607c4.687,14.577 -0.375,25.2 -4.597,38.429c-1.012,3.172 -1.134,6.323 -0.366,9.453c0.202,0.833 0.449,0.845 0.741,0.036Zm-32.665,-48.718c-0.614,-1.948 -2.968,-2.967 -5.214,-2.259c0,0 0,0 0,0c-2.246,0.708 -3.59,2.894 -2.976,4.841c0.614,1.948 2.968,2.967 5.215,2.259c-0,0 -0,0 -0,0c2.246,-0.708 3.589,-2.894 2.975,-4.841Zm-12.818,1.597c-0.781,-1.689 -2.982,-2.359 -4.875,-1.484c-0,0 -0,0 -0,0c-1.894,0.875 -2.81,2.985 -2.029,4.674c-0,0.001 -0,0.001 -0,0.001c0.78,1.689 2.981,2.359 4.874,1.484c0,-0 0,-0 0,-0c1.894,-0.875 2.81,-2.985 2.03,-4.675c-0,0 -0,0 -0,0Zm23.96,10.566c-0,-0.001 -0,-0.001 -0,-0.001c0.348,-1.937 -1.153,-3.853 -3.327,-4.244c-2.174,-0.391 -4.249,0.881 -4.598,2.819c0,-0 0,-0 0,-0c-0.348,1.937 1.154,3.853 3.327,4.244c2.174,0.391 4.249,-0.881 4.598,-2.818Zm-11.247,-1.124c0,0 0,0 0,0c-0.7,-1.824 -2.976,-2.672 -5.043,-1.879c0,-0 0,-0 0,-0c-2.066,0.793 -3.191,2.947 -2.49,4.771c-0,-0 -0,-0 -0,-0c0.7,1.824 2.977,2.672 5.043,1.879c-0,0 -0,0 -0,0c2.066,-0.793 3.191,-2.947 2.49,-4.771Zm-11.926,0.679c0,0 0,0 0,0c-0.487,-1.78 -2.536,-2.795 -4.538,-2.247c-2.003,0.548 -3.25,2.464 -2.763,4.245c-0,-0 -0,-0 0,-0c0.487,1.781 2.536,2.795 4.539,2.247c2.002,-0.548 3.25,-2.464 2.762,-4.245Zm-7.695,6.174c-1.224,-1.322 -3.521,-1.216 -5.087,0.235c-0,-0 -0,-0 -0,-0c-1.567,1.45 -1.849,3.732 -0.624,5.054c1.224,1.322 3.521,1.217 5.087,-0.234c0,0 0,0 0,0c1.567,-1.451 1.849,-3.732 0.624,-5.055Zm12.258,3.534c-0.687,-1.886 -3.005,-2.801 -5.136,-2.025c0,-0 0,-0 0,-0c-2.13,0.775 -3.318,2.966 -2.632,4.852c0,0 0,0 0,0c0.687,1.887 3.005,2.801 5.136,2.026c-0,-0 -0,-0 -0,-0c2.13,-0.775 3.319,-2.966 2.632,-4.853c-0,0 -0,0 -0,0Zm24.219,2.853c0,-0 0,-0 0,-0c0.561,-2.05 -0.925,-4.27 -3.291,-4.917c-2.367,-0.647 -4.776,0.507 -5.336,2.557c-0,-0 -0,-0 -0,-0c-0.561,2.05 0.925,4.269 3.291,4.917c2.367,0.647 4.775,-0.507 5.336,-2.557Zm-11.712,-2.049c0,-0 0,-0 0,-0c-0.822,-2.108 -3.465,-3.076 -5.856,-2.143c0,-0 0,-0 0,-0c-2.391,0.932 -3.682,3.433 -2.86,5.541c0,-0 0,-0 0,-0c0.822,2.108 3.465,3.075 5.856,2.143c0,0 0,0 0,0c2.391,-0.932 3.682,-3.433 2.86,-5.541Zm-30.643,14.505c1.571,1.409 4.236,1.04 5.904,-0.819c1.668,-1.859 1.748,-4.549 0.177,-5.958c-0,-0 -0,-0 -0,-0c-1.571,-1.41 -4.236,-1.04 -5.904,0.819c-1.668,1.859 -1.748,4.548 -0.177,5.958c-0,-0 -0,-0 0,-0Zm20.26,-4.224c-0.545,-2.205 -2.81,-3.571 -5.015,-3.025l-1.889,0.467c-2.206,0.546 -3.572,2.81 -3.026,5.016l0.163,0.658c0.546,2.206 2.81,3.572 5.016,3.026l1.889,-0.467c2.205,-0.546 3.571,-2.81 3.025,-5.016l-0.163,-0.659Zm14.91,1.735l0,-0.001c-0.727,-2.501 -3.631,-3.89 -6.434,-3.076l0,0c-2.803,0.815 -4.511,3.543 -3.784,6.045l-0,0c0.727,2.502 3.631,3.89 6.434,3.076l-0,0c2.803,-0.814 4.511,-3.543 3.784,-6.044Zm14.117,3.428c0.961,-2.263 -0.497,-5.079 -3.228,-6.239c-0,0 -0,0 -0,0c-2.732,-1.159 -5.77,-0.251 -6.731,2.012c0,-0 0,-0 0,-0c-0.96,2.262 0.497,5.079 3.229,6.238c-0,0 -0,0 -0,0c2.732,1.16 5.77,0.252 6.73,-2.011c0,-0 0,-0 0,-0Zm-48.947,13.659l0,0c1.915,1.671 5.157,1.136 7.182,-1.185c0,-0 0,-0 0,-0c2.025,-2.321 2.115,-5.606 0.2,-7.277l0,0c-1.915,-1.671 -5.157,-1.135 -7.182,1.186c-0,-0 -0,-0 -0,-0c-2.025,2.321 -2.115,5.606 -0.2,7.276Zm23.407,-5.612l-0,-0c-0.8,-2.847 -4.093,-4.45 -7.294,-3.55c-0,-0 -0,-0 -0,-0c-3.201,0.899 -5.176,3.983 -4.376,6.83l-0,0c0.8,2.848 4.093,4.45 7.294,3.551c-0,-0 -0,-0 -0,-0c3.201,-0.9 5.176,-3.984 4.376,-6.831Zm28.908,5.468l0,-0c0.896,-2.462 -0.744,-5.354 -3.634,-6.405l-0,-0c-2.89,-1.052 -6.005,0.108 -6.901,2.57l-0,0c-0.896,2.462 0.744,5.353 3.634,6.405l0,0c2.89,1.052 6.005,-0.108 6.901,-2.57Zm-12.963,-1.719c-0.179,-2.553 -2.329,-4.559 -4.889,-4.559c-0.114,0 -0.228,0.004 -0.342,0.012l-2.44,0.171c-2.553,0.178 -4.558,2.329 -4.558,4.889c-0,0.114 0.004,0.228 0.012,0.341l0.061,0.873c0.178,2.554 2.329,4.559 4.888,4.559c0.114,-0 0.228,-0.004 0.342,-0.012l2.44,-0.171c2.554,-0.178 4.559,-2.329 4.559,-4.888c-0,-0.114 -0.004,-0.228 -0.012,-0.342l-0.061,-0.873Zm-38.553,15.768c-0,-0 -0,-0 -0,-0c2.115,1.858 5.71,1.277 7.962,-1.287c0,0 0,0 0,0c2.253,-2.564 2.366,-6.203 0.251,-8.062c-0,0 -0,0 -0,0c-2.116,-1.858 -5.71,-1.277 -7.963,1.287c0,-0 0,-0 0,-0c-2.253,2.564 -2.366,6.203 -0.25,8.062Zm25.218,-4.896c-0,0 -0,0 -0,0c-0.9,-3.037 -4.453,-4.704 -7.872,-3.692c-3.418,1.013 -5.49,4.346 -4.59,7.384c-0,-0 -0,-0 -0,-0c0.9,3.038 4.453,4.704 7.871,3.692c3.418,-1.013 5.491,-4.346 4.591,-7.384Zm26.529,6.8l1.857,-6.953c0.06,-0.227 -0.064,-0.466 -0.286,-0.554c-2.919,-1.107 -8.087,-0.964 -8.962,2.732c-0.91,3.811 3.026,6.534 6.516,5.641c0.465,-0.113 0.756,-0.401 0.875,-0.866Zm-10.095,-3.642c-0.547,-2.385 -2.687,-4.091 -5.134,-4.091c-0.396,0 -0.79,0.045 -1.176,0.133l-2.541,0.582c-2.385,0.546 -4.091,2.687 -4.091,5.134c0,0.395 0.045,0.79 0.133,1.176l0.204,0.887c0.546,2.385 2.686,4.091 5.133,4.091c0.396,0 0.791,-0.045 1.176,-0.133l2.541,-0.582c2.385,-0.546 4.091,-2.686 4.091,-5.134c-0,-0.395 -0.045,-0.79 -0.133,-1.175l-0.203,-0.888Zm-38.189,9.007l5.106,5.445c0.1,0.106 0.239,0.166 0.384,0.166c0.137,0 0.268,-0.053 0.366,-0.148l0.777,-0.732c1.685,-1.583 1.806,-4.236 0.268,-5.882l-0.197,-0.215c-0,-0 -0.001,-0.001 -0.001,-0.001c-1.545,-1.646 -4.207,-1.695 -5.895,-0.11c-0.001,0.002 -0.003,0.003 -0.004,0.004l-0.777,0.732c-0.209,0.197 -0.221,0.53 -0.027,0.741Zm23.587,2.97c-0.926,-3.029 -4.486,-4.667 -7.886,-3.628c-0,0 -0,0 -0,0c-3.4,1.04 -5.435,4.388 -4.509,7.418c0.926,3.03 4.486,4.668 7.886,3.628c-0,0 -0,0 0,0c3.4,-1.039 5.435,-4.388 4.509,-7.418Zm22.671,-3.336c-3.437,1.598 -3.874,5.187 -1.107,7.731c0.066,0.059 0.151,0.091 0.239,0.091c0.17,0 0.317,-0.121 0.35,-0.288l1.357,-6.864c0.012,-0.062 0.014,-0.126 0.007,-0.188c-0.039,-0.331 -0.339,-0.572 -0.665,-0.533c-0.063,0.007 -0.124,0.024 -0.181,0.051Zm-5.73,6.582c-0.581,-2.685 -3.268,-4.417 -5.953,-3.836l-2.408,0.521c-2.686,0.58 -4.417,3.267 -3.837,5.953l0.181,0.837c0.581,2.685 3.268,4.417 5.953,3.837l2.408,-0.521c2.686,-0.581 4.417,-3.268 3.837,-5.953l-0.181,-0.838Zm-19.479,7.585c-2.187,0.009 -4.784,0.785 -6.061,2.74c-0.202,0.31 -0.187,0.607 0.045,0.893l5.168,6.4c0.162,0.201 0.412,0.311 0.67,0.295c7.382,-0.429 6.472,-10.382 0.178,-10.328Zm10.935,11.399c2.071,4.686 6.106,3.383 9.873,2.241c0.711,-0.222 1.229,-0.842 1.321,-1.58l0.688,-5.606c0.023,-0.181 -0.005,-0.364 -0.081,-0.527c-2.99,-6.445 -14.97,-1.714 -11.801,5.472Z" style="fill:#0a6eb4;fill-rule:nonzero;"/><path d="M288.795,132.72c3.365,-1.812 5.124,0.152 7.953,-0.259c3.741,-0.535 8.043,-4.4 10.739,-6.891c0.208,-0.196 0.411,-0.193 0.607,0.009l0.188,0.188c0.083,0.083 0.086,0.166 0.009,0.25c-4.267,4.57 -9.48,8.274 -13.89,12.809c-2.125,2.178 -6.534,1.312 -7.936,-1.339c-0.131,-0.244 -0.333,-0.36 -0.607,-0.348c-4.579,0.259 -5.704,-4.972 -4.713,-8.445c1.633,-5.748 1.66,-12.149 2.196,-18.076c0.014,-0.197 0.19,-0.35 0.393,-0.339l0.223,0.018c0.101,0.006 0.148,0.059 0.143,0.161c-0.108,4.668 -0.929,10.149 0.776,14.586c0.991,2.588 3.33,3.811 3.49,7.435c0.012,0.31 0.155,0.39 0.429,0.241Z" style="fill:#0a6eb4;fill-rule:nonzero;"/><path d="M37.539,188.485c-0.003,0.011 -0.005,0.023 -0.005,0.035c0,0.074 0.061,0.135 0.134,0.135c0.061,-0 0.114,-0.041 0.13,-0.099c3.1,-6.35 7.388,-11.875 12.863,-16.577c6.989,-6.007 14.934,-11.56 20.647,-18.853c0.155,-0.19 0.307,-0.288 0.455,-0.294c0.096,-0.006 0.185,0.015 0.268,0.062c0.196,0.108 0.271,0.271 0.223,0.491c-2.035,8.814 -5.57,16.979 -10.604,24.495c-6.106,9.105 -14.854,17.808 -20.505,25.012c-2.737,3.487 -4.752,7.129 -6.043,10.926c-0.351,1.042 -0.687,1.036 -1.009,-0.018c-1.952,-6.349 -3.901,-12.845 -5.847,-19.486c-6.525,-22.308 -5.177,-50.98 9.882,-69.806c1.327,-1.66 1.729,-1.461 1.205,0.598c-3.963,15.613 -2.499,31.636 -1.544,47.811c0.315,5.278 0.232,10.468 -0.25,15.568Z" style="fill:#0a6eb4;fill-rule:nonzero;"/><path d="M404.43,187.94c-0.759,-11.703 0.428,-23.441 0.964,-35.224c0.44,-9.694 -0.447,-18.954 -2.66,-27.78c-0.459,-1.827 -0.078,-2.02 1.142,-0.58c15.006,17.71 16.345,47.623 10.275,68.851c-2,7.01 -4.059,13.91 -6.178,20.7c-0.279,0.905 -0.58,0.911 -0.901,0.018c-1.756,-4.897 -4.496,-9.432 -8.221,-13.604c-12.292,-13.782 -23.111,-25.824 -28.324,-44.133c-0.304,-1.065 -0.488,-1.874 -0.554,-2.428c-0.161,-1.315 0.164,-1.449 0.973,-0.401c5.695,7.346 15.988,14.523 20.861,18.969c4.687,4.275 9.793,9.837 12.096,15.737c0.428,1.101 0.604,1.059 0.527,-0.125Z" style="fill:#0a6eb4;fill-rule:nonzero;"/><path d="M261.855,199.107c12.488,-22.736 38.161,-59.567 68.663,-54.961c0.357,0.055 0.656,0.303 0.776,0.643l0.081,0.232c0.101,0.292 -0.003,0.42 -0.313,0.384c-16.63,-1.857 -30.663,9.962 -40.544,21.834c-12.569,15.11 -21.546,32.249 -26.932,51.417c-0.351,1.232 -0.741,3.562 -1.169,6.99c-0.036,0.256 -0.185,0.384 -0.446,0.384l-13.756,-0c-0.256,-0 -0.36,-0.125 -0.313,-0.375c5.401,-31.288 18.773,-59.139 35.591,-86.097c0.261,-0.421 0.813,-0.564 1.24,-0.321l0.34,0.196c0.577,0.327 0.711,0.786 0.401,1.375c-9.873,18.478 -18.942,37.982 -24.093,58.112c-0.339,1.321 -0.181,1.383 0.474,0.187Z" style="fill:#0a6eb4;fill-rule:nonzero;"/><path d="M676.19,221.7c-0,0.177 -0.145,0.322 -0.321,0.322l-13.854,-0c-0.177,-0 -0.322,-0.145 -0.322,-0.322l0,-72.787c0,-0.176 0.145,-0.321 0.322,-0.321l13.854,-0c0.176,-0 0.321,0.145 0.321,0.321l-0,72.787Z" style="fill:#0a6eb4;fill-rule:nonzero;"/><path d="M722.76,175.363c-1.518,-8.606 -1.098,-15.202 -1,-26.334c0,-0.291 0.146,-0.437 0.438,-0.437l13.809,-0c0.297,-0 0.446,0.149 0.446,0.446l0,72.528c0,0.298 -0.149,0.447 -0.446,0.447l-10.426,-0c-0.274,-0 -0.464,-0.128 -0.572,-0.384l-2.463,-6.052c-0.063,-0.155 -0.214,-0.256 -0.381,-0.256c-0.138,-0 -0.266,0.069 -0.342,0.184c-2.669,4.098 -6.365,6.356 -11.301,7.159c-13.31,2.17 -21.139,-6.909 -22.986,-19.388c-1.714,-11.587 -0.072,-30.422 13.988,-34.162c8.545,-2.273 15.535,-0.149 20.968,6.374c0.244,0.291 0.333,0.249 0.268,-0.125Zm-5.901,5.739c-6.525,-3.106 -12.309,0.357 -14.041,6.865c-2.258,8.427 -1.982,25.414 11.488,23.129c4.273,-0.72 6.844,-3.297 7.713,-7.731c1.268,-6.463 2,-18.871 -5.16,-22.263Z" style="fill:#0a6eb4;fill-rule:nonzero;"/><path d="M976.239,175.416c-1.607,-8.543 -1.036,-17.692 -0.982,-26.378c-0,-0.297 0.149,-0.446 0.446,-0.446l13.818,-0c0.298,-0 0.447,0.149 0.447,0.446l-0,72.528c-0,0.298 -0.149,0.447 -0.447,0.447l-10.453,-0c-0.247,0 -0.471,-0.149 -0.562,-0.375l-2.535,-6.177c-0.049,-0.115 -0.163,-0.189 -0.287,-0.189c-0.103,-0 -0.199,0.05 -0.258,0.135c-3.963,5.683 -9.533,8.168 -16.71,7.454c-14.256,-1.419 -18.05,-14.613 -18.264,-26.664c-0.232,-13.515 5.052,-28.645 21.397,-27.949c6.133,0.268 10.399,2.598 13.988,7.347c0.387,0.511 0.521,0.452 0.402,-0.179Zm-1.804,9.855c-2.481,-5.499 -10.47,-6.766 -14.568,-3.294c-6.668,5.651 -7.15,27.762 3.982,29.244c6.677,0.886 10.61,-1.988 11.8,-8.623c0.973,-5.41 1.072,-12.239 -1.214,-17.327Z" style="fill:#0a6eb4;fill-rule:nonzero;"/><path d="M488.714,205.4c0.197,1.542 0.438,1.548 0.723,0.018c3.241,-17.478 8.186,-34.662 12.703,-51.854c0.089,-0.339 0.309,-0.509 0.66,-0.509l12.935,0c0.298,0 0.485,0.146 0.562,0.437c2.643,9.879 5.291,19.752 7.945,29.619c2,7.427 3.597,15.178 4.794,23.254c0.023,0.16 0.053,0.163 0.089,0.008l12.033,-52.818c0.071,-0.333 0.28,-0.5 0.625,-0.5l13.631,0c0.357,0 0.491,0.173 0.401,0.518l-17.29,67.949c-0.074,0.288 -0.332,0.491 -0.625,0.491l-15.899,-0c-0.261,-0 -0.425,-0.128 -0.491,-0.384c-4.275,-16.345 -8.739,-32.644 -12.086,-49.203c-0.167,-0.851 -0.327,-0.848 -0.482,0.009c-3.017,16.487 -7.757,32.823 -11.926,49.051c-0.089,0.351 -0.315,0.527 -0.678,0.527l-15.827,-0c-0.28,-0 -0.453,-0.137 -0.518,-0.411l-17.335,-67.931c-0.009,-0.038 -0.014,-0.077 -0.014,-0.116c-0,-0.273 0.223,-0.498 0.496,-0.5l13.541,0c0.262,0 0.426,0.131 0.491,0.393c3.101,13.033 6.157,26.065 9.168,39.098c1.077,4.66 1.868,8.945 2.374,12.854Z" style="fill:#0a6eb4;fill-rule:nonzero;"/><path d="M790.236,165.383l-0,17.076c-0,0.152 0.125,0.277 0.277,0.277l22.655,-0c0.152,-0 0.277,0.125 0.277,0.277l-0,11.497c-0,0.152 -0.125,0.277 -0.277,0.277l-22.655,-0c-0.152,-0 -0.277,0.125 -0.277,0.276l-0,26.673c-0,0.152 -0.125,0.277 -0.277,0.277l-14.175,-0c-0.152,-0 -0.277,-0.125 -0.277,-0.277l0.009,-68.377c-0,-0.152 0.125,-0.277 0.277,-0.277l39.16,-0.036c0.152,0 0.277,0.125 0.277,0.277l0,11.506c0,0.152 -0.125,0.277 -0.277,0.277l-24.44,-0c-0.152,-0 -0.277,0.125 -0.277,0.277Z" style="fill:#0a6eb4;fill-rule:nonzero;"/><path d="M307.157,183.441c2.794,-0.366 3.883,1.303 6.159,1.321c3.107,0.027 6.534,-1.955 9.873,-3.713c0.131,-0.072 0.232,-0.042 0.303,0.089l0.108,0.205c0.136,0.256 0.077,0.456 -0.179,0.598c-2.565,1.387 -5.121,2.797 -7.668,4.232c-2.41,1.356 -5.409,4.9 -8.186,4.499c-2.332,-0.34 -3.484,-1.64 -3.454,-3.901c-0,-0.316 -0.155,-0.453 -0.464,-0.411c-2.101,0.256 -3.312,-0.735 -3.633,-2.972c-0.572,-4.035 2.481,-5.008 4.499,-7.534c2.303,-2.899 4.525,-5.83 6.668,-8.793c0.119,-0.167 0.235,-0.164 0.348,0.009l0.178,0.294c0.129,0.209 0.111,0.476 -0.044,0.661c-3.196,3.972 -6.204,8.373 -4.74,12.917c0.172,0.541 0.122,1.217 -0.152,2.026c-0.125,0.363 0.003,0.521 0.384,0.473Z" style="fill:#0a6eb4;fill-rule:nonzero;"/><path d="M309.022,177.773c1.018,-1.991 2.866,-2.509 4.767,-3.205c3.767,-1.366 7.097,-3.972 10.203,-6.436c0.211,-0.166 0.521,-0.129 0.688,0.08l0.196,0.241c0.002,0.003 0.004,0.005 0.006,0.008c0.115,0.147 0.085,0.364 -0.066,0.482c-0.001,0 -0.002,0.001 -0.002,0.001c-4.08,3.071 -7.499,5.383 -9.239,9.57c-0.938,2.267 -2.116,3.561 -4.464,3.776c-2.606,0.241 -3.053,-2.643 -2.089,-4.517Z" style="fill:#0a6eb4;fill-rule:nonzero;"/><path d="M604.215,178.46c8.873,13.435 5.713,37.572 -11.479,43.151c-9.971,3.232 -22.495,1.152 -29.289,-7.15c-7.766,-9.471 -7.962,-28.395 -0.026,-38c9.944,-12.042 32.341,-10.811 40.794,1.999Zm-10.471,13.113c-0.41,-5.454 -2.651,-10.703 -8.846,-11.337c-6.766,-0.69 -10.7,2.229 -11.801,8.757c-1.026,6.088 -1.214,13.854 2.214,18.791c0.994,1.428 2.05,2.303 3.169,2.624c14.577,4.142 16.059,-8.534 15.264,-18.835Z" style="fill:#0a6eb4;fill-rule:nonzero;"/><path d="M632.352,177.737c0.045,0.172 0.202,0.293 0.38,0.293c0.136,0 0.262,-0.07 0.334,-0.186c4.505,-7.522 11.197,-10.64 20.076,-9.355c0.311,0.046 0.535,0.33 0.508,0.643l-1.035,12.711c-0.023,0.237 -0.224,0.42 -0.462,0.42c-0.031,-0 -0.061,-0.003 -0.092,-0.009c-5.507,-1.196 -11.845,-0.036 -15.576,4.302c-1.78,2.06 -2.669,4.431 -2.669,7.115c-0.006,9.295 -0.015,18.591 -0.027,27.887c-0,0.303 -0.152,0.455 -0.455,0.455l-13.596,-0c-0.297,-0 -0.446,-0.149 -0.446,-0.447l0,-51.997c0,-0.297 0.149,-0.446 0.446,-0.446l10.266,-0c0.19,-0 0.306,0.092 0.348,0.277l2,8.337Z" style="fill:#0a6eb4;fill-rule:nonzero;"/><path d="M845.822,222.843c-19.916,-1.428 -26.361,-20.719 -21.612,-37.643c2.422,-8.641 7.903,-14.021 16.443,-16.14c14.488,-3.588 28.663,2.83 32.341,17.684c1.113,4.493 1.354,9.096 0.723,13.809c-2.053,15.399 -12.39,23.397 -27.895,22.29Zm-7.561,-33.751c-1.402,6.239 -1.366,19.834 6.864,21.754c9.596,2.231 13.158,-3.991 13.819,-12.087c0.589,-7.266 -0.036,-18.79 -10.221,-18.674c-6.57,0.071 -9.052,2.713 -10.462,9.007Z" style="fill:#0a6eb4;fill-rule:nonzero;"/><path d="M882.59,186.092c3.365,-14.059 16.478,-19.79 29.931,-17.273c10.539,1.97 16.984,8.127 19.335,18.469c3.686,16.247 -2.625,33.475 -21.103,35.564c-22.807,2.58 -32.903,-16.952 -28.163,-36.76Zm16.059,20.567c2.767,5.151 10.007,5.883 14.372,2.91c6.15,-4.204 5.356,-16.719 3.651,-22.736c-0.976,-3.445 -3.107,-5.585 -6.392,-6.418c-7.935,-2.008 -12.274,2.339 -13.523,9.784c-0.857,5.07 -0.599,11.836 1.892,16.46Z" style="fill:#0a6eb4;fill-rule:nonzero;"/><path d="M299.275,190.261c1.612,-0.417 2.761,-0.277 3.445,0.42c4.026,4.115 10.48,1.446 14.604,0.035c0.214,-0.077 0.354,-0.006 0.42,0.214l0.08,0.233c0.07,0.222 -0.055,0.463 -0.277,0.535c-4.311,1.384 -9.105,2.723 -13.068,4.963c-1.946,1.101 -3.422,1.649 -4.428,1.643c-2.338,-0.018 -3.82,-1.381 -4.445,-4.089c-0.066,-0.273 -0.238,-0.407 -0.518,-0.401c-3.106,0.08 -4.347,-3.276 -3.785,-5.838c0.491,-2.25 3.303,-4.874 4.535,-7.097c1.059,-1.91 2.764,-5.18 5.115,-9.81c0.084,-0.164 0.253,-0.268 0.437,-0.268c0.078,-0 0.154,0.018 0.223,0.054l0.233,0.125c0.148,0.077 0.184,0.19 0.107,0.339c-0.506,0.928 -1.598,3.326 -3.276,7.195c-1.381,3.195 -1.324,6.156 0.169,8.882c0.31,0.565 0.319,1.386 0.027,2.463c-0.095,0.363 0.039,0.497 0.402,0.402Z" style="fill:#0a6eb4;fill-rule:nonzero;"/><path d="M290.179,197.902c4.07,-0.286 4.784,2.25 7.926,2.732c3.919,0.598 8.704,-1.393 12.373,-2.768c0.19,-0.071 0.291,-0.006 0.303,0.197l0.018,0.321c0.012,0.268 -0.107,0.449 -0.357,0.545c-4.142,1.583 -8.299,3.124 -12.471,4.624c-2.517,0.91 -4.695,3.186 -8.176,2.044c-1.982,-0.643 -3.089,-1.976 -3.321,-3.999c-0.036,-0.274 -0.187,-0.444 -0.455,-0.509c-4.508,-1.152 -3.535,-6.749 -1.518,-9.632c3.044,-4.383 5.044,-9.105 8.007,-15.764c0.129,-0.28 0.446,-0.425 0.741,-0.339l0.277,0.071c0.007,0.002 0.014,0.005 0.02,0.007c0.118,0.048 0.178,0.18 0.132,0.294c-0.002,0.007 -0.006,0.014 -0.009,0.02c-4.095,8.135 -5.347,13.813 -3.758,17.032c0.726,1.47 0.717,3.038 -0.027,4.705c-0.137,0.303 -0.039,0.443 0.295,0.419Z" style="fill:#0a6eb4;fill-rule:nonzero;"/><path d="M34.736,244.508c-0.286,-12.551 6.856,-23.897 13.908,-33.868c3.844,-5.445 7.453,-10.914 10.827,-16.407c0.655,-1.065 0.994,-0.973 1.018,0.277c0.357,19.165 -6.918,33.082 -15.229,51.801c-3.588,8.093 -5.469,16.481 -5.641,25.164c-0.012,0.785 -0.256,0.869 -0.732,0.25c-9.989,-13.087 -18.684,-27.905 -23.727,-43.678c-4.529,-14.163 -4.437,-28.282 0.277,-42.356c0.143,-0.423 0.381,-0.664 0.714,-0.723c0.023,-0.005 0.047,-0.008 0.071,-0.008c0.187,0 0.343,0.151 0.348,0.338c0.902,16.666 7.338,31.243 13.604,46.364c1.833,4.41 3.202,8.558 4.107,12.444c0.053,0.214 0.128,0.378 0.223,0.491c0.161,0.196 0.238,0.167 0.232,-0.089Z" style="fill:#0a6eb4;fill-rule:nonzero;"/><path d="M407.518,243.794c0.048,0.922 0.179,0.934 0.393,0.035c2.383,-10.033 6.998,-19.513 10.926,-29.073c3.868,-9.427 6.097,-19.243 6.686,-29.449c0.016,-0.213 0.196,-0.381 0.41,-0.381c0.09,0 0.179,0.031 0.251,0.086c0.226,0.179 0.401,0.464 0.526,0.857c10.543,31.752 -5.141,61.174 -23.53,86.034c-0.016,0.023 -0.036,0.044 -0.057,0.061c-0.134,0.107 -0.335,0.083 -0.445,-0.055c-0.017,-0.021 -0.031,-0.044 -0.043,-0.068c-0.041,-0.095 -0.089,-0.205 -0.142,-0.33c-0.048,-0.119 -0.072,-0.241 -0.072,-0.366c-0.053,-17.416 -9.569,-32.734 -15.746,-48.445c-3.624,-9.212 -5.3,-18.38 -5.026,-27.503c0.06,-1.833 0.536,-1.946 1.428,-0.339c9.105,16.363 23.397,28.86 24.441,48.936Z" style="fill:#0a6eb4;fill-rule:nonzero;"/><path d="M272.281,225.842c-0.054,0.119 -0.146,0.179 -0.277,0.179l-5.115,0.009c-0.001,-0 -0.001,-0 -0.002,-0c-0.093,-0 -0.17,-0.077 -0.17,-0.17c0,-0.028 0.007,-0.055 0.02,-0.08c4.166,-8.153 9.346,-15.604 15.542,-22.352c0.402,-0.439 1.066,-0.529 1.571,-0.215l0.25,0.161c0.696,0.429 0.797,0.97 0.303,1.625c-4.91,6.427 -8.95,13.375 -12.122,20.843Z" style="fill:#0a6eb4;fill-rule:nonzero;"/><path d="M143.113,259.362c9.828,-14.06 25.173,-25.004 42.375,-27.744c2.725,-0.435 6.588,-0.655 11.586,-0.661c25.215,-0.024 50.43,-0.027 75.644,-0.009c1.869,0 3.544,1.063 5.026,3.187c3.008,4.312 2.597,11.123 -2.259,13.899c-1.142,0.654 -2.904,0.982 -5.284,0.982c-26.607,0.006 -53.214,0.003 -79.821,-0.009c-7.778,-0 -13.715,0.33 -17.809,0.991c-10.117,1.624 -19.737,4.936 -28.86,9.935c-0.309,0.172 -0.52,0.095 -0.633,-0.232c-0.045,-0.112 -0.032,-0.239 0.035,-0.339Z" style="fill:#0a6eb4;fill-rule:nonzero;"/><path d="M390.897,300.906c7.436,-10.534 13.979,-17.398 23.995,-27.771c6.522,-6.766 11.887,-14.351 16.094,-22.754c0.008,-0.016 0.018,-0.033 0.028,-0.048c0.136,-0.209 0.417,-0.272 0.622,-0.138c0.016,0.011 0.032,0.022 0.046,0.035c0.274,0.232 0.414,0.571 0.42,1.017c0.179,32.609 -30.511,60.451 -57.273,73.921c-1.035,0.524 -1.306,0.262 -0.812,-0.785c3.201,-6.713 4.79,-14.06 4.767,-22.04c-0.045,-21.977 -2.295,-42.58 5.57,-63.075c0.279,-0.726 0.642,-0.774 1.089,-0.143c0.03,0.048 0.065,0.33 0.107,0.848c1.232,16.211 6.954,31.993 6.784,48.32c-0.036,3.451 -0.613,7.611 -1.732,12.479c-0.131,0.553 -0.032,0.598 0.295,0.134Z" style="fill:#0a6eb4;fill-rule:nonzero;"/><path d="M51.518,300.629c-5.24,-20.21 3.838,-40.553 5.115,-61.415c0.01,-0.214 0.157,-0.4 0.366,-0.464c0.398,-0.113 0.699,0.098 0.901,0.634c5.347,14.345 6.213,29.511 5.678,44.668c-0.482,13.569 -1.366,27.86 4.543,40.375c0.459,0.97 0.206,1.217 -0.758,0.741c-16.794,-8.331 -31.172,-19.992 -43.134,-34.983c-3.017,-3.779 -6.141,-9.215 -9.373,-16.309c-3.267,-7.171 -4.885,-14.842 -4.856,-23.013c0.005,-0.311 0.223,-0.582 0.527,-0.651c0.369,-0.089 0.676,0.113 0.92,0.607c3.862,7.724 8.206,14.14 13.032,19.246c9.391,9.926 18.791,19.575 26.709,30.716c0.38,0.535 0.491,0.485 0.33,-0.152Z" style="fill:#0a6eb4;fill-rule:nonzero;"/><path d="M486.286,296.335l0,23.647c0,0.297 -0.149,0.446 -0.446,0.446l-13.836,0c-0.298,0 -0.447,-0.149 -0.447,-0.446l0,-68.038c0,-0.268 0.134,-0.402 0.402,-0.402c10.867,-0.167 19.395,-0.155 25.584,0.036c14.505,0.446 22.771,9.712 21.566,24.226c-0.928,11.212 -8.257,17.684 -18.951,19.576c-4.151,0.741 -8.962,0.527 -13.408,0.491c-0.309,0 -0.464,0.155 -0.464,0.464Zm-0.044,-32.341l-0.072,19.335c0,0.003 0,0.006 0,0.009c0,0.275 0.226,0.5 0.5,0.5l6.945,0.018c5.864,0.022 10.707,-4.249 10.73,-9.462l-0,-1.321c-0,-0.003 -0,-0.005 -0,-0.008c0.018,-5.214 -4.793,-9.522 -10.659,-9.544l-6.945,-0.018c-0.27,0 -0.495,0.221 -0.499,0.491Z" style="fill:#0a6eb4;fill-rule:nonzero;"/><path d="M276.092,255.032c4.785,3.821 4.999,12.524 -0.633,15.8c-1.083,0.625 -2.675,0.937 -4.776,0.937c-32.035,0.006 -64.069,0.009 -96.104,0.009c-16.183,0 -31.18,1.089 -46.114,6.91c-0.226,0.089 -0.42,0.041 -0.58,-0.143c-0.06,-0.072 -0.11,-0.167 -0.152,-0.286c-0.03,-0.071 -0.018,-0.134 0.036,-0.187c13.151,-13.444 28.82,-21.335 47.007,-23.674c3.612,-0.464 9.554,-0.696 17.826,-0.696c26.851,0 53.705,0.003 80.562,0.009c0.851,0 1.827,0.44 2.928,1.321Z" style="fill:#0a6eb4;fill-rule:nonzero;"/><path d="M539.614,276.322c0.589,-0.643 1.142,-1.309 1.66,-2c4.624,-6.254 10.789,-8.712 18.496,-7.373c0.367,0.067 0.627,0.405 0.598,0.777l-0.991,12.506c-0.024,0.291 -0.179,0.41 -0.464,0.357c-9.32,-1.651 -18.184,2.071 -18.273,12.836c-0.065,8.855 -0.119,17.711 -0.161,26.566c0,0.291 -0.145,0.437 -0.437,0.437l-13.479,-0.009c-0.304,0 -0.554,-0.25 -0.554,-0.553l0,-51.881c0,-0.298 0.149,-0.447 0.447,-0.447l10.185,0c0.262,0 0.423,0.125 0.482,0.375l2.009,8.284c0.083,0.345 0.244,0.387 0.482,0.125Z" style="fill:#0a6eb4;fill-rule:nonzero;"/><path d="M564.885,280.053c6.23,-14.791 27.94,-17.46 39.66,-8.025c8.498,6.847 10.275,19.344 8.284,29.645c-2.874,14.827 -14.675,20.915 -28.788,19.451c-6.445,-0.666 -11.604,-3.258 -15.479,-7.775c-7.293,-8.498 -7.873,-23.36 -3.677,-33.296Zm33.09,7.24c-1.053,-5.428 -3.865,-8.516 -9.56,-8.855c-12.56,-0.75 -12.336,15.452 -10.31,23.7c1.491,6.043 7.311,8.721 12.997,7.132c8.561,-2.401 8.186,-15.256 6.873,-21.977Z" style="fill:#0a6eb4;fill-rule:nonzero;"/><path d="M626.192,299.594c-4.79,-2.571 -7.498,-6.615 -8.123,-12.132c-1.91,-16.79 11.899,-22.236 26.03,-20.566c3.541,0.416 6.061,0.627 7.561,0.633c5.052,0.006 10.105,0.009 15.157,0.009c0.304,0.006 0.455,0.161 0.455,0.464l0,6.66c0,0.285 -0.137,0.464 -0.41,0.535l-7.195,1.866c-0.339,0.095 -0.432,0.3 -0.277,0.616c1.887,3.797 2.413,7.492 1.58,11.087c-2.847,12.345 -15.157,15.478 -26.164,14.005c-0.279,-0.035 -0.535,0.027 -0.767,0.188c-0.952,0.69 -1.616,1.601 -1.991,2.731c-0.315,0.963 0.133,2.023 1.045,2.473c1.651,0.821 3.454,1.178 5.454,1.107c11.131,-0.393 25.378,-1.107 27.735,11.31c2.356,12.417 -6.713,19.853 -17.755,21.977c-9.534,1.839 -27.476,2.651 -33.234,-7.561c-1.553,-2.755 -1.928,-5.68 -1.125,-8.774c1.545,-5.928 5.151,-7.776 10.534,-9.713c0.374,-0.13 0.392,-0.3 0.053,-0.508c-2.69,-1.589 -4.195,-3.532 -4.517,-5.829c-0.75,-5.312 2.232,-7.374 5.981,-10.087c0.25,-0.185 0.241,-0.349 -0.027,-0.491Zm21.076,-16.907c-0,-3.859 -3.175,-7.034 -7.034,-7.034l-1.286,-0c-3.858,-0 -7.034,3.175 -7.034,7.034l0,4.284c0,3.859 3.176,7.035 7.034,7.035l1.286,-0c3.859,-0 7.034,-3.176 7.034,-7.035l-0,-4.284Zm6.4,42.811c-0.776,-5.864 -14.514,-4.418 -18.531,-4.382c-4.615,0.053 -10.953,4.097 -7.838,9.131c3.981,6.454 27.61,4.651 26.369,-4.749Z" style="fill:#0a6eb4;fill-rule:nonzero;"/><path d="M685.402,276.215c0.589,-0.738 1.167,-1.476 1.732,-2.214c4.457,-5.808 10.536,-8.194 18.237,-7.159c0.506,0.071 0.738,0.36 0.696,0.866l-1.026,12.756c-0.005,0.036 -0.035,0.063 -0.071,0.063c-0.003,0 -0.007,-0 -0.01,-0.001c-7.444,-0.669 -14.782,0.116 -17.737,7.454c-0.66,1.655 -0.988,4.88 -0.982,9.677c0.018,7.438 0.015,14.877 -0.009,22.316c-0.006,0.303 -0.157,0.455 -0.455,0.455l-13.595,0c-0.298,0 -0.446,-0.149 -0.446,-0.446l-0,-51.997c-0,-0.298 0.148,-0.447 0.446,-0.447l9.962,0c0.348,-0 0.653,0.241 0.732,0.581l1.91,7.962c0.113,0.476 0.319,0.521 0.616,0.134Z" style="fill:#0a6eb4;fill-rule:nonzero;"/><path d="M740.336,313.68c-4.597,5.945 -10.703,8.159 -17.915,7.712c-11.346,-0.714 -16.738,-8.096 -15.541,-19.263c1.58,-14.64 20.352,-14.738 31.234,-14.479c0.571,0.012 0.91,-0.262 1.017,-0.821c0.821,-4.196 -0.282,-7.029 -3.312,-8.498c-5.061,-2.455 -13.746,0.294 -18.763,2.713c-0.333,0.16 -0.739,0.019 -0.902,-0.312l-4.365,-9.043c-0.001,-0.003 -0.003,-0.005 -0.004,-0.008c-0.111,-0.229 -0.01,-0.511 0.224,-0.624c0.001,-0.001 0.002,-0.001 0.003,-0.002c11.801,-5.579 35.948,-8.739 40.982,7.32c0.536,1.714 0.815,4.481 0.839,8.302c0.054,11.104 0.054,22.206 0,33.305c0,0.297 -0.146,0.446 -0.437,0.446l-9.293,0c-0.315,0 -0.529,-0.146 -0.642,-0.437l-2.375,-6.204c-0.184,-0.476 -0.434,-0.512 -0.75,-0.107Zm-9.471,-3.169c7.168,-0.839 9.257,-7.499 8.338,-14.006c-0.036,-0.25 -0.179,-0.378 -0.429,-0.384c-5.034,-0.027 -11.533,0.045 -14.916,3.017c-3.178,2.794 -3.116,9.73 1.651,11.167c1.333,0.405 3.119,0.474 5.356,0.206Z" style="fill:#0a6eb4;fill-rule:nonzero;"/><path d="M776.971,274.251c0.042,0.144 0.175,0.244 0.326,0.244c0.118,0 0.228,-0.062 0.29,-0.164c5.686,-9.337 21.799,-10.31 29.377,-2.919c0.786,0.768 1.464,2.062 2.339,3.035c0.25,0.274 0.488,0.265 0.714,-0.026c0.812,-1.027 1.527,-2.223 2.41,-3.035c5.722,-5.24 15.434,-6.044 22.111,-3.312c7.311,2.999 9.4,9.81 9.427,17.094c0.036,11.694 0.056,23.367 0.062,35.019c0,0.132 -0.109,0.241 -0.241,0.241l-14.041,0c-0.298,0 -0.447,-0.149 -0.447,-0.446c-0.023,-10.801 -0.023,-21.585 0,-32.35c0.009,-4.267 -1.999,-9.087 -7.168,-9.275c-8.98,-0.33 -10.89,7.686 -10.899,14.872c-0.006,8.909 -0.015,17.82 -0.027,26.735c0,0.309 -0.151,0.464 -0.455,0.464l-13.568,0c-0.304,0 -0.456,-0.152 -0.456,-0.455c-0.041,-10.057 -0.044,-20.094 -0.009,-30.109c0.027,-5.776 -1.437,-11.935 -8.667,-11.48c-8.891,0.571 -9.614,10.078 -9.614,17.05c0.012,8.177 -0.006,16.359 -0.054,24.548c0,0.297 -0.148,0.446 -0.446,0.446l-13.586,0c-0.298,0 -0.447,-0.149 -0.447,-0.446l0,-51.997c0,-0.298 0.149,-0.447 0.447,-0.447l10.256,0c0.286,0 0.471,0.14 0.554,0.42l1.812,6.293Z" style="fill:#0a6eb4;fill-rule:nonzero;"/><path d="M867.549,274.394c5.998,-9.212 21.673,-10.516 29.377,-3.151c0.902,0.857 1.616,2.178 2.553,3.204c0.25,0.28 0.488,0.271 0.714,-0.026c0.67,-0.857 1.179,-1.902 1.911,-2.598c5.034,-4.838 11.818,-5.927 18.54,-4.847c10.471,1.696 13.417,9.498 13.461,19.085c0.066,11.301 0.09,22.602 0.072,33.903c-0,0.309 -0.155,0.464 -0.465,0.464l-13.809,0c-0.309,0 -0.464,-0.155 -0.464,-0.464c-0.012,-10.271 0.039,-20.528 0.152,-30.77c0.044,-4.222 -1.134,-9.632 -5.972,-10.471c-5.582,-0.97 -9.275,1.048 -11.078,6.052c-0.815,2.262 -1.217,4.996 -1.205,8.204c0.047,8.998 0.053,17.996 0.018,26.994c-0,0.303 -0.152,0.455 -0.456,0.455l-13.577,0c-0.372,0 -0.678,-0.31 -0.678,-0.687c0.006,-10.414 -0,-20.838 -0.018,-31.27c-0,-3.82 -1.018,-8.846 -5.472,-9.837c-9.221,-2.062 -12.408,6.275 -12.497,13.568c-0.113,9.272 -0.134,18.517 -0.063,27.735c0,0.328 -0.163,0.491 -0.491,0.491l-13.818,0c-0.123,0 -0.223,-0.101 -0.223,-0.223l-0,-52.22c-0,-0.298 0.149,-0.447 0.446,-0.447l10.212,0c0.268,0 0.44,0.131 0.518,0.393l1.865,6.4c0.033,0.104 0.13,0.174 0.239,0.174c0.083,0 0.162,-0.041 0.208,-0.111Z" style="fill:#0a6eb4;fill-rule:nonzero;"/><path d="M956.074,298.121c0.758,16.987 20.665,13.024 30.287,8.4c0.322,-0.155 0.482,-0.054 0.482,0.303l0,10.471c0.001,0.344 -0.208,0.655 -0.526,0.785c-7.076,2.881 -14.491,3.898 -22.245,3.053c-20.076,-2.187 -25.834,-19.352 -21.513,-36.804c3.428,-13.836 15.568,-19.612 28.886,-17.335c16.514,2.821 18.924,15.684 18.514,30.234c-0.006,0.292 -0.155,0.437 -0.447,0.437l-33.01,0c-0.303,0 -0.446,0.152 -0.428,0.456Zm0.937,-9.98l18.576,-0.286c0.315,-0.005 0.571,-0.265 0.571,-0.58c0,-0.003 0,-0.006 0,-0.009l0,-0.393c0,-0.002 0,-0.005 0,-0.007c-0.085,-5.45 -4.435,-9.867 -9.635,-9.785c-0.002,-0 -0.003,-0 -0.005,-0l-0.786,0.018c-5.197,0.083 -9.402,4.631 -9.319,10.078l0.009,0.392c0.004,0.315 0.265,0.572 0.58,0.572c0.003,-0 0.006,-0 0.009,-0Z" style="fill:#0a6eb4;fill-rule:nonzero;"/><path d="M119.262,289.212c9.801,-6.543 20.557,-10.274 32.099,-11.908c3.702,-0.53 9.638,-0.8 17.809,-0.812c34.516,-0.042 69.032,-0.045 103.548,-0.009c1.881,-0 3.556,1.059 5.026,3.178c2.981,4.302 2.606,10.944 -2.125,13.827c-1.142,0.702 -2.853,1.053 -5.132,1.053c-27.834,0 -55.631,0.277 -83.464,0.009c-5.987,-0.059 -11.857,-0.919 -17.612,-2.58c-3.934,-1.13 -7.888,-2.187 -11.863,-3.169c-12.355,-3.053 -25.03,-2.133 -37.251,1c-0.363,0.089 -0.658,0.116 -0.884,0.08c-0.048,-0.008 -0.094,-0.027 -0.136,-0.053c-0.173,-0.111 -0.227,-0.342 -0.119,-0.511c0.027,-0.042 0.062,-0.077 0.104,-0.105Z" style="fill:#0a6eb4;fill-rule:nonzero;"/><path d="M88.67,350.484c-5.972,-9.462 -9.096,-18.862 -10.605,-29.949c-1.362,-10.033 -2.862,-19.716 -4.499,-29.047c-0.244,-1.398 0.096,-1.559 1.018,-0.482c14.131,16.586 19.442,35.055 24.7,55.764c1.446,5.725 3.74,11.063 6.882,16.015c0.031,0.044 0.048,0.097 0.048,0.152c-0,0.147 -0.121,0.268 -0.268,0.268c-0.004,-0 -0.008,-0.001 -0.012,-0.001c-26.137,-0.66 -51.238,-14.077 -68.734,-33.09c-4.767,-5.187 -10.141,-12.694 -11.016,-19.764c-0.137,-1.107 0.143,-1.223 0.839,-0.348c4.776,5.981 10.418,10.373 18.639,14.943c14.586,8.123 28.726,15.193 42.767,25.753c0.476,0.357 0.557,0.286 0.241,-0.214Z" style="fill:#0a6eb4;fill-rule:nonzero;"/><path d="M353.566,350.716c11.783,-8.659 24.12,-15.693 37.045,-22.406c8.427,-4.365 18.335,-10.238 24.138,-17.924c1.029,-1.363 1.401,-1.202 1.116,0.482c-1.768,10.56 -12.31,21.879 -20.362,28.351c-17.576,14.139 -36.929,23.369 -59.263,24.003c-0.035,0.002 -0.069,-0.002 -0.102,-0.012c-0.17,-0.05 -0.267,-0.233 -0.216,-0.407c0.009,-0.032 0.023,-0.062 0.041,-0.09c6.088,-9.123 7.65,-18.951 11.087,-31.805c3.829,-14.327 10.685,-28.672 20.558,-39.955c0.874,-1 1.193,-0.845 0.955,0.464c-1.631,8.962 -3.08,18.18 -4.348,27.654c-1.544,11.48 -4.293,21.986 -10.836,31.466c-0.292,0.423 -0.23,0.483 0.187,0.179Z" style="fill:#0a6eb4;fill-rule:nonzero;"/><path d="M155.718,303.762c-8.972,-5.043 -19.567,-7.989 -29.931,-9.078c-0.161,-0.012 -0.28,-0.054 -0.357,-0.125c-0.131,-0.107 -0.182,-0.253 -0.152,-0.437c0.03,-0.149 0.116,-0.241 0.259,-0.277c10.524,-2.58 20.585,-3.151 31.591,-0.875c7.115,1.473 17.987,6.249 28.217,6.249c29.053,0.012 58.103,0.015 87.15,0.009c7.918,-0 9.516,13.211 3.106,17.058c-1.136,0.679 -2.826,1.018 -5.07,1.018l-76.099,-0c-6.266,-0 -10.738,-0.286 -13.416,-0.857c-9.623,-2.053 -18.461,-8.837 -25.298,-12.685Z" style="fill:#0a6eb4;fill-rule:nonzero;"/><path d="M211.125,345.815c-11.756,-5.766 -21.968,-13.372 -29.663,-24.11c-0.029,-0.037 -0.045,-0.082 -0.045,-0.128c-0,-0.113 0.093,-0.206 0.205,-0.206c0.012,0 0.024,0.001 0.036,0.003c2.58,0.366 5.071,0.634 7.766,0.634c14.729,-0.041 29.458,-0.038 44.187,0.009c0.321,0 0.437,0.155 0.348,0.464c-2.142,7.439 -5.198,14.479 -9.168,21.121c-0.142,0.24 -0.181,0.527 -0.107,0.794l4.517,16.755c0.191,0.708 -0.053,1.205 -0.732,1.491c-3.523,1.494 -7.18,2.544 -10.971,3.151c-0.755,0.119 -1.261,-0.179 -1.517,-0.893c-2.071,-5.793 -3.071,-12.327 -4.338,-18.415c-0.066,-0.304 -0.238,-0.527 -0.518,-0.67Z" style="fill:#0a6eb4;fill-rule:nonzero;"/><path d="M250.08,329.033c0.792,5.005 1.563,10.022 2.312,15.051c0.149,1.017 -0.056,1.761 -0.616,2.231c-0.208,0.177 -0.472,0.274 -0.745,0.274c-0.429,-0 -0.824,-0.241 -1.022,-0.622c-3.838,-7.451 -6.754,-15.261 -8.748,-23.432c-0.089,-0.363 0.051,-0.545 0.419,-0.545l12.462,0c0.228,-0.001 0.428,0.159 0.482,0.384l7.65,31.993c0.057,0.229 0.022,0.47 -0.098,0.669c-0.268,0.471 -0.613,0.557 -1.036,0.259c-0.16,-0.119 -0.312,-0.309 -0.455,-0.571c-4.386,-8.147 -7.754,-16.687 -10.105,-25.619c-0,-0.002 -0,-0.003 -0.001,-0.004c-0.024,-0.1 -0.122,-0.163 -0.218,-0.14c-0.001,0 -0.002,0.001 -0.004,0.001l-0.268,0.054c-0.006,-0 -0.009,0.005 -0.009,0.017Z" style="fill:#0a6eb4;fill-rule:nonzero;"/><path d="M275.682,359.768c-7.641,-11.453 -13.542,-24.504 -18.005,-37.537c-0.048,-0.148 0.009,-0.223 0.169,-0.223l4.58,-0.027c0.172,0 0.283,0.081 0.33,0.241c2.642,8.308 5.719,16.378 9.23,24.209c1.756,3.91 3.44,7.85 5.053,11.819c0.202,0.5 0.199,0.97 -0.009,1.41c-0.127,0.274 -0.403,0.45 -0.705,0.45c-0.257,-0 -0.499,-0.129 -0.643,-0.342Z" style="fill:#0a6eb4;fill-rule:nonzero;"/><path d="M273.361,340.861l-7.007,-18.478c-0.012,-0.031 -0.018,-0.065 -0.018,-0.098c0,-0.157 0.129,-0.285 0.285,-0.286l4.705,-0.009c0.17,-0.001 0.319,0.115 0.357,0.277l3.892,17.434c0.16,0.714 -0.099,1.217 -0.777,1.508l-0.303,0.134c-0.106,0.045 -0.22,0.068 -0.334,0.068c-0.354,-0 -0.673,-0.22 -0.8,-0.55Z" style="fill:#0a6eb4;fill-rule:nonzero;"/><path d="M137.374,376.71c-1.393,-0.869 -2.771,-1.752 -4.133,-2.651c-14.292,-9.444 -20.389,-24.619 -27.601,-39.143c-0.595,-1.196 -0.301,-1.482 0.883,-0.857c10.873,5.776 19.157,14.809 27.36,23.87c8.873,9.81 18.675,17.487 31.208,20.843c0.315,0.084 0.556,0.194 0.723,0.331c0.066,0.05 0.105,0.129 0.105,0.213c0,0.122 -0.084,0.23 -0.204,0.26c-13.229,3.543 -24.003,8.864 -37.375,9.569c-22.807,1.187 -51.489,-3.151 -66.432,-22.79c-0.297,-0.392 -0.449,-0.63 -0.455,-0.714c-0.053,-0.672 0.223,-0.866 0.83,-0.58c8.725,4.13 17.812,6.906 27.262,8.329c8.462,1.276 19.067,1.294 28.52,1.499c4.898,0.107 11.287,0.839 19.166,2.196c0.69,0.119 0.738,-0.006 0.143,-0.375Z" style="fill:#0a6eb4;fill-rule:nonzero;"/><path d="M304.907,377.023c7.487,-1.268 15.17,-1.979 23.049,-2.134c4.493,-0.089 8.983,-0.256 13.47,-0.5c13.336,-0.714 25.869,-3.329 37.715,-9.087c1.904,-0.922 2.234,-0.527 0.991,1.187c-14.828,20.46 -47.695,24.45 -70.511,22.192c-11.48,-1.125 -22.031,-5.99 -33.1,-9.132c-0.167,-0.054 -0.262,-0.104 -0.286,-0.152c-0.014,-0.038 -0.022,-0.078 -0.022,-0.118c0,-0.149 0.101,-0.281 0.245,-0.319c9.974,-2.762 18.615,-7.775 25.923,-15.042c10.105,-10.06 19.648,-22.95 33.448,-29.948c0.97,-0.494 1.214,-0.253 0.732,0.723c-8.284,16.826 -14.577,32.082 -31.77,41.99c-0.589,0.34 -0.55,0.453 0.116,0.34Z" style="fill:#0a6eb4;fill-rule:nonzero;"/><path d="M213.214,390.939c-20.38,-7.257 -36.956,9.926 -54.274,16.987c-21.075,8.588 -44.177,4.321 -62.031,-9.31c-0.166,-0.125 -0.255,-0.253 -0.267,-0.384c-0.012,-0.089 0.003,-0.169 0.044,-0.241c0.095,-0.184 0.241,-0.244 0.438,-0.178c12.836,4.4 26.94,4.918 39.848,0.624c26.896,-8.962 55.273,-22.753 83.686,-10.604c0.268,0.114 0.572,0.114 0.84,-0c27.029,-11.774 53.987,0.58 79.571,9.265c5.618,1.905 10.167,3.11 13.649,3.616c10.265,1.493 20.397,0.512 30.395,-2.946c0.034,-0.012 0.069,-0.017 0.106,-0.017c0.181,-0 0.33,0.149 0.33,0.33c-0,0.024 -0.003,0.047 -0.008,0.071c-0.012,0.041 -0.042,0.11 -0.089,0.205c-0.03,0.072 -0.081,0.134 -0.152,0.188c-20.469,15.692 -46.231,18.406 -68.958,6.114c-14.568,-7.891 -29.529,-19.727 -47.31,-13.818c-0.637,0.208 -0.646,0.446 -0.027,0.714c17.487,7.552 33.305,18.898 46.971,32.064c0.238,0.232 0.229,0.456 -0.026,0.67l-9.088,7.436c-0.186,0.155 -0.467,0.131 -0.625,-0.054c-12.211,-14.291 -25.369,-27.637 -41.749,-36.876c-2.273,-1.285 -4.556,-1.282 -6.847,0.009c-16.318,9.177 -29.707,22.629 -41.705,36.849c-0.17,0.207 -0.484,0.236 -0.696,0.063l-9.051,-7.418c-0.215,-0.179 -0.224,-0.366 -0.027,-0.563c13.765,-13.586 29.454,-24.369 47.07,-32.35c0.357,-0.16 0.351,-0.309 -0.018,-0.446Z" style="fill:#0a6eb4;fill-rule:nonzero;"/></svg>