<?xml version="1.0" encoding="UTF-8" standalone="no"?><!DOCTYPE svg PUBLIC "-//W3C//DTD SVG 1.1//EN" "http://www.w3.org/Graphics/SVG/1.1/DTD/svg11.dtd"><svg width="100%" height="100%" viewBox="0 0 1536 306" version="1.1" xmlns="http://www.w3.org/2000/svg" xmlns:xlink="http://www.w3.org/1999/xlink" xml:space="preserve" xmlns:serif="http://www.serif.com/" style="fill-rule:evenodd;clip-rule:evenodd;stroke-linejoin:round;stroke-miterlimit:2;"><path d="M138.24,63.49c3.87,-14.12 13.51,-27.17 23.72,-38.3c1.347,-1.46 2.657,-1.487 3.93,-0.08c11.3,12.45 24.96,30.6 24.94,48.24c-0.02,19.77 -19.08,37.22 -38.74,26.84c-12.71,-6.71 -17.56,-23.16 -13.85,-36.7Zm19.86,33.89c6.91,2.11 14.21,0.57 19.47,-4.33c20.08,-18.69 -0.04,-47.24 -13.17,-62.27c-0.307,-0.353 -0.617,-0.357 -0.93,-0.01c-9.16,10.15 -19.22,24.38 -21.29,38.23c-1.77,11.91 4.01,24.73 15.92,28.38Z" style="fill:#fff;fill-rule:nonzero;stroke:#000;stroke-width:1px;"/><path d="M108.2,84.92c-0.115,-0.223 -0.345,-0.364 -0.596,-0.364c-0.133,-0 -0.263,0.04 -0.374,0.114c-32.43,21.43 -49.95,56.96 -47.38,95.8c0.003,0.04 0.004,0.08 0.004,0.12c-0,1.02 -0.84,1.86 -1.86,1.86c-0.001,0 -0.003,0 -0.004,-0l-0.65,-0.01c-1.66,-0 -2.537,-0.83 -2.63,-2.49c-2.41,-40.89 16.16,-77.64 50.14,-99.78c0.351,-0.227 0.476,-0.69 0.29,-1.07l-3.99,-8.01c-0.397,-0.8 -0.129,-1.783 0.62,-2.27c0.933,-0.62 2.1,-0.88 3.5,-0.78c6.9,0.5 13.81,0.847 20.73,1.04c1.4,0.047 2.54,0.393 3.42,1.04c0.773,0.578 0.971,1.668 0.45,2.48l-13.26,20.64c-0.116,0.178 -0.254,0.34 -0.411,0.483c-1,0.906 -2.565,0.833 -3.468,-0.163c-0.143,-0.157 -0.264,-0.332 -0.361,-0.52l-4.17,-8.12Zm15.68,-10.97c0.036,-0.057 0.055,-0.123 0.055,-0.191c-0,-0.188 -0.147,-0.346 -0.335,-0.359l-16.25,-0.77c-0.006,-0 -0.012,-0 -0.018,-0c-0.197,-0 -0.36,0.162 -0.36,0.36c0,0.055 0.013,0.11 0.038,0.16l7.45,14.59c0.06,0.123 0.186,0.202 0.323,0.202c0.125,-0 0.242,-0.066 0.307,-0.172l8.79,-13.82Z" style="fill:#fff;fill-rule:nonzero;stroke:#000;stroke-width:1px;"/><path d="M267.34,157.94c-6.16,-38.63 -30.02,-68.87 -66.7,-83.27c-1.58,-0.62 -2.04,-1.713 -1.38,-3.28l0.15,-0.36c0.4,-0.959 1.478,-1.462 2.47,-1.15c3.22,0.987 6.76,2.453 10.62,4.4c32.77,16.51 54.82,46.98 59.84,83.21c0.057,0.435 0.437,0.759 0.87,0.74l8.71,-0.37c1.084,-0.044 2.031,0.763 2.16,1.84c0.093,0.807 -0.097,1.647 -0.57,2.52c-3.607,6.74 -7.233,13.467 -10.88,20.18c-0.247,0.447 -0.487,0.803 -0.72,1.07c-0.383,0.442 -0.941,0.696 -1.526,0.696c-0.69,-0 -1.334,-0.354 -1.704,-0.936l-13.45,-21.13c-0.243,-0.39 -0.315,-0.863 -0.2,-1.31c0.32,-1.28 1.227,-1.95 2.72,-2.01c3.073,-0.12 6.123,-0.22 9.15,-0.3c0.01,-0 0.02,-0.001 0.03,-0.002c0.252,-0.024 0.438,-0.255 0.413,-0.512c-0.001,-0.009 -0.002,-0.017 -0.003,-0.026Zm10.85,4.94c0.026,-0.05 0.039,-0.105 0.039,-0.161c-0,-0.192 -0.158,-0.35 -0.35,-0.35c-0.006,0 -0.013,0.001 -0.019,0.001l-16.34,0.69c-0.187,0.007 -0.336,0.163 -0.336,0.35c-0,0.067 0.019,0.133 0.056,0.19l8.76,13.69c0.065,0.097 0.174,0.156 0.291,0.156c0.129,-0 0.248,-0.072 0.309,-0.186l7.59,-14.38Z" style="fill:#fff;fill-rule:nonzero;stroke:#000;stroke-width:1px;"/><path d="M170.18,88.75c5.24,-4.58 7.41,-9.69 7.46,-16.47c0.011,-0.969 0.801,-1.764 1.77,-1.78l0.46,0c1.335,-0.022 2.457,1.046 2.5,2.38c0.227,7.493 -2.46,13.627 -8.06,18.4c-1.127,0.967 -2.297,1.017 -3.51,0.15l-0.5,-0.36c-0.045,-0.032 -0.087,-0.067 -0.128,-0.103c-0.606,-0.548 -0.658,-1.495 -0.113,-2.098c0.038,-0.042 0.078,-0.082 0.121,-0.119Z" style="fill:#fff;fill-rule:nonzero;stroke:#000;stroke-width:1px;"/><path d="M1076.26,106.85l0,48.96c0,0.213 -0.107,0.32 -0.32,0.32l-9.09,0.02c-0.197,-0 -0.36,-0.167 -0.36,-0.37l-0,-48.93c0,-0.351 -0.289,-0.64 -0.64,-0.64l-7.6,0.06c-0.148,-0 -0.27,-0.122 -0.27,-0.27l-0.01,-7.24c-0,-0.148 0.122,-0.27 0.27,-0.27l7.52,-0.01c0.439,0 0.8,-0.361 0.8,-0.8c0,-0.003 0,-0.007 -0,-0.01c-0.07,-4.27 -0.33,-9.78 1.02,-13.49c3.59,-9.88 14.92,-9.57 23.73,-7.81c0.193,0.04 0.273,0.157 0.24,0.35l-1.41,8.28c-0.033,0.173 -0.137,0.237 -0.31,0.19c-3.987,-1.173 -7.437,-1.167 -10.35,0.02c-3.84,1.55 -3.42,9.83 -3.2,13c0.01,0.157 0.143,0.28 0.3,0.28l10.16,0.01c0.487,0 0.73,0.247 0.73,0.74l-0.07,6.32c-0,0.473 -0.237,0.71 -0.71,0.71l-9.79,-0.05c-0.003,-0 -0.007,-0 -0.01,-0c-0.346,-0 -0.63,0.284 -0.63,0.63Z" style="fill:#fff;fill-rule:nonzero;stroke:#000;stroke-width:1px;"/><path d="M351.11,86.05l-25.52,-0.01c-0.192,0 -0.35,-0.158 -0.35,-0.35l0.01,-8.63c0,-0.192 0.158,-0.35 0.35,-0.35l62.36,0.03c0.192,-0 0.35,0.158 0.35,0.35l0.08,8.61c0,0.192 -0.158,0.35 -0.35,0.35l-25.56,-0.01c-0.192,0 -0.35,0.158 -0.35,0.35l-0.02,69.36c0,0.192 -0.158,0.35 -0.35,0.35l-9.94,0.04c-0.192,-0 -0.35,-0.158 -0.35,-0.35l-0.01,-69.39c0,-0.192 -0.158,-0.35 -0.35,-0.35Z" style="fill:#fff;fill-rule:nonzero;stroke:#000;stroke-width:1px;"/><path d="M420.56,146.42c6.94,2.72 19.54,2.37 25.38,-3.47c4.26,-4.26 5.11,-11.68 5.15,-17.45c0.113,-16.16 0.173,-32.307 0.18,-48.44c0,-0.181 0.149,-0.33 0.33,-0.33l9.68,-0.02c0.36,-0.007 0.54,0.173 0.54,0.54c-0.033,14.767 -0.06,29.517 -0.08,44.25c-0.007,5.833 -0.483,11.037 -1.43,15.61c-2.5,12.03 -12.37,18.99 -24.31,20c-16.61,1.41 -31.71,-2.7 -35.65,-20.97c-0.64,-2.947 -0.983,-6.91 -1.03,-11.89c-0.153,-15.68 -0.223,-31.363 -0.21,-47.05c-0,-0.327 0.167,-0.49 0.5,-0.49l9.63,0.04c0.285,-0 0.52,0.23 0.52,0.51c-0.007,16.347 -0.003,32.673 0.01,48.98c0.01,8.11 1.91,16.7 10.79,20.18Z" style="fill:#fff;fill-rule:nonzero;stroke:#000;stroke-width:1px;"/><path d="M581.43,156.13l-9.6,-0.02c-0.187,0 -0.34,-0.153 -0.34,-0.34l0,-78.7c0,-0.187 0.153,-0.34 0.34,-0.34l15.32,0.02c0.144,0.001 0.273,0.093 0.32,0.23l22.19,66.51c0.044,0.142 0.176,0.24 0.325,0.24c0.149,0 0.281,-0.098 0.325,-0.24l22.82,-66.52c0.047,-0.137 0.176,-0.229 0.32,-0.23l13.72,-0.02c0.187,0 0.34,0.153 0.34,0.34l0.01,78.74c-0,0.187 -0.153,0.34 -0.34,0.34l-9.71,-0.03c-0.187,0 -0.34,-0.153 -0.34,-0.34l-0.18,-62.87c0.001,-0.012 0.002,-0.024 0.002,-0.037c-0,-0.186 -0.154,-0.34 -0.34,-0.34c-0.159,0 -0.298,0.112 -0.332,0.267l-21.97,63.08c-0.047,0.137 -0.176,0.229 -0.32,0.23l-9.11,0.04c-0.144,-0.001 -0.273,-0.093 -0.32,-0.23l-22.09,-64.62c-0.048,-0.135 -0.177,-0.225 -0.32,-0.225c-0.185,-0 -0.337,0.15 -0.34,0.335l-0.04,64.39c-0,0.187 -0.153,0.34 -0.34,0.34Z" style="fill:#fff;fill-rule:nonzero;stroke:#000;stroke-width:1px;"/><path d="M1141.77,87.621c0,0.001 0,0.001 0,0.001c0,0.142 -0.117,0.26 -0.259,0.26l-9.28,0.016c-0,0 -0.001,0 -0.001,0c-0.142,0 -0.259,-0.117 -0.26,-0.26l-0.018,-10.639c-0,-0.001 -0,-0.001 -0,-0.001c-0,-0.142 0.117,-0.26 0.259,-0.26l9.28,-0.016c0,-0 0.001,-0 0.001,-0c0.142,-0 0.259,0.117 0.26,0.26l0.018,10.639Z" style="fill:#fff;fill-rule:nonzero;stroke:#000;stroke-width:1px;"/><path d="M1427.04,145.49l25.33,-68.53c0.05,-0.127 0.173,-0.211 0.31,-0.21l10.19,-0.1c0.002,-0 0.004,-0 0.007,-0c0.181,-0 0.33,0.149 0.33,0.33c-0,0.045 -0.009,0.089 -0.027,0.13l-31.03,78.82c-0.05,0.127 -0.173,0.211 -0.31,0.21l-10.3,-0.03c-0.137,0.001 -0.26,-0.083 -0.31,-0.21l-30.63,-78.76c-0.015,-0.038 -0.023,-0.079 -0.023,-0.12c0,-0.181 0.149,-0.33 0.33,-0.33c0.001,-0 0.002,-0 0.003,0l10.81,0.08c0.139,0 0.264,0.089 0.31,0.22l24.38,68.49c0.041,0.14 0.171,0.237 0.317,0.237c0.142,-0 0.269,-0.092 0.313,-0.227Z" style="fill:#fff;fill-rule:nonzero;stroke:#000;stroke-width:1px;"/><path d="M1035.6,132.16l-32.77,0.02c-0.142,-0.001 -0.27,0.087 -0.32,0.22l-8.52,23.51c-0.047,0.137 -0.176,0.229 -0.32,0.23l-10.55,-0.04c-0.183,-0.004 -0.332,-0.156 -0.332,-0.34c0,-0.041 0.008,-0.082 0.022,-0.12l30.34,-78.68c0.049,-0.129 0.172,-0.217 0.31,-0.22l10.87,0.01c0.139,-0.002 0.267,0.081 0.32,0.21l32.36,78.69c0.017,0.041 0.026,0.085 0.026,0.13c-0,0.187 -0.154,0.34 -0.34,0.34c-0.002,0 -0.004,0 -0.006,0l-11.4,0c-0.138,-0.003 -0.261,-0.091 -0.31,-0.22l-9.07,-23.52c-0.049,-0.129 -0.172,-0.217 -0.31,-0.22Zm-17.37,-45.35c-2.77,12.22 -7.82,24.42 -12.27,36.07c-0.015,0.038 -0.023,0.079 -0.023,0.12c-0,0.173 0.14,0.316 0.313,0.32l25.54,0.01c0.235,-0.002 0.427,-0.195 0.427,-0.43c0,-0.051 -0.009,-0.102 -0.027,-0.15l-13.27,-35.98c-0.28,-0.767 -0.51,-0.753 -0.69,0.04Z" style="fill:#fff;fill-rule:nonzero;stroke:#000;stroke-width:1px;"/><path d="M515.91,130.23c0.05,8.97 5.39,18.55 15.59,18.8c1.82,0.05 3.63,0.42 5.34,0.02c5.2,-1.22 9.41,-5.32 11.04,-10.49c0.213,-0.68 0.673,-0.98 1.38,-0.9l8.02,0.95c0.667,0.08 0.903,0.443 0.71,1.09c-3.77,12.75 -14.1,18.31 -26.95,17.54c-22.54,-1.35 -29.14,-22.94 -23.63,-41.75c4.55,-15.57 22.48,-22.4 36.84,-15.45c11.13,5.38 14.93,17.44 14.35,29.32c-0.02,0.36 -0.213,0.54 -0.58,0.54l-41.76,-0.02c-0.192,0 -0.35,0.158 -0.35,0.35Zm0.97,-8.46l30.96,-0.1c0,0 0,0 0,0c0.209,0 0.38,-0.172 0.38,-0.38c0,-0.003 0,-0.007 -0,-0.01l0,-0.3c-0.033,-8.545 -7.085,-15.55 -15.624,-15.52c-0.002,-0 -0.004,-0 -0.006,0l-0.58,0c-8.539,0.033 -15.54,7.089 -15.51,15.634c-0,0.002 -0,0.004 0,0.006l0,0.3c0.005,0.205 0.175,0.37 0.38,0.37Z" style="fill:#fff;fill-rule:nonzero;stroke:#000;stroke-width:1px;"/><path d="M672.99,151.25l0.01,26.51c0,0.274 -0.23,0.5 -0.51,0.5l-8.97,-0.03c-0.252,0 -0.46,-0.208 -0.46,-0.46l0.03,-78.82c0,-0.307 0.153,-0.46 0.46,-0.46l7.92,0.02c0.386,0 0.705,0.319 0.71,0.71l0.04,5.52c-0,0.001 -0,0.001 -0,0.002c-0,0.197 0.163,0.36 0.36,0.36c0.089,-0 0.174,-0.033 0.24,-0.092c2.5,-2.26 4.22,-4.7 7.73,-6.07c6.89,-2.69 14.89,-1.85 20.84,2.02c15.34,9.98 15.32,39 2.17,50.56c-6.36,5.58 -16.07,7.6 -23.99,3.89c-2.15,-1.01 -4.16,-2.77 -6.14,-4.37c-0.293,-0.233 -0.44,-0.163 -0.44,0.21Zm28.04,-11.49c4.04,-10.66 3.74,-30.85 -10.7,-34.61c-1.47,-0.38 -6.1,0.39 -7.37,0.93c-15.04,6.44 -15.24,40.7 2.28,43.15c6.78,0.95 13.48,-3.37 15.79,-9.47Z" style="fill:#fff;fill-rule:nonzero;stroke:#000;stroke-width:1px;"/><path d="M873.86,130.34c-0.01,8.95 5.46,18.34 15.3,18.69c1.97,0.07 3.93,0.39 5.77,-0.02c4.53,-1.02 9.47,-5.32 10.47,-9.78c0.26,-1.153 0.977,-1.66 2.15,-1.52l7.03,0.86c1.093,0.127 1.473,0.717 1.14,1.77c-4.25,13.31 -16.33,18.53 -29.38,16.68c-12.05,-1.71 -20,-9.55 -22.08,-21.78c-3.07,-18.1 4.19,-37 25.24,-37.79c19.25,-0.73 27.61,14.93 26.98,31.99c-0.007,0.307 -0.163,0.46 -0.47,0.46l-41.7,-0.01c-0.3,-0 -0.45,0.15 -0.45,0.45Zm1.18,-8.5l30.44,-0.1c0,0 0,0 0,0c0.379,0 0.69,-0.311 0.69,-0.69c0,-0.003 0,-0.007 0,-0.01l0,-0.09c-0.033,-8.512 -7.067,-15.49 -15.584,-15.46c-0.002,-0 -0.004,-0 -0.006,-0l-0.76,-0c-8.517,0.033 -15.5,7.062 -15.47,15.574l0,0.096c0.005,0.375 0.315,0.68 0.69,0.68Z" style="fill:#fff;fill-rule:nonzero;stroke:#000;stroke-width:1px;"/><path d="M938.1,105.98c4.96,-8.78 12.31,-11.41 21.33,-5.63c0.153,0.1 0.2,0.237 0.14,0.41l-3.08,8.69c-0.067,0.173 -0.18,0.21 -0.34,0.11c-6.21,-3.91 -14.06,-2.22 -16.3,5c-1.053,3.4 -1.6,7.297 -1.64,11.69c-0.073,9.913 -0.097,19.773 -0.07,29.58c0,0.165 -0.135,0.3 -0.3,0.3l-9.22,-0c-0.137,-0 -0.25,-0.113 -0.25,-0.25l0,-56.82c0,-0.38 0.19,-0.57 0.57,-0.57l7.56,0.01c0.5,-0 0.75,0.25 0.75,0.75l0,6.51c-0,0.005 -0,0.01 -0,0.014c-0,0.247 0.203,0.45 0.45,0.45c0.168,0 0.323,-0.094 0.4,-0.244Z" style="fill:#fff;fill-rule:nonzero;stroke:#000;stroke-width:1px;"/><path d="M1103.81,105.76c0.007,0.687 0.2,0.743 0.58,0.17c2.69,-4.09 4.77,-7.58 10.36,-8.49c3.553,-0.573 7.183,0.393 10.89,2.9c0.273,0.193 0.357,0.447 0.25,0.76l-2.79,7.91c-0.113,0.327 -0.337,0.433 -0.67,0.32c-1.34,-0.48 -2.66,-1.29 -3.92,-1.53c-11.78,-2.2 -13.69,9.16 -13.76,18.45c-0.06,9.973 -0.083,19.79 -0.07,29.45c0,0.247 -0.208,0.45 -0.46,0.45l-8.93,-0.09c-0.34,-0.007 -0.51,-0.18 -0.51,-0.52l0.05,-56.83c0,-0.147 0.073,-0.22 0.22,-0.22l8.36,0.04c0.176,0 0.32,0.149 0.32,0.33l0.08,6.9Z" style="fill:#fff;fill-rule:nonzero;stroke:#000;stroke-width:1px;"/><path d="M1164.73,118.83c-2.59,10.96 -1.11,28.78 13.19,30.44c9.05,1.05 15.45,-4.87 16.18,-14.03c0.02,-0.22 0.137,-0.313 0.35,-0.28l9.03,1.21c0.22,0.033 0.31,0.157 0.27,0.37c-1.867,11.1 -7.777,17.843 -17.73,20.23c-13.17,3.14 -27.57,-4.38 -30.79,-17.76c-4.66,-19.4 1.74,-42.98 26.51,-41.65c11.26,0.613 18.353,6.563 21.28,17.85c0.007,0.027 0.011,0.055 0.011,0.084c0,0.157 -0.116,0.292 -0.271,0.316l-9.05,1.46c-0.175,0.029 -0.344,-0.091 -0.38,-0.27c-2.01,-11.92 -15.8,-15.07 -23.86,-7.19c-2.213,2.167 -3.793,5.24 -4.74,9.22Z" style="fill:#fff;fill-rule:nonzero;stroke:#000;stroke-width:1px;"/><path d="M1249.39,149.42c-7.52,6.44 -16.267,8.893 -26.24,7.36c-15.63,-2.4 -19.39,-22.25 -5.84,-29.98c5.93,-3.38 13.94,-3.73 20.68,-4.69c3.533,-0.507 7.013,-1.263 10.44,-2.27c0.307,-0.087 0.483,-0.29 0.53,-0.61c1.58,-11.49 -6.9,-14.58 -16.48,-13.93c-6.7,0.453 -10.737,4.047 -12.11,10.78c-0.036,0.18 -0.203,0.304 -0.38,0.28l-9.01,-1.19c-0.18,-0.027 -0.253,-0.127 -0.22,-0.3c1.42,-7.98 5.833,-13.15 13.24,-15.51c11.67,-3.71 34.59,-4.07 34.79,14.14c0.12,10.247 0.197,20.497 0.23,30.75c0.02,4.247 0.913,7.89 2.68,10.93c0.367,0.633 0.187,0.95 -0.54,0.95l-8.3,-0c-0.833,-0 -1.363,-0.4 -1.59,-1.2l-1.56,-5.42c-0.027,-0.082 -0.104,-0.138 -0.19,-0.138c-0.048,0 -0.094,0.017 -0.13,0.048Zm-0.92,-21.99c-7.17,2.46 -14.32,3.03 -21.56,4.79c-9.76,2.36 -10.19,14.68 -0.66,16.97c10.42,2.49 21.93,-2.97 22.68,-14.69c0.147,-2.24 0.193,-4.457 0.14,-6.65c-0.002,-0.245 -0.205,-0.446 -0.45,-0.446c-0.051,0 -0.102,0.009 -0.15,0.026Z" style="fill:#fff;fill-rule:nonzero;stroke:#000;stroke-width:1px;"/><path d="M1311.89,130.49c0.23,9 5.39,18.15 15.36,18.53c1.99,0.07 4.14,0.48 6,-0.07c5.32,-1.587 8.84,-5.12 10.56,-10.6c0.149,-0.48 0.626,-0.788 1.13,-0.73l8.66,1.04c0.313,0.033 0.433,0.203 0.36,0.51c-2.107,8.38 -6.917,13.9 -14.43,16.56c-6.67,2.37 -15.91,2.11 -22.44,-0.72c-8.3,-3.6 -13.253,-10.36 -14.86,-20.28c-2.69,-16.57 3.9,-35.63 23.24,-37.26c19.92,-1.67 30.07,13.61 28.98,32c-0.02,0.287 -0.173,0.43 -0.46,0.43l-41.52,-0c-0.4,-0 -0.593,0.197 -0.58,0.59Zm1.05,-8.74l30.78,0.06c0.28,-0 0.51,-0.23 0.51,-0.51l0,-0.133c0.015,-8.591 -6.943,-15.672 -15.413,-15.687c-0.002,0 -0.005,0 -0.007,-0l-0.92,-0c-8.466,-0.011 -15.443,7.043 -15.46,15.63l0,0.13c0,0.28 0.23,0.51 0.51,0.51Z" style="fill:#fff;fill-rule:nonzero;stroke:#000;stroke-width:1px;"/><path d="M802.08,142.5c0.045,0.049 0.109,0.077 0.176,0.077c0.112,-0 0.209,-0.078 0.234,-0.187l11.51,-43.12c0.14,-0.5 0.467,-0.75 0.98,-0.75l8.67,-0.02c0.388,0.001 0.731,0.264 0.83,0.64l10.95,42.17c0.057,0.208 0.247,0.353 0.463,0.353c0.208,0 0.393,-0.135 0.457,-0.333l12.56,-42.53c0.06,-0.187 0.19,-0.28 0.39,-0.28l8.96,-0.03c0.001,-0 0.002,-0 0.003,-0c0.137,-0 0.25,0.113 0.25,0.25c0,0.027 -0.004,0.054 -0.013,0.08l-17.93,56.98c-0.065,0.202 -0.252,0.34 -0.46,0.34l-9.3,-0.04c-0.307,-0 -0.497,-0.147 -0.57,-0.44l-11.03,-41.72c-0.036,-0.154 -0.174,-0.263 -0.331,-0.263c-0.154,-0 -0.29,0.104 -0.329,0.253l-11.04,41.59c-0.107,0.407 -0.367,0.61 -0.78,0.61l-8.99,-0c-0.453,-0 -0.747,-0.22 -0.88,-0.66l-17.4,-56.66c-0.007,-0.023 -0.01,-0.046 -0.01,-0.07c-0,-0.137 0.113,-0.25 0.25,-0.25l9.66,0.03c0.153,-0 0.25,0.077 0.29,0.23c3.88,14.5 7.923,28.913 12.13,43.24c0.06,0.2 0.16,0.37 0.3,0.51Z" style="fill:#fff;fill-rule:nonzero;stroke:#000;stroke-width:1px;"/><path d="M1141.77,155.71c0,0.219 -0.181,0.4 -0.4,0.4l-9,0c-0.219,-0 -0.4,-0.181 -0.4,-0.4l0,-56.78c0,-0.219 0.181,-0.4 0.4,-0.4l9,0c0.219,0 0.4,0.181 0.4,0.4l0,56.78Z" style="fill:#fff;fill-rule:nonzero;stroke:#000;stroke-width:1px;"/><path d="M769.77,122.24c0.853,0.18 1.157,-0.147 0.91,-0.98c-2.647,-9.08 -8.543,-14.8 -17.69,-17.16c-0.453,-0.12 -0.623,-0.403 -0.51,-0.85l0.74,-2.97c0.088,-0.346 0.442,-0.561 0.79,-0.48c10.21,2.47 20.23,11.17 21.09,22.33c0.03,0.37 0.334,0.661 0.7,0.67l3.01,0.1c0.053,0.003 0.105,0.012 0.156,0.027c0.325,0.101 0.511,0.447 0.412,0.767c-0.016,0.051 -0.039,0.1 -0.068,0.146l-7.04,11.19c-0.025,0.041 -0.057,0.077 -0.094,0.107c-0.186,0.154 -0.469,0.123 -0.625,-0.068c-0.03,-0.036 -0.054,-0.076 -0.071,-0.119l-4.84,-12.6c-0.016,-0.042 -0.025,-0.087 -0.029,-0.132c-0.022,-0.268 0.176,-0.506 0.438,-0.528c0.047,-0.004 0.095,-0 0.141,0.01l2.58,0.54Z" style="fill:#fff;fill-rule:nonzero;stroke:#000;stroke-width:1px;"/><path d="M732.29,109.92c-6.273,6.307 -8.43,13.897 -6.47,22.77c0.133,0.6 -0.097,0.983 -0.69,1.15l-2.48,0.71c-0.613,0.173 -0.987,-0.053 -1.12,-0.68c-2.447,-11.5 0.637,-21.013 9.25,-28.54c0.294,-0.259 0.377,-0.685 0.2,-1.03l-1.38,-2.71c-0.193,-0.387 -0.073,-0.57 0.36,-0.55l13.75,0.64c0.42,0.02 0.497,0.19 0.23,0.51l-8.56,10.51c-0.327,0.407 -0.597,0.367 -0.81,-0.12l-1.05,-2.42c-0.12,-0.277 -0.395,-0.458 -0.697,-0.458c-0.2,0 -0.391,0.078 -0.533,0.218Z" style="fill:#fff;fill-rule:nonzero;stroke:#000;stroke-width:1px;"/><path d="M175.85,146.31c0,6.556 -5.394,11.95 -11.95,11.95c-6.556,0 -11.95,-5.394 -11.95,-11.95c0,-6.556 5.394,-11.95 11.95,-11.95c6.556,0 11.95,5.394 11.95,11.95Zm-4.8,0.01c0,-3.922 -3.228,-7.15 -7.15,-7.15c-3.922,0 -7.15,3.228 -7.15,7.15c0,3.922 3.228,7.15 7.15,7.15c3.922,0 7.15,-3.228 7.15,-7.15Z" style="fill:#fff;fill-rule:nonzero;stroke:#000;stroke-width:1px;"/><path d="M738.02,146.3c-0.136,0.133 -0.212,0.316 -0.212,0.506c-0,0.285 0.17,0.543 0.432,0.654c10.33,4.44 22,1.9 28.67,-7.42c0.222,-0.308 0.653,-0.384 0.96,-0.17l2.54,1.75c0.182,0.127 0.291,0.336 0.291,0.558c0,0.145 -0.046,0.285 -0.131,0.402c-8.3,11.42 -23.53,14.89 -35.93,7.93c-0.36,-0.2 -0.677,-0.15 -0.95,0.15l-2.17,2.35c-0.072,0.079 -0.174,0.125 -0.281,0.125c-0.161,-0 -0.306,-0.103 -0.359,-0.255l-4.38,-12.86c-0.012,-0.038 -0.018,-0.077 -0.018,-0.117c-0.002,-0.214 0.169,-0.391 0.377,-0.392c0.041,-0.001 0.082,0.006 0.121,0.019l12.68,3.95c0.245,0.077 0.413,0.306 0.413,0.563c-0,0.156 -0.062,0.306 -0.173,0.417l-1.88,1.84Z" style="fill:#fff;fill-rule:nonzero;stroke:#000;stroke-width:1px;"/><path d="M1380.48,155.7c-0,0.235 -0.194,0.429 -0.43,0.429c-0,0 -0.001,0 -0.001,-0l-10.38,-0.018c-0.235,-0 -0.429,-0.194 -0.429,-0.43c-0,-0 -0,-0.001 0,-0.001l0.018,-10.32c0,-0.235 0.194,-0.429 0.43,-0.429c0,-0 0.001,-0 0.001,0l10.38,0.018c0.235,0 0.429,0.194 0.429,0.43c0,0 0,0.001 -0,0.001l-0.018,10.32Z" style="fill:#fff;fill-rule:nonzero;stroke:#000;stroke-width:1px;"/><path d="M1475.11,155.831c-0,0.148 -0.121,0.27 -0.269,0.27l-10.56,0.037c-0.001,0 -0.001,0 -0.001,0c-0.148,0 -0.27,-0.121 -0.27,-0.269l-0.037,-10.64c-0.001,-0.148 0.12,-0.27 0.269,-0.271l10.56,-0.036c-0,-0 0,-0 0,-0c0.148,-0 0.27,0.121 0.27,0.269l0.038,10.64Z" style="fill:#fff;fill-rule:nonzero;stroke:#000;stroke-width:1px;"/><path d="M142.79,167.32c0,6.556 -5.394,11.95 -11.95,11.95c-6.556,0 -11.95,-5.394 -11.95,-11.95c0,-6.556 5.394,-11.95 11.95,-11.95c6.556,0 11.95,5.394 11.95,11.95Zm-4.8,-0.02c0,-3.922 -3.228,-7.15 -7.15,-7.15c-3.922,0 -7.15,3.228 -7.15,7.15c0,3.922 3.228,7.15 7.15,7.15c3.922,0 7.15,-3.228 7.15,-7.15Z" style="fill:#fff;fill-rule:nonzero;stroke:#000;stroke-width:1px;"/><path d="M208.92,167.32c-0,6.556 -5.394,11.95 -11.95,11.95c-6.556,0 -11.95,-5.394 -11.95,-11.95c-0,-6.556 5.394,-11.95 11.95,-11.95c6.556,0 11.95,5.394 11.95,11.95Zm-4.8,-0.01c0,-3.922 -3.228,-7.15 -7.15,-7.15c-3.922,0 -7.15,3.228 -7.15,7.15c-0,3.922 3.228,7.15 7.15,7.15c3.922,0 7.15,-3.228 7.15,-7.15Z" style="fill:#fff;fill-rule:nonzero;stroke:#000;stroke-width:1px;"/><path d="M151.29,184.83c-3.313,0 -6.04,-2.727 -6.04,-6.04l0,-0.29c0,-10.154 8.369,-18.51 18.54,-18.51l0.18,-0c10.171,-0 18.54,8.356 18.54,18.51l0,0.29c0,3.313 -2.727,6.04 -6.04,6.04l-25.18,0Zm0.07,-4.73l25.04,-0.04c0.752,-0 1.37,-0.618 1.37,-1.37l0,-0.12c-0.011,-7.576 -6.232,-13.801 -13.78,-13.79l-0.264,0c-7.547,0.013 -13.747,6.256 -13.736,13.83l0,0.12c0,0.752 0.618,1.37 1.37,1.37Z" style="fill:#fff;fill-rule:nonzero;stroke:#000;stroke-width:1px;"/><path d="M118.16,205.88c-0.003,0 -0.007,0 -0.01,0c-3.31,0 -6.035,-2.72 -6.04,-6.03l0,-0.15c-0.017,-10.252 8.319,-18.702 18.467,-18.72l0.363,0c10.149,-0.016 18.513,8.407 18.53,18.66l0,0.16c0,3.31 -2.72,6.035 -6.03,6.04l-25.28,0.04Zm0.09,-4.79l25.28,0.04c0.675,0 1.23,-0.555 1.23,-1.23l0,-0.11c0.011,-7.547 -6.18,-13.767 -13.716,-13.78l-0.264,0c-7.538,-0.011 -13.749,6.191 -13.76,13.74l0,0.11c0,0.675 0.555,1.23 1.23,1.23Z" style="fill:#fff;fill-rule:nonzero;stroke:#000;stroke-width:1px;"/><path d="M184.34,205.86c-3.31,-0.005 -6.03,-2.73 -6.03,-6.04l0,-0.08c0.017,-10.308 8.377,-18.776 18.52,-18.76l0.383,0c10.142,0.018 18.474,8.513 18.457,18.82l-0,0.07c-0.005,3.31 -2.73,6.03 -6.04,6.03c-0.003,0 -0.007,0 -0.01,-0l-25.28,-0.04Zm0.15,-4.71l25.06,0.04c0.774,0 1.41,-0.636 1.41,-1.41l-0,-0.13c0.011,-7.602 -6.211,-13.867 -13.786,-13.88l-0.264,0c-7.576,-0.011 -13.819,6.237 -13.83,13.84l0,0.13c0,0.774 0.636,1.41 1.41,1.41Z" style="fill:#fff;fill-rule:nonzero;stroke:#000;stroke-width:1px;"/><path d="M264.74,194.47c3.41,6.99 -0.06,15.65 -6.79,18.72c-0.733,0.333 -1.427,0.19 -2.08,-0.43c-4.81,-4.55 -7.9,-7.4 -6.99,-14.51c0.6,-4.72 3.28,-7.41 6.58,-10.77c1.387,-1.407 2.73,-1.483 4.03,-0.23c2.18,2.1 3.93,4.507 5.25,7.22Zm-7.3,13c2.145,-0 3.91,-3.291 3.91,-7.29c0,-3.999 -1.765,-7.29 -3.91,-7.29c-2.145,-0 -3.91,3.291 -3.91,7.29c0,3.999 1.765,7.29 3.91,7.29Z" style="fill:#fff;fill-rule:nonzero;stroke:#000;stroke-width:1px;"/><path d="M71.167,200.016c-0,0.001 -0,0.002 -0,0.004c-0,1.15 -0.946,2.098 -2.097,2.1l-0.444,0c-1.15,0 -2.098,-0.945 -2.1,-2.096l-0.013,-7.4c0,-0.001 0,-0.002 0,-0.004c0,-1.15 0.946,-2.098 2.097,-2.1l0.444,-0c1.15,-0 2.098,0.945 2.099,2.096l0.013,7.4Z" style="fill:#fff;fill-rule:nonzero;stroke:#000;stroke-width:1px;"/><path d="M49.428,210.184c-0.373,0.375 -0.881,0.586 -1.409,0.586c-0.527,-0 -1.032,-0.209 -1.405,-0.581l-5.327,-5.308c-0.773,-0.771 -0.775,-2.041 -0.005,-2.814l0.41,-0.411c0.373,-0.375 0.881,-0.586 1.409,-0.586c0.527,0 1.032,0.209 1.405,0.581l5.327,5.308c0.773,0.771 0.775,2.041 0.005,2.814l-0.41,0.411Z" style="fill:#fff;fill-rule:nonzero;stroke:#000;stroke-width:1px;"/><path d="M96.29,202c0.384,0.386 0.6,0.909 0.6,1.454c0,0.547 -0.218,1.073 -0.606,1.459l-5.256,5.238c-0.385,0.385 -0.909,0.601 -1.454,0.601c-0.547,-0 -1.072,-0.218 -1.459,-0.606l-0.325,-0.326c-0.384,-0.386 -0.6,-0.909 -0.6,-1.454c-0,-0.547 0.218,-1.073 0.606,-1.459l5.255,-5.238c0.386,-0.385 0.91,-0.601 1.455,-0.601c0.547,0 1.072,0.218 1.459,0.606l0.325,0.326Z" style="fill:#fff;fill-rule:nonzero;stroke:#000;stroke-width:1px;"/><path d="M245.42,223.8c-5.2,-3.007 -7.72,-7.61 -7.56,-13.81c0.03,-1.05 -0.19,-3.43 0.37,-4.84c0.013,-0.033 0.027,-0.066 0.042,-0.098c0.448,-0.984 1.622,-1.426 2.6,-0.98c0.033,0.015 0.066,0.031 0.098,0.048c11.02,5.79 16.44,8.71 15.69,22.48c-0.063,1.122 -1.003,2.011 -2.127,2.011c-0.319,-0 -0.635,-0.072 -0.923,-0.211c-2.69,-1.28 -5.32,-2.94 -8.19,-4.6Zm-1.57,-12.89c-0.169,-0.108 -0.365,-0.165 -0.566,-0.165c-0.576,-0 -1.05,0.474 -1.05,1.05c0,0.124 0.023,0.248 0.066,0.365l1.87,4.98c0.079,0.209 0.223,0.388 0.41,0.51l6.15,4.01c0.17,0.11 0.368,0.169 0.571,0.169c0.576,-0 1.05,-0.474 1.05,-1.05c-0,-0.13 -0.024,-0.258 -0.071,-0.379l-1.93,-4.99c-0.08,-0.201 -0.219,-0.372 -0.4,-0.49l-6.1,-4.01Z" style="fill:#fff;fill-rule:nonzero;stroke:#000;stroke-width:1px;"/><path d="M277.08,206.5c0.15,14.46 -4.76,15.52 -16.01,22.02c-0.264,0.154 -0.579,0.201 -0.88,0.13c-1.34,-0.32 -2.003,-1.203 -1.99,-2.65c0.07,-7.36 0.15,-12.73 7.12,-16.93c2.7,-1.62 5.433,-3.2 8.2,-4.74c1.7,-0.95 3.54,0.3 3.56,2.17Zm-6.97,11.38c0.174,-0.111 0.308,-0.276 0.38,-0.47l2.04,-5.39c0.038,-0.105 0.058,-0.216 0.058,-0.327c0,-0.522 -0.429,-0.95 -0.95,-0.95c-0.18,-0 -0.356,0.051 -0.508,0.147l-6.26,4.01c-0.174,0.111 -0.308,0.276 -0.38,0.47l-1.96,5.19c-0.04,0.106 -0.06,0.219 -0.06,0.332c0,0.521 0.429,0.95 0.95,0.95c0.177,0 0.35,-0.049 0.5,-0.142l6.19,-3.82Z" style="fill:#fff;fill-rule:nonzero;stroke:#000;stroke-width:1px;"/><path d="M733.36,226.52c-3.033,-1.053 -6.04,-2.14 -9.02,-3.26c-3.94,-1.48 -6.04,-4.06 -6.3,-7.74c-0.69,-9.62 11.43,-11.3 17.72,-8.71c3.233,1.327 5.173,3.893 5.82,7.7c0.009,0.05 0.013,0.1 0.013,0.15c0,0.466 -0.383,0.85 -0.85,0.85c-0.001,0 -0.002,0 -0.003,0l-4.46,-0.01c-0.407,0 -0.693,-0.187 -0.86,-0.56c-1.473,-3.34 -4.32,-4.497 -8.54,-3.47c-4.9,1.2 -2.89,4.83 0.55,5.87c2.607,0.793 5.207,1.6 7.8,2.42c5.453,1.727 7.75,5.503 6.89,11.33c-0.54,3.64 -2.443,6.077 -5.71,7.31c-7.81,2.96 -18.11,0.72 -19.6,-8.85c-0.08,-0.5 0.13,-0.783 0.63,-0.85l4.8,-0.66c0.319,-0.042 0.624,0.16 0.71,0.47c0.127,0.467 0.407,1.21 0.84,2.23c2.01,4.78 11.23,4.82 12.3,-0.47c0.353,-1.74 -0.557,-2.99 -2.73,-3.75Z" style="fill:#fff;fill-rule:nonzero;stroke:#000;stroke-width:1px;"/><path d="M367.2,231.46l-12.58,0.06c-0.213,0.002 -0.402,0.139 -0.47,0.34l-2.08,6.43c-0.066,0.209 -0.261,0.351 -0.48,0.35l-5.72,-0.05c-0.27,-0.006 -0.49,-0.229 -0.49,-0.5c0,-0.058 0.01,-0.115 0.03,-0.17l11.11,-30.91c0.071,-0.198 0.26,-0.33 0.47,-0.33l7.97,-0.03c0.21,0 0.399,0.132 0.47,0.33l11.23,30.9c0.02,0.055 0.03,0.112 0.03,0.17c-0,0.274 -0.226,0.5 -0.5,0.5l-5.84,0.04c-0.216,0.003 -0.411,-0.135 -0.48,-0.34l-2.19,-6.45c-0.069,-0.205 -0.264,-0.343 -0.48,-0.34Zm-10.95,-5.66c-0.011,0.036 -0.017,0.073 -0.017,0.11c-0,0.196 0.161,0.358 0.357,0.36l8.7,-0.06c0.196,-0.002 0.357,-0.164 0.357,-0.36c0,-0.037 -0.006,-0.074 -0.017,-0.11l-4.44,-12.92c-0.05,-0.144 -0.187,-0.242 -0.34,-0.242c-0.153,0 -0.29,0.098 -0.34,0.242l-4.26,12.98Z" style="fill:#fff;fill-rule:nonzero;stroke:#000;stroke-width:1px;"/><path d="M438.28,238.09c-0,0.263 -0.217,0.48 -0.48,0.48l-5.08,0c-0.263,-0 -0.48,-0.217 -0.48,-0.48l0,-30.92c0,-0.263 0.217,-0.48 0.48,-0.48l5.08,-0c0.263,0 0.48,0.217 0.48,0.48l-0,30.92Z" style="fill:#fff;fill-rule:nonzero;stroke:#000;stroke-width:1px;"/><path d="M628.49,238.02c0,0.307 -0.253,0.56 -0.56,0.56l-5.06,0c-0.307,0 -0.56,-0.253 -0.56,-0.56l-0,-30.78c-0,-0.307 0.253,-0.56 0.56,-0.56l5.06,0c0.307,0 0.56,0.253 0.56,0.56l0,30.78Z" style="fill:#fff;fill-rule:nonzero;stroke:#000;stroke-width:1px;"/><path d="M559.12,225.07c4.62,3.64 6.86,8.48 10.1,13.26c0.006,0.008 0.011,0.018 0.014,0.028c0.016,0.052 -0.019,0.11 -0.077,0.127c-0.009,0.003 -0.018,0.004 -0.027,0.005l-7.31,0.04c-0.131,-0 -0.252,-0.065 -0.32,-0.17c-3.173,-4.673 -5.317,-7.907 -6.43,-9.7c-1.713,-2.76 -4.193,-3.87 -7.44,-3.33c-0.253,0.04 -0.38,0.19 -0.38,0.45l0,12.48c0,0.143 -0.117,0.26 -0.26,0.26l-5.96,-0.01c-0.147,0 -0.22,-0.073 -0.22,-0.22l0.02,-31.03c0,-0.3 0.15,-0.457 0.45,-0.47c6.627,-0.193 12.367,-0.17 17.22,0.07c4.92,0.24 7.74,3.6 8.03,8.38c0.293,4.64 -2.137,7.71 -7.29,9.21c-0.44,0.133 -0.48,0.34 -0.12,0.62Zm-11.9,-12.69l0.02,7.24c0,0.23 0.19,0.42 0.42,0.42l8.13,-0.03c2.385,-0.007 4.344,-1.717 4.34,-3.79l0,-0.52c-0,-0.002 -0,-0.003 -0,-0.005c-0.007,-2.073 -1.975,-3.772 -4.36,-3.765l-8.13,0.03c-0.23,0 -0.42,0.19 -0.42,0.42Z" style="fill:#fff;fill-rule:nonzero;stroke:#000;stroke-width:1px;"/><path d="M640.7,211.4c0,0.296 -0.244,0.54 -0.54,0.54l-5.06,0c-0.296,0 -0.54,-0.244 -0.54,-0.54l-0,-4.12c-0,-0.296 0.244,-0.54 0.54,-0.54l5.06,0c0.296,0 0.54,0.244 0.54,0.54l0,4.12Z" style="fill:#fff;fill-rule:nonzero;stroke:#000;stroke-width:1px;"/><path d="M845.468,211.433c-0.003,0.31 -0.259,0.564 -0.57,0.564c-0.002,-0 -0.004,-0 -0.006,-0l-5.079,-0.054c-0.311,-0.003 -0.564,-0.259 -0.564,-0.57c-0,-0.002 -0,-0.004 -0,-0.006l0.043,-4.099c0.003,-0.311 0.259,-0.565 0.57,-0.565c0.002,0 0.004,0 0.006,0l5.079,0.054c0.311,0.003 0.564,0.259 0.564,0.57c0,0.002 0,0.004 0,0.006l-0.043,4.1Z" style="fill:#fff;fill-rule:nonzero;stroke:#000;stroke-width:1px;"/><path d="M806.32,220.52l0.09,12.14c0,0.026 0.001,0.053 0.003,0.079c0.054,0.865 0.807,1.532 1.666,1.478c0.027,-0.001 0.054,-0.004 0.081,-0.007l1.66,-0.2c0.6,-0.067 0.937,0.2 1.01,0.8l0.24,2c0.063,0.544 -0.274,1.062 -0.8,1.23c-3.46,1.11 -8.75,0.86 -9.64,-3.41c-0.567,-2.74 -0.623,-7.403 -0.17,-13.99c0.023,-0.326 -0.22,-0.614 -0.54,-0.64l-1.97,-0.16c-0.372,-0.034 -0.667,-0.337 -0.69,-0.71c-0.04,-0.827 0.01,-1.703 0.15,-2.63c0.107,-0.713 0.74,-1.047 1.9,-1c0.687,0.033 1.007,-0.293 0.96,-0.98l-0.16,-2.42c-0.033,-0.453 0.143,-0.797 0.53,-1.03l5.08,-3.1c0.353,-0.22 0.547,-0.12 0.58,0.3c0.153,2.187 0.13,4.35 -0.07,6.49c-0.067,0.727 1.053,0.993 3.36,0.8c0.693,-0.06 1.043,0.257 1.05,0.95l0.03,2.52c0.013,0.653 -0.307,0.967 -0.96,0.94l-2.73,-0.08c-0.44,-0.013 -0.66,0.197 -0.66,0.63Z" style="fill:#fff;fill-rule:nonzero;stroke:#000;stroke-width:1px;"/><path d="M78.92,250.87c0.23,3.63 0.52,8.25 -1.28,11.29c-2.49,4.2 -7.95,5.09 -12.48,4.06c-8.06,-1.83 -7.26,-8.86 -7.16,-15.08c0.006,-0.599 -0.292,-1.161 -0.79,-1.49c-5.573,-3.713 -8.937,-8.57 -10.09,-14.57c-4.6,-23.93 27.38,-35.74 40.11,-15.11c6.27,10.15 2.41,23.46 -7.7,29.72c-0.41,0.25 -0.647,0.707 -0.61,1.18Zm-17.89,-35.19c-11.58,5.47 -12.68,20.68 -3.11,28.68c1.407,1.18 2.597,1.767 3.57,1.76c4.42,-0 8.84,0.013 13.26,0.04c1.053,0.007 1.843,-0.163 2.37,-0.51c18.42,-12.19 3.2,-39.09 -16.09,-29.97Zm12.67,35.08l-10.42,-0.02c-0.307,-0 -0.56,0.253 -0.56,0.56l-0.01,6c-0.005,2.436 2.003,4.445 4.45,4.45l2.62,-0c0.001,0 0.002,0 0.002,0c2.446,0.004 4.463,-1.995 4.468,-4.43l0.01,-6c0,-0.307 -0.253,-0.56 -0.56,-0.56Z" style="fill:#fff;fill-rule:nonzero;stroke:#000;stroke-width:1px;"/><path d="M385.92,217.19c-0.153,0.887 0.12,1.047 0.82,0.48c3.213,-2.62 6.393,-3.5 9.54,-2.64c3.073,0.833 4.663,3.077 4.77,6.73c0.153,5.547 0.24,10.943 0.26,16.19c0.007,0.387 -0.183,0.58 -0.57,0.58l-5.16,0c-0.247,0 -0.45,-0.203 -0.45,-0.45l-0.06,-16.12c-0.011,-1.633 -1.357,-2.97 -2.99,-2.97c-0.083,-0 -0.167,0.003 -0.25,0.01l-1.19,0.09c-2.773,0.227 -4.163,1.733 -4.17,4.52l-0.06,14.44c-0.005,0.314 -0.266,0.57 -0.58,0.57l-5.04,-0.04c-0.36,-0.007 -0.54,-0.187 -0.54,-0.54l0,-21.79c0,-0.507 0.25,-0.76 0.75,-0.76l4.02,0.03c0.321,-0 0.613,0.189 0.74,0.48c0.173,0.387 0.227,0.783 0.16,1.19Z" style="fill:#fff;fill-rule:nonzero;stroke:#000;stroke-width:1px;"/><path d="M419.89,236.03c-5.2,4.37 -14.55,3.19 -14.15,-5.02c0.3,-6.02 7.14,-6.69 12.7,-7.82c1.367,-0.28 1.817,-1.137 1.35,-2.57c-0.09,-0.283 -0.283,-0.522 -0.54,-0.67c-2.893,-1.693 -5.323,-1.293 -7.29,1.2c-0.26,0.327 -0.6,0.457 -1.02,0.39l-3.79,-0.61c-0.367,-0.06 -0.5,-0.27 -0.4,-0.63c1.97,-7.13 15.29,-7.69 18.5,-1.81c1.55,2.84 0.37,12.57 0.5,14.77c0.087,1.527 0.51,3.033 1.27,4.52c0.28,0.54 0.113,0.81 -0.5,0.81l-4.29,0c-0.593,0 -0.97,-0.287 -1.13,-0.86l-0.4,-1.44c-0.14,-0.507 -0.41,-0.593 -0.81,-0.26Zm-8.15,-5.05c-0.33,4.82 8.85,4.6 8.14,-3.11c-0.033,-0.358 -0.337,-0.635 -0.697,-0.635c-0.048,0 -0.096,0.005 -0.143,0.015c-2.26,0.46 -7.12,1.08 -7.3,3.73Z" style="fill:#fff;fill-rule:nonzero;stroke:#000;stroke-width:1px;"/><path d="M577.17,228.49c0.52,4.8 6.75,9.1 8.74,2.39c0.053,-0.193 0.177,-0.273 0.37,-0.24l5.56,0.9c0.011,0.002 0.022,0.004 0.033,0.007c0.143,0.038 0.228,0.192 0.188,0.34c-0.003,0.011 -0.007,0.022 -0.011,0.033c-1.86,4.493 -5.29,6.693 -10.29,6.6c-8.64,-0.16 -11.7,-7.51 -10.26,-15.01c2.66,-13.84 22.39,-10.81 20.92,3.83c-0.04,0.367 -0.243,0.55 -0.61,0.55l-14.09,-0.01c-0.413,-0 -0.597,0.203 -0.55,0.61Zm1,-4l7.48,0.06c0.003,0 0.007,0 0.01,0c0.444,0 0.81,-0.366 0.81,-0.81l0,-0.15c0.017,-2.49 -1.982,-4.553 -4.428,-4.57c-0.001,0 -0.001,0 -0.002,-0l-0.18,-0c-2.446,-0.016 -4.473,2.02 -4.49,4.51l0,0.15c-0,0.441 0.359,0.805 0.8,0.81Z" style="fill:#fff;fill-rule:nonzero;stroke:#000;stroke-width:1px;"/><path d="M610.99,236.25c-0.025,-0.199 -0.196,-0.35 -0.397,-0.35c-0.092,-0 -0.182,0.032 -0.253,0.09c-4.45,3.72 -13.79,3.9 -14.16,-3.75c-0.38,-7.8 7.46,-7.84 12.86,-9.16c0.016,-0.004 0.031,-0.008 0.047,-0.012c0.862,-0.238 1.375,-1.147 1.136,-2.014c-0.004,-0.015 -0.009,-0.029 -0.013,-0.044c-0.267,-0.867 -0.833,-1.44 -1.7,-1.72c-2.673,-0.853 -4.78,-0.2 -6.32,1.96c-0.193,0.267 -0.453,0.373 -0.78,0.32l-3.88,-0.63c-0.373,-0.06 -0.52,-0.277 -0.44,-0.65c1.45,-6.32 10.58,-6.45 15.17,-4.83c3.26,1.15 3.93,4.27 3.91,8.04c-0.03,4.97 -0.8,9.82 1.21,14.53c0.022,0.05 0.033,0.105 0.033,0.16c0,0.217 -0.176,0.396 -0.393,0.4l-4.45,-0.02c-0.427,0 -0.747,-0.18 -0.96,-0.54c-0.333,-0.547 -0.54,-1.14 -0.62,-1.78Zm-2.78,-9.17l-5.69,2.31c-0.501,0.203 -0.831,0.692 -0.831,1.233c0,0.174 0.035,0.346 0.101,0.507l0.1,0.25c0.901,2.214 3.388,3.326 5.512,2.463c0.002,-0.001 0.005,-0.002 0.008,-0.003l0.4,-0.16c0.002,-0.001 0.004,-0.002 0.006,-0.002c2.123,-0.862 3.131,-3.393 2.234,-5.608l-0.1,-0.25c-0.201,-0.506 -0.692,-0.839 -1.236,-0.839c-0.173,-0 -0.344,0.034 -0.504,0.099Z" style="fill:#fff;fill-rule:nonzero;stroke:#000;stroke-width:1px;"/><path d="M674.98,227.88c-1.5,-0.007 -1.96,0.683 -1.38,2.07l0.69,1.65c0.66,1.58 1.843,2.433 3.55,2.56c2.14,0.16 3.483,-0.78 4.03,-2.82c0.107,-0.417 0.518,-0.69 0.95,-0.63l4.73,0.7c0.573,0.087 0.74,0.397 0.5,0.93c-2.067,4.547 -5.747,6.603 -11.04,6.17c-12.48,-1.02 -12.76,-20.38 -2.26,-23.35c8.64,-2.44 14.14,3.83 14.02,12.1c-0.005,0.347 -0.297,0.63 -0.65,0.63l-13.14,-0.01Zm-0.75,-3.4l7.72,0.02c0.408,0 0.745,-0.332 0.75,-0.74l-0,-0.13c0,-0.001 0,-0.003 0,-0.004c0.009,-2.511 -2.022,-4.585 -4.5,-4.596l-0.18,0c-2.48,-0.011 -4.529,2.048 -4.54,4.56l-0,0.13c-0,0.003 -0,0.007 -0,0.01c-0,0.411 0.338,0.75 0.75,0.75Z" style="fill:#fff;fill-rule:nonzero;stroke:#000;stroke-width:1px;"/><path d="M827.09,236.15c-4.14,3.27 -12.97,3.79 -13.85,-3.16c-1.06,-8.34 7.11,-8.63 12.76,-9.86c0.827,-0.173 1.21,-0.68 1.15,-1.52c-0.093,-1.313 -0.633,-2.117 -1.62,-2.41c-2.673,-0.793 -4.78,-0.133 -6.32,1.98c-0.221,0.306 -0.599,0.458 -0.97,0.39l-3.87,-0.71c-0.393,-0.073 -0.523,-0.3 -0.39,-0.68c2.31,-6.38 11.74,-6.75 16.34,-4.26c2.107,1.147 3.117,3.343 3.03,6.59c-0.14,5.21 -1.07,10.21 0.94,15.32c0.22,0.54 0.037,0.803 -0.55,0.79l-4.46,-0.12c-0.507,-0.007 -0.827,-0.253 -0.96,-0.74l-0.37,-1.33c-0.147,-0.527 -0.433,-0.62 -0.86,-0.28Zm-8.02,-5.01c0.87,5.6 9.66,3.25 7.86,-3.6c-0.08,-0.287 -0.267,-0.393 -0.56,-0.32l-5.64,1.42c-1.109,0.274 -1.834,1.366 -1.66,2.5Z" style="fill:#fff;fill-rule:nonzero;stroke:#000;stroke-width:1px;"/><path d="M495.69,228.47c0.247,3.507 2.087,5.43 5.52,5.77c0.177,0.02 0.356,-0.004 0.52,-0.07c1.173,-0.473 1.97,-1.283 2.39,-2.43c0.273,-0.74 0.8,-1.05 1.58,-0.93l3.86,0.61c0.84,0.133 1.06,0.573 0.66,1.32c-2.493,4.687 -6.493,6.57 -12,5.65c-12.72,-2.13 -11.47,-24.72 3.52,-23.67c6.24,0.44 9.62,6.5 9.29,12.2c-0.04,0.647 -0.383,0.97 -1.03,0.97l-13.75,-0.01c-0.4,-0 -0.587,0.197 -0.56,0.59Zm0.83,-3.99l7.78,-0c0.406,0 0.74,-0.334 0.74,-0.74l0,-0.13c0,-2.518 -2.049,-4.59 -4.54,-4.59l-0.18,0c-2.491,-0 -4.54,2.072 -4.54,4.59l0,0.13c0,0.406 0.334,0.74 0.74,0.74Z" style="fill:#fff;fill-rule:nonzero;stroke:#000;stroke-width:1px;"/><path d="M779.92,221.9c0.331,0.383 0.776,0.649 1.27,0.76c3.42,0.75 9.39,1.75 11.8,4.27c2.71,2.84 1.63,7.85 -1.59,9.73c-5.76,3.36 -14.72,2.67 -18.02,-3.88c-0.023,-0.046 -0.042,-0.093 -0.058,-0.141c-0.167,-0.517 0.117,-1.078 0.628,-1.243c0.049,-0.016 0.099,-0.028 0.15,-0.036l3.71,-0.58c0.893,-0.14 1.507,0.207 1.84,1.04c1.19,2.96 7.46,3.32 8.62,0.74c0.112,-0.25 0.17,-0.52 0.17,-0.793c-0,-0.952 -0.7,-1.77 -1.64,-1.917c-5.11,-0.82 -15.9,-2.81 -12.39,-10.86c1.82,-4.19 7.92,-4.69 11.85,-4.24c3.593,0.407 6.04,2.26 7.34,5.56c0.019,0.049 0.029,0.102 0.029,0.154c0,0.208 -0.154,0.386 -0.359,0.416l-4.25,0.63c-0.353,0.053 -0.65,-0.05 -0.89,-0.31c-2.16,-2.34 -4.777,-2.813 -7.85,-1.42c-1.047,0.48 -1.167,1.187 -0.36,2.12Z" style="fill:#fff;fill-rule:nonzero;stroke:#000;stroke-width:1px;"/><path d="M857.26,217.51c0.003,0.3 0.25,0.545 0.55,0.545c0.162,-0 0.316,-0.071 0.42,-0.195c1.9,-2.333 4.283,-3.393 7.15,-3.18c5.2,0.37 7.14,3.61 7.16,8.58c0.027,5.153 0.037,10.1 0.03,14.84c0,0.34 -0.173,0.51 -0.52,0.51l-5.09,-0.08c-0.353,0 -0.527,-0.177 -0.52,-0.53c0.173,-9.653 -0.03,-15.217 -0.61,-16.69c-0.667,-1.707 -1.86,-2.467 -3.58,-2.28c-4.33,0.49 -4.49,4.27 -4.52,7.72c-0.033,4.02 -0.017,7.747 0.05,11.18c0.007,0.38 -0.18,0.573 -0.56,0.58l-4.89,0.11c-0.54,0.013 -0.81,-0.25 -0.81,-0.79l0.01,-21.6c0,-0.493 0.247,-0.737 0.74,-0.73l4.24,0.01c0.417,-0 0.76,0.339 0.76,0.75l-0.01,1.25Z" style="fill:#fff;fill-rule:nonzero;stroke:#000;stroke-width:1px;"/><path d="M453.3,231c0.049,0.127 0.172,0.212 0.308,0.212c0.14,-0 0.266,-0.089 0.312,-0.222l5.13,-15.14c0.067,-0.207 0.207,-0.31 0.42,-0.31l5.37,0.02c0.016,0 0.031,0.002 0.047,0.005c0.151,0.027 0.254,0.169 0.227,0.315c-0.003,0.017 -0.008,0.034 -0.014,0.05c-2.5,6.773 -4.99,13.52 -7.47,20.24c-2.81,7.61 -4.08,12.77 -13.15,11.03c-0.527,-0.1 -0.827,-0.417 -0.9,-0.95l-0.34,-2.45c-0.08,-0.607 0.183,-0.887 0.79,-0.84c4.52,0.34 7.35,-1.79 5.51,-6.56c-2.613,-6.753 -5.197,-13.357 -7.75,-19.81c-0.28,-0.713 -0.037,-1.07 0.73,-1.07l4.17,-0.02c0.72,0 1.2,0.337 1.44,1.01l5.17,14.49Z" style="fill:#fff;fill-rule:nonzero;stroke:#000;stroke-width:1px;"/><path d="M475.29,234.19l11.32,0.07c0.4,0.007 0.603,0.207 0.61,0.6l0.05,2.89c0.007,0.527 -0.25,0.79 -0.77,0.79l-19.2,-0.01c-0.28,0 -0.45,-0.133 -0.51,-0.4c-0.46,-2.033 -0.293,-3.563 0.5,-4.59c3.44,-4.453 6.953,-8.743 10.54,-12.87c0.07,-0.08 0.109,-0.183 0.109,-0.29c0,-0.241 -0.198,-0.44 -0.439,-0.44l-9.29,-0.02c-0.467,0 -0.7,-0.237 -0.7,-0.71l-0.01,-2.95c-0,-0.406 0.334,-0.74 0.74,-0.74l17.23,0.01c0.413,0 0.67,0.203 0.77,0.61c0.56,2.35 -0.09,4.22 -1.71,6.13c-3.187,3.767 -6.363,7.537 -9.53,11.31c-0.333,0.4 -0.237,0.603 0.29,0.61Z" style="fill:#fff;fill-rule:nonzero;stroke:#000;stroke-width:1px;"/><path d="M640.769,237.955c0,-0 0,0 0,0.001c0,0.339 -0.279,0.619 -0.619,0.62l-4.96,0.008c-0,0 -0.001,0 -0.001,0c-0.34,0 -0.619,-0.279 -0.62,-0.619l-0.038,-21.8c-0,0 -0,-0 -0,-0.001c-0,-0.339 0.279,-0.619 0.619,-0.62l4.96,-0.008c0,-0 0.001,-0 0.001,-0c0.34,-0 0.619,0.279 0.62,0.619l0.038,21.8Z" style="fill:#fff;fill-rule:nonzero;stroke:#000;stroke-width:1px;"/><path d="M653.28,234.23l10.71,0.01c0.667,0 1.003,0.333 1.01,1l0.01,2.51c0.007,0.52 -0.247,0.78 -0.76,0.78l-19.07,0.03c-0.373,0 -0.617,-0.177 -0.73,-0.53c-0.607,-1.847 -0.367,-3.453 0.72,-4.82c3.38,-4.273 6.787,-8.42 10.22,-12.44c0.08,-0.091 0.124,-0.209 0.124,-0.33c0,-0.272 -0.222,-0.497 -0.494,-0.5l-9.31,-0.01c-0.313,0 -0.47,-0.157 -0.47,-0.47l-0.03,-3.43c0,-0.34 0.17,-0.51 0.51,-0.51l17.41,0.01c0,-0 0,-0 0,-0c0.522,-0 0.95,0.429 0.95,0.95c0,0.01 0,0.02 0,0.03l-0.11,3.06c-0.013,0.38 -0.14,0.713 -0.38,1l-10.72,12.79c-0.08,0.095 -0.123,0.216 -0.123,0.34c-0,0.291 0.239,0.53 0.53,0.53c0.001,0 0.002,0 0.003,0Z" style="fill:#fff;fill-rule:nonzero;stroke:#000;stroke-width:1px;"/><path d="M762.76,235.78c-3.08,2.753 -6.507,3.507 -10.28,2.26c-3.74,-1.23 -4.37,-4.53 -4.42,-8.37c-0.067,-4.687 -0.08,-9.237 -0.04,-13.65c-0,-0.333 0.167,-0.5 0.5,-0.5l5.24,0.02c0.258,0 0.47,0.212 0.47,0.47l-0.02,14.52c-0,2.927 1.44,4.137 4.32,3.63l1.02,-0.18c1.823,-0.323 3.165,-1.924 3.17,-3.78l0.04,-13.96c-0,-0.406 0.339,-0.74 0.75,-0.74l4.46,0.05c0.607,0.007 0.91,0.313 0.91,0.92l-0.01,21.1c-0,0.627 -0.313,0.947 -0.94,0.96l-3.64,0.09c-0.47,0.012 -0.869,-0.356 -0.89,-0.82l-0.08,-1.78c-0.027,-0.473 -0.213,-0.553 -0.56,-0.24Z" style="fill:#fff;fill-rule:nonzero;stroke:#000;stroke-width:1px;"/><path d="M845.48,237.9c0,0.368 -0.302,0.67 -0.67,0.67l-4.86,0c-0.368,0 -0.67,-0.302 -0.67,-0.67l-0,-21.7c-0,-0.368 0.302,-0.67 0.67,-0.67l4.86,-0c0.368,0 0.67,0.302 0.67,0.67l0,21.7Z" style="fill:#fff;fill-rule:nonzero;stroke:#000;stroke-width:1px;"/><path d="M252.87,246.89c-10.99,-6.33 -15.59,-8.1 -14.92,-22.21c0.049,-0.896 0.763,-1.672 1.74,-1.89c0.547,-0.12 1.227,0.05 2.04,0.51c6.05,3.42 13.42,6.45 14.64,14.07c0.45,2.78 1.54,12.42 -3.5,9.52Zm-0.915,-6.901c0.956,-0.898 -0.368,-3.884 -2.933,-6.615l0,-0c-2.565,-2.731 -5.462,-4.24 -6.418,-3.343c-0.955,0.898 0.369,3.884 2.934,6.615l-0,0c2.565,2.731 5.462,4.24 6.417,3.343Z" style="fill:#fff;fill-rule:nonzero;stroke:#000;stroke-width:1px;"/><path d="M276.08,235.06c-2.58,6.44 -8.48,8.56 -13.99,11.83c-0.159,0.093 -0.334,0.17 -0.52,0.23c-1.967,0.607 -3.01,0.063 -3.13,-1.63c-0.42,-5.67 -0.58,-10.05 3.24,-14.6c2.46,-2.94 7.41,-5.17 11.08,-7.36c6.58,-3.93 4.08,9.64 3.32,11.53Zm-5.93,1.54c0.163,-0.101 0.289,-0.252 0.36,-0.43l2.18,-5.56c0.04,-0.104 0.061,-0.214 0.061,-0.326c0,-0.493 -0.406,-0.9 -0.9,-0.9c-0.174,0 -0.345,0.051 -0.491,0.146l-6.67,4.39c-0.162,0.108 -0.285,0.266 -0.35,0.45l-1.85,5.23c-0.034,0.096 -0.051,0.197 -0.051,0.3c-0,0.493 0.406,0.9 0.9,0.9c0.17,-0 0.337,-0.049 0.481,-0.14l6.33,-4.06Z" style="fill:#fff;fill-rule:nonzero;stroke:#000;stroke-width:1px;"/><path d="M41.669,229.41c-0.008,1.152 -0.958,2.096 -2.11,2.096c-0.005,-0 -0.01,-0 -0.015,-0l-7.34,-0.052c-1.152,-0.008 -2.095,-0.958 -2.095,-2.11c0,-0.005 0,-0.009 0,-0.014l0.002,-0.3c0.008,-1.152 0.958,-2.096 2.11,-2.096c0.005,0 0.01,0 0.015,0l7.34,0.052c1.152,0.008 2.095,0.958 2.095,2.11c-0,0.005 -0,0.009 -0,0.014l-0.002,0.3Z" style="fill:#fff;fill-rule:nonzero;stroke:#000;stroke-width:1px;"/><path d="M107.51,229.5c0,1.075 -0.885,1.96 -1.96,1.96l-7.64,0c-1.075,0 -1.96,-0.885 -1.96,-1.96l-0,-0.58c0,-1.075 0.885,-1.96 1.96,-1.96l7.64,0c1.075,0 1.96,0.885 1.96,1.96l0,0.58Z" style="fill:#fff;fill-rule:nonzero;stroke:#000;stroke-width:1px;"/><path d="M700,238.271c-0,0.142 -0.117,0.259 -0.26,0.259c0,-0 -0,-0 -0.001,-0l-5.7,-0.02c-0.142,-0 -0.259,-0.118 -0.259,-0.26c0,-0 0,-0.001 0,-0.001l0.02,-5.54c0,-0.142 0.117,-0.259 0.26,-0.259c-0,0 0,0 0.001,0l5.7,0.02c0.142,0 0.259,0.118 0.259,0.26c-0,0 -0,0.001 -0,0.001l-0.02,5.54Z" style="fill:#fff;fill-rule:nonzero;stroke:#000;stroke-width:1px;"/><path d="M884.756,237.965c-0.001,0.329 -0.272,0.599 -0.6,0.599c-0.001,0 -0.001,0 -0.001,0l-4.9,-0.008c-0.33,-0.001 -0.6,-0.272 -0.599,-0.601l0.008,-4.94c0.001,-0.329 0.272,-0.599 0.6,-0.599c0.001,-0 0.001,-0 0.001,-0l4.9,0.008c0.33,0.001 0.6,0.272 0.599,0.601l-0.008,4.94Z" style="fill:#fff;fill-rule:nonzero;stroke:#000;stroke-width:1px;"/><path d="M522.334,238.234c0,0 0,0.001 0,0.001c0,0.148 -0.121,0.27 -0.268,0.27l-5.56,0.029c-0.001,0.001 -0.001,0.001 -0.002,0.001c-0.147,-0 -0.269,-0.122 -0.269,-0.269l-0.029,-5.52c-0,-0 -0,-0.001 -0,-0.001c-0,-0.148 0.121,-0.27 0.268,-0.27l5.56,-0.029c0.001,-0.001 0.001,-0.001 0.002,-0.001c0.147,0 0.269,0.122 0.269,0.269l0.029,5.52Z" style="fill:#fff;fill-rule:nonzero;stroke:#000;stroke-width:1px;"/><path d="M252.55,265.58c-9.89,-5.23 -16.8,-9.59 -14.39,-22.33c0.179,-0.928 0.999,-1.604 1.944,-1.604c0.311,-0 0.618,0.073 0.896,0.214c10.01,5.09 17.31,9.23 15.61,22.25c-0.33,2.48 -2.23,2.44 -4.06,1.47Zm-0.612,-6.635c0.959,-0.894 -0.355,-3.885 -2.91,-6.625c-2.555,-2.74 -5.447,-4.259 -6.406,-3.365c-0.959,0.894 0.355,3.885 2.91,6.625c2.555,2.74 5.447,4.259 6.406,3.365Z" style="fill:#fff;fill-rule:nonzero;stroke:#000;stroke-width:1px;"/><path d="M275.58,255.07c-2.25,5.15 -9.39,8.39 -14.11,10.98c-0.15,0.082 -0.309,0.146 -0.474,0.19c-1.139,0.308 -2.327,-0.372 -2.633,-1.506c-0.044,-0.164 -0.069,-0.334 -0.073,-0.504c-0.14,-5.03 -0.44,-9.2 2.58,-13.48c2.4,-3.39 9.39,-7.2 12.85,-8.87c0.993,-0.48 1.817,-0.373 2.47,0.32c2.1,2.23 0.45,10.45 -0.61,12.87Zm-5.53,0.54c0.163,-0.101 0.289,-0.252 0.36,-0.43l2.19,-5.61c0.041,-0.104 0.062,-0.214 0.062,-0.325c-0,-0.488 -0.402,-0.89 -0.89,-0.89c-0.167,-0 -0.331,0.047 -0.472,0.135l-6.48,4.1c-0.161,0.105 -0.284,0.259 -0.35,0.44l-2.01,5.45c-0.036,0.098 -0.055,0.202 -0.055,0.307c0,0.488 0.402,0.89 0.89,0.89c0.168,0 0.333,-0.047 0.475,-0.137l6.28,-3.93Z" style="fill:#fff;fill-rule:nonzero;stroke:#000;stroke-width:1px;"/><path d="M115.23,264.23c34.03,18.33 74.44,15.19 106.65,-5.34c1.42,-0.907 2.417,-0.57 2.99,1.01l0.12,0.33c0.573,1.587 0.143,2.817 -1.29,3.69c-35,21.46 -75.35,23.48 -111.36,4.73c-0.299,-0.158 -0.674,-0.062 -0.86,0.22l-5.14,7.57c-0.032,0.047 -0.066,0.093 -0.103,0.137c-0.621,0.754 -1.755,0.86 -2.513,0.235c-0.043,-0.035 -0.084,-0.073 -0.124,-0.112c-0.687,-0.693 -1.303,-1.583 -1.85,-2.67c-3.433,-6.867 -6.777,-13.623 -10.03,-20.27c-0.082,-0.166 -0.142,-0.341 -0.179,-0.522c-0.235,-1.156 0.527,-2.301 1.688,-2.538c0.181,-0.037 0.366,-0.05 0.551,-0.04l24.5,1.37c0.146,0.007 0.294,0.037 0.44,0.09c2.22,0.84 2.1,2.47 1.01,4.11c-1.587,2.4 -3.153,4.81 -4.7,7.23c-0.213,0.327 -0.147,0.583 0.2,0.77Zm-17.51,-9.08c-0.007,-0 -0.014,-0.001 -0.02,-0.001c-0.187,0 -0.34,0.154 -0.34,0.34c-0,0.056 0.014,0.112 0.04,0.161l7.37,14.66c0.058,0.114 0.175,0.187 0.304,0.187c0.115,-0 0.224,-0.059 0.286,-0.157l8.92,-13.67c0.038,-0.056 0.059,-0.123 0.059,-0.191c-0,-0.178 -0.141,-0.328 -0.319,-0.339l-16.3,-0.99Z" style="fill:#fff;fill-rule:nonzero;stroke:#000;stroke-width:1px;"/></svg>