<?xml version="1.0" encoding="UTF-8" standalone="no"?><!DOCTYPE svg PUBLIC "-//W3C//DTD SVG 1.1//EN" "http://www.w3.org/Graphics/SVG/1.1/DTD/svg11.dtd"><svg width="100%" height="100%" viewBox="0 0 250 250" version="1.1" xmlns="http://www.w3.org/2000/svg" xmlns:xlink="http://www.w3.org/1999/xlink" xml:space="preserve" xmlns:serif="http://www.serif.com/" style="fill-rule:evenodd;clip-rule:evenodd;stroke-linejoin:round;stroke-miterlimit:2;"><g><path d="M106.674,38.283c3.759,-13.714 13.122,-26.389 23.039,-37.2c1.308,-1.418 2.58,-1.444 3.817,-0.077c10.975,12.092 24.243,29.72 24.223,46.854c-0.019,19.202 -18.532,36.15 -37.627,26.068c-12.345,-6.517 -17.055,-22.494 -13.452,-35.645Zm19.29,32.916c6.711,2.05 13.801,0.554 18.91,-4.205c19.503,-18.153 -0.039,-45.883 -12.791,-60.481c-0.298,-0.343 -0.599,-0.347 -0.904,-0.01c-8.896,9.858 -18.667,23.68 -20.678,37.132c-1.719,11.567 3.895,24.019 15.463,27.564Z" style="fill:#fff;fill-rule:nonzero;"/><path d="M77.497,59.097c-0.111,-0.217 -0.335,-0.353 -0.579,-0.353c-0.129,-0 -0.255,0.038 -0.363,0.11c-31.498,20.815 -48.515,55.324 -46.019,93.048c0.003,0.039 0.004,0.078 0.004,0.117c0,0.991 -0.815,1.806 -1.806,1.806c-0.002,0 -0.003,0 -0.004,0l-0.631,-0.01c-1.613,0 -2.464,-0.806 -2.555,-2.418c-2.341,-39.715 15.696,-75.409 48.7,-96.913c0.341,-0.221 0.462,-0.67 0.281,-1.04l-3.875,-7.779c-0.386,-0.778 -0.125,-1.732 0.602,-2.205c0.907,-0.602 2.04,-0.855 3.399,-0.758c6.702,0.486 13.414,0.823 20.135,1.01c1.36,0.046 2.467,0.382 3.322,1.01c0.75,0.561 0.942,1.62 0.437,2.409l-12.879,20.047c-0.113,0.173 -0.247,0.33 -0.4,0.469c-0.971,0.88 -2.491,0.809 -3.368,-0.158c-0.138,-0.152 -0.256,-0.322 -0.35,-0.505l-4.051,-7.887Zm15.23,-10.655c0.035,-0.055 0.053,-0.119 0.053,-0.185c0,-0.183 -0.143,-0.336 -0.325,-0.349l-15.783,-0.748c-0.006,0 -0.012,-0 -0.017,-0c-0.192,-0 -0.35,0.158 -0.35,0.35c-0,0.054 0.012,0.107 0.037,0.155l7.235,14.171c0.059,0.12 0.181,0.196 0.314,0.196c0.122,-0 0.235,-0.063 0.298,-0.167l8.538,-13.423Z" style="fill:#fff;fill-rule:nonzero;"/><path d="M232.065,130.019c-5.983,-37.52 -29.157,-66.891 -64.784,-80.877c-1.534,-0.602 -1.981,-1.664 -1.34,-3.186l0.146,-0.35c0.388,-0.932 1.436,-1.419 2.399,-1.117c3.127,0.959 6.566,2.383 10.315,4.274c31.828,16.036 53.245,45.63 58.12,80.819c0.055,0.423 0.425,0.737 0.845,0.719l8.46,-0.359c1.053,-0.043 1.973,0.741 2.098,1.787c0.091,0.783 -0.094,1.599 -0.554,2.447c-3.503,6.547 -7.025,13.08 -10.567,19.601c-0.24,0.433 -0.473,0.78 -0.699,1.039c-0.373,0.429 -0.914,0.676 -1.482,0.676c-0.67,-0 -1.296,-0.344 -1.655,-0.909l-13.064,-20.523c-0.236,-0.379 -0.306,-0.839 -0.194,-1.273c0.311,-1.243 1.191,-1.894 2.642,-1.952c2.985,-0.116 5.947,-0.214 8.887,-0.291c0.01,-0.001 0.019,-0.001 0.029,-0.002c0.244,-0.024 0.425,-0.248 0.401,-0.497c-0.001,-0.009 -0.002,-0.017 -0.003,-0.026Zm10.538,4.798c0.025,-0.048 0.038,-0.101 0.038,-0.156c0,-0.186 -0.153,-0.34 -0.34,-0.34c-0.006,0 -0.012,0.001 -0.018,0.001l-15.871,0.67c-0.181,0.007 -0.326,0.158 -0.326,0.34c-0,0.065 0.019,0.13 0.054,0.185l8.509,13.296c0.063,0.095 0.169,0.151 0.282,0.151c0.126,0 0.241,-0.069 0.3,-0.18l7.372,-13.967Z" style="fill:#fff;fill-rule:nonzero;"/><path d="M137.697,62.817c5.089,-4.448 7.197,-9.411 7.245,-15.997c0.011,-0.94 0.779,-1.713 1.719,-1.728l0.447,-0c1.297,-0.022 2.386,1.015 2.428,2.311c0.22,7.278 -2.389,13.235 -7.828,17.871c-1.094,0.939 -2.231,0.988 -3.409,0.146l-0.486,-0.349c-0.043,-0.032 -0.085,-0.065 -0.124,-0.101c-0.589,-0.532 -0.639,-1.452 -0.11,-2.037c0.037,-0.041 0.076,-0.079 0.118,-0.116Z" style="fill:#fff;fill-rule:nonzero;"/><path d="M143.204,118.723c-0,6.368 -5.24,11.607 -11.607,11.607c-6.367,0 -11.607,-5.239 -11.607,-11.607c0,-6.367 5.24,-11.606 11.607,-11.606c6.367,-0 11.607,5.239 11.607,11.606Zm-4.662,0.01c-0,-3.81 -3.135,-6.944 -6.945,-6.944c-3.81,-0 -6.945,3.134 -6.945,6.944c0,3.81 3.135,6.945 6.945,6.945c3.81,-0 6.945,-3.135 6.945,-6.945Z" style="fill:#fff;fill-rule:nonzero;"/><path d="M111.094,139.13c-0,6.367 -5.24,11.606 -11.607,11.606c-6.367,0 -11.607,-5.239 -11.607,-11.606c0,-6.367 5.24,-11.607 11.607,-11.607c6.367,0 11.607,5.24 11.607,11.607Zm-4.663,-0.02c0,-3.809 -3.134,-6.944 -6.944,-6.944c-3.81,-0 -6.945,3.135 -6.945,6.944c0,3.81 3.135,6.945 6.945,6.945c3.81,-0 6.944,-3.135 6.944,-6.945Z" style="fill:#fff;fill-rule:nonzero;"/><path d="M175.324,139.13c-0,6.367 -5.24,11.606 -11.607,11.606c-6.367,0 -11.607,-5.239 -11.607,-11.606c0,-6.367 5.24,-11.607 11.607,-11.607c6.367,0 11.607,5.24 11.607,11.607Zm-4.663,-0.01c0,-3.81 -3.134,-6.945 -6.944,-6.945c-3.81,0 -6.945,3.135 -6.945,6.945c0,3.81 3.135,6.945 6.945,6.945c3.81,-0 6.944,-3.135 6.944,-6.945Z" style="fill:#fff;fill-rule:nonzero;"/><path d="M119.349,156.137c-3.218,-0 -5.866,-2.649 -5.866,-5.867l-0,-0.281c-0,-9.863 8.129,-17.979 18.007,-17.979l0.175,0c9.879,0 18.007,8.116 18.007,17.979l0,0.281c0,3.218 -2.648,5.867 -5.866,5.867l-24.457,-0Zm0.068,-4.594l24.321,-0.039c0.73,-0 1.33,-0.601 1.33,-1.331l0,-0.116c-0.01,-7.359 -6.052,-13.405 -13.384,-13.394l-0.256,-0c-7.33,0.013 -13.352,6.076 -13.341,13.432l-0,0.117c-0,0.73 0.6,1.331 1.33,1.331Z" style="fill:#fff;fill-rule:nonzero;"/><path d="M87.171,176.582c-0.003,-0 -0.006,-0 -0.01,-0c-3.214,-0 -5.861,-2.642 -5.866,-5.857l-0,-0.146c-0.016,-9.957 8.08,-18.164 17.937,-18.182l0.352,0c9.857,-0.016 17.981,8.166 17.998,18.124l-0,0.156c-0,3.214 -2.643,5.861 -5.857,5.866l-24.554,0.039Zm0.088,-4.652l24.553,0.038c0.656,0 1.195,-0.539 1.195,-1.194l-0,-0.107c0.011,-7.33 -6.002,-13.371 -13.322,-13.384l-0.256,-0c-7.321,-0.011 -13.354,6.013 -13.365,13.345l-0,0.107c-0,0.655 0.539,1.195 1.195,1.195Z" style="fill:#fff;fill-rule:nonzero;"/><path d="M151.45,176.562c-3.215,-0.005 -5.857,-2.651 -5.857,-5.866l-0,-0.078c0.016,-10.011 8.136,-18.236 17.988,-18.221l0.372,0c9.851,0.018 17.943,8.269 17.927,18.28l-0,0.068c-0.006,3.214 -2.652,5.856 -5.867,5.856c-0.003,0 -0.006,0 -0.01,0l-24.553,-0.039Zm0.145,-4.574l24.34,0.039c0.752,-0 1.37,-0.619 1.37,-1.37l-0,-0.126c0.011,-7.384 -6.033,-13.468 -13.39,-13.481l-0.256,-0c-7.359,-0.011 -13.422,6.057 -13.433,13.442l-0,0.126c-0,0.752 0.618,1.37 1.369,1.37Z" style="fill:#fff;fill-rule:nonzero;"/><path d="M229.54,165.5c3.312,6.789 -0.059,15.2 -6.595,18.182c-0.712,0.324 -1.386,0.184 -2.02,-0.418c-4.672,-4.419 -7.673,-7.187 -6.79,-14.093c0.583,-4.584 3.186,-7.197 6.391,-10.46c1.347,-1.367 2.652,-1.441 3.915,-0.224c2.117,2.04 3.817,4.377 5.099,7.013Zm-7.091,12.626c2.084,0 3.798,-3.196 3.798,-7.08c0,-3.885 -1.714,-7.081 -3.798,-7.081c-2.083,0 -3.797,3.196 -3.797,7.081c-0,3.884 1.714,7.08 3.797,7.08Z" style="fill:#fff;fill-rule:nonzero;"/><path d="M41.528,170.886c-0,0.001 -0,0.003 -0,0.004c-0,1.117 -0.919,2.038 -2.036,2.04l-0.431,0c-1.118,0 -2.038,-0.918 -2.04,-2.036l-0.012,-7.187c-0,-0.001 -0,-0.003 -0,-0.004c-0,-1.117 0.918,-2.037 2.036,-2.039l0.431,-0.001c1.117,-0 2.037,0.918 2.039,2.036l0.013,7.187Z" style="fill:#fff;fill-rule:nonzero;"/><path d="M20.414,180.762c-0.362,0.364 -0.855,0.569 -1.369,0.569c-0.511,-0 -1.002,-0.203 -1.364,-0.564l-5.174,-5.155c-0.751,-0.749 -0.753,-1.983 -0.005,-2.734l0.398,-0.399c0.362,-0.364 0.855,-0.568 1.369,-0.568c0.511,-0 1.002,0.202 1.364,0.563l5.174,5.156c0.751,0.748 0.753,1.982 0.005,2.733l-0.398,0.399Z" style="fill:#fff;fill-rule:nonzero;"/><path d="M65.929,172.813c0.374,0.375 0.584,0.883 0.584,1.413c-0,0.531 -0.212,1.042 -0.589,1.417l-5.105,5.087c-0.375,0.374 -0.883,0.584 -1.412,0.584c-0.532,-0 -1.042,-0.212 -1.417,-0.589l-0.316,-0.316c-0.373,-0.375 -0.583,-0.883 -0.583,-1.413c-0,-0.531 0.212,-1.042 0.588,-1.417l5.105,-5.087c0.375,-0.374 0.883,-0.584 1.412,-0.584c0.532,0 1.042,0.212 1.418,0.589l0.315,0.316Z" style="fill:#fff;fill-rule:nonzero;"/><path d="M210.775,193.987c-5.051,-2.92 -7.498,-7.391 -7.343,-13.413c0.029,-1.02 -0.185,-3.332 0.359,-4.701c0.013,-0.032 0.026,-0.064 0.041,-0.095c0.435,-0.956 1.575,-1.385 2.526,-0.952c0.032,0.015 0.063,0.03 0.095,0.046c10.703,5.624 15.967,8.46 15.239,21.835c-0.061,1.089 -0.974,1.952 -2.066,1.952c-0.31,0 -0.617,-0.07 -0.896,-0.204c-2.613,-1.243 -5.168,-2.856 -7.955,-4.468Zm-1.525,-12.52c-0.164,-0.104 -0.355,-0.16 -0.549,-0.16c-0.56,-0 -1.02,0.46 -1.02,1.02c-0,0.121 0.021,0.241 0.063,0.354l1.817,4.837c0.076,0.204 0.216,0.377 0.398,0.496l5.973,3.895c0.165,0.106 0.358,0.163 0.554,0.163c0.56,0 1.02,-0.46 1.02,-1.02c0,-0.125 -0.023,-0.25 -0.068,-0.367l-1.875,-4.847c-0.077,-0.195 -0.213,-0.361 -0.388,-0.476l-5.925,-3.895Z" style="fill:#fff;fill-rule:nonzero;"/><path d="M241.525,177.184c0.146,14.045 -4.623,15.074 -15.55,21.387c-0.256,0.15 -0.562,0.195 -0.855,0.127c-1.301,-0.311 -1.945,-1.169 -1.932,-2.574c0.068,-7.149 0.145,-12.364 6.915,-16.444c2.623,-1.573 5.277,-3.108 7.964,-4.604c1.652,-0.922 3.439,0.292 3.458,2.108Zm-6.77,11.053c0.17,-0.108 0.299,-0.268 0.37,-0.456l1.981,-5.236c0.037,-0.101 0.056,-0.209 0.056,-0.317c0,-0.507 -0.416,-0.923 -0.922,-0.923c-0.175,-0 -0.346,0.049 -0.494,0.143l-6.08,3.895c-0.169,0.108 -0.299,0.268 -0.369,0.456l-1.904,5.041c-0.038,0.103 -0.058,0.213 -0.058,0.323c-0,0.506 0.417,0.923 0.923,0.923c0.171,-0 0.339,-0.048 0.485,-0.139l6.012,-3.71Z" style="fill:#fff;fill-rule:nonzero;"/><path d="M49.059,220.279c0.223,3.526 0.505,8.013 -1.244,10.966c-2.418,4.079 -7.721,4.944 -12.121,3.943c-7.829,-1.777 -7.052,-8.605 -6.954,-14.646c0.005,-0.583 -0.284,-1.128 -0.768,-1.448c-5.413,-3.606 -8.68,-8.323 -9.8,-14.151c-4.468,-23.243 26.594,-34.713 38.958,-14.676c6.09,9.858 2.341,22.786 -7.479,28.866c-0.399,0.243 -0.628,0.687 -0.592,1.146Zm-17.376,-34.179c-11.248,5.313 -12.316,20.086 -3.021,27.856c1.366,1.146 2.522,1.716 3.467,1.71c4.293,-0 8.586,0.013 12.879,0.039c1.023,0.006 1.791,-0.159 2.302,-0.496c17.891,-11.84 3.108,-37.967 -15.627,-29.109Zm12.306,34.072l-10.121,-0.019c-0.298,0 -0.544,0.246 -0.544,0.544l-0.01,5.828c-0.005,2.365 1.946,4.316 4.322,4.322l2.545,-0c0.001,-0 0.002,-0 0.002,-0c2.376,0.004 4.334,-1.938 4.34,-4.303l0.009,-5.828c0,-0.298 -0.245,-0.544 -0.543,-0.544Z" style="fill:#fff;fill-rule:nonzero;"/><path d="M218.011,216.414c-10.674,-6.148 -15.142,-7.868 -14.492,-21.572c0.048,-0.87 0.742,-1.624 1.69,-1.836c0.531,-0.116 1.192,0.049 1.982,0.495c5.876,3.322 13.034,6.265 14.219,13.666c0.437,2.7 1.496,12.063 -3.399,9.247Zm-0.888,-6.703c0.928,-0.872 -0.358,-3.772 -2.849,-6.425l-0,-0c-2.492,-2.653 -5.305,-4.119 -6.234,-3.247c-0.928,0.872 0.358,3.772 2.849,6.425l0,0c2.491,2.653 5.305,4.119 6.234,3.247Z" style="fill:#fff;fill-rule:nonzero;"/><path d="M240.554,204.924c-2.506,6.254 -8.236,8.314 -13.588,11.49c-0.155,0.09 -0.324,0.165 -0.505,0.223c-1.91,0.589 -2.924,0.062 -3.04,-1.583c-0.408,-5.507 -0.564,-9.761 3.147,-14.181c2.389,-2.855 7.197,-5.021 10.761,-7.148c6.391,-3.817 3.963,9.363 3.225,11.199Zm-5.76,1.495c0.158,-0.098 0.281,-0.244 0.35,-0.417l2.117,-5.401c0.039,-0.101 0.06,-0.208 0.06,-0.316c-0,-0.48 -0.395,-0.874 -0.875,-0.874c-0.169,-0 -0.335,0.049 -0.476,0.141l-6.479,4.264c-0.157,0.105 -0.277,0.259 -0.34,0.437l-1.797,5.08c-0.033,0.094 -0.049,0.192 -0.049,0.291c-0,0.48 0.394,0.874 0.874,0.874c0.165,0 0.327,-0.047 0.467,-0.135l6.148,-3.944Z" style="fill:#fff;fill-rule:nonzero;"/><path d="M12.878,199.436c-0.008,1.119 -0.931,2.035 -2.05,2.035c-0.004,0 -0.009,0 -0.014,0l-7.129,-0.05c-1.119,-0.007 -2.035,-0.93 -2.035,-2.049c-0,-0.005 0,-0.009 0,-0.014l0.002,-0.292c0.008,-1.118 0.931,-2.035 2.049,-2.035c0.005,0 0.01,0 0.015,0l7.129,0.05c1.118,0.008 2.035,0.931 2.035,2.05c-0,0.004 -0,0.009 -0,0.014l-0.002,0.291Z" style="fill:#fff;fill-rule:nonzero;"/><path d="M76.827,199.523c0,1.045 -0.859,1.904 -1.904,1.904l-7.42,-0c-1.044,-0 -1.904,-0.859 -1.904,-1.904l0,-0.563c0,-1.044 0.86,-1.904 1.904,-1.904l7.42,0c1.045,0 1.904,0.86 1.904,1.904l0,0.563Z" style="fill:#fff;fill-rule:nonzero;"/><path d="M217.7,234.567c-9.606,-5.08 -16.317,-9.315 -13.977,-21.689c0.175,-0.901 0.971,-1.558 1.889,-1.558c0.302,-0 0.6,0.071 0.87,0.208c9.722,4.944 16.812,8.965 15.161,21.611c-0.32,2.409 -2.166,2.37 -3.943,1.428Zm-0.594,-6.445c0.931,-0.868 -0.345,-3.773 -2.827,-6.434c-2.482,-2.662 -5.29,-4.137 -6.222,-3.269c-0.931,0.869 0.345,3.773 2.827,6.435c2.482,2.661 5.29,4.137 6.222,3.268Z" style="fill:#fff;fill-rule:nonzero;"/><path d="M240.068,224.359c-2.185,5.002 -9.12,8.149 -13.704,10.664c-0.146,0.08 -0.3,0.142 -0.46,0.185c-1.107,0.298 -2.261,-0.362 -2.558,-1.463c-0.043,-0.16 -0.067,-0.324 -0.071,-0.49c-0.136,-4.885 -0.427,-8.935 2.506,-13.092c2.331,-3.293 9.12,-6.993 12.481,-8.615c0.965,-0.467 1.764,-0.363 2.399,0.31c2.039,2.166 0.437,10.15 -0.593,12.501Zm-5.371,0.524c0.159,-0.098 0.281,-0.244 0.35,-0.418l2.127,-5.448c0.039,-0.101 0.06,-0.208 0.06,-0.316c-0,-0.474 -0.391,-0.865 -0.865,-0.865c-0.162,0 -0.32,0.046 -0.458,0.132l-6.294,3.982c-0.156,0.102 -0.275,0.252 -0.34,0.427l-1.952,5.294c-0.035,0.095 -0.053,0.196 -0.053,0.298c0,0.474 0.39,0.864 0.865,0.864c0.163,0 0.323,-0.046 0.461,-0.133l6.099,-3.817Z" style="fill:#fff;fill-rule:nonzero;"/><path d="M84.325,233.255c33.053,17.804 72.302,14.754 103.586,-5.186c1.379,-0.881 2.347,-0.554 2.904,0.981l0.117,0.32c0.557,1.541 0.139,2.736 -1.253,3.584c-33.995,20.844 -73.185,22.806 -108.161,4.594c-0.29,-0.153 -0.654,-0.06 -0.835,0.214l-4.992,7.353c-0.031,0.046 -0.064,0.09 -0.1,0.133c-0.603,0.732 -1.705,0.835 -2.441,0.228c-0.042,-0.034 -0.082,-0.071 -0.121,-0.109c-0.666,-0.673 -1.265,-1.538 -1.796,-2.593c-3.335,-6.67 -6.582,-13.232 -9.742,-19.688c-0.08,-0.161 -0.138,-0.331 -0.174,-0.507c-0.228,-1.123 0.512,-2.235 1.64,-2.465c0.176,-0.035 0.355,-0.048 0.535,-0.039l23.796,1.331c0.141,0.006 0.285,0.036 0.427,0.087c2.156,0.816 2.04,2.399 0.981,3.992c-1.541,2.331 -3.063,4.672 -4.565,7.023c-0.207,0.317 -0.142,0.566 0.194,0.747Zm-17.007,-8.819c-0.006,-0 -0.013,-0 -0.019,-0c-0.181,-0 -0.331,0.149 -0.331,0.33c0,0.054 0.014,0.108 0.04,0.156l7.158,14.239c0.056,0.111 0.17,0.181 0.295,0.181c0.112,0 0.217,-0.057 0.278,-0.152l8.664,-13.277c0.037,-0.055 0.056,-0.12 0.056,-0.186c0,-0.173 -0.136,-0.318 -0.309,-0.329l-15.832,-0.962Z" style="fill:#fff;fill-rule:nonzero;"/></g></svg>