<?xml version="1.0" encoding="UTF-8" standalone="no"?>
<svg xmlns="http://www.w3.org/2000/svg" version="1.2" baseProfile="tiny" viewBox="0.00 0.00 1536.00 306.00">
<path fill="#ffffff" d="
  M 138.24 63.49
  C 142.11 49.37 151.75 36.32 161.96 25.19
  Q 163.98 23.00 165.89 25.11
  C 177.19 37.56 190.85 55.71 190.83 73.35
  C 190.81 93.12 171.75 110.57 152.09 100.19
  C 139.38 93.48 134.53 77.03 138.24 63.49
  Z
  M 158.10 97.38
  C 165.01 99.49 172.31 97.95 177.57 93.05
  C 197.65 74.36 177.53 45.81 164.40 30.78
  Q 163.94 30.25 163.47 30.77
  C 154.31 40.92 144.25 55.15 142.18 69.00
  C 140.41 80.91 146.19 93.73 158.10 97.38
  Z"
/>
<path fill="#ffffff" d="
  M 108.20 84.92
  A 0.67 0.67 0.0 0 0 107.23 84.67
  C 74.80 106.10 57.28 141.63 59.85 180.47
  A 1.86 1.86 0.0 0 1 57.99 182.45
  L 57.34 182.44
  Q 54.85 182.44 54.71 179.95
  C 52.30 139.06 70.87 102.31 104.85 80.17
  A 0.84 0.83 60.5 0 0 105.14 79.10
  L 101.15 71.09
  A 1.77 1.77 0.0 0 1 101.77 68.82
  Q 103.17 67.89 105.27 68.04
  Q 115.62 68.79 126.00 69.08
  Q 128.10 69.15 129.42 70.12
  A 1.85 1.85 0.0 0 1 129.87 72.60
  L 116.61 93.24
  A 2.46 2.45 -42.2 0 1 112.37 93.04
  L 108.20 84.92
  Z
  M 123.88 73.95
  A 0.36 0.36 0.0 0 0 123.60 73.40
  L 107.35 72.63
  A 0.36 0.36 0.0 0 0 107.01 73.15
  L 114.46 87.74
  A 0.36 0.36 0.0 0 0 115.09 87.77
  L 123.88 73.95
  Z"
/>
<path fill="#ffffff" d="
  M 267.34 157.94
  C 261.18 119.31 237.32 89.07 200.64 74.67
  Q 198.27 73.74 199.26 71.39
  L 199.41 71.03
  A 2.02 2.02 0.0 0 1 201.88 69.88
  Q 206.71 71.36 212.50 74.28
  C 245.27 90.79 267.32 121.26 272.34 157.49
  A 0.85 0.84 85.2 0 0 273.21 158.23
  L 281.92 157.86
  A 2.09 2.09 0.0 0 1 284.08 159.70
  Q 284.22 160.91 283.51 162.22
  Q 278.10 172.33 272.63 182.40
  Q 272.26 183.07 271.91 183.47
  A 2.02 2.02 0.0 0 1 268.68 183.23
  L 255.23 162.10
  A 1.69 1.68 -53.9 0 1 255.03 160.79
  Q 255.51 158.87 257.75 158.78
  Q 262.36 158.60 266.90 158.48
  A 0.47 0.46 84.5 0 0 267.34 157.94
  Z
  M 278.19 162.88
  A 0.35 0.35 0.0 0 0 277.86 162.37
  L 261.52 163.06
  A 0.35 0.35 0.0 0 0 261.24 163.60
  L 270.00 177.29
  A 0.35 0.35 0.0 0 0 270.60 177.26
  L 278.19 162.88
  Z"
/>
<path fill="#ffffff" d="
  M 170.18 88.75
  C 175.42 84.17 177.59 79.06 177.64 72.28
  A 1.80 1.80 0.0 0 1 179.41 70.50
  L 179.87 70.50
  A 2.46 2.46 0.0 0 1 182.37 72.88
  Q 182.71 84.12 174.31 91.28
  Q 172.62 92.73 170.80 91.43
  L 170.30 91.07
  A 1.49 1.48 42.1 0 1 170.18 88.75
  Z"
/>
<path fill="#ffffff" d="
  M 1076.26 106.85
  L 1076.26 155.81
  Q 1076.26 156.13 1075.94 156.13
  L 1066.85 156.15
  A 0.37 0.36 90.0 0 1 1066.49 155.78
  L 1066.49 106.85
  A 0.64 0.64 0.0 0 0 1065.85 106.21
  L 1058.25 106.27
  A 0.27 0.27 0.0 0 1 1057.98 106.00
  L 1057.97 98.76
  A 0.27 0.27 0.0 0 1 1058.24 98.49
  L 1065.76 98.48
  A 0.80 0.80 0.0 0 0 1066.56 97.67
  C 1066.49 93.40 1066.23 87.89 1067.58 84.18
  C 1071.17 74.30 1082.50 74.61 1091.31 76.37
  Q 1091.60 76.43 1091.55 76.72
  L 1090.14 85.00
  Q 1090.09 85.26 1089.83 85.19
  Q 1083.85 83.43 1079.48 85.21
  C 1075.64 86.76 1076.06 95.04 1076.28 98.21
  A 0.30 0.30 0.0 0 0 1076.58 98.49
  L 1086.74 98.50
  Q 1087.47 98.50 1087.47 99.24
  L 1087.40 105.56
  Q 1087.40 106.27 1086.69 106.27
  L 1076.90 106.22
  A 0.63 0.63 0.0 0 0 1076.26 106.85
  Z"
/>
<path fill="#ffffff" d="
  M 351.11 86.05
  L 325.59 86.04
  A 0.35 0.35 0.0 0 1 325.24 85.69
  L 325.25 77.06
  A 0.35 0.35 0.0 0 1 325.60 76.71
  L 387.96 76.74
  A 0.35 0.35 0.0 0 1 388.31 77.09
  L 388.39 85.70
  A 0.35 0.35 0.0 0 1 388.04 86.05
  L 362.48 86.04
  A 0.35 0.35 0.0 0 0 362.13 86.39
  L 362.11 155.75
  A 0.35 0.35 0.0 0 1 361.76 156.10
  L 351.82 156.14
  A 0.35 0.35 0.0 0 1 351.47 155.79
  L 351.46 86.40
  A 0.35 0.35 0.0 0 0 351.11 86.05
  Z"
/>
<path fill="#ffffff" d="
  M 420.56 146.42
  C 427.50 149.14 440.10 148.79 445.94 142.95
  C 450.20 138.69 451.05 131.27 451.09 125.50
  Q 451.26 101.26 451.27 77.06
  A 0.33 0.33 0.0 0 1 451.60 76.73
  L 461.28 76.71
  Q 461.82 76.70 461.82 77.25
  Q 461.77 99.40 461.74 121.50
  Q 461.73 130.25 460.31 137.11
  C 457.81 149.14 447.94 156.10 436.00 157.11
  C 419.39 158.52 404.29 154.41 400.35 136.14
  Q 399.39 131.72 399.32 124.25
  Q 399.09 100.73 399.11 77.20
  Q 399.11 76.71 399.61 76.71
  L 409.24 76.75
  A 0.52 0.51 0.0 0 1 409.76 77.26
  Q 409.75 101.78 409.77 126.24
  C 409.78 134.35 411.68 142.94 420.56 146.42
  Z"
/>
<path fill="#ffffff" d="
  M 581.43 156.13
  L 571.83 156.11
  A 0.34 0.34 0.0 0 1 571.49 155.77
  L 571.49 77.07
  A 0.34 0.34 0.0 0 1 571.83 76.73
  L 587.15 76.75
  A 0.34 0.34 0.0 0 1 587.47 76.98
  L 609.66 143.49
  A 0.34 0.34 0.0 0 0 610.31 143.49
  L 633.13 76.97
  A 0.34 0.34 0.0 0 1 633.45 76.74
  L 647.17 76.72
  A 0.34 0.34 0.0 0 1 647.51 77.06
  L 647.52 155.80
  A 0.34 0.34 0.0 0 1 647.18 156.14
  L 637.47 156.11
  A 0.34 0.34 0.0 0 1 637.13 155.77
  L 636.95 92.90
  A 0.34 0.34 0.0 0 0 636.28 92.79
  L 614.31 155.87
  A 0.34 0.34 0.0 0 1 613.99 156.10
  L 604.88 156.14
  A 0.34 0.34 0.0 0 1 604.56 155.91
  L 582.47 91.29
  A 0.34 0.34 0.0 0 0 581.81 91.40
  L 581.77 155.79
  A 0.34 0.34 0.0 0 1 581.43 156.13
  Z"
/>
<path fill="#ffffff" d="
  M 1141.7693 87.6214
  A 0.26 0.26 0.0 0 1 1141.5097 87.8819
  L 1132.2297 87.8981
  A 0.26 0.26 0.0 0 1 1131.9693 87.6385
  L 1131.9507 76.9986
  A 0.26 0.26 0.0 0 1 1132.2103 76.7381
  L 1141.4903 76.7219
  A 0.26 0.26 0.0 0 1 1141.7507 76.9815
  L 1141.7693 87.6214
  Z"
/>
<path fill="#ffffff" d="
  M 1427.04 145.49
  L 1452.37 76.96
  A 0.33 0.33 0.0 0 1 1452.68 76.75
  L 1462.87 76.65
  A 0.33 0.33 0.0 0 1 1463.18 77.11
  L 1432.15 155.93
  A 0.33 0.33 0.0 0 1 1431.84 156.14
  L 1421.54 156.11
  A 0.33 0.33 0.0 0 1 1421.23 155.90
  L 1390.60 77.14
  A 0.33 0.33 0.0 0 1 1390.91 76.69
  L 1401.72 76.77
  A 0.33 0.33 0.0 0 1 1402.03 76.99
  L 1426.41 145.48
  A 0.33 0.33 0.0 0 0 1427.04 145.49
  Z"
/>
<path fill="#ffffff" d="
  M 1035.60 132.16
  L 1002.83 132.18
  A 0.34 0.34 0.0 0 0 1002.51 132.40
  L 993.99 155.91
  A 0.34 0.34 0.0 0 1 993.67 156.14
  L 983.12 156.10
  A 0.34 0.34 0.0 0 1 982.81 155.64
  L 1013.15 76.96
  A 0.34 0.34 0.0 0 1 1013.46 76.74
  L 1024.33 76.75
  A 0.34 0.34 0.0 0 1 1024.65 76.96
  L 1057.01 155.65
  A 0.34 0.34 0.0 0 1 1056.69 156.12
  L 1045.29 156.12
  A 0.34 0.34 0.0 0 1 1044.98 155.90
  L 1035.91 132.38
  A 0.34 0.34 0.0 0 0 1035.60 132.16
  Z
  M 1018.23 86.81
  C 1015.46 99.03 1010.41 111.23 1005.96 122.88
  A 0.32 0.32 0.0 0 0 1006.25 123.32
  L 1031.79 123.33
  A 0.43 0.43 0.0 0 0 1032.19 122.75
  L 1018.92 86.77
  Q 1018.50 85.62 1018.23 86.81
  Z"
/>
<path fill="#ffffff" d="
  M 515.91 130.23
  C 515.96 139.20 521.30 148.78 531.50 149.03
  C 533.32 149.08 535.13 149.45 536.84 149.05
  C 542.04 147.83 546.25 143.73 547.88 138.56
  Q 548.20 137.54 549.26 137.66
  L 557.28 138.61
  Q 558.28 138.73 557.99 139.70
  C 554.22 152.45 543.89 158.01 531.04 157.24
  C 508.50 155.89 501.90 134.30 507.41 115.49
  C 511.96 99.92 529.89 93.09 544.25 100.04
  C 555.38 105.42 559.18 117.48 558.60 129.36
  Q 558.57 129.90 558.02 129.90
  L 516.26 129.88
  A 0.35 0.35 0.0 0 0 515.91 130.23
  Z
  M 516.88 121.77
  L 547.84 121.67
  A 0.38 0.38 0.0 0 0 548.22 121.28
  L 548.22 120.98
  A 15.58 15.57 89.8 0 0 532.59 105.46
  L 532.01 105.46
  A 15.58 15.57 89.8 0 0 516.50 121.10
  L 516.50 121.40
  A 0.38 0.38 0.0 0 0 516.88 121.77
  Z"
/>
<path fill="#ffffff" d="
  M 672.99 151.25
  L 673.00 177.76
  A 0.51 0.50 -0.0 0 1 672.49 178.26
  L 663.52 178.23
  A 0.46 0.46 0.0 0 1 663.06 177.77
  L 663.09 98.95
  Q 663.09 98.49 663.55 98.49
  L 671.47 98.51
  A 0.72 0.71 89.6 0 1 672.18 99.22
  L 672.22 104.74
  A 0.36 0.36 0.0 0 0 672.82 105.01
  C 675.32 102.75 677.04 100.31 680.55 98.94
  C 687.44 96.25 695.44 97.09 701.39 100.96
  C 716.73 110.94 716.71 139.96 703.56 151.52
  C 697.20 157.10 687.49 159.12 679.57 155.41
  C 677.42 154.40 675.41 152.64 673.43 151.04
  Q 672.99 150.69 672.99 151.25
  Z
  M 701.03 139.76
  C 705.07 129.10 704.77 108.91 690.33 105.15
  C 688.86 104.77 684.23 105.54 682.96 106.08
  C 667.92 112.52 667.72 146.78 685.24 149.23
  C 692.02 150.18 698.72 145.86 701.03 139.76
  Z"
/>
<path fill="#ffffff" d="
  M 873.86 130.34
  C 873.85 139.29 879.32 148.68 889.16 149.03
  C 891.13 149.10 893.09 149.42 894.93 149.01
  C 899.46 147.99 904.40 143.69 905.40 139.23
  Q 905.79 137.50 907.55 137.71
  L 914.58 138.57
  Q 916.22 138.76 915.72 140.34
  C 911.47 153.65 899.39 158.87 886.34 157.02
  C 874.29 155.31 866.34 147.47 864.26 135.24
  C 861.19 117.14 868.45 98.24 889.50 97.45
  C 908.75 96.72 917.11 112.38 916.48 129.44
  Q 916.47 129.90 916.01 129.90
  L 874.31 129.89
  Q 873.86 129.89 873.86 130.34
  Z
  M 875.04 121.84
  L 905.48 121.74
  A 0.69 0.69 0.0 0 0 906.17 121.04
  L 906.17 120.95
  A 15.53 15.52 -0.2 0 0 890.58 105.49
  L 889.82 105.49
  A 15.53 15.52 -0.2 0 0 874.35 121.07
  L 874.35 121.16
  A 0.69 0.69 0.0 0 0 875.04 121.84
  Z"
/>
<path fill="#ffffff" d="
  M 938.10 105.98
  C 943.06 97.20 950.41 94.57 959.43 100.35
  Q 959.66 100.50 959.57 100.76
  L 956.49 109.45
  Q 956.39 109.71 956.15 109.56
  C 949.94 105.65 942.09 107.34 939.85 114.56
  Q 938.27 119.66 938.21 126.25
  Q 938.10 141.12 938.14 155.83
  A 0.30 0.30 0.0 0 1 937.84 156.13
  L 928.62 156.13
  A 0.25 0.25 0.0 0 1 928.37 155.88
  L 928.37 99.06
  Q 928.37 98.49 928.94 98.49
  L 936.50 98.50
  Q 937.25 98.50 937.25 99.25
  L 937.25 105.76
  A 0.45 0.45 0.0 0 0 938.10 105.98
  Z"
/>
<path fill="#ffffff" d="
  M 1103.81 105.76
  Q 1103.82 106.79 1104.39 105.93
  C 1107.08 101.84 1109.16 98.35 1114.75 97.44
  Q 1120.08 96.58 1125.64 100.34
  Q 1126.05 100.63 1125.89 101.10
  L 1123.10 109.01
  Q 1122.93 109.50 1122.43 109.33
  C 1121.09 108.85 1119.77 108.04 1118.51 107.80
  C 1106.73 105.60 1104.82 116.96 1104.75 126.25
  Q 1104.66 141.21 1104.68 155.70
  A 0.46 0.45 0.0 0 1 1104.22 156.15
  L 1095.29 156.06
  Q 1094.78 156.05 1094.78 155.54
  L 1094.83 98.71
  Q 1094.83 98.49 1095.05 98.49
  L 1103.41 98.53
  A 0.33 0.32 -90.0 0 1 1103.73 98.86
  L 1103.81 105.76
  Z"
/>
<path fill="#ffffff" d="
  M 1164.73 118.83
  C 1162.14 129.79 1163.62 147.61 1177.92 149.27
  C 1186.97 150.32 1193.37 144.40 1194.10 135.24
  Q 1194.13 134.91 1194.45 134.96
  L 1203.48 136.17
  Q 1203.81 136.22 1203.75 136.54
  Q 1200.95 153.19 1186.02 156.77
  C 1172.85 159.91 1158.45 152.39 1155.23 139.01
  C 1150.57 119.61 1156.97 96.03 1181.74 97.36
  Q 1198.63 98.28 1203.02 115.21
  A 0.32 0.32 0.0 0 1 1202.76 115.61
  L 1193.71 117.07
  A 0.34 0.33 80.2 0 1 1193.33 116.80
  C 1191.32 104.88 1177.53 101.73 1169.47 109.61
  Q 1166.15 112.86 1164.73 118.83
  Z"
/>
<path fill="#ffffff" d="
  M 1249.39 149.42
  Q 1238.11 159.08 1223.15 156.78
  C 1207.52 154.38 1203.76 134.53 1217.31 126.80
  C 1223.24 123.42 1231.25 123.07 1237.99 122.11
  Q 1243.29 121.35 1248.43 119.84
  Q 1248.89 119.71 1248.96 119.23
  C 1250.54 107.74 1242.06 104.65 1232.48 105.30
  Q 1222.43 105.98 1220.37 116.08
  A 0.35 0.34 -81.1 0 1 1219.99 116.36
  L 1210.98 115.17
  Q 1210.71 115.13 1210.76 114.87
  Q 1212.89 102.90 1224.00 99.36
  C 1235.67 95.65 1258.59 95.29 1258.79 113.50
  Q 1258.97 128.87 1259.02 144.25
  Q 1259.05 150.62 1261.70 155.18
  Q 1262.25 156.13 1261.16 156.13
  L 1252.86 156.13
  Q 1251.61 156.13 1251.27 154.93
  L 1249.71 149.51
  A 0.20 0.20 0.0 0 0 1249.39 149.42
  Z
  M 1248.47 127.43
  C 1241.30 129.89 1234.15 130.46 1226.91 132.22
  C 1217.15 134.58 1216.72 146.90 1226.25 149.19
  C 1236.67 151.68 1248.18 146.22 1248.93 134.50
  Q 1249.15 131.14 1249.07 127.85
  A 0.45 0.45 0.0 0 0 1248.47 127.43
  Z"
/>
<path fill="#ffffff" d="
  M 1311.89 130.49
  C 1312.12 139.49 1317.28 148.64 1327.25 149.02
  C 1329.24 149.09 1331.39 149.50 1333.25 148.95
  Q 1341.23 146.57 1343.81 138.35
  A 1.06 1.05 11.9 0 1 1344.94 137.62
  L 1353.60 138.66
  Q 1354.07 138.71 1353.96 139.17
  Q 1350.80 151.74 1339.53 155.73
  C 1332.86 158.10 1323.62 157.84 1317.09 155.01
  Q 1304.64 149.61 1302.23 134.73
  C 1299.54 118.16 1306.13 99.10 1325.47 97.47
  C 1345.39 95.80 1355.54 111.08 1354.45 129.47
  Q 1354.42 129.90 1353.99 129.90
  L 1312.47 129.90
  Q 1311.87 129.90 1311.89 130.49
  Z
  M 1312.94 121.75
  L 1343.72 121.81
  A 0.51 0.51 0.0 0 0 1344.23 121.30
  L 1344.23 121.17
  A 15.66 15.44 -89.9 0 0 1328.81 105.48
  L 1327.89 105.48
  A 15.66 15.44 -89.9 0 0 1312.43 121.11
  L 1312.43 121.24
  A 0.51 0.51 0.0 0 0 1312.94 121.75
  Z"
/>
<path fill="#ffffff" d="
  M 802.08 142.50
  A 0.24 0.24 0.0 0 0 802.49 142.39
  L 814.00 99.27
  Q 814.21 98.52 814.98 98.52
  L 823.65 98.50
  A 0.86 0.86 0.0 0 1 824.48 99.14
  L 835.43 141.31
  A 0.48 0.48 0.0 0 0 836.35 141.33
  L 848.91 98.80
  Q 849.00 98.52 849.30 98.52
  L 858.26 98.49
  A 0.25 0.25 0.0 0 1 858.50 98.82
  L 840.57 155.80
  A 0.49 0.48 -80.8 0 1 840.11 156.14
  L 830.81 156.10
  Q 830.35 156.10 830.24 155.66
  L 819.21 113.94
  A 0.34 0.34 0.0 0 0 818.55 113.93
  L 807.51 155.52
  Q 807.35 156.13 806.73 156.13
  L 797.74 156.13
  Q 797.06 156.13 796.86 155.47
  L 779.46 98.81
  A 0.25 0.25 0.0 0 1 779.70 98.49
  L 789.36 98.52
  Q 789.59 98.52 789.65 98.75
  Q 795.47 120.50 801.78 141.99
  Q 801.87 142.29 802.08 142.50
  Z"
/>
<path fill="#ffffff" d="
  M 1141.77 155.71
  A 0.40 0.40 0.0 0 1 1141.37 156.11
  L 1132.37 156.11
  A 0.40 0.40 0.0 0 1 1131.97 155.71
  L 1131.97 98.93
  A 0.40 0.40 0.0 0 1 1132.37 98.53
  L 1141.37 98.53
  A 0.40 0.40 0.0 0 1 1141.77 98.93
  L 1141.77 155.71
  Z"
/>
<path fill="#ffffff" d="
  M 769.77 122.24
  Q 771.05 122.51 770.68 121.26
  Q 766.71 107.64 752.99 104.10
  Q 752.31 103.92 752.48 103.25
  L 753.22 100.28
  A 0.66 0.66 0.0 0 1 754.01 99.80
  C 764.22 102.27 774.24 110.97 775.10 122.13
  A 0.73 0.72 88.7 0 0 775.80 122.80
  L 778.81 122.90
  A 0.62 0.61 17.2 0 1 779.31 123.84
  L 772.27 135.03
  A 0.45 0.44 50.6 0 1 771.48 134.95
  L 766.64 122.35
  A 0.49 0.48 85.3 0 1 767.19 121.70
  L 769.77 122.24
  Z"
/>
<path fill="#ffffff" d="
  M 732.29 109.92
  Q 722.88 119.38 725.82 132.69
  Q 726.02 133.59 725.13 133.84
  L 722.65 134.55
  Q 721.73 134.81 721.53 133.87
  Q 717.86 116.62 730.78 105.33
  A 0.86 0.85 -34.2 0 0 730.98 104.30
  L 729.60 101.59
  Q 729.31 101.01 729.96 101.04
  L 743.71 101.68
  Q 744.34 101.71 743.94 102.19
  L 735.38 112.70
  Q 734.89 113.31 734.57 112.58
  L 733.52 110.16
  A 0.76 0.76 0.0 0 0 732.29 109.92
  Z"
/>
<path fill="#ffffff" d="
  M 175.85 146.31
  A 11.95 11.95 0.0 0 1 163.90 158.26
  A 11.95 11.95 0.0 0 1 151.95 146.31
  A 11.95 11.95 0.0 0 1 163.90 134.36
  A 11.95 11.95 0.0 0 1 175.85 146.31
  Z
  M 171.05 146.32
  A 7.15 7.15 0.0 0 0 163.90 139.17
  A 7.15 7.15 0.0 0 0 156.75 146.32
  A 7.15 7.15 0.0 0 0 163.90 153.47
  A 7.15 7.15 0.0 0 0 171.05 146.32
  Z"
/>
<path fill="#ffffff" d="
  M 738.02 146.30
  A 0.71 0.71 0.0 0 0 738.24 147.46
  C 748.57 151.90 760.24 149.36 766.91 140.04
  A 0.70 0.69 -54.8 0 1 767.87 139.87
  L 770.41 141.62
  A 0.68 0.68 0.0 0 1 770.57 142.58
  C 762.27 154.00 747.04 157.47 734.64 150.51
  Q 734.10 150.21 733.69 150.66
  L 731.52 153.01
  A 0.38 0.38 0.0 0 1 730.88 152.88
  L 726.50 140.02
  A 0.39 0.38 89.6 0 1 726.98 139.53
  L 739.66 143.48
  A 0.59 0.59 0.0 0 1 739.90 144.46
  L 738.02 146.30
  Z"
/>
<path fill="#ffffff" d="
  M 1380.4810 155.6998
  A 0.43 0.43 0.0 0 1 1380.0502 156.1290
  L 1369.6703 156.1109
  A 0.43 0.43 0.0 0 1 1369.2410 155.6802
  L 1369.2590 145.3602
  A 0.43 0.43 0.0 0 1 1369.6898 144.9310
  L 1380.0697 144.9491
  A 0.43 0.43 0.0 0 1 1380.4990 145.3798
  L 1380.4810 155.6998
  Z"
/>
<path fill="#ffffff" d="
  M 1475.1085 155.8306
  A 0.27 0.27 0.0 0 1 1474.8395 156.1015
  L 1464.2795 156.1384
  A 0.27 0.27 0.0 0 1 1464.0086 155.8693
  L 1463.9715 145.2294
  A 0.27 0.27 0.0 0 1 1464.2405 144.9585
  L 1474.8005 144.9216
  A 0.27 0.27 0.0 0 1 1475.0714 145.1907
  L 1475.1085 155.8306
  Z"
/>
<path fill="#ffffff" d="
  M 142.79 167.32
  A 11.95 11.95 0.0 0 1 130.84 179.27
  A 11.95 11.95 0.0 0 1 118.89 167.32
  A 11.95 11.95 0.0 0 1 130.84 155.37
  A 11.95 11.95 0.0 0 1 142.79 167.32
  Z
  M 137.99 167.30
  A 7.15 7.15 0.0 0 0 130.84 160.15
  A 7.15 7.15 0.0 0 0 123.69 167.30
  A 7.15 7.15 0.0 0 0 130.84 174.45
  A 7.15 7.15 0.0 0 0 137.99 167.30
  Z"
/>
<path fill="#ffffff" d="
  M 208.92 167.32
  A 11.95 11.95 0.0 0 1 196.97 179.27
  A 11.95 11.95 0.0 0 1 185.02 167.32
  A 11.95 11.95 0.0 0 1 196.97 155.37
  A 11.95 11.95 0.0 0 1 208.92 167.32
  Z
  M 204.12 167.31
  A 7.15 7.15 0.0 0 0 196.97 160.16
  A 7.15 7.15 0.0 0 0 189.82 167.31
  A 7.15 7.15 0.0 0 0 196.97 174.46
  A 7.15 7.15 0.0 0 0 204.12 167.31
  Z"
/>
<path fill="#ffffff" d="
  M 151.29 184.83
  A 6.04 6.04 0.0 0 1 145.25 178.79
  L 145.25 178.50
  A 18.54 18.51 -0.0 0 1 163.79 159.99
  L 163.97 159.99
  A 18.54 18.51 -0.0 0 1 182.51 178.50
  L 182.51 178.79
  A 6.04 6.04 0.0 0 1 176.47 184.83
  L 151.29 184.83
  Z
  M 151.36 180.10
  L 176.40 180.06
  A 1.37 1.37 0.0 0 0 177.77 178.69
  L 177.77 178.57
  A 13.81 13.76 89.9 0 0 163.99 164.78
  L 163.73 164.78
  A 13.81 13.76 89.9 0 0 149.99 178.61
  L 149.99 178.73
  A 1.37 1.37 0.0 0 0 151.36 180.10
  Z"
/>
<path fill="#ffffff" d="
  M 118.16 205.88
  A 6.04 6.04 0.0 0 1 112.11 199.85
  L 112.11 199.70
  A 18.69 18.50 89.9 0 1 130.58 180.98
  L 130.94 180.98
  A 18.69 18.50 89.9 0 1 149.47 199.64
  L 149.47 199.79
  A 6.04 6.04 0.0 0 1 143.44 205.84
  L 118.16 205.88
  Z
  M 118.25 201.09
  L 143.53 201.13
  A 1.23 1.23 0.0 0 0 144.76 199.90
  L 144.76 199.79
  A 13.76 13.74 -89.9 0 0 131.04 186.01
  L 130.78 186.01
  A 13.76 13.74 -89.9 0 0 117.02 199.75
  L 117.02 199.86
  A 1.23 1.23 0.0 0 0 118.25 201.09
  Z"
/>
<path fill="#ffffff" d="
  M 184.34 205.86
  A 6.04 6.04 0.0 0 1 178.31 199.81
  L 178.31 199.74
  A 18.79 18.49 -89.9 0 1 196.83 180.98
  L 197.21 180.98
  A 18.79 18.49 -89.9 0 1 215.67 199.80
  L 215.67 199.87
  A 6.04 6.04 0.0 0 1 209.62 205.90
  L 184.34 205.86
  Z
  M 184.49 201.15
  L 209.55 201.19
  A 1.41 1.41 0.0 0 0 210.96 199.78
  L 210.96 199.65
  A 13.86 13.81 -89.9 0 0 197.17 185.77
  L 196.91 185.77
  A 13.86 13.81 -89.9 0 0 183.08 199.61
  L 183.08 199.74
  A 1.41 1.41 0.0 0 0 184.49 201.15
  Z"
/>
<path fill="#ffffff" d="
  M 264.74 194.47
  C 268.15 201.46 264.68 210.12 257.95 213.19
  Q 256.85 213.69 255.87 212.76
  C 251.06 208.21 247.97 205.36 248.88 198.25
  C 249.48 193.53 252.16 190.84 255.46 187.48
  Q 257.54 185.37 259.49 187.25
  Q 262.76 190.40 264.74 194.47
  Z
  M 257.4400 207.4700
  A 7.29 3.91 90.0 0 0 261.3500 200.1800
  A 7.29 3.91 90.0 0 0 257.4400 192.8900
  A 7.29 3.91 90.0 0 0 253.5300 200.1800
  A 7.29 3.91 90.0 0 0 257.4400 207.4700
  Z"
/>
<path fill="#ffffff" d="
  M 71.1665 200.0159
  A 2.10 2.10 0.0 0 1 69.0701 202.1196
  L 68.6301 202.1204
  A 2.10 2.10 0.0 0 1 66.5265 200.0240
  L 66.5135 192.6241
  A 2.10 2.10 0.0 0 1 68.6099 190.5204
  L 69.0499 190.5196
  A 2.10 2.10 0.0 0 1 71.1535 192.6160
  L 71.1665 200.0159
  Z"
/>
<path fill="#ffffff" d="
  M 49.4283 210.1842
  A 1.99 1.99 0.0 0 1 46.6140 210.1891
  L 41.2873 204.8809
  A 1.99 1.99 0.0 0 1 41.2823 202.0667
  L 41.6917 201.6558
  A 1.99 1.99 0.0 0 1 44.5060 201.6509
  L 49.8327 206.9591
  A 1.99 1.99 0.0 0 1 49.8377 209.7733
  L 49.4283 210.1842
  Z"
/>
<path fill="#ffffff" d="
  M 96.2895 202.0000
  A 2.06 2.06 0.0 0 1 96.2844 204.9133
  L 91.0285 210.1509
  A 2.06 2.06 0.0 0 1 88.1152 210.1458
  L 87.7905 209.8200
  A 2.06 2.06 0.0 0 1 87.7956 206.9067
  L 93.0515 201.6691
  A 2.06 2.06 0.0 0 1 95.9648 201.6742
  L 96.2895 202.0000
  Z"
/>
<path fill="#ffffff" d="
  M 245.42 223.80
  Q 237.62 219.29 237.86 209.99
  C 237.89 208.94 237.67 206.56 238.23 205.15
  A 1.97 1.96 -65.5 0 1 240.97 204.12
  C 251.99 209.91 257.41 212.83 256.66 226.60
  A 2.13 2.13 0.0 0 1 253.61 228.40
  C 250.92 227.12 248.29 225.46 245.42 223.80
  Z
  M 243.85 210.91
  A 1.05 1.05 0.0 0 0 242.30 212.16
  L 244.17 217.14
  A 1.05 1.05 0.0 0 0 244.58 217.65
  L 250.73 221.66
  A 1.05 1.05 0.0 0 0 252.28 220.40
  L 250.35 215.41
  A 1.05 1.05 0.0 0 0 249.95 214.92
  L 243.85 210.91
  Z"
/>
<path fill="#ffffff" d="
  M 277.08 206.50
  C 277.23 220.96 272.32 222.02 261.07 228.52
  A 1.21 1.19 35.9 0 1 260.19 228.65
  Q 258.18 228.17 258.20 226.00
  C 258.27 218.64 258.35 213.27 265.32 209.07
  Q 269.37 206.64 273.52 204.33
  C 275.22 203.38 277.06 204.63 277.08 206.50
  Z
  M 270.11 217.88
  A 0.95 0.95 0.0 0 0 270.49 217.41
  L 272.53 212.02
  A 0.95 0.95 0.0 0 0 271.13 210.89
  L 264.87 214.90
  A 0.95 0.95 0.0 0 0 264.49 215.37
  L 262.53 220.56
  A 0.95 0.95 0.0 0 0 263.92 221.70
  L 270.11 217.88
  Z"
/>
<path fill="#ffffff" d="
  M 733.36 226.52
  Q 728.81 224.94 724.34 223.26
  Q 718.43 221.04 718.04 215.52
  C 717.35 205.90 729.47 204.22 735.76 206.81
  Q 740.61 208.80 741.58 214.51
  A 0.85 0.85 0.0 0 1 740.74 215.51
  L 736.28 215.50
  Q 735.67 215.50 735.42 214.94
  Q 733.21 209.93 726.88 211.47
  C 721.98 212.67 723.99 216.30 727.43 217.34
  Q 731.34 218.53 735.23 219.76
  Q 743.41 222.35 742.12 231.09
  Q 741.31 236.55 736.41 238.40
  C 728.60 241.36 718.30 239.12 716.81 229.55
  Q 716.69 228.80 717.44 228.70
  L 722.24 228.04
  A 0.65 0.65 0.0 0 1 722.95 228.51
  Q 723.14 229.21 723.79 230.74
  C 725.80 235.52 735.02 235.56 736.09 230.27
  Q 736.62 227.66 733.36 226.52
  Z"
/>
<path fill="#ffffff" d="
  M 367.20 231.46
  L 354.62 231.52
  A 0.50 0.50 0.0 0 0 354.15 231.86
  L 352.07 238.29
  A 0.50 0.50 0.0 0 1 351.59 238.64
  L 345.87 238.59
  A 0.50 0.50 0.0 0 1 345.41 237.92
  L 356.52 207.01
  A 0.50 0.50 0.0 0 1 356.99 206.68
  L 364.96 206.65
  A 0.50 0.50 0.0 0 1 365.43 206.98
  L 376.66 237.88
  A 0.50 0.50 0.0 0 1 376.19 238.55
  L 370.35 238.59
  A 0.50 0.50 0.0 0 1 369.87 238.25
  L 367.68 231.80
  A 0.50 0.50 0.0 0 0 367.20 231.46
  Z
  M 356.25 225.80
  A 0.36 0.36 0.0 0 0 356.59 226.27
  L 365.29 226.21
  A 0.36 0.36 0.0 0 0 365.63 225.74
  L 361.19 212.82
  A 0.36 0.36 0.0 0 0 360.51 212.82
  L 356.25 225.80
  Z"
/>
<path fill="#ffffff" d="
  M 438.28 238.09
  A 0.48 0.48 0.0 0 1 437.80 238.57
  L 432.72 238.57
  A 0.48 0.48 0.0 0 1 432.24 238.09
  L 432.24 207.17
  A 0.48 0.48 0.0 0 1 432.72 206.69
  L 437.80 206.69
  A 0.48 0.48 0.0 0 1 438.28 207.17
  L 438.28 238.09
  Z"
/>
<path fill="#ffffff" d="
  M 628.49 238.02
  A 0.56 0.56 0.0 0 1 627.93 238.58
  L 622.87 238.58
  A 0.56 0.56 0.0 0 1 622.31 238.02
  L 622.31 207.24
  A 0.56 0.56 0.0 0 1 622.87 206.68
  L 627.93 206.68
  A 0.56 0.56 0.0 0 1 628.49 207.24
  L 628.49 238.02
  Z"
/>
<path fill="#ffffff" d="
  M 559.12 225.07
  C 563.74 228.71 565.98 233.55 569.22 238.33
  A 0.11 0.10 -16.7 0 1 569.13 238.49
  L 561.82 238.53
  A 0.39 0.37 -15.8 0 1 561.50 238.36
  Q 556.74 231.35 555.07 228.66
  Q 552.50 224.52 547.63 225.33
  Q 547.25 225.39 547.25 225.78
  L 547.25 238.26
  A 0.26 0.26 0.0 0 1 546.99 238.52
  L 541.03 238.51
  Q 540.81 238.51 540.81 238.29
  L 540.83 207.26
  Q 540.83 206.81 541.28 206.79
  Q 551.22 206.50 558.50 206.86
  C 563.42 207.10 566.24 210.46 566.53 215.24
  Q 566.97 222.20 559.24 224.45
  Q 558.58 224.65 559.12 225.07
  Z
  M 547.22 212.38
  L 547.24 219.62
  A 0.42 0.42 0.0 0 0 547.66 220.04
  L 555.79 220.01
  A 4.35 3.78 -0.2 0 0 560.13 216.22
  L 560.13 215.70
  A 4.35 3.78 -0.2 0 0 555.77 211.93
  L 547.64 211.96
  A 0.42 0.42 0.0 0 0 547.22 212.38
  Z"
/>
<path fill="#ffffff" d="
  M 640.70 211.40
  A 0.54 0.54 0.0 0 1 640.16 211.94
  L 635.10 211.94
  A 0.54 0.54 0.0 0 1 634.56 211.40
  L 634.56 207.28
  A 0.54 0.54 0.0 0 1 635.10 206.74
  L 640.16 206.74
  A 0.54 0.54 0.0 0 1 640.70 207.28
  L 640.70 211.40
  Z"
/>
<path fill="#ffffff" d="
  M 845.4684 211.4325
  A 0.57 0.57 0.0 0 1 844.8924 211.9965
  L 839.8127 211.9433
  A 0.57 0.57 0.0 0 1 839.2487 211.3673
  L 839.2916 207.2675
  A 0.57 0.57 0.0 0 1 839.8676 206.7035
  L 844.9473 206.7567
  A 0.57 0.57 0.0 0 1 845.5113 207.3327
  L 845.4684 211.4325
  Z"
/>
<path fill="#ffffff" d="
  M 806.32 220.52
  L 806.41 232.66
  A 1.58 1.57 86.4 0 0 808.16 234.21
  L 809.82 234.01
  Q 810.72 233.91 810.83 234.81
  L 811.07 236.81
  A 1.16 1.15 -12.2 0 1 810.27 238.04
  C 806.81 239.15 801.52 238.90 800.63 234.63
  Q 799.78 230.52 800.46 220.64
  A 0.60 0.59 -85.6 0 0 799.92 220.00
  L 797.95 219.84
  A 0.76 0.76 0.0 0 1 797.26 219.13
  Q 797.20 217.89 797.41 216.50
  Q 797.57 215.43 799.31 215.50
  Q 800.34 215.55 800.27 214.52
  L 800.11 212.10
  Q 800.06 211.42 800.64 211.07
  L 805.72 207.97
  Q 806.25 207.64 806.30 208.27
  Q 806.53 211.55 806.23 214.76
  Q 806.13 215.85 809.59 215.56
  Q 810.63 215.47 810.64 216.51
  L 810.67 219.03
  Q 810.69 220.01 809.71 219.97
  L 806.98 219.89
  Q 806.32 219.87 806.32 220.52
  Z"
/>
<path fill="#ffffff" d="
  M 78.92 250.87
  C 79.15 254.50 79.44 259.12 77.64 262.16
  C 75.15 266.36 69.69 267.25 65.16 266.22
  C 57.10 264.39 57.90 257.36 58.00 251.14
  A 1.77 1.76 -72.9 0 0 57.21 249.65
  Q 48.85 244.08 47.12 235.08
  C 42.52 211.15 74.50 199.34 87.23 219.97
  C 93.50 230.12 89.64 243.43 79.53 249.69
  A 1.28 1.26 -18.2 0 0 78.92 250.87
  Z
  M 61.03 215.68
  C 49.45 221.15 48.35 236.36 57.92 244.36
  Q 60.03 246.13 61.49 246.12
  Q 68.12 246.12 74.75 246.16
  Q 76.33 246.17 77.12 245.65
  C 95.54 233.46 80.32 206.56 61.03 215.68
  Z
  M 73.70 250.76
  L 63.28 250.74
  A 0.56 0.56 0.0 0 0 62.72 251.30
  L 62.71 257.30
  A 4.46 4.44 0.1 0 0 67.16 261.75
  L 69.78 261.75
  A 4.46 4.44 0.1 0 0 74.25 257.32
  L 74.26 251.32
  A 0.56 0.56 0.0 0 0 73.70 250.76
  Z"
/>
<path fill="#ffffff" d="
  M 385.92 217.19
  Q 385.69 218.52 386.74 217.67
  Q 391.56 213.74 396.28 215.03
  Q 400.89 216.28 401.05 221.76
  Q 401.28 230.08 401.31 237.95
  Q 401.32 238.53 400.74 238.53
  L 395.58 238.53
  A 0.45 0.45 0.0 0 1 395.13 238.08
  L 395.07 221.96
  A 2.99 2.99 0.0 0 0 391.83 219.00
  L 390.64 219.09
  Q 386.48 219.43 386.47 223.61
  L 386.41 238.05
  A 0.58 0.58 0.0 0 1 385.83 238.62
  L 380.79 238.58
  Q 380.25 238.57 380.25 238.04
  L 380.25 216.25
  Q 380.25 215.49 381.00 215.49
  L 385.02 215.52
  A 0.81 0.80 -11.7 0 1 385.76 216.00
  Q 386.02 216.58 385.92 217.19
  Z"
/>
<path fill="#ffffff" d="
  M 419.89 236.03
  C 414.69 240.40 405.34 239.22 405.74 231.01
  C 406.04 224.99 412.88 224.32 418.44 223.19
  Q 420.49 222.77 419.79 220.62
  A 1.19 1.19 0.0 0 0 419.25 219.95
  Q 414.91 217.41 411.96 221.15
  Q 411.57 221.64 410.94 221.54
  L 407.15 220.93
  Q 406.60 220.84 406.75 220.30
  C 408.72 213.17 422.04 212.61 425.25 218.49
  C 426.80 221.33 425.62 231.06 425.75 233.26
  Q 425.88 235.55 427.02 237.78
  Q 427.44 238.59 426.52 238.59
  L 422.23 238.59
  Q 421.34 238.59 421.10 237.73
  L 420.70 236.29
  Q 420.49 235.53 419.89 236.03
  Z
  M 411.74 230.98
  C 411.41 235.80 420.59 235.58 419.88 227.87
  A 0.70 0.70 0.0 0 0 419.04 227.25
  C 416.78 227.71 411.92 228.33 411.74 230.98
  Z"
/>
<path fill="#ffffff" d="
  M 577.17 228.49
  C 577.69 233.29 583.92 237.59 585.91 230.88
  Q 585.99 230.59 586.28 230.64
  L 591.84 231.54
  A 0.28 0.27 -74.9 0 1 592.05 231.92
  Q 589.26 238.66 581.76 238.52
  C 573.12 238.36 570.06 231.01 571.50 223.51
  C 574.16 209.67 593.89 212.70 592.42 227.34
  Q 592.36 227.89 591.81 227.89
  L 577.72 227.88
  Q 577.10 227.88 577.17 228.49
  Z
  M 578.17 224.49
  L 585.65 224.55
  A 0.81 0.81 0.0 0 0 586.47 223.74
  L 586.47 223.59
  A 4.54 4.46 -89.6 0 0 582.04 219.02
  L 581.86 219.02
  A 4.54 4.46 -89.6 0 0 577.37 223.53
  L 577.37 223.68
  A 0.81 0.81 0.0 0 0 578.17 224.49
  Z"
/>
<path fill="#ffffff" d="
  M 610.99 236.25
  A 0.40 0.40 0.0 0 0 610.34 235.99
  C 605.89 239.71 596.55 239.89 596.18 232.24
  C 595.80 224.44 603.64 224.40 609.04 223.08
  A 1.64 1.63 74.6 0 0 610.21 221.01
  Q 609.81 219.71 608.51 219.29
  Q 604.50 218.01 602.19 221.25
  Q 601.90 221.65 601.41 221.57
  L 597.53 220.94
  Q 596.97 220.85 597.09 220.29
  C 598.54 213.97 607.67 213.84 612.26 215.46
  C 615.52 216.61 616.19 219.73 616.17 223.50
  C 616.14 228.47 615.37 233.32 617.38 238.03
  A 0.40 0.40 0.0 0 1 617.02 238.59
  L 612.57 238.57
  Q 611.93 238.57 611.61 238.03
  Q 611.11 237.21 610.99 236.25
  Z
  M 608.21 227.08
  L 602.52 229.39
  A 1.33 1.33 0.0 0 0 601.79 231.13
  L 601.89 231.38
  A 4.36 4.18 67.9 0 0 607.41 233.84
  L 607.81 233.68
  A 4.36 4.18 67.9 0 0 610.05 228.07
  L 609.95 227.82
  A 1.33 1.33 0.0 0 0 608.21 227.08
  Z"
/>
<path fill="#ffffff" d="
  M 674.98 227.88
  Q 672.73 227.87 673.60 229.95
  L 674.29 231.60
  Q 675.28 233.97 677.84 234.16
  Q 681.05 234.40 681.87 231.34
  A 0.86 0.85 11.3 0 1 682.82 230.71
  L 687.55 231.41
  Q 688.41 231.54 688.05 232.34
  Q 684.95 239.16 677.01 238.51
  C 664.53 237.49 664.25 218.13 674.75 215.16
  C 683.39 212.72 688.89 218.99 688.77 227.26
  A 0.65 0.64 0.4 0 1 688.12 227.89
  L 674.98 227.88
  Z
  M 674.23 224.48
  L 681.95 224.50
  A 0.75 0.75 0.0 0 0 682.70 223.76
  L 682.70 223.63
  A 4.58 4.52 -89.8 0 0 678.20 219.03
  L 678.02 219.03
  A 4.58 4.52 -89.8 0 0 673.48 223.59
  L 673.48 223.72
  A 0.75 0.75 0.0 0 0 674.23 224.48
  Z"
/>
<path fill="#ffffff" d="
  M 827.09 236.15
  C 822.95 239.42 814.12 239.94 813.24 232.99
  C 812.18 224.65 820.35 224.36 826.00 223.13
  Q 827.24 222.87 827.15 221.61
  Q 827.01 219.64 825.53 219.20
  Q 821.52 218.01 819.21 221.18
  A 0.98 0.98 0.0 0 1 818.24 221.57
  L 814.37 220.86
  Q 813.78 220.75 813.98 220.18
  C 816.29 213.80 825.72 213.43 830.32 215.92
  Q 833.48 217.64 833.35 222.51
  C 833.21 227.72 832.28 232.72 834.29 237.83
  Q 834.62 238.64 833.74 238.62
  L 829.28 238.50
  Q 828.52 238.49 828.32 237.76
  L 827.95 236.43
  Q 827.73 235.64 827.09 236.15
  Z
  M 819.07 231.14
  C 819.94 236.74 828.73 234.39 826.93 227.54
  Q 826.81 227.11 826.37 227.22
  L 820.73 228.64
  A 2.23 2.22 78.6 0 0 819.07 231.14
  Z"
/>
<path fill="#ffffff" d="
  M 495.69 228.47
  Q 496.06 233.73 501.21 234.24
  A 1.09 1.07 36.8 0 0 501.73 234.17
  Q 503.49 233.46 504.12 231.74
  Q 504.53 230.63 505.70 230.81
  L 509.56 231.42
  Q 510.82 231.62 510.22 232.74
  Q 506.48 239.77 498.22 238.39
  C 485.50 236.26 486.75 213.67 501.74 214.72
  C 507.98 215.16 511.36 221.22 511.03 226.92
  Q 510.97 227.89 510.00 227.89
  L 496.25 227.88
  Q 495.65 227.88 495.69 228.47
  Z
  M 496.52 224.48
  L 504.30 224.48
  A 0.74 0.74 0.0 0 0 505.04 223.74
  L 505.04 223.61
  A 4.59 4.54 -90.0 0 0 500.50 219.02
  L 500.32 219.02
  A 4.59 4.54 90.0 0 0 495.78 223.61
  L 495.78 223.74
  A 0.74 0.74 0.0 0 0 496.52 224.48
  Z"
/>
<path fill="#ffffff" d="
  M 779.92 221.90
  A 2.36 2.36 0.0 0 0 781.19 222.66
  C 784.61 223.41 790.58 224.41 792.99 226.93
  C 795.70 229.77 794.62 234.78 791.40 236.66
  C 785.64 240.02 776.68 239.33 773.38 232.78
  A 0.99 0.98 72.1 0 1 774.10 231.36
  L 777.81 230.78
  Q 779.15 230.57 779.65 231.82
  C 780.84 234.78 787.11 235.14 788.27 232.56
  A 1.94 1.94 0.0 0 0 786.80 229.85
  C 781.69 229.03 770.90 227.04 774.41 218.99
  C 776.23 214.80 782.33 214.30 786.26 214.75
  Q 791.65 215.36 793.60 220.31
  A 0.42 0.42 0.0 0 1 793.27 220.88
  L 789.02 221.51
  Q 788.49 221.59 788.13 221.20
  Q 784.89 217.69 780.28 219.78
  Q 778.71 220.50 779.92 221.90
  Z"
/>
<path fill="#ffffff" d="
  M 857.26 217.51
  A 0.55 0.55 0.0 0 0 858.23 217.86
  Q 861.08 214.36 865.38 214.68
  C 870.58 215.05 872.52 218.29 872.54 223.26
  Q 872.58 230.99 872.57 238.10
  Q 872.57 238.61 872.05 238.61
  L 866.96 238.53
  Q 866.43 238.53 866.44 238.00
  Q 866.70 223.52 865.83 221.31
  Q 864.83 218.75 862.25 219.03
  C 857.92 219.52 857.76 223.30 857.73 226.75
  Q 857.68 232.78 857.78 237.93
  Q 857.79 238.50 857.22 238.51
  L 852.33 238.62
  Q 851.52 238.64 851.52 237.83
  L 851.53 216.23
  Q 851.53 215.49 852.27 215.50
  L 856.51 215.51
  A 0.76 0.75 0.0 0 1 857.27 216.26
  L 857.26 217.51
  Z"
/>
<path fill="#ffffff" d="
  M 453.30 231.00
  A 0.33 0.33 0.0 0 0 453.92 230.99
  L 459.05 215.85
  Q 459.15 215.54 459.47 215.54
  L 464.84 215.56
  A 0.28 0.27 10.2 0 1 465.10 215.93
  Q 461.35 226.09 457.63 236.17
  C 454.82 243.78 453.55 248.94 444.48 247.20
  Q 443.69 247.05 443.58 246.25
  L 443.24 243.80
  Q 443.12 242.89 444.03 242.96
  C 448.55 243.30 451.38 241.17 449.54 236.40
  Q 445.62 226.27 441.79 216.59
  Q 441.37 215.52 442.52 215.52
  L 446.69 215.50
  Q 447.77 215.50 448.13 216.51
  L 453.30 231.00
  Z"
/>
<path fill="#ffffff" d="
  M 475.29 234.19
  L 486.61 234.26
  Q 487.21 234.27 487.22 234.86
  L 487.27 237.75
  Q 487.28 238.54 486.50 238.54
  L 467.30 238.53
  Q 466.88 238.53 466.79 238.13
  Q 466.10 235.08 467.29 233.54
  Q 472.45 226.86 477.83 220.67
  A 0.44 0.44 0.0 0 0 477.50 219.94
  L 468.21 219.92
  Q 467.51 219.92 467.51 219.21
  L 467.50 216.26
  A 0.74 0.74 0.0 0 1 468.24 215.52
  L 485.47 215.53
  Q 486.09 215.53 486.24 216.14
  C 486.80 218.49 486.15 220.36 484.53 222.27
  Q 479.75 227.92 475.00 233.58
  Q 474.50 234.18 475.29 234.19
  Z"
/>
<path fill="#ffffff" d="
  M 640.7690 237.9546
  A 0.62 0.62 0.0 0 1 640.1501 238.5757
  L 635.1901 238.5843
  A 0.62 0.62 0.0 0 1 634.5690 237.9654
  L 634.5310 216.1654
  A 0.62 0.62 0.0 0 1 635.1499 215.5443
  L 640.1099 215.5357
  A 0.62 0.62 0.0 0 1 640.7310 216.1546
  L 640.7690 237.9546
  Z"
/>
<path fill="#ffffff" d="
  M 653.28 234.23
  L 663.99 234.24
  Q 664.99 234.24 665.00 235.24
  L 665.01 237.75
  Q 665.02 238.53 664.25 238.53
  L 645.18 238.56
  Q 644.62 238.56 644.45 238.03
  Q 643.54 235.26 645.17 233.21
  Q 650.24 226.80 655.39 220.77
  A 0.50 0.50 0.0 0 0 655.02 219.94
  L 645.71 219.93
  Q 645.24 219.93 645.24 219.46
  L 645.21 216.03
  Q 645.21 215.52 645.72 215.52
  L 663.13 215.53
  A 0.95 0.95 0.0 0 1 664.08 216.51
  L 663.97 219.57
  Q 663.95 220.14 663.59 220.57
  L 652.87 233.36
  A 0.53 0.53 0.0 0 0 653.28 234.23
  Z"
/>
<path fill="#ffffff" d="
  M 762.76 235.78
  Q 758.14 239.91 752.48 238.04
  C 748.74 236.81 748.11 233.51 748.06 229.67
  Q 747.96 222.64 748.02 216.02
  Q 748.02 215.52 748.52 215.52
  L 753.76 215.54
  A 0.47 0.47 0.0 0 1 754.23 216.01
  L 754.21 230.53
  Q 754.21 234.92 758.53 234.16
  L 759.55 233.98
  A 3.85 3.84 85.1 0 0 762.72 230.20
  L 762.76 216.24
  A 0.75 0.74 0.0 0 1 763.51 215.50
  L 767.97 215.55
  Q 768.88 215.56 768.88 216.47
  L 768.87 237.57
  Q 768.87 238.51 767.93 238.53
  L 764.29 238.62
  A 0.87 0.86 -2.0 0 1 763.40 237.80
  L 763.32 236.02
  Q 763.28 235.31 762.76 235.78
  Z"
/>
<path fill="#ffffff" d="
  M 845.48 237.90
  A 0.67 0.67 0.0 0 1 844.81 238.57
  L 839.95 238.57
  A 0.67 0.67 0.0 0 1 839.28 237.90
  L 839.28 216.20
  A 0.67 0.67 0.0 0 1 839.95 215.53
  L 844.81 215.53
  A 0.67 0.67 0.0 0 1 845.48 216.20
  L 845.48 237.90
  Z"
/>
<path fill="#ffffff" d="
  M 252.87 246.89
  C 241.88 240.56 237.28 238.79 237.95 224.68
  A 2.24 2.00 -5.7 0 1 239.69 222.79
  Q 240.51 222.61 241.73 223.30
  C 247.78 226.72 255.15 229.75 256.37 237.37
  C 256.82 240.15 257.91 249.79 252.87 246.89
  Z
  M 251.9555 239.9889
  A 6.83 2.39 46.8 0 0 249.0222 233.3739
  A 6.83 2.39 46.8 0 0 242.6045 230.0311
  A 6.83 2.39 46.8 0 0 245.5378 236.6461
  A 6.83 2.39 46.8 0 0 251.9555 239.9889
  Z"
/>
<path fill="#ffffff" d="
  M 276.08 235.06
  C 273.50 241.50 267.60 243.62 262.09 246.89
  A 2.85 2.19 13.7 0 1 261.57 247.12
  Q 258.62 248.03 258.44 245.49
  C 258.02 239.82 257.86 235.44 261.68 230.89
  C 264.14 227.95 269.09 225.72 272.76 223.53
  C 279.34 219.60 276.84 233.17 276.08 235.06
  Z
  M 270.15 236.60
  A 0.90 0.90 0.0 0 0 270.51 236.17
  L 272.69 230.61
  A 0.90 0.90 0.0 0 0 271.36 229.53
  L 264.69 233.92
  A 0.90 0.90 0.0 0 0 264.34 234.37
  L 262.49 239.60
  A 0.90 0.90 0.0 0 0 263.82 240.66
  L 270.15 236.60
  Z"
/>
<path fill="#ffffff" d="
  M 41.6688 229.4103
  A 2.11 2.11 0.0 0 1 39.5441 231.5056
  L 32.2043 231.4543
  A 2.11 2.11 0.0 0 1 30.1091 229.3296
  L 30.1112 229.0297
  A 2.11 2.11 0.0 0 1 32.2359 226.9344
  L 39.5757 226.9857
  A 2.11 2.11 0.0 0 1 41.6709 229.1104
  L 41.6688 229.4103
  Z"
/>
<path fill="#ffffff" d="
  M 107.51 229.50
  A 1.96 1.96 0.0 0 1 105.55 231.46
  L 97.91 231.46
  A 1.96 1.96 0.0 0 1 95.95 229.50
  L 95.95 228.92
  A 1.96 1.96 0.0 0 1 97.91 226.96
  L 105.55 226.96
  A 1.96 1.96 0.0 0 1 107.51 228.92
  L 107.51 229.50
  Z"
/>
<path fill="#ffffff" d="
  M 700.0003 238.2708
  A 0.26 0.26 0.0 0 1 699.7394 238.5299
  L 694.0394 238.5100
  A 0.26 0.26 0.0 0 1 693.7803 238.2491
  L 693.7997 232.7092
  A 0.26 0.26 0.0 0 1 694.0606 232.4501
  L 699.7606 232.4700
  A 0.26 0.26 0.0 0 1 700.0197 232.7309
  L 700.0003 238.2708
  Z"
/>
<path fill="#ffffff" d="
  M 884.7557 237.9653
  A 0.60 0.60 0.0 0 1 884.1546 238.5643
  L 879.2546 238.5557
  A 0.60 0.60 0.0 0 1 878.6557 237.9547
  L 878.6643 233.0147
  A 0.60 0.60 0.0 0 1 879.2654 232.4157
  L 884.1654 232.4243
  A 0.60 0.60 0.0 0 1 884.7643 233.0253
  L 884.7557 237.9653
  Z"
/>
<path fill="#ffffff" d="
  M 522.3344 238.2340
  A 0.27 0.27 0.0 0 1 522.0658 238.5054
  L 516.5059 238.5345
  A 0.27 0.27 0.0 0 1 516.2345 238.2659
  L 516.2056 232.7460
  A 0.27 0.27 0.0 0 1 516.4742 232.4746
  L 522.0341 232.4455
  A 0.27 0.27 0.0 0 1 522.3055 232.7141
  L 522.3344 238.2340
  Z"
/>
<path fill="#ffffff" d="
  M 252.55 265.58
  C 242.66 260.35 235.75 255.99 238.16 243.25
  A 1.98 1.98 0.0 0 1 241.00 241.86
  C 251.01 246.95 258.31 251.09 256.61 264.11
  C 256.28 266.59 254.38 266.55 252.55 265.58
  Z
  M 251.9380 258.9451
  A 6.83 2.39 47.0 0 0 249.0279 252.3200
  A 6.83 2.39 47.0 0 0 242.6220 248.9549
  A 6.83 2.39 47.0 0 0 245.5321 255.5800
  A 6.83 2.39 47.0 0 0 251.9380 258.9451
  Z"
/>
<path fill="#ffffff" d="
  M 275.58 255.07
  C 273.33 260.22 266.19 263.46 261.47 266.05
  A 2.15 2.14 -15.1 0 1 258.29 264.23
  C 258.15 259.20 257.85 255.03 260.87 250.75
  C 263.27 247.36 270.26 243.55 273.72 241.88
  Q 275.21 241.16 276.19 242.20
  C 278.29 244.43 276.64 252.65 275.58 255.07
  Z
  M 270.05 255.61
  A 0.89 0.89 0.0 0 0 270.41 255.18
  L 272.60 249.57
  A 0.89 0.89 0.0 0 0 271.30 248.49
  L 264.82 252.59
  A 0.89 0.89 0.0 0 0 264.47 253.03
  L 262.46 258.48
  A 0.89 0.89 0.0 0 0 263.77 259.54
  L 270.05 255.61
  Z"
/>
<path fill="#ffffff" d="
  M 115.23 264.23
  C 149.26 282.56 189.67 279.42 221.88 258.89
  Q 224.01 257.53 224.87 259.90
  L 224.99 260.23
  Q 225.85 262.61 223.70 263.92
  C 188.70 285.38 148.35 287.40 112.34 268.65
  A 0.66 0.66 0.0 0 0 111.48 268.87
  L 106.34 276.44
  A 1.79 1.78 39.5 0 1 103.60 276.70
  Q 102.57 275.66 101.75 274.03
  Q 96.60 263.73 91.72 253.76
  A 2.16 2.15 -11.5 0 1 93.78 250.66
  L 118.28 252.03
  A 1.60 1.30 50.8 0 1 118.72 252.12
  C 120.94 252.96 120.82 254.59 119.73 256.23
  Q 117.35 259.83 115.03 263.46
  Q 114.71 263.95 115.23 264.23
  Z
  M 97.72 255.15
  A 0.34 0.34 0.0 0 0 97.40 255.65
  L 104.77 270.31
  A 0.34 0.34 0.0 0 0 105.36 270.34
  L 114.28 256.67
  A 0.34 0.34 0.0 0 0 114.02 256.14
  L 97.72 255.15
  Z"
/>
</svg>
